<?xml version="1.0" encoding="utf-8"?>
<!-- Generator: Adobe Illustrator 19.2.1, SVG Export Plug-In . SVG Version: 6.00 Build 0)  -->
<svg version="1.1" id="Layer_1" xmlns="http://www.w3.org/2000/svg" xmlns:xlink="http://www.w3.org/1999/xlink" x="0px" y="0px"
	 viewBox="0 0 32 32" enable-background="new 0 0 32 32" xml:space="preserve">
<g>
	<g>
		<path fill="#B4293A" d="M20.3,15.6c-1-0.4-0.3-1.9-0.3-1.9l1.1-0.9c0,0,0.3,0.1,0.6-0.1C22.1,12.4,22,12,22,12l0.8-0.8
			c0,0,0.3-0.1-0.9-1c-1.2-0.9-1.5-0.4-1.5-0.4l-0.8,0.6c0,0-0.3,0-0.5,0.1c-0.2,0.1,0,0.5,0,0.5l-4,3.3l-2-4.7c0,0,0.2-0.2,0.1-0.5
			c-0.1-0.3-0.4-0.2-0.4-0.2c-0.4-0.9-0.6-0.9-0.6-0.9c-1.7-0.3-2.3,0.7-2.3,0.7C9.6,8.7,9.9,9.3,9.9,9.3S9.6,9.4,9.7,9.8
			c0.2,0.7,0.6,0.4,0.6,0.4l2.7,5.8c0,0.5-2.1,8.1-2.1,8.1c1.6,1.6,3.9,0.9,3.9,0.9c0-1,1.1-6.6,1.1-6.6c1.3,1.1,2.6,1.3,3.1,1.4
			c0,0.4,0.1,0.7,0.1,0.7s1.9,0.7,2.8-0.8c0.1-0.1,0.1-0.2,0.1-0.3l0,0c0,0,1.1-0.4,1.1-1.3C23.1,16.8,21.3,16,20.3,15.6z
			 M22.2,19.1c0.2-0.7-0.2-1-0.2-1s-0.1,0.6-1.2,0.9c-1,0.3-1.4-0.2-1.4-0.2s-0.2,0.3-0.3,0.7c-2.3-0.3-2.9-1.6-3.1-1.8
			c-0.1-0.3,0.1-1,0.1-1l2.9-2.2c-0.2,1.4,1.3,1.8,1.3,1.8s2.3,0.8,2.3,2C22.7,18.7,22.4,19,22.2,19.1z"/>
	</g>
</g>
</svg>
