<?xml version="1.0" encoding="UTF-8" standalone="no"?>
<svg
   xmlns:dc="http://purl.org/dc/elements/1.1/"
   xmlns:cc="http://creativecommons.org/ns#"
   xmlns:rdf="http://www.w3.org/1999/02/22-rdf-syntax-ns#"
   xmlns:svg="http://www.w3.org/2000/svg"
   xmlns="http://www.w3.org/2000/svg"
   xmlns:sodipodi="http://sodipodi.sourceforge.net/DTD/sodipodi-0.dtd"
   xmlns:inkscape="http://www.inkscape.org/namespaces/inkscape"
   viewBox="-178.3 659.6 1000 700"
   version="1.1"
   id="svg3838"
   sodipodi:docname="ava.svg"
   inkscape:version="0.92.5 (0.92.5+69)">
  <metadata
     id="metadata3844">
    <rdf:RDF>
      <cc:Work
         rdf:about="">
        <dc:format>image/svg+xml</dc:format>
        <dc:type
           rdf:resource="http://purl.org/dc/dcmitype/StillImage" />
      </cc:Work>
    </rdf:RDF>
  </metadata>
  <defs
     id="defs3842" />
  <sodipodi:namedview
     pagecolor="#ffffff"
     bordercolor="#666666"
     borderopacity="1"
     objecttolerance="10"
     gridtolerance="10"
     guidetolerance="10"
     inkscape:pageopacity="0"
     inkscape:pageshadow="2"
     inkscape:window-width="1613"
     inkscape:window-height="995"
     id="namedview3840"
     showgrid="false"
     inkscape:zoom="0.33714286"
     inkscape:cx="500"
     inkscape:cy="350"
     inkscape:window-x="67"
     inkscape:window-y="27"
     inkscape:window-maximized="1"
     inkscape:current-layer="svg3838" />
  <path
     style="fill:#4b4b77"
     d="m 339.91695,801.8661 c 9.8,6.1 16.7,13.6 20.8,22.3 6.1,14 12.9,29.2 20.3,45.7 7.4,16.5 14.9,33.2 22.3,50.1 7.4,16.9 14.6,33.4 21.4,49.4 6.8,16 13,30.7 18.4,44 5.4,13.3 9.7,24.6 12.9,33.9 3.2,9.3 4.8,15.5 4.8,18.4 0,5 -0.7,9.8 -2,14.6 -1.3,4.8 -3.7,9.2 -7.2,13.1 -3.5,3.9 -8.4,7.1 -14.6,9.4 -6.3,2.3 -14.4,3.5 -24.3,3.5 -10.5,0 -19,-1.4 -25.6,-4.2 -6.6,-2.8 -12,-6.3 -16.4,-10.7 -4.4,-4.4 -8,-9 -10.9,-13.8 -2.9,-4.8 -5.9,-9.4 -9,-13.8 -3.1,-4.4 -6.6,-7.9 -10.5,-10.7 -3.9,-2.8 -9.3,-4.2 -16,-4.2 h -28 c -8.2,0 -14.6,1.4 -19.5,4.2 -4.8,2.8 -8.7,6.3 -11.8,10.7 -3.1,4.4 -5.9,9 -8.5,13.8 -2.6,4.8 -6,9.4 -10.1,13.8 -4.1,4.4 -9.4,7.9 -16,10.7 -6.6,2.8 -15.4,4.2 -26.5,4.2 -16.3,0 -28.3,-3.6 -35.9,-10.9 -7.6,-7.3 -11.4,-15.9 -11.4,-25.8 0,-3.8 1.5,-10.4 4.6,-19.9 3.1,-9.5 7.2,-20.8 12.5,-33.9 5.2,-13.1 11.2,-27.7 17.9,-43.7 6.7,-16 13.8,-32.6 21.4,-49.6 7.6,-17.1 15.2,-34.1 22.7,-51.2 7.6,-17.1 14.9,-33.5 21.9,-49.2 4.1,-9 10.9,-16.2 20.3,-21.4 9.5,-5.2 20,-7.9 31.7,-7.9 10.5,-0.1 20.5,3 30.3,9.1 z"
     id="path3834"
     inkscape:connector-curvature="0" />
  <path
     style="fill:#e0c7c1"
     d="m 308.91695,1232.5661 c 2.4,0 4.7,-1.3 5.8,-3.5 0,-0.1 9.5,-17.6 18.9,-38.3 4.7,-10.4 9.5,-21.5 13.1,-31.8 1.8,-5.2 3.3,-10.1 4.4,-14.6 1.1,-4.6 1.8,-8.8 1.8,-12.6 0,-14.9 -5.5,-28.2 -14.7,-37.4 -7.7,-7.7 -18.1,-12.4 -29.4,-12.4 -11.3,0 -21.7,4.7 -29.4,12.4 -9.1,9.1 -14.7,22.4 -14.7,37.4 0,3.9 0.7,8.1 1.8,12.6 1.9,8 5.2,17.1 8.9,26.5 11.3,28.1 27.5,58.1 27.5,58.3 1.3,2 3.5,3.4 6,3.4 z"
     id="path3836"
     inkscape:connector-curvature="0" />
</svg>
