<svg height="32" viewBox="0 0 32 32" width="32" xmlns="http://www.w3.org/2000/svg">
  <path fill="#cbcb41" d="m15.3590734 7.38019169 1.8764478-1.68690096c.4864865-.77316293.7644788-1.68690095.7644788-2.67092651v-.21086262c0-.21086262-.0694981-.42172524-.1389961-.56230032-.3474904-.7028754-.972973-1.19488818-1.7374518-1.47603834-.6949807-.49201278-1.9459459-.7028754-3.7528957-.77316294-2.015444.28115016-3.96138999.77316294-5.7683398 1.54632588-.69498069.49201278-1.45945946.98402556-2.22393822 1.4057508v.14057508c.06949807 0 .13899614-.07028754.20849421-.07028754s.13899614 0 .13899614.07028754l.13899613-.07028754h.06949807v.07028754s-.06949807.14057508-.34749034.28115016c-.27799228.14057508-.6949807.49201278-1.25096525.91373802l.2084942.14057508-.13899613-.07028754c0 .07028754-.06949807.07028754-.20849421.07028754v.07028754l.13899614.21086262c-.06949807 0-.13899614 0-.20849421-.07028754-.41698842.07028754-.76447877.3514377-.97297298.7028754v.28115015c.13899614-.14057507.27799228-.28115015.48648649-.42172523v.21086262h-.06949807l-.13899614.07028754v.07028753l.13899614.21086262v.07028754c.06949807-.14057508.13899614-.21086262.20849421-.28115016l.20849421-.21086261.13899614-.14057508.13899614-.14057508.06949807-.07028754.34749034-.21086262c.20849421.07028754.27799228.14057508.27799228.21086262h.13899614c1.04247104-.77316294 2.15444015-1.4057508 3.33590734-1.82747604v.14057508c-.06949807.14057508-.20849421.28115016-.27799228.3514377s-.06949807.07028754-.13899614.07028754c0 .07028754.06949807.21086262.13899614.28115016-.41698842 1.33546326-.90347491 2.60063897-1.52895753 3.79552715-1.5984556 4.21725237-3.47490348 8.29392967-5.62934363 12.23003197 0 .0702875.06949807.1405751.06949807.2108626l.20849421-.0702875c.20849421-.0702876.34749034-.1405751.48648648-.2108627h.06949807v.1405751h.13899614l.13899614-.0702875h.13899614v.2811501c-.06949807.1405751-.13899614.3514377-.20849421.4920128-.20849421.3514377-.41698842.7028754-.48648648 1.1246007v.0702875h.2084942l.20849421-.2811502c.48648649-.5623003.90347491-1.1246006 1.18146718-1.7571885l.6949807-.2108626c.48648649-.1405751.9034749-.2811501 1.25096525-.4217252l.13899614-.0702876c.69498069-.2811501 1.38996139-.5623003 2.08494208-.913738.76447877 0 1.5984556-.2811501 2.22393823-.7731629v-.0702876l-.34749035.1405751h-.06949807v-.1405751c.55598456-.0702875 1.04247104-.2108626 1.45945946-.4920127 1.38996141-1.0543131 2.43243241-1.8274761 3.12741311-2.3194889 2.1544402-1.6166134 3.1969112-3.1629393 3.1274131-4.6389776-.3474903-.56230031-.7644787-1.12460063-1.2509652-1.54632587l-.2084942-.28115016c0-.14057508.2779923-.42172524.972973-.84345048zm-3.3359074 5.34185301-1.9459459 1.5463259c-.76447879.4920128-1.52895755.9840256-2.29343632 1.4057508-1.25096525.7731629-2.57142857 1.4057508-3.96138996 1.8977636-.06949807 0-.20849421.0702875-.27799228.0702875h-.06949807c.06949807-.2811501 1.11196912-2.3194888 3.05791506-6.255591 1.38996139-.2108627 2.77992278-.6325879 4.03088807-1.1948882l.4864865-.0702875c.7644787-.14057513 1.5289575.0702875 2.084942.5623003v.2811501c-.3474903.9840256-.6949807 1.5463259-1.1119691 1.7571885zm1.1814672-6.39616611c-.4864865.49201278-1.042471.91373802-1.6679537 1.26517572-1.1119691.3514377-2.22393819.77316294-3.26640923 1.33546326-.06949807 0-.06949807 0-.13899614-.07028754h-.20849421v-.14057508c0-.3514377.13899614-.77316294.34749035-1.0543131.13899614-.77316294.27799228-1.26517572.48648649-1.33546326l1.59845564-3.58466453c0-.21086262.3474903-.42172524 1.042471-.49201278h.2084942v.21086262c.6949807-.14057508 1.1119691-.14057508 1.2509653-.14057508 1.1814671-.14057508 1.8069498.14057508 1.9459459.63258786v.14057508h.1389961v-.49201278h.1389962c.2779923.14057508.4864865.3514377.5559845.63258786v.14057508c0 .28115016-.1389961.56230032-.3474903.77316294-.0694981 0-.1389961-.07028754-.1389961-.21086262h-.1389962v.42172524c-.6254826.98402556-1.1119691 1.47603833-1.3899614 1.47603833-.2084942.28115016-.3474903.42172524-.4169884.49201278z" transform="translate(7 5)"/>
</svg>
