<svg xmlns="http://www.w3.org/2000/svg" xmlns:xlink="http://www.w3.org/1999/xlink" viewBox="0 0 150 150">
  <path fill="#ffa000" d="M23.8333 111.7187L39.9655 8.4906c.1972-1.266 1.1818-2.264 2.445-2.4786s2.522.4028 3.126 1.5327L62.22 38.662l6.65-12.6615c.515-.979 1.5303-1.592 2.6366-1.592s2.1215.613 2.6366 1.592l45.0227 85.718H23.8333z"/>
  <path fill="#f57c00" d="M79.566 71.5074L62.2124 38.6472l-38.379 73.0715L79.566 71.5074z"/>
  <path fill="#ffca28" d="M119.1666 111.7187l-12.356-76.4603c-.1867-1.098-.9703-2-2.0315-2.34s-2.2226-.057-3.0107.7302l-77.935 78.069 43.1234 24.1834c2.708 1.512 6.006 1.512 8.714 0l43.4958-24.1834z"/>
</svg>
