<svg xmlns="http://www.w3.org/2000/svg" width="72" height="80" viewBox="0 0 72 80">
  <path fill="#a074c4" fill-rule="evenodd" d="M19,52 L28,60 L19,68 L19,52 Z M27,12 L27,34.711 C30.994,33.411 36.577,32 42,32 C46.945,32 49.905,33.944 51.517,35.575 C54.814625,38.91 54.995191,43.1202378 55.0003112,43.9159307 L55.0002258,68 L47,68 L47,44.11 C46.961,42.243 46.062,40 42,40 C34.230209,40 25.5570898,43.7328438 24.7166549,44.1028638 L24.651,44.132 L19,46.692 L19,12 L27,12 Z M55,12 C54.46,16.544 52.618,20.9 49,25 L49,25 L41,25 C44.144,20.875 46.118,16.534 47,12 L47,12 Z"/>
</svg>
