<svg width="2261" height="2500" viewBox="0 0 256 283" xmlns="http://www.w3.org/2000/svg" preserveAspectRatio="xMidYMid">
  <path d="M239.973 139.203c0-14.534-11.782-26.316-26.316-26.316-.935 0-1.857.05-2.766.145L247.036 6.427H93.432l36.094 106.513a26.437 26.437 0 0 0-1.6-.053c-14.533 0-26.315 11.782-26.315 26.316 0 11.748 7.699 21.694 18.326 25.078-5.613 9.722-12.675 18.478-20.693 26.042-10.903 10.286-23.381 18.085-36.876 22.891-16.068-8.254-23.656-26.612-16.81-42.707.774-1.817 1.563-3.66 2.318-5.494 11.64-2.717 20.314-13.153 20.314-25.621 0-14.534-11.782-26.316-26.316-26.316-14.535 0-26.317 11.782-26.317 26.316 0 8.913 4.435 16.784 11.213 21.545-6.514 14.831-16.088 30.351-19.071 48.339-3.575 21.559-.011 44.443 18.634 57.366 43.424 30.096 90.56-18.657 140.259-30.913 18.01-4.442 37.782-3.726 53.65-12.917 11.918-6.902 19.774-18.34 22.004-31.182 2.202-12.686-1.01-25.317-8.393-35.559a26.207 26.207 0 0 0 6.12-16.868zm-85.732.093l.003-.093c0-9.544-5.082-17.902-12.686-22.515l28.728-58.091 28.778 58.707c-7.067 4.718-11.724 12.764-11.724 21.899 0 .192.01.381.015.572l-33.114-.479z" fill="#C63D14"/>
</svg>
