<?xml version="1.0" encoding="UTF-8" standalone="no"?>
<svg
   xmlns:dc="http://purl.org/dc/elements/1.1/"
   xmlns:cc="http://creativecommons.org/ns#"
   xmlns:rdf="http://www.w3.org/1999/02/22-rdf-syntax-ns#"
   xmlns:svg="http://www.w3.org/2000/svg"
   xmlns="http://www.w3.org/2000/svg"
   xmlns:sodipodi="http://sodipodi.sourceforge.net/DTD/sodipodi-0.dtd"
   xmlns:inkscape="http://www.inkscape.org/namespaces/inkscape"
   viewBox="0 0 192 191.99999"
   width="192"
   height="192"
   version="1.1"
   id="svg3783"
   sodipodi:docname="mocha.svg"
   inkscape:version="0.92.5 (0.92.5+69)">
  <metadata
     id="metadata3789">
    <rdf:RDF>
      <cc:Work
         rdf:about="">
        <dc:format>image/svg+xml</dc:format>
        <dc:type
           rdf:resource="http://purl.org/dc/dcmitype/StillImage" />
      </cc:Work>
    </rdf:RDF>
  </metadata>
  <defs
     id="defs3787" />
  <path
     d="m 136.26174,73.757061 c 0,-1.993786 -1.59502,-3.987573 -3.98757,-3.987573 H 57.307803 c -1.993787,0 -3.987573,1.595028 -3.987573,3.987573 0,13.557746 1.993786,60.212359 21.931652,82.941529 0.797511,0.79751 1.595033,1.19627 2.791305,1.19627 h 33.495603 c 1.19628,0 1.99379,-0.39876 2.7913,-1.19627 19.93787,-22.33042 21.93165,-68.985022 21.93165,-82.941529 z M 106.75371,146.3309 H 83.227025 c -1.196272,0 -1.993783,-0.39876 -2.791294,-1.19628 -13.55775,-15.95029 -15.152782,-47.850876 -15.551536,-59.016085 0,-1.993783 1.595027,-3.987576 3.987572,-3.987576 h 52.635953 c 1.99379,0 3.98758,1.595032 3.98758,3.987576 0,11.165209 -1.99379,42.667035 -15.55154,59.016095 -1.19627,0.7975 -1.99378,1.19626 -3.19005,1.19626 z m -4.38633,-84.536557 c 0,0 14.35526,-8.373905 5.5826,-23.526684 -5.18385,-7.975145 -7.57639,-14.754018 -5.58261,-17.545319 -5.183842,6.380119 -13.956496,13.158992 -4.386317,27.514252 3.190047,3.588818 4.785077,11.165205 4.386317,13.557747 z m -15.950289,1.196268 c 0,0 9.570165,-5.582601 3.588805,-15.950292 -3.588805,-5.183842 -5.183838,-9.968933 -3.588805,-11.56396 -3.588816,4.386332 -9.171426,8.77266 -2.791305,18.741592 1.993783,1.993786 2.791305,7.177632 2.791305,8.77266 z"
     id="path3779"
     inkscape:connector-curvature="0"
     style="fill:#e37933;stroke-width:4.17894363" />
  <path
     d="m 119.11518,109.24646 c -1.59503,10.76646 -4.78509,23.12793 -11.56396,31.10307 -0.79751,0.79752 -1.59503,1.19627 -2.39254,1.19627 H 85.220819 c -0.797522,0 -1.993794,-0.39875 -2.392544,-1.19627 -4.785088,-5.98136 -7.975143,-13.9565 -9.968937,-22.33041 0,0 23.127918,3.19006 36.286902,-1.59503 9.57018,-3.58881 9.96894,-7.17762 9.96894,-7.17762 z"
     id="path3781"
     inkscape:connector-curvature="0"
     style="fill:#e37933;stroke-width:4.17894363" />
</svg>
