<svg id="Layer_1" data-name="Layer 1" xmlns="http://www.w3.org/2000/svg" xmlns:xlink="http://www.w3.org/1999/xlink" viewBox="0 0 200 129">
  <defs>
    <linearGradient id="linear-gradient" x1="78.7" y1="-359.32" x2="78.7" y2="-329.03" gradientTransform="matrix(1, 0, 0, -1, 0, -264)" gradientUnits="userSpaceOnUse">
      <stop offset="0" stop-color="#3d6a06"/>
      <stop offset="0.16" stop-color="#588710"/>
      <stop offset="0.33" stop-color="#6d9d18"/>
      <stop offset="0.51" stop-color="#7bae1e"/>
      <stop offset="0.72" stop-color="#84b721"/>
      <stop offset="1" stop-color="#87ba22"/>
    </linearGradient>
    <linearGradient id="linear-gradient-2" x1="77.39" y1="-366.2" x2="77.39" y2="-330.49" gradientTransform="matrix(1, 0, 0, -1, 0, -264)" gradientUnits="userSpaceOnUse">
      <stop offset="0" stop-color="#bbe882"/>
      <stop offset="0.14" stop-color="#bee988" stop-opacity="0.92"/>
      <stop offset="0.34" stop-color="#c8ec9a" stop-opacity="0.8"/>
      <stop offset="0.58" stop-color="#d8f2b7" stop-opacity="0.67"/>
      <stop offset="0.83" stop-color="#eef9e0" stop-opacity="0.53"/>
      <stop offset="1" stop-color="#fff" stop-opacity="0.43"/>
    </linearGradient>
    <linearGradient id="linear-gradient-3" x1="78.09" y1="-364.42" x2="78.09" y2="-332.57" gradientTransform="matrix(1, 0, 0, -1, 0, -264)" gradientUnits="userSpaceOnUse">
      <stop offset="0" stop-color="#48790b"/>
      <stop offset="0.82" stop-color="#fff" stop-opacity="0.43"/>
    </linearGradient>
    <linearGradient id="linear-gradient-4" x1="75.69" y1="-368.98" x2="75.69" y2="-358.09" gradientTransform="matrix(1, 0, 0, -1, 0, -264)" gradientUnits="userSpaceOnUse">
      <stop offset="0" stop-color="#5e7814"/>
      <stop offset="0.51" stop-color="#8aa21f"/>
      <stop offset="1" stop-color="#b1c628"/>
    </linearGradient>
    <linearGradient id="linear-gradient-5" x1="75.32" y1="-367.16" x2="75.49" y2="-358.38" gradientTransform="matrix(1, 0, 0, -1, 0, -264)" gradientUnits="userSpaceOnUse">
      <stop offset="0" stop-color="#82af10"/>
      <stop offset="0.82" stop-color="#fff" stop-opacity="0"/>
    </linearGradient>
    <linearGradient id="linear-gradient-6" x1="82.5" y1="-369.33" x2="82.5" y2="-359.52" gradientTransform="matrix(1, 0, 0, -1, 0, -264)" gradientUnits="userSpaceOnUse">
      <stop offset="0" stop-color="#5e7814"/>
      <stop offset="0.14" stop-color="#758e1a"/>
      <stop offset="0.34" stop-color="#8fa620"/>
      <stop offset="0.55" stop-color="#a2b824"/>
      <stop offset="0.77" stop-color="#adc327"/>
      <stop offset="1" stop-color="#b1c628"/>
    </linearGradient>
    <linearGradient id="linear-gradient-7" x1="80.1" y1="-370.07" x2="80.1" y2="-358.96" gradientTransform="matrix(1, 0, 0, -1, 0, -264)" gradientUnits="userSpaceOnUse">
      <stop offset="0" stop-color="#fff"/>
      <stop offset="1" stop-color="#fff" stop-opacity="0"/>
    </linearGradient>
    <linearGradient id="linear-gradient-8" x1="113.49" y1="83.09" x2="113.49" y2="19.49" gradientTransform="matrix(1, 0, 0, 1, 0, 0)" xlink:href="#linear-gradient"/>
    <linearGradient id="linear-gradient-9" x1="110.25" y1="87.04" x2="110.25" y2="19.24" gradientTransform="matrix(1, 0, 0, 1, 0, 0)" xlink:href="#linear-gradient-3"/>
    <linearGradient id="linear-gradient-10" x1="110.45" y1="83.08" x2="110.45" y2="19.44" gradientTransform="matrix(1, 0, 0, 1, 0, 0)" xlink:href="#linear-gradient-2"/>
    <linearGradient id="linear-gradient-11" x1="94.1" y1="-364.78" x2="94.1" y2="-337.58" xlink:href="#linear-gradient-4"/>
    <linearGradient id="linear-gradient-12" x1="93.17" y1="-360.23" x2="93.59" y2="-338.32" xlink:href="#linear-gradient-5"/>
    <linearGradient id="linear-gradient-13" x1="111.1" y1="-365.65" x2="111.1" y2="-341.16" xlink:href="#linear-gradient-6"/>
    <linearGradient id="linear-gradient-14" x1="105.09" y1="-367.51" x2="105.09" y2="-339.75" xlink:href="#linear-gradient-7"/>
    <radialGradient id="radial-gradient" cx="79" cy="-5253.45" r="6.38" gradientTransform="matrix(1, 0, 0, -0.24, 0, -1139.82)" gradientUnits="userSpaceOnUse">
      <stop offset="0" stop-color="#323232" stop-opacity="0.92"/>
      <stop offset="0.24" stop-color="#272727" stop-opacity="0.64"/>
      <stop offset="0.64" stop-color="#0b0b0b" stop-opacity="0.17"/>
      <stop offset="0.79" stop-opacity="0"/>
    </radialGradient>
    <radialGradient id="radial-gradient-2" cx="12088.47" cy="-7108.84" r="6.78" gradientTransform="matrix(0.18, 0, 0, -0.19, -2047.7, -1222.88)" gradientUnits="userSpaceOnUse">
      <stop offset="0" stop-color="#323232"/>
      <stop offset="0.29" stop-color="#252525" stop-opacity="0.67"/>
      <stop offset="0.83" stop-color="#040404" stop-opacity="0.07"/>
      <stop offset="0.89" stop-opacity="0"/>
    </radialGradient>
    <radialGradient id="radial-gradient-3" cx="12077.68" cy="-7108.84" r="6.78" xlink:href="#radial-gradient-2"/>
    <radialGradient id="radial-gradient-4" cx="102.36" cy="-5237.39" r="15.94" xlink:href="#radial-gradient"/>
    <radialGradient id="radial-gradient-5" cx="12228.57" cy="-7041.02" r="16.94" xlink:href="#radial-gradient-2"/>
    <radialGradient id="radial-gradient-6" cx="12201.62" cy="-7041.02" r="16.92" xlink:href="#radial-gradient-2"/>
    <style>
      .cls-11{fill:#fff}.cls-12{fill:#a0cb29}
    </style>
  </defs>
  <title>
    Our Partners
  </title>
  <g id="E">
    <path d="M76.65,102.15H81.1c-.27-5.78-2-24.24-4.8-35.71C76.82,74.31,77.38,100.49,76.65,102.15Z" style="fill:url(#linear-gradient)"/>
    <path d="M76.52,105.53l2.82.12c.07-5.46-1.91-14.9-7.29-18.57,2.74,3.41,4.72,7.56,4.47,18.45Z" style="fill:url(#linear-gradient-4)"/>
    <path d="M81.87,105.71c.09.4-2.81.68-2.91.59s-2.11-13.48,7.33-12.13C81.17,94.39,80.78,101.4,81.87,105.71Z" style="fill:url(#linear-gradient-6)"/>
    <circle class="cls-11" cx="77.97" cy="99.36" r="0.74"/>
    <circle class="cls-11" cx="79.84" cy="99.36" r="0.74"/>
    <path class="cls-12" d="M72.68,103.79l1.06,1.81h.58m1.3.79h1.27L75,101.32m8,4.75h.83l.62-3.92m.68,2.89h.71l.34-1.44"/>
    <path d="M99.16,97.44a237.87,237.87,0,0,1,.45-25,160.07,160.07,0,0,1,2.45-19.41c.11-.53.21-1,.21-1a91.08,91.08,0,0,1,2.41-9.29c.61-1.91.92-2.87,1.4-4a41,41,0,0,1,3.76-7,32.75,32.75,0,0,1,3.26-4.35c2.17-2.39,3.91-4.25,6.64-4.74a7.78,7.78,0,0,1,3.62.22c3.06.95,4.78,3.62,4.58,3.85s-3.62-4-7-3.23c-1.89.43-3.18,2.29-4.43,4.1a33.65,33.65,0,0,0-2.31,4.4c-1,2.14-1.55,3.48-1.68,3.82-.33.85-.56,1.54-1,2.84-.38,1.12-.68,2-1,3.07-.89,2.82-1.34,4.22-1.61,5.21s-.62,2.32-1.23,5.5c-.82,4.25-1.44,8.19-1.67,10-.71,5.39-1.41,17.18-.56,32.67" style="fill:url(#linear-gradient-8)"/>
    <path d="M96.17,102.16l7,.3c.17-13.63-4.77-37.21-18.21-46.38,6.84,8.5,11.79,18.89,11.18,46.08Z" style="fill:url(#linear-gradient-11)"/>
    <path d="M109.52,102.62c.22,1-7,1.68-7.27,1.46S97,70.41,120.55,73.77C107.78,74.32,106.8,91.83,109.52,102.62Z" style="fill:url(#linear-gradient-13)"/>
    <path class="cls-12" d="M86.58,97.82l2.62,4.52h1.47m3.24,2h3.18L92.38,91.65M112.3,103.5h2.08l1.53-9.78m1.71,7.21h1.77l.86-3.6"/>
    <circle class="cls-11" cx="99.79" cy="86.74" r="1.86"/>
    <circle class="cls-11" cx="104.45" cy="86.74" r="1.86"/>
  </g>
</svg>
