<?xml version="1.0" standalone="no"?> 
<!DOCTYPE svg PUBLIC "-//W3C//DTD SVG 1.1//EN" "http://www.w3.org/Graphics/SVG/1.1/DTD/svg11.dtd" >
<svg xmlns="http://www.w3.org/2000/svg">
<defs>
  <font id="seti" horiz-adv-x="32">
    <font-face font-family="seti"
      units-per-em="32" ascent="32"
      descent="0" />
    <missing-glyph horiz-adv-x="0" />
    <glyph glyph-name="apple"
      unicode="&#xE001;"
      horiz-adv-x="32" d=" M24.6 11.4C24.5 11.2 24.5 11.1 24.5 11C24.1 9.9 23.5 8.9 22.8 8C22.5 7.6 22.1 7.2 21.7 6.9C21.4 6.7 21.2 6.5 20.9 6.3C20.7 6.2 20.4 6.1 20.2 6.1H19.6C19.3 6.1 19 6.2 18.8 6.3L17.9 6.6C17.7 6.7 17.6 6.7 17.4 6.8S16.9 6.9 16.7 6.9C16.4 6.9 16.1 6.9 15.8 6.8C15.4 6.7 15 6.6 14.6 6.4C14.4 6.3 14.3 6.3 14.1 6.2C13.8 6.1 13.5 6 13.2 6H12.8C12.5 6 12.2 6.1 12 6.3C11.6 6.5 11.2 6.8 10.9 7.1C10.6 7.4 10.3 7.7 10.1 8.1C9.6 8.7 9.2 9.4 8.9 10.1C8.5 10.9 8.2 11.7 8 12.6C7.9 13 7.8 13.4 7.8 13.9C7.8 14.2 7.7 14.5 7.7 14.8V15.7C7.7 15.9 7.7 16.1 7.8 16.4C7.8 16.7 7.9 17.1 8 17.4C8.2 18.3 8.6 19 9.2 19.7C9.8 20.4 10.6 20.9 11.4 21.1C11.8 21.2 12.3 21.3 12.7 21.3H13.7C14 21.3 14.3 21.2 14.6 21.1C14.8 21 15.1 20.9 15.3 20.8C15.5 20.7 15.7 20.6 15.9 20.6C16.1 20.5 16.4 20.5 16.6 20.5C16.8 20.5 17.1 20.6 17.3 20.7L18.2 21C18.7 21.2 19.3 21.3 19.9 21.3C20.4 21.3 20.9 21.3 21.3 21.2C21.8 21.1 22.2 21 22.6 20.7C23.3 20.4 23.8 19.9 24.3 19.3C24 19.1 23.7 18.8 23.4 18.5C23 18.1 22.7 17.7 22.5 17.3C22.3 16.8 22.1 16.4 22.1 15.9V15.2C22.1 14.9 22.2 14.7 22.2 14.4C22.4 13.6 22.8 13 23.4 12.4C23.7 12.1 24.1 11.8 24.6 11.5C24.4 11.5 24.5 11.5 24.6 11.4z M20 26V25.2C20 24.5 19.7 23.8 19.3 23.2C18.9 22.6 18.4 22.1 17.8 21.8C17.4 21.5 16.9 21.4 16.4 21.3H15.9V21.8C15.9 22.2 15.9 22.5 16 22.9C16.1 23.4 16.4 23.8 16.7 24.2C17.1 24.7 17.5 25.1 18 25.4C18.5 25.7 19 26 19.6 26.1C19.7 26 19.8 26 20 26z" />
    <glyph glyph-name="asm"
      unicode="&#xE002;"
      horiz-adv-x="32" d=" M5.998 12.375L8.621 19.655H9.991L12.614 12.375H11.184L10.468 14.325H7.727L7.012 12.375H5.998zM8.025 15.235H10.111L9.098 18.16L8.025 15.235zM12.972 12.44V13.675C13.925 13.35 14.7 13.155 15.356 13.155C15.892 13.155 16.25 13.285 16.488 13.415C16.786 13.61 16.905 13.805 16.905 14.13C16.905 14.39 16.845 14.585 16.667 14.715C16.488 14.91 16.19 15.105 15.713 15.3L15.117 15.56C14.342 15.95 13.806 16.34 13.448 16.665C13.15 16.99 12.972 17.38 12.972 17.835C12.972 18.42 13.21 18.94 13.746 19.265C14.283 19.655 14.998 19.85 15.892 19.85C16.607 19.85 17.382 19.785 18.216 19.59V18.42C17.322 18.68 16.607 18.81 16.071 18.81C15.654 18.81 15.356 18.745 15.117 18.615C14.879 18.42 14.76 18.225 14.76 18.03C14.76 17.835 14.82 17.64 14.998 17.51C15.177 17.38 15.475 17.185 15.952 16.925L16.548 16.665C17.382 16.275 17.978 15.885 18.276 15.56C18.574 15.235 18.753 14.845 18.753 14.325C18.753 13.675 18.455 13.09 17.859 12.765C17.322 12.375 16.488 12.18 15.415 12.18C14.76 12.18 13.925 12.245 12.972 12.44zM19.29 12.375V19.59H21.137L22.746 14.455L24.415 19.59H26.024V12.375H24.713V17.9L23.103 12.895H21.971L20.362 17.965V12.375H19.289z" />
    <glyph glyph-name="audio"
      unicode="&#xE003;"
      horiz-adv-x="32" d=" M16.3 8.2C16.1 8.2 15.9 8.4 15.7 8.5C14.2 9.8 12.7 11.1 11.1 12.4C11 12.5 11 12.5 10.9 12.5H6.7C6.3 12.5 6.1 12.7 6 13V18.7C6 19.2 6.3 19.5 6.8 19.5H11C11.1 19.5 11.2 19.5 11.2 19.6C12.7 20.9 14.3 22.3 15.8 23.6C16.2 23.9 16.6 23.9 16.9 23.5C17 23.4 17 23.2 17 23.1V9C17 8.7 16.9 8.4 16.6 8.3C16.5 8.3 16.5 8.3 16.4 8.2H16.3zM26 15.9C26 15.6 26 15.3 25.9 15C25.8 13.8 25.5 12.6 25 11.4C24.6 10.4 24.1 9.5 23.4 8.7C23.3 8.5 23.1 8.4 22.8 8.3C22.5 8.3 22.3 8.4 22.1 8.6C21.9 8.8 21.9 9.1 22.1 9.3C22.2 9.5 22.4 9.7 22.5 9.9C23.5 11.3 24.1 12.8 24.3 14.4C24.7 17.4 24 20.1 22.1 22.5C21.9 22.8 21.8 23.1 22.1 23.4C22.4 23.8 22.9 23.8 23.3 23.4C24 22.5 24.6 21.6 25 20.5C25.5 19.3 25.8 18 25.9 16.7V16C26 16 26 15.9 26 15.9z M23.3 16.1C23.3 14 22.7 12.2 21.6 10.6C21.5 10.4 21.3 10.3 21 10.2C20.7 10.2 20.5 10.3 20.3 10.5C20.1 10.7 20.1 11 20.3 11.3C20.3 11.4 20.4 11.4 20.4 11.5C21.2 12.6 21.6 13.7 21.8 15C22.1 17.1 21.6 19 20.3 20.8C20.2 21 20.1 21.2 20.1 21.4C20.2 21.7 20.3 21.9 20.6 22C20.9 22.1 21.2 22 21.4 21.7C21.7 21.3 22 20.8 22.3 20.3C22.8 19.2 23.2 18 23.2 16.8C23.3 16.4 23.3 16.2 23.3 16.1z M20.5 16C20.5 14.8 20.2 13.6 19.5 12.6C19.3 12.2 18.9 12.1 18.5 12.3C18.2 12.5 18 12.9 18.3 13.3C18.7 13.9 18.9 14.6 19 15.3C19.2 16.5 18.9 17.7 18.3 18.7C18.1 19.1 18.2 19.5 18.5 19.7C18.8 19.9 19.3 19.8 19.5 19.5C19.9 18.9 20.1 18.3 20.3 17.6C20.4 17 20.5 16.5 20.5 16z" />
    <glyph glyph-name="babel"
      unicode="&#xE004;"
      horiz-adv-x="32" d=" M23.3 25L21.2 23.8S21.2 23.7 21.3 23.7L23.4 24.6C23.4 24.5 23.5 24.5 23.5 24.4C23.2 24.2 22.9 23.9 22.5 23.7C20.4 22.3 18.1 21.1 16.4 19.4C14.5 17.5 12.5 15.6 11.2 13.1C10.7 12.2 10.5 11.2 10.9 10.2C11.2 9.5 11.7 9.1 12.4 9.3C14.5 9.8 16.3 10.7 17.5 12.5C17.9 13 18.1 13.7 18.1 14.4C18.2 15.5 17.4 16.3 16.3 16C15.3 15.7 14.3 15.2 13.4 14.8C13.7 15.2 14.2 15.7 14.6 16.1L14.5 16.2C13.9 15.8 13.4 15.4 12.8 15C13.5 16.8 16.4 18 18.2 17.4C19.6 16.9 20.3 15.1 20 13.9C19.5 11.4 18.3 9.2 15.9 8C15 7.5 13.8 7.4 12.7 7.2C12.2 7 11.6 7 10.9 7C10.3 7 9.9 7.3 9.5 7.8C7.8 9.6 8.6 11.3 9.3 13.1C10.8 16.5 13.3 18.9 16 21.3C17 22.1 18 22.9 19 23.6C20.3 24.5 21.6 25.2 23.3 25z" />
    <glyph glyph-name="bower"
      unicode="&#xE005;"
      horiz-adv-x="32" d=" M25.1 16.5C24.8 16.6 24.5 16.8 24.1 16.9C22.3 17.4 20.5 17.6 18.7 17.9C18.4 17.9 18.1 18 17.7 18C17.8 18.5 18 18.7 18.7 18.8C18.8 18.7 18.8 18.5 18.9 18.4C18.9 18.3 19 18.2 19.1 18.3H19.8C21 18.5 21.8 19.1 22.3 20.3C22.4 20.7 22.5 21.1 22.6 21.4C22.7 22.2 23 23 23.6 23.6L23.8 23.8C22.4 24.2 19.9 23.3 18.9 21.2C18.7 21.3 18.4 21.3 18.2 21.4C18.1 21.4 18 21.5 18 21.6C17.6 22.7 16.9 23.6 15.8 24.3C15 24.8 13.9 24.9 13 24.8C10.9 24.5 9.2 23.5 7.9 21.9S6 18.3 6.1 16.3C6.2 14.2 6.9 12.2 8.1 10.4C8.5 9.8 9.2 9.2 9.7 8.7C10.4 8.3 11.3 8.3 11.9 8.9C12 9 12.1 9.2 12.2 9.3C12.2 9.2 12.3 9.2 12.3 9.1C12.5 8.7 12.6 8.1 12.8 7.8C13 7.4 13.7 7.1 14.2 7.3C14.3 7.4 14.4 7.4 14.5 7.3C14.9 7.1 15.3 7.1 15.7 7.3C15.9 7.4 16 7.6 16.2 7.6C16.4 7.7 16.6 7.6 16.8 7.6C17.3 7.7 17.8 7.9 17.8 8.6C17.8 8.6 17.8 8.7 17.9 8.7C18.1 8.8 18.3 9 18.3 9.2C18.4 9.5 18.4 9.8 18.3 10.2C18 10.7 17.7 11.4 17.3 11.9L17.2 12C17.5 11.9 17.8 11.8 18.2 11.7C18.7 11.6 19.2 11.6 19.6 12C19.7 12 19.7 11.9 19.8 11.9C20.6 11.4 21.7 11.6 22.3 12.3H22.5C23.1 12.2 23.6 12.3 24.1 12.7C24.3 12.9 24.5 13.1 24.5 13.4V13.5C25.5 13.6 26 14 26 15C25.9 15.7 25.7 16.2 25.1 16.5zM20.7 19.2C20.3 19 19.9 18.9 19.3 18.9C19.3 18.9 19.2 18.9 19.2 19C19.1 19.2 19.1 19.4 19 19.6C19 19.7 19 19.7 19.1 19.7C19.4 19.7 19.5 19.7 19.5 19.3C19.7 19.6 19.7 19.6 20 19.5C20.2 19.4 20.4 19.4 20.6 19.3C20.8 19.2 20.8 19.2 20.7 19.2zM19.4 21.3C19.8 22 20.4 22.5 20.9 22.9C21.4 23.2 21.9 23.4 22.5 23.4C22.4 23.3 22.3 23.2 22.2 23C21.9 22.6 21.9 22 21.8 21.6C21.7 21.1 21.6 20.6 21.4 20.1C21.4 19.9 21.2 19.8 21.2 19.7C20.9 20 20.6 20.2 20.2 20.5V20.7C20.6 21.4 21 22.2 21.7 22.7C20.7 22.3 20.3 21.6 19.8 20.7C19.6 20.8 19.5 20.9 19.3 21C19.3 21.1 19.4 21.2 19.4 21.3zM16.7 19.6C16.7 20.1 16.8 20.6 17.1 21C17.1 21.1 17.3 21.1 17.3 21.1C18.3 21 19.1 20.7 19.9 20.1C20.1 20 20.2 19.8 20.4 19.7C20.2 19.8 19.9 19.8 19.7 19.9C19.2 20 18.6 20 18.1 19.8C17.7 19.5 17.2 19.5 16.7 19.6C17 19.3 17.3 19.3 17.7 19.4C18 19.4 18.2 19.5 18.5 19.6C18.5 19.5 18.4 19.4 18.4 19.4C18 19.1 17.4 18.9 16.9 18.7H16.8C16.7 19 16.7 19.3 16.7 19.6zM13.7 22C14.6 22 15.5 21.2 15.5 20.2S14.7 18.4 13.7 18.4S11.9 19.2 11.9 20.2C11.9 21.3 12.7 22 13.7 22zM18.3 15.9C18.7 15.8 19.3 15.7 19.7 15.7C20.3 15.6 20.8 15.5 21.5 15.4C21.7 15.4 21.8 15.3 21.6 15.1C21.4 14.8 20.9 14.6 20.5 14.7H20.3C20.4 14.5 20.3 14.2 20.1 14.1C19.8 13.8 19.5 13.7 19.1 13.7C18.9 13.7 18.6 13.8 18.4 13.8C18.3 13.2 17.2 13 16.5 13.5C16.6 13.2 16.7 12.9 16.8 12.5V12.2C16.6 10.7 15.4 9.6 13.9 9.5C12.5 9.4 11.1 9.8 9.9 10.7C8.8 11.4 8 12.4 7.5 13.5C7.5 13.6 7.4 13.6 7.4 13.7C7.8 13.6 8.2 13.5 8.5 13.4C9.2 13.3 9.9 13.3 10.6 13.8H10.8C11.5 13.6 12.2 13.5 13 13.6C14.1 13.8 14.9 14.4 15.7 15.3C16 15.6 16.2 16 16.4 16.4C16.6 16.7 16.8 16.9 17 17.1H17.2C18 17 18.8 16.9 19.7 16.8C20.8 16.6 21.8 16.4 23 16.2C23 16.2 23.1 16.2 23.1 16.1C21.6 16 19.9 15.8 18.3 15.9zM13.7 19.2C14.3 19.2 14.8 19.6 14.8 20.2S14.3 21.2 13.7 21.2C13.1 21.2 12.6 20.7 12.6 20.2S13 19.2 13.7 19.2zM13.1 21C13.2 21.1 13.4 21.1 13.6 21.2C13.8 21.1 13.9 21.1 14.1 21S14.3 20.7 14.1 20.5S13.4 20.3 13 20.5C12.9 20.7 12.9 20.9 13.1 21z" />
    <glyph glyph-name="bsl"
      unicode="&#xE006;"
      horiz-adv-x="32" d=" M16.8 13V10H27V13H16.8zM7 22H10V10H7V22zM5 21H7V18H5V21z M14 16C14 17.7 15.3 19 17 19C18.3 19 19.4 18.2 19.8 17H22.9C22.4 19.8 20 22 17 22C13.7 22 11 19.3 11 16S13.7 10 17 10C19.2 10 21.2 11.2 22.2 13H17C15.3 13 14 14.3 14 16z" />
    <glyph glyph-name="c-sharp"
      unicode="&#xE007;"
      horiz-adv-x="32" d=" M7.1 16.1C7.1 17.4 7.3 18.5 7.7 19.5C8.1 20.5 8.6 21.3 9.3 22C10 22.7 10.8 23.2 11.7 23.6S13.6 24.1 14.6 24.1S16.5 23.9 17.3 23.5C18.1 23.1 18.8 22.6 19.3 22.1L17.1 19.6C16.7 19.9 16.4 20.2 16 20.3C15.6 20.4 15.2 20.6 14.6 20.6C14.1 20.6 13.7 20.5 13.3 20.3C12.9 20.1 12.5 19.8 12.2 19.4S11.7 18.6 11.5 18C11.3 17.4 11.2 16.8 11.2 16.1C11.2 14.6 11.5 13.5 12.2 12.8C12.9 12 13.7 11.6 14.8 11.6C15.3 11.6 15.8 11.7 16.2 11.9C16.6 12.1 17 12.4 17.3 12.8L19.5 10.3C18.8 9.5 18.1 9 17.3 8.6C16.5 8.2 15.6 8 14.6 8S12.6 8.2 11.7 8.5S10 9.3 9.3 10S8.2 11.7 7.8 12.7C7.3 13.6 7.1 14.8 7.1 16.1z M21.8 14.9H20.8L20.4 12.5H19.2L19.6 14.9H18.4V16H19.9L20.1 17.6H18.8V18.7H20.3L20.7 21.1H21.9L21.5 18.7H22.5L22.9 21.1H24.1L23.7 18.7H25V17.6H23.4L23.2 16H24.5V14.9H22.9L22.5 12.5H21.3C21.3 12.4 21.8 14.9 21.8 14.9zM21 15.9H22L22.2 17.5H21.2L21 15.9z" />
    <glyph glyph-name="c"
      unicode="&#xE008;"
      horiz-adv-x="32" d=" M22.3 9.1Q21.23 8.528 20.08 8.237Q18.94 7.945 17.69 7.945Q13.96 7.945 11.78 10.105Q9.6 12.275 9.6 15.995Q9.6 19.715 11.78 21.885Q13.96 24.065 17.69 24.065Q18.93 24.065 20.08 23.773Q21.24 23.482 22.3 22.91V19.69Q21.22 20.45 20.18 20.8Q19.15 21.153 18 21.153Q15.93 21.153 14.76 19.783Q13.58 18.413 13.58 15.993Q13.58 13.593 14.76 12.213Q15.94 10.843 18 10.843Q19.14 10.843 20.18 11.197Q21.22 11.551 22.3 12.307z" />
    <glyph glyph-name="cake"
      unicode="&#xE009;"
      horiz-adv-x="32" d=" M-351.2 -66.1C-351.5999999999999 -66.2 -351.9 -66.3 -352.3 -66.4V67.6C-351.9 67.5 -351.6 67.5 -351.2 67.4V-66.1z M21.1 15C21.6 13.3 22.8 8.7 22.8 8.7L26.9 9.2V15.7L21.1 15zM14.1 14.3L6.7 13.5V6.7L15.4 7.8zM20.3 20.9C20.1 20.5 19.9 20.1 19.6 19.8C19.8 19.1 20 18.5 20.2 17.8L26.8 18.6S25.2 21.3 23 22.7C22.2 23.2 21.3 23.6 20.6 23.8C20.8 23.1 20.8 22.1 20.3 20.9zM13.1 17.7C11.9 17.8 11 18.3 10.3 19.1L6.7 16.3L13.3 17.1C13.2 17.3 13.2 17.5 13.1 17.7zM17.8 19.7C17.7 20 17.7 20.2 17.9 20.4C18.1 20.7 18.3 21 18.5 21.4C18.9 22.3 19 23.3 18.4 24.2C17.8 25.2 16.9 25.5 15.8 25.3C15.5 25.3 15.4 25 15.6 24.7L16.5 22.9C16.5 22.8 16.6 22.7 16.4 22.7C15.8 22.3 15.2 21.9 14.7 21.6C14.6 21.5 14.5 21.5 14.4 21.6C14 22 13.7 22.4 13.4 22.8C13.2 23 12.9 23.2 12.9 23.2S12.6 23.3 12.5 23.1C12 22.3 11.7 20.9 12.3 20C12.8 19.2 13.5 18.8 14.4 18.8C14.6 18.8 14.8 18.8 14.9 18.5C15.1 17.6 17.2 8.9 17.4 7.6C17.5 7 17.9 6.5 18.4 6.6C19.1 6.7 19.9 6.7 20.5 7.3C20.9 7.7 21 8.1 20.9 8.6C20.6 9.2 18.2 18.3 17.8 19.7z" />
    <glyph glyph-name="cake_php"
      unicode="&#xE00A;"
      horiz-adv-x="32" d=" M16 17.5V14.4H14.8C13.1 14.5 11.5 14.6 9.9 15.1C9.1 15.3 8.4 15.6 7.7 15.9C7.3 16 7 16.2 6.7 16.4C6.2 16.8 6 17.2 6 17.8V20.4C6 20.8 6.2 21.2 6.5 21.5C7 22 7.7 22.3 8.4 22.5C9.8 23 11.3 23.3 12.7 23.4C14.1 23.5 15.4 23.6 16.8 23.6C19.1 23.6 21.3 23.3 23.5 22.6C24.1 22.4 24.7 22 25.3 21.7C25.8 21.4 26.1 20.9 26.1 20.2V17.7C26.1 17.1 25.9 16.6 25.4 16.3C25 16 24.5 15.8 24.1 15.6C24 15.5 23.8 15.6 23.7 15.6C21.3 16.2 18.9 16.8 16.4 17.4C16.2 17.5 16.1 17.5 16 17.5zM16 8.3H14C12.3 8.4 10.6 8.6 9 9.1C8.3 9.3 7.6 9.7 6.9 10C6.3 10.4 6 11 6 11.7V14C6.9 12.8 8.2 12.4 9.5 12C11.5 11.5 13.5 11.3 15.6 11.3C15.9 11.3 16 11.2 16 10.9V8.3zM26 14.1V11.3C26 10.9 25.8 10.6 25.4 10.3C24.9 10 24.4 9.7 23.9 9.5C23.8 9.4 23.6 9.5 23.4 9.5L17.4 11L16.2 11.3C16.1 11.3 16 11.5 16 11.5V14.3C16.7 14.1 17.3 14 18 13.8C19.9 13.3 21.7 12.9 23.6 12.4H24C24.8 12.9 25.5 13.2 26 14.1z" />
    <glyph glyph-name="checkbox-unchecked"
      unicode="&#xE00B;"
      horiz-adv-x="32" d=" M25.8 23.5C25.3 24.9 24.3 25.7 22.8 25.9H9.4C9.1 25.9 8.7 25.9 8.5 25.8C7.1 25.2 6.3 24.2 6 22.8V9.4C6.1 9.1 6.1 8.8 6.2 8.5C6.7 7.1 7.7 6.3 9.2 6.1H22.6C22.9 6.2 23.2 6.2 23.5 6.3C24.9 6.8 25.7 7.8 25.9 9.3V22.7C25.9 22.9 25.9 23.3 25.8 23.5zM23.6 10.5C23.6 9.4 23 8.6 22 8.4H10.5C9.4 8.4 8.6 9 8.4 10V21.5C8.4 22.3 8.7 22.9 9.4 23.3C9.7 23.5 10.1 23.6 10.5 23.6H21.6C22.6 23.6 23.4 23 23.6 22V10.5z" />
    <glyph glyph-name="checkbox"
      unicode="&#xE00C;"
      horiz-adv-x="32" d=" M13.2 12.1C13.4 12.3 13.4 12.4 13.5 12.4C16.4 16.7 19.4 21.1 22.3 25.3C22.9 26.1 23.4 26.2 24.3 25.6C24.8 25.3 25.4 24.8 25.8 24.5C26.4 24 26.6 23.4 26.1 22.8C22.4 17.5 18.8 12.1 15.1 6.8C14.3 5.7 13.3 5.6 12.4 6.5L12.1 6.8L6 12.9C5.4 13.5 5.4 14.1 6 14.7C6.5 15.3 7 15.7 7.3 16C8.1 16.8 8.5 16.8 9.3 16L13.1 12.2C13.1 12.4 13.2 12.2 13.2 12.1z" />
    <glyph glyph-name="cjsx"
      unicode="&#xE00D;"
      horiz-adv-x="32" d=" M16.8 22.9C16.3 22.8 16 22.6 14.5 21.9C13.7 21.5 12.6 21.4 12.3 21.7C12 22.1 12.4 22.3 13.3 22.3C14.1 22.3 14.3 22.4 14 22.6C13.4 23 12 22.7 11.7 22.2C11.6 21.9 11.6 21.8 11.8 21.5C12.3 21 12.7 20.8 13.8 20.9C14.6 20.9 15 21 15.8 21.5C17 22.1 18.3 22.4 19.1 22.3C19.9 22.2 20.1 21.9 19.6 21.6C19.2 21.3 18.2 21.2 17.8 21.6C17.4 21.8 16.9 21.8 16.9 21.4C16.9 20.9 18.4 20.5 19.7 20.8C21.2 21.1 21.2 22.4 19.7 22.9C19.1 23 17.6 23.1 16.8 22.9zM8.3 21.6C8 21.4 7.8 21.1 7.8 21C7.7 20.6 8.5 20 9.7 19.6C10.8 19.3 11.2 19.2 12.9 19C14 18.9 19 18.9 20 19C20.4 19.1 21 19.1 21.2 19.2C21.9 19.3 23.8 19.8 24.2 20.1C24.8 20.4 25.1 20.9 24.9 21.2C24.6 21.8 23.9 22.2 24.1 21.6C24.3 20.8 22 20 19 19.8C17.9 19.7 14.6 19.7 14 19.8C13.8 19.8 13.1 19.9 12.6 19.9C10.9 20 9 20.7 8.9 21.2C8.9 21.3 8.9 21.6 9 21.7C9.1 22 8.9 22 8.3 21.6zM8 18.9C8 18.5 8.2 17.9 8.3 17.4L8.6 16.6L8.2 16.3C8 16.1 7.6 15.7 7.4 15.4C7.1 14.8 7 14.6 7 13.7C7 12.5 7.2 12 8.2 11.3C8.7 10.9 8.9 10.9 9.7 10.9C10.9 10.9 11.3 11.2 10.4 11.3C9.7 11.4 8.7 12.3 8.4 13.1C8.1 13.8 8.2 14.9 8.5 15.4C8.6 15.6 8.8 15.8 8.8 15.8L9.2 15.2C9.4 14.9 10 14 10.5 13.2C11.1 12.4 11.6 11.5 11.7 11.1C12.3 9.5 13.4 9 16.4 9S20.6 9.6 21.2 11.2C21.3 11.6 21.9 12.5 22.4 13.2S23.6 14.9 23.8 15.5C24.3 16.6 25 18.8 25 19.3C25 19.6 25 19.6 24.7 19.3C24.2 18.8 22.5 18.3 20.3 18.1C18.5 17.9 12.8 18 11.4 18.3C11.2 18.3 10.9 18.4 10.6 18.4C9.9 18.5 8.4 19.2 8.1 19.4C8 19.5 7.9 19.5 8 18.9z" />
    <glyph glyph-name="clock"
      unicode="&#xE00E;"
      horiz-adv-x="32" d=" M15.5 25H16.7C17.2 24.9 17.6 24.9 18.1 24.8C19.3 24.5 20.4 24 21.4 23.3C22.2 22.7 22.8 22.1 23.3 21.3C24.2 20.1 24.7 18.8 24.9 17.3C24.9 17.1 25 16.9 25 16.6V15.3C24.9 14.9 24.9 14.5 24.8 14.2C24.5 13 24 11.8 23.3 10.8S21.7 9 20.6 8.3C19.5 7.7 18.4 7.2 17.1 7.1C16.9 7.1 16.7 7 16.5 7H15.2C14.8 7.1 14.4 7.1 14.1 7.2C12.9 7.5 11.7 8 10.7 8.7S8.9 10.3 8.2 11.4C7.6 12.5 7.1 13.6 7 14.9C7.1 15 7 15.2 7 15.5V16.7C7.1 17.2 7.1 17.6 7.2 18.1C7.5 19.3 8 20.4 8.7 21.4S10.4 23.2 11.4 23.8C12.4 24.4 13.5 24.8 14.7 24.9C15 24.9 15.2 25 15.5 25zM8.5 15.8C8.6 11.7 12 8.4 16.1 8.4C20.3 8.4 23.7 11.9 23.6 16.2C23.5 20.2 20.1 23.6 15.8 23.5C11.8 23.4 8.4 20.1 8.5 15.8z M16.4 16C16.6 16.2 16.9 16.3 17.1 16.5C18 17.1 18.9 17.7 19.7 18.3C19.8 18.4 19.9 18.4 19.9 18.5C20.1 18.7 20.4 18.6 20.6 18.4C20.8 18.2 20.7 17.9 20.5 17.7C20.2 17.5 19.8 17.2 19.5 17C18.8 16.5 18 16 17.3 15.4C16.9 15.1 16.6 14.9 16.2 14.6C15.9 14.4 15.5 14.6 15.5 14.9V21.4C15.5 21.7 15.6 21.9 15.9 21.9C16.1 22 16.4 21.8 16.4 21.5V16C16.4 16.1 16.4 16 16.4 16z" />
    <glyph glyph-name="coffee"
      unicode="&#xE00F;"
      horiz-adv-x="32" d=" M16.8 22.9C16.3 22.8 16 22.6 14.5 21.9C13.7 21.5 12.6 21.4 12.3 21.7C12 22.1 12.4 22.3 13.3 22.3C14.1 22.3 14.3 22.4 14 22.6C13.4 23 12 22.7 11.7 22.2C11.6 21.9 11.6 21.8 11.8 21.5C12.3 21 12.7 20.8 13.8 20.9C14.6 20.9 15 21 15.8 21.5C17 22.1 18.3 22.4 19.1 22.3C19.9 22.2 20.1 21.9 19.6 21.6C19.2 21.3 18.2 21.2 17.8 21.6C17.4 21.8 16.9 21.8 16.9 21.4C16.9 20.9 18.4 20.5 19.7 20.8C21.2 21.1 21.2 22.4 19.7 22.9C19.1 23 17.6 23.1 16.8 22.9zM8.3 21.6C8 21.4 7.8 21.1 7.8 21C7.7 20.6 8.5 20 9.7 19.6C10.8 19.3 11.2 19.2 12.9 19C14 18.9 19 18.9 20 19C20.4 19.1 21 19.1 21.2 19.2C21.9 19.3 23.8 19.8 24.2 20.1C24.8 20.4 25.1 20.9 24.9 21.2C24.6 21.8 23.9 22.2 24.1 21.6C24.3 20.8 22 20 19 19.8C17.9 19.7 14.6 19.7 14 19.8C13.8 19.8 13.1 19.9 12.6 19.9C10.9 20 9 20.7 8.9 21.2C8.9 21.3 8.9 21.6 9 21.7C9.1 22 8.9 22 8.3 21.6zM8 18.9C8 18.5 8.2 17.9 8.3 17.4L8.6 16.6L8.2 16.3C8 16.1 7.6 15.7 7.4 15.4C7.1 14.8 7 14.6 7 13.7C7 12.5 7.2 12 8.2 11.3C8.7 10.9 8.9 10.9 9.7 10.9C10.9 10.9 11.3 11.2 10.4 11.3C9.7 11.4 8.7 12.3 8.4 13.1C8.1 13.8 8.2 14.9 8.5 15.4C8.6 15.6 8.8 15.8 8.8 15.8L9.2 15.2C9.4 14.9 10 14 10.5 13.2C11.1 12.4 11.6 11.5 11.7 11.1C12.3 9.5 13.4 9 16.4 9S20.6 9.6 21.2 11.2C21.3 11.6 21.9 12.5 22.4 13.2S23.6 14.9 23.8 15.5C24.3 16.6 25 18.8 25 19.3C25 19.6 25 19.6 24.7 19.3C24.2 18.8 22.5 18.3 20.3 18.1C18.5 17.9 12.8 18 11.4 18.3C11.2 18.3 10.9 18.4 10.6 18.4C9.9 18.5 8.4 19.2 8.1 19.4C8 19.5 7.9 19.5 8 18.9z" />
    <glyph glyph-name="coffee_erb"
      unicode="&#xE010;"
      horiz-adv-x="32" d=" M16.8 22.9C16.3 22.8 16 22.6 14.5 21.9C13.7 21.5 12.6 21.4 12.3 21.7C12 22.1 12.4 22.3 13.3 22.3C14.1 22.3 14.3 22.4 14 22.6C13.4 23 12 22.7 11.7 22.2C11.6 21.9 11.6 21.8 11.8 21.5C12.3 21 12.7 20.8 13.8 20.9C14.6 20.9 15 21 15.8 21.5C17 22.1 18.3 22.4 19.1 22.3C19.9 22.2 20.1 21.9 19.6 21.6C19.2 21.3 18.2 21.2 17.8 21.6C17.4 21.8 16.9 21.8 16.9 21.4C16.9 20.9 18.4 20.5 19.7 20.8C21.2 21.1 21.2 22.4 19.7 22.9C19.1 23 17.6 23.1 16.8 22.9zM8.3 21.6C8 21.4 7.8 21.1 7.8 21C7.7 20.6 8.5 20 9.7 19.6C10.8 19.3 11.2 19.2 12.9 19C14 18.9 19 18.9 20 19C20.4 19.1 21 19.1 21.2 19.2C21.9 19.3 23.8 19.8 24.2 20.1C24.8 20.4 25.1 20.9 24.9 21.2C24.6 21.8 23.9 22.2 24.1 21.6C24.3 20.8 22 20 19 19.8C17.9 19.7 14.6 19.7 14 19.8C13.8 19.8 13.1 19.9 12.6 19.9C10.9 20 9 20.7 8.9 21.2C8.9 21.3 8.9 21.6 9 21.7C9.1 22 8.9 22 8.3 21.6zM8 18.9C8 18.5 8.2 17.9 8.3 17.4L8.6 16.6L8.2 16.3C8 16.1 7.6 15.7 7.4 15.4C7.1 14.8 7 14.6 7 13.7C7 12.5 7.2 12 8.2 11.3C8.7 10.9 8.9 10.9 9.7 10.9C10.9 10.9 11.3 11.2 10.4 11.3C9.7 11.4 8.7 12.3 8.4 13.1C8.1 13.8 8.2 14.9 8.5 15.4C8.6 15.6 8.8 15.8 8.8 15.8L9.2 15.2C9.4 14.9 10 14 10.5 13.2C11.1 12.4 11.6 11.5 11.7 11.1C12.3 9.5 13.4 9 16.4 9S20.6 9.6 21.2 11.2C21.3 11.6 21.9 12.5 22.4 13.2S23.6 14.9 23.8 15.5C24.3 16.6 25 18.8 25 19.3C25 19.6 25 19.6 24.7 19.3C24.2 18.8 22.5 18.3 20.3 18.1C18.5 17.9 12.8 18 11.4 18.3C11.2 18.3 10.9 18.4 10.6 18.4C9.9 18.5 8.4 19.2 8.1 19.4C8 19.5 7.9 19.5 8 18.9z" />
    <glyph glyph-name="coldfusion"
      unicode="&#xE011;"
      horiz-adv-x="32" d=" M10.8 17.5C10.4 17.5 9.9 17.6 9.5 17.5C7.9 17.3 6.3 17.2 5.3 15.8C3.9 14 3.6 12 4.6 10S7.3 7.1 9.5 7H13.5C16 7.1 18 8.2 19.5 10.2C20.3 11.2 20.9 12.3 21.3 13.5C21.6 14.3 22 14.6 22.8 14.6C23.6 14.5 24.3 14.6 25.1 14.6C25.4 14.6 25.8 14.6 25.8 15C25.9 15.8 26.1 16.6 25.7 17.3C25.4 17.9 24.7 17.5 24.2 17.6H23.7C23.2 17.6 23 17.7 23.2 18.3C23.8 19.7 24.8 20.8 26.3 21.3C26.8 21.5 27.6 21.3 27.8 21.9C28.1 22.3 28 23 28 23.6V24.5C28 24.8 27.8 25 27.4 25C25.5 24.8 23.7 24.3 22.5 22.8C21.2 21.1 20.3 19.2 19.5 17.2C18.8 15.3 18.2 13.4 16.9 11.9C16.3 11.2 15.5 10.7 14.6 10.5C12.7 10.2 10.8 10.3 8.9 10.7C7.9 10.9 7.4 11.6 7.4 12.5C7.4 13.5 8 14.2 9.1 14.5C10.1 14.7 11.1 14.6 12.1 14.7C12.7 14.7 12.9 14.9 12.9 15.5C12.9 18 13.1 17.6 10.9 17.6C11 17.5 10.9 17.5 10.8 17.5z" />
    <glyph glyph-name="config"
      unicode="&#xE012;"
      horiz-adv-x="32" d=" M24.5 14.7C24.1 14.8 23.7 15 23.4 15.1C23.4 15.8 23.3 16.4 23.3 17.1C23.3 17.2 23.4 17.2 23.4 17.3C23.8 17.5 24.1 17.6 24.5 17.8C24.9 18 25 18.4 24.9 18.8C24.6 19.5 24.3 20.1 24 20.8C23.8 21.2 23.4 21.4 23 21.2C22.6 21 22.3 20.9 21.9 20.7C21.8 20.7 21.7 20.7 21.7 20.8C21.5 21.1 21.2 21.3 21 21.5C20.8 21.7 20.5 21.9 20.3 22.1C20.5 22.5 20.6 22.9 20.8 23.3C21 23.8 20.8 24.2 20.3 24.4C19.7 24.5 19 24.8 18.4 25C17.9 25.2 17.5 25 17.3 24.5C17.2 24.1 17 23.7 16.9 23.4C16.2 23.4 15.6 23.3 14.9 23.3C14.8 23.3 14.8 23.4 14.7 23.4C14.5 23.8 14.4 24.1 14.2 24.5C14 24.9 13.6 25 13.2 24.9C12.5 24.6 11.9 24.3 11.2 24C10.8 23.8 10.6 23.4 10.8 23C11 22.6 11.1 22.3 11.3 21.9C11.3 21.8 11.3 21.7 11.2 21.7C11 21.5 10.8 21.4 10.7 21.2C10.4 20.9 10.2 20.6 9.9 20.3C9.5 20.4 9.1 20.6 8.8 20.7C8.3 20.9 7.9 20.7 7.7 20.2C7.5 19.7 7.2 19 7 18.4C6.8 17.8 6.9 17.5 7.5 17.3C7.9 17.2 8.3 17 8.6 16.9C8.6 16.2 8.7 15.6 8.7 14.9C8.7 14.8 8.6 14.8 8.6 14.7C8.2 14.5 7.9 14.4 7.5 14.2C7.1 14 7 13.6 7.1 13.2C7.4 12.5 7.7 11.9 8 11.2C8.2 10.8 8.6 10.6 9 10.8C9.4 11 9.7 11.1 10.1 11.3C10.2 11.3 10.3 11.3 10.3 11.2C10.5 10.9 10.8 10.7 11 10.5C11.2 10.3 11.5 10.1 11.7 9.9C11.5 9.5 11.4 9.1 11.2 8.7C11 8.2 11.2 7.8 11.7 7.6C12.3 7.4 12.9 7.1 13.6 6.9C14.2 6.7 14.5 6.8 14.7 7.4C14.8 7.8 15 8.2 15.1 8.5C15.8 8.5 16.4 8.6 17.1 8.6C17.2 8.6 17.2 8.5 17.3 8.5C17.5 8.1 17.6 7.8 17.8 7.4C18 7 18.4 6.9 18.8 7C19.5 7.3 20.1 7.6 20.8 7.9C21.2 8.1 21.4 8.5 21.2 8.9C21 9.3 20.9 9.6 20.7 10C20.7 10.1 20.7 10.2 20.8 10.2C21.1 10.4 21.3 10.7 21.5 10.9C21.7 11.1 21.9 11.4 22.1 11.6C22.5 11.5 22.9 11.3 23.2 11.2C23.7 11 24.1 11.2 24.3 11.7C24.5 12.3 24.8 12.9 25 13.6C25.2 14.1 25.1 14.5 24.5 14.7zM17.5 12.6C15.6 11.8 13.5 12.6 12.6 14.5C11.8 16.4 12.6 18.5 14.5 19.4C16.4 20.2 18.5 19.4 19.4 17.5C20.2 15.6 19.4 13.5 17.5 12.6z" />
    <glyph glyph-name="cpp"
      unicode="&#xE013;"
      horiz-adv-x="32" d=" M8.3 16.5C8.3 17.8 8.5 18.9 8.9 19.9C9.3 20.9 9.8 21.7 10.5 22.4C11.2 23.1 12 23.6 12.9 24S14.8 24.5 15.8 24.5S17.7 24.3 18.5 23.9C19.3 23.5 20 23 20.5 22.5L18.3 20C17.9 20.3 17.6 20.6 17.2 20.7S16.4 21 15.8 21C15.3 21 14.9 20.9 14.5 20.7C14.1 20.5 13.7 20.2 13.4 19.8S12.9 19 12.7 18.4C12.5 17.8 12.4 17.2 12.4 16.5C12.4 15 12.7 13.9 13.4 13.2C14.1 12.4 14.9 12 16 12C16.5 12 17 12.1 17.4 12.3C17.8 12.5 18.2 12.8 18.5 13.2L20.7 10.7C20 9.9 19.3 9.4 18.5 9C17.7 8.6 16.8 8.4 15.8 8.4S13.8 8.6 12.9 8.9S11.2 9.7 10.5 10.4S9.4 12.1 9 13.1C8.5 14.1 8.3 15.2 8.3 16.5z M18.2 19.1H16.8V17.4H15.2V16H16.8V14.2H18.2V16H19.8V17.4H18.2V19.1zM24.2 17.5V19.5H22.5V17.5H20.6V15.8H22.5V13.7H24.2V15.8H26.1V17.5H24.2z" />
    <glyph glyph-name="css"
      unicode="&#xE014;"
      horiz-adv-x="32" d=" M10.3 8.7L11.1 12.7H8.6V14.8H11.6L12.1 17.3H9.5V19.4H12.6L13.4 23.3H16.2L15.4 19.4H18.2L19 23.3H21.8L21 19.4H23.5V17.3H20.6L20 14.8H22.6V12.7H19.6L18.8 8.7H16L16.8 12.7H14L13.2 8.7H10.3zM17.2 14.8L17.7 17.3H14.9L14.4 14.8H17.2z" />
    <glyph glyph-name="csv"
      unicode="&#xE015;"
      horiz-adv-x="32" d=" M7 24.9H25V7.1H7z M16.9 18.2H22V16.9H16.9zM16.9 21.2H22V19.9H16.9zM16.9 12.2H22V10.9H16.9zM16.9 15.2H22V13.9H16.9zM9.9 18.2H15V16.9H9.9zM9.9 21.2H15V19.9H9.9zM9.9 12.2H15V10.9H9.9zM9.9 15.2H15V13.9H9.9z" />
    <glyph glyph-name="d"
      unicode="&#xE016;"
      horiz-adv-x="32" d=" M23.5 16.2C23.5 13.6 22.7 11.5 21 10.1C19.3 8.7 16.9 8 13.6 8H8.5V24H14.2C17.2 24 19.5 23.3 21.1 21.9C22.7 20.6 23.5 18.6 23.5 16.2zM19.5 16.1C19.5 19.5 17.8 21.3 14.3 21.3H12.3V10.8H14C17.7 10.8 19.5 12.5 19.5 16.1z" />
    <glyph glyph-name="db"
      unicode="&#xE017;"
      horiz-adv-x="32" d=" M16.4 18C14 18 11.7 18.1 9.4 18.6C8.8 18.7 8.3 19 7.7 19.2C7.4 19.3 7.3 19.5 7.3 19.8V23.3C7.3 23.5 7.4 23.7 7.6 23.7C8.3 24 8.9 24.3 9.6 24.4C12.1 25 14.5 25 17 25C19 25 21.1 24.8 23 24.3C23.4 24.2 23.9 24 24.3 23.8C24.6 23.7 24.7 23.5 24.7 23.2V19.7C24.7 19.5 24.5 19.3 24.4 19.2C24 19 23.6 18.8 23.2 18.7C21.8 18.5 20.4 18.2 19 18.1C18.1 18 17.2 18.1 16.4 18zM24.7 17.8V14.2C24.7 14 24.4 13.7 24.2 13.7C23.6 13.5 22.9 13.2 22.3 13.1C19.5 12.6 16.6 12.5 13.7 12.6C12.1 12.7 10.4 12.8 8.8 13.3C8.4 13.4 8 13.6 7.6 13.8C7.4 13.9 7.3 14.1 7.3 14.3V17.8C10.2 16.8 13.1 16.7 16 16.7C18.9 16.6 21.8 16.8 24.7 17.8zM24.7 12.2V8.7C24.7 8.5 24.4 8.2 24.2 8.1C23.4 7.8 22.6 7.5 21.8 7.4C17.8 6.8 13.8 6.8 9.7 7.5C9 7.6 8.3 7.9 7.7 8.1C7.4 8.2 7.3 8.4 7.3 8.8V12.2C10.1 11.2 13 11.1 16 11.1C18.9 11.1 21.8 11.2 24.7 12.2z" />
    <glyph glyph-name="default"
      unicode="&#xE018;"
      horiz-adv-x="32" d=" M8.1 14.6H23.9V12.5H8.1zM8.1 19.6H23.9V17.5H8.1zM8.1 24.6H23.9V22.5H8.1zM8.1 9.6H23.9V7.5H8.1z" />
    <glyph glyph-name="deprecation-cop"
      unicode="&#xE019;"
      horiz-adv-x="32" d=" M25 18.4V18.1C24.9 18 24.9 17.9 24.8 17.8C24.5 17.4 24.1 17 23.8 16.6C23.5 16.3 23.2 15.9 23.2 15.4C23.2 15.3 23.1 15.3 23 15.2C20.9 14.7 18.8 14.4 16.7 14.3C15.2 14.3 13.7 14.3 12.2 14.6C11.1 14.8 10.1 15 9 15.2C8.9 15.2 8.8 15.3 8.8 15.3C8.8 15.9 8.5 16.3 8.1 16.6C7.8 16.9 7.5 17.1 7.2 17.4C6.7 18 6.9 18.7 7.7 19C8.4 19.3 9.2 19.5 9.9 19.9C11.1 20.5 12.3 21.3 13.5 22C14.3 22.6 15 23 15.9 23.2H16.2C17 23 17.8 22.6 18.5 22.2C19.1 21.9 19.7 21.5 20.2 21.1C21.5 20.4 22.7 19.7 24.1 19.2C24.6 19.1 24.9 18.9 25 18.4zM16.1 19.6C15.4 19.6 14.8 19.2 14.4 18.8C14.4 18.8 14.3 18.7 14.3 18.6C14.4 17.8 14.7 17.1 15.2 16.5C15.3 16.3 15.5 16.2 15.7 16.1C16.2 15.9 16.6 16.1 16.9 16.5C17.4 17.1 17.7 17.8 17.8 18.6C17.8 18.7 17.8 18.7 17.7 18.8C17.3 19.2 16.8 19.6 16.1 19.6zM15.8 8.8C15.3 8.9 14.9 8.9 14.4 9C12.8 9.3 11.6 10.1 10.5 11.3C9.9 12 9.4 12.7 9 13.5C9 13.6 8.9 13.6 8.9 13.7V13.8C13.7 12.6 18.4 12.6 23.2 13.8V13.6C22.3 11.8 21 10.3 19.1 9.5C18.3 9.1 17.4 8.9 16.5 8.9H16.3C16.1 8.8 15.9 8.8 15.8 8.8z" />
    <glyph glyph-name="docker"
      unicode="&#xE01A;"
      horiz-adv-x="32" d=" M14.5 23.4H16.5V21.4H14.5zM14.5 21.1H16.5V19.1H14.5zM14.5 18.7H16.5V16.7H14.5zM12.2 21.1H14.2V19.1H12.2zM12.2 18.7H14.2V16.7H12.2zM9.8 21.1H11.8V19.1H9.8zM9.8 18.7H11.8V16.7H9.8zM7.5 18.7H9.5V16.7H7.5zM16.9 18.7H18.9V16.7H16.9z M27.1 18.4C26.7 18.5 26.2 18.6 25.8 18.6C25.3 18.5 25 18.7 24.8 19.2C24.6 19.7 24.3 20.1 23.9 20.4C23.3 21.1 22.7 20.9 22.4 20.1C22.2 19.4 22.2 18.6 22.3 17.9C22.5 17 22.4 16.8 21.5 16.6C20.4 16.3 5.2 16.4 5.2 16.4C5 16.4 4.9 15.9 4.9 15.4S5 13.4 5.3 12.7C6.3 10.5 8 8.9 10.5 8.7H15C17.9 8.8 20.2 10.2 22.2 12.3C23 13.2 23.7 14.2 24.2 15.3C24.4 15.7 24.7 15.9 25.1 16C25.8 16.1 26.4 16.2 26.9 16.6C27 16.8 27.2 17 27.3 17.1C28 17.6 27.9 18.2 27.1 18.4zM12.2 13.3C12.6 13.3 13 13 13 12.5S12.7 11.7 12.2 11.7C11.8 11.7 11.4 12 11.4 12.5S11.8 13.3 12.2 13.3zM7.3 11.1C8.1 11.2 8.9 11 9.6 11.2C10.5 11.5 11.2 11.4 11.7 10.4C12 9.8 12.7 9.5 13.4 9.1C11.2 8.8 8.8 9.6 7.3 11.1z" />
    <glyph glyph-name="editorconfig"
      unicode="&#xE01B;"
      horiz-adv-x="32" d=" M18.9 13.2C19.2 13.1 19.6 13 20 12.9C20 12.4 19.8 12.1 19.5 11.7C19.2 11.3 18.9 10.8 18.6 10.4C18.1 9.8 17.4 9.4 16.7 9C15.9 8.5 15 8.1 14.1 7.7C13.9 7.6 13.6 7.5 13.4 7.3C12.9 7 12.4 6.8 11.8 6.7C10.8 6.6 9.7 6.3 8.7 6.4C8 6.4 7.3 6.4 6.5 6.6C6.2 6.7 6.1 6.9 6 7.2C5.9 7.4 5.9 7.5 5.9 7.8C6.1 7.6 6.2 7.5 6.4 7.4C6.8 7 7.3 6.9 7.8 7.1H8C8.2 7.1 8.4 7.2 8.5 7.4C8.5 7.6 8.4 7.8 8.3 8C8.3 8.1 8.2 8.1 8.1 8.1C7.7 8.2 7.4 8.4 7 8.5C6.7 8.6 6.3 8.7 5.9 8.5C6 8.8 6 9.1 6.1 9.4C6.3 10.3 6.5 11.2 6.7 12C6.9 12.7 7.1 13.3 7.3 14C7.4 14.2 7.5 14.1 7.7 14.1C8.1 14 8.4 13.8 8.8 13.8C9.4 13.7 10.1 13.6 10.7 13.7C11.2 13.8 11.6 14 12 14.3C12.2 14.5 12.6 14.5 12.8 14.2V14C12.8 12.9 13.3 12.2 14.1 11.6C14.4 11.4 14.8 11.3 15.2 11.3H16.7C17.3 11.3 17.9 11.5 18.4 11.8C18.5 11.9 18.6 12 18.7 12.2C18.8 12.6 18.9 12.9 18.9 13.2zM20.1 13.3C19.7 13.4 19.3 13.4 19.1 13.4C18.9 13.6 18.8 13.7 18.6 13.8C17.8 14.2 16.9 14.4 16.1 14.6C15.2 14.8 14.4 14.8 13.5 14.8C13.4 14.8 13.3 14.7 13.2 14.7C13.1 14.6 13 14.6 12.9 14.7C12.8 14.8 12.7 14.8 12.5 14.8C12.4 14.8 12.4 14.9 12.4 15C12.5 15.3 12.3 15.6 12.1 15.7C11.3 16.1 10.5 16.5 9.6 16.9C9.3 17 9 17 8.7 17.1C8.9 17.7 9.2 18.1 9.5 18.6C9.7 18.9 9.8 19.2 10 19.4C10.3 19.8 10.7 20.2 11.1 20.4C11.3 20.5 11.5 20.5 11.6 20.5C12.4 20.6 13.3 20.6 14.1 20.5C14.7 20.4 15.4 20.3 16 20.1C16.5 19.9 16.9 19.8 17.4 19.6C17.8 19.4 18.1 19.2 18.5 19C18.7 18.8 18.9 18.6 18.9 18.3C19.1 17.8 19.3 17.2 19.4 16.7C19.5 16.2 19.7 15.7 19.8 15.3C20 14.6 20 14 20.1 13.3zM16 25.2C16 25.4 16 25.7 15.7 25.8C15.4 26 15 26.1 14.6 26.2C14.4 26.3 14.1 26.3 13.9 26.3C13.8 26.3 13.7 26.3 13.6 26.2C13 26 12.5 25.6 11.9 25.1C11.7 25 11.6 24.9 11.5 24.7C11.2 24.1 10.9 23.6 10.6 23C10.4 22.6 10.3 22.2 10.3 21.7L10.6 21.8C11 21.9 11.3 22 11.6 22C12.5 22 13.4 22 14.2 21.9H14.4C14.6 21.9 14.7 22 14.8 22.1C14.9 22.2 15 22.4 15.1 22.5C15.9 23.3 16.2 24.2 16 25.2zM15.3 25.8L15 25.9C15.1 25.9 15.2 25.8 15.3 25.8zM26.8 16.9C26.8 17.2 26.7 17.4 26.5 17.6C26.3 17.9 26 18.2 25.6 18.4H25.5C25.3 18.5 25.1 18.6 24.8 18.6H24C23.3 18.6 22.6 18.4 22 18C21.6 17.8 21.3 17.4 20.9 17.2L21.1 16C21.2 15.5 21.3 15 21.3 14.4V12.9H21.4C22 12.7 22.6 12.7 23.2 12.9C24.1 13.2 24.9 13.8 25.6 14.4C26.1 14.9 26.6 15.5 26.8 16.3V16.9z" />
    <glyph glyph-name="ejs"
      unicode="&#xE01C;"
      horiz-adv-x="32" d=" M7.5 17.1L13.9 23V20.2L9.1 16L13.9 11.8V9L7.5 14.9V17.1zM24.5 14.8L18.1 8.9V11.7L23 15.9V16L18.1 20.2V23.1L24.5 17.2V14.8z" />
    <glyph glyph-name="elixir"
      unicode="&#xE01D;"
      horiz-adv-x="32" d=" M17.314 21.994C18.958 18.463 23.239 16.988 22.852 12.393C22.396 6.981 18.547 5.621 16.419 5.525C14.291 5.428 10.228 6.178 9.115 11.28C7.866 17.011 13.323 25.814 16.467 27.072C16.346 25.645 16.651 23.416 17.314 21.994zM14.515 7.384C15.954 7.085 17.057 6.877 17.188 7.456C17.385 8.329 14.029 8.821 11.786 9.064C12.459 8.354 13.818 7.529 14.515 7.384z" />
    <glyph glyph-name="elixir_script"
      unicode="&#xE01E;"
      horiz-adv-x="32" d=" M19.182 19.368C21.01 17.375 23.129 15.685 22.852 12.393C22.396 6.981 18.547 5.621 16.419 5.525C14.291 5.428 10.228 6.178 9.115 11.28C7.866 17.011 13.323 25.814 16.467 27.072C16.351 25.699 16.629 23.581 17.241 22.156A7.650000000000001 7.650000000000001 0 0 1 16.578 22.184C15.239 22.184 14.15 21.82 13.308 21.09C12.467 20.361 12.047 19.424 12.047 18.278C12.047 17.622 12.208 17.098 12.531 16.708C12.854 16.317 13.515 15.913 14.515 15.497L15.445 15.106C15.804 14.955 16.075 14.761 16.258 14.524C16.44 14.287 16.531 14.007 16.531 13.684C16.531 13.163 16.333 12.75 15.937 12.446C15.541 12.141 14.997 11.989 14.304 11.989C13.747 11.989 13.192 12.099 12.64 12.321A5.906 5.906 0 0 0 11.054 13.286L10.594 10.903A10.82 10.82 0 0 1 12.457 10.286A7.869000000000001 7.869000000000001 0 0 1 14.211 10.083C15.638 10.083 16.771 10.439 17.609 11.153C18.448 11.866 18.867 12.822 18.867 14.02C18.867 14.713 18.691 15.297 18.34 15.774C17.988 16.25 17.432 16.658 16.672 16.997L15.765 17.395L15.711 17.418C14.752 17.851 14.273 18.286 14.273 18.723C14.273 19.181 14.466 19.558 14.851 19.852C15.237 20.146 15.737 20.293 16.351 20.293C16.929 20.293 17.456 20.211 17.929 20.047C18.403 19.883 18.817 19.64 19.172 19.317L19.182 19.368zM14.515 7.384C15.954 7.085 17.057 6.877 17.188 7.456C17.385 8.329 14.029 8.821 11.786 9.064C12.459 8.354 13.818 7.529 14.515 7.384z" />
    <glyph glyph-name="elm"
      unicode="&#xE01F;"
      horiz-adv-x="32" d=" M16 15.467L6.819 6.286H25.18z M21.641 10.892L25.714 6.819V14.965z M15.467 16L6.286 25.181V6.82z M25.714 17.077V25.714H17.077z M21.13 20.597L25.705 16.021L21.108 11.425L16.533 16zM6.819 25.714L11.048 21.485H20.241L16.011 25.715z M16 16.533L20.199 20.731H11.8z" />
    <glyph glyph-name="error"
      unicode="&#xE020;"
      horiz-adv-x="32" d=" M6 8C7.9 11 9.7 13.9 11.6 16.9C13.1 19.2 14.5 21.6 16 23.9V23.8C18 20.6 20 17.4 22 14.3C23.3 12.2 24.7 10.1 26 7.9C19.3 8 12.7 8 6 8zM15 19.1V13.1H17V19.1H15zM17 10.1V12.1H15V10.1H17z" />
    <glyph glyph-name="eslint"
      unicode="&#xE021;"
      horiz-adv-x="32" d=" M21.8 25H10.5L5.4 16L10.5 7H21.8L26.5 16L21.8 25zM16 8.7L9.7 12.3V19.4L16 23.3L22.3 19.4V12.3L16 8.7z M11.8 18.3V13.5L16 11.1L20.2 13.5V18.3L16 20.9z" />
    <glyph glyph-name="favicon"
      unicode="&#xE022;"
      horiz-adv-x="32" d=" M16 26.5L19.1 20.2L26 19.2L21 14.4L22.2 7.5L16 10.7L9.8 7.5L11 14.4L6 19.2L12.9 20.2z" />
    <glyph glyph-name="folder"
      unicode="&#xE023;"
      horiz-adv-x="32" d=" M28.8 25.1H16.1V26.3C16.1 27.7 15 28.8 13.6 28.8H0.6V3.2H31.2V22.6C31.3 24 30.2 25.1 28.8 25.1z" />
    <glyph glyph-name="font"
      unicode="&#xE024;"
      horiz-adv-x="32" d=" M21.1 13.7H17.8L17.4 12.8C17.3 12.5 17.2 12.3 17.2 12.1C17.2 11.8 17.3 11.6 17.5 11.5C17.6 11.4 17.9 11.4 18.4 11.3V11H15.3V11.3C15.6 11.4 15.9 11.5 16.1 11.7S16.6 12.4 16.9 13.1L20.2 20.5H20.3L23.6 12.9C23.9 12.2 24.2 11.7 24.4 11.5C24.6 11.4 24.8 11.3 25.1 11.3V11H20.6V11.3H21C21.4 11.3 21.6 11.4 21.8 11.5C21.9 11.6 22 11.7 22 11.8V12.1S21.9 12.3 21.8 12.6L21.1 13.7zM20.9 14.3L19.5 17.5L18.1 14.3H20.9z M6.7 9.6C7.2 9.6 7.6 9.9 7.9 10.3C8.1 10.6 8.4 11.1 8.7 12L13.1 22.9H13.7L18.2 12.4C18.7 11.2 19.1 10.5 19.3 10.1S19.9 9.6 20.4 9.6V9.1H13.9V9.6C14.6 9.6 15 9.7 15.2 9.8C15.4 9.9 15.5 10.1 15.5 10.4C15.5 10.6 15.4 10.8 15.3 11.1C15.2 11.3 15.1 11.5 15 11.8L14.5 13H10C9.7 12.2 9.5 11.7 9.4 11.4C9.2 10.9 9.1 10.5 9.1 10.3C9.1 10 9.3 9.8 9.7 9.7C9.9 9.6 10.3 9.6 10.7 9.6V9.1H6.7V9.6zM14.2 13.8L12.3 18.4H12.1L10.3 13.8H14.2z" />
    <glyph glyph-name="git_folder"
      unicode="&#xE025;"
      horiz-adv-x="32" d=" M7 15.8V16.1C7.1 16.6 7.4 16.8 7.7 17.2L12.5 22L12.7 22.2S12.8 22.2 12.8 22.1L14.6 20.3C14.7 20.2 14.7 20.1 14.6 20C14.5 19.4 14.7 18.8 15.2 18.5C15.4 18.4 15.4 18.3 15.4 18.1V13.7C15.4 13.5 15.3 13.4 15.2 13.3C14.7 13 14.4 12.4 14.6 11.8C14.8 11.2 15.3 10.8 15.9 10.8C16.5 10.8 17 11.2 17.2 11.7C17.4 12.3 17.2 12.9 16.7 13.3C16.5 13.4 16.5 13.5 16.5 13.7V18.2H16.6L18.2 16.6C18.3 16.5 18.3 16.4 18.3 16.4V15.8C18.4 15 19.1 14.5 19.9 14.6C20.7 14.7 21.3 15.5 21.1 16.3C21 17 20.2 17.5 19.5 17.4C19.4 17.4 19.3 17.4 19.1 17.5L17.4 19.2C17.3 19.3 17.3 19.4 17.3 19.5C17.5 20.4 16.6 21.3 15.7 21.1C15.6 21.1 15.4 21.1 15.4 21.2C14.8 21.8 14.2 22.4 13.6 22.9C13.5 23 13.5 23.1 13.6 23.2C14.1 23.6 14.5 24.1 14.9 24.5C15.5 25.1 16.1 25.1 16.7 24.5L24.3 16.9C24.9 16.3 24.9 15.7 24.3 15.1L17 7.8C16.7 7.5 16.4 7.1 15.9 7H15.7C15.5 7.1 15.2 7.2 15 7.4C14.4 8 13.7 8.6 13.1 9.3L7.6 14.8C7.5 15.1 7.1 15.4 7 15.8z" />
    <glyph glyph-name="git_ignore"
      unicode="&#xE026;"
      horiz-adv-x="32" d=" M7 15.8V16.1C7.1 16.6 7.4 16.8 7.7 17.2L12.5 22L12.7 22.2S12.8 22.2 12.8 22.1L14.6 20.3C14.7 20.2 14.7 20.1 14.6 20C14.5 19.4 14.7 18.8 15.2 18.5C15.4 18.4 15.4 18.3 15.4 18.1V13.7C15.4 13.5 15.3 13.4 15.2 13.3C14.7 13 14.4 12.4 14.6 11.8C14.8 11.2 15.3 10.8 15.9 10.8C16.5 10.8 17 11.2 17.2 11.7C17.4 12.3 17.2 12.9 16.7 13.3C16.5 13.4 16.5 13.5 16.5 13.7V18.2H16.6L18.2 16.6C18.3 16.5 18.3 16.4 18.3 16.4V15.8C18.4 15 19.1 14.5 19.9 14.6C20.7 14.7 21.3 15.5 21.1 16.3C21 17 20.2 17.5 19.5 17.4C19.4 17.4 19.3 17.4 19.1 17.5L17.4 19.2C17.3 19.3 17.3 19.4 17.3 19.5C17.5 20.4 16.6 21.3 15.7 21.1C15.6 21.1 15.4 21.1 15.4 21.2C14.8 21.8 14.2 22.4 13.6 22.9C13.5 23 13.5 23.1 13.6 23.2C14.1 23.6 14.5 24.1 14.9 24.5C15.5 25.1 16.1 25.1 16.7 24.5L24.3 16.9C24.9 16.3 24.9 15.7 24.3 15.1L17 7.8C16.7 7.5 16.4 7.1 15.9 7H15.7C15.5 7.1 15.2 7.2 15 7.4C14.4 8 13.7 8.6 13.1 9.3L7.6 14.8C7.5 15.1 7.1 15.4 7 15.8z" />
    <glyph glyph-name="github"
      unicode="&#xE027;"
      horiz-adv-x="32" d=" M17.8 11.4C18.2 11.5 18.6 11.5 19 11.6C20.2 11.9 21.2 12.5 21.7 13.6C22.3 14.8 22.4 16 22.1 17.3C22 17.9 21.7 18.3 21.3 18.8C21.2 18.9 21.2 19 21.2 19.1C21.4 19.9 21.4 20.6 21.1 21.4C21.1 21.5 21 21.6 20.8 21.6C20.3 21.6 19.9 21.4 19.5 21.2S18.8 20.8 18.5 20.6C18.4 20.5 18.3 20.5 18.2 20.5C16.6 20.9 15.1 20.9 13.5 20.5C13.4 20.5 13.3 20.5 13.2 20.6C12.5 21 11.9 21.4 11.1 21.5C10.6 21.6 10.6 21.6 10.5 21.1C10.3 20.4 10.3 19.7 10.5 19V18.8C9.6 17.8 9.4 16.5 9.6 15.3C9.7 14.9 9.7 14.6 9.8 14.2C10.3 12.8 11.3 12 12.8 11.6C13.2 11.5 13.6 11.4 14.1 11.3C13.8 11 13.6 10.5 13.5 10.1C13.5 10 13.4 10 13.4 10C12.4 9.6 11.3 9.7 10.6 10.8C10.3 11.3 9.9 11.7 9.2 11.8H8.7C8.5 11.8 8.5 11.6 8.6 11.5L8.8 11.3C9.3 11 9.7 10.5 9.9 9.9C10.3 9 11 8.6 12 8.5C12.4 8.5 12.9 8.5 13.4 8.6V6.7C13.4 6.4 13.1 6.2 12.7 6.3C11.9 6.6 11.1 7 10.3 7.5C7.3 9.6 5.7 12.5 5.9 16.2C6.1 20.8 9.5 24.5 14 25.4C19.2 26.4 24.2 23.2 25.6 18.1C26.9 13.1 24 7.9 19.2 6.3C18.7 6.1 18.4 6.3 18.4 6.9V9.3C18.5 10.1 18.4 10.8 17.8 11.4z" />
    <glyph glyph-name="go"
      unicode="&#xE028;"
      horiz-adv-x="32" d=" M18.3 22C17.2 22 16.4 22.6 16.2 23.6C16.1 24.2 16.3 24.7 16.7 25.1C17.3 25.8 18.3 26 19.2 25.7C20 25.4 20.5 24.7 20.4 23.8C20.4 23 19.9 22.4 19 22.1C18.7 22 18.5 22 18.3 22zM16.6 23.8C16.6 23.4 16.9 23.1 17.2 23.1S17.8 23.4 17.8 23.8C17.8 24.2 17.5 24.5 17.2 24.5C16.9 24.4 16.6 24.1 16.6 23.8zM13.1 25.6C15 25.6 15.5 24 15 22.9C14.7 22.2 14.1 21.9 13.3 21.8C12.3 21.6 11.4 22.2 11.1 23.1C10.7 24.2 11.4 25.3 12.6 25.6H13.1zM12.7 23.6C12.7 24 12.4 24.3 12.1 24.3S11.5 24 11.5 23.6C11.5 23.2 11.8 22.9 12.1 22.9S12.7 23.2 12.7 23.6zM15.9 22.6C16.1 22.6 16.3 22.6 16.5 22.5C16.8 22.4 16.9 22.1 16.8 21.9C16.8 21.8 16.8 21.8 16.9 21.7C17.1 21.6 17.2 21.5 17.4 21.3S17.6 20.9 17.5 20.7C17.4 20.5 17.1 20.4 16.9 20.5C16.8 20.5 16.6 20.6 16.5 20.7C16.2 20.8 15.9 20.8 15.6 20.7C15.4 20.6 15.2 20.5 15 20.5C14.6 20.5 14.4 20.7 14.5 21.1C14.5 21.4 14.7 21.6 14.9 21.7C14.9 21.7 15 21.7 15 21.8C14.9 22.2 15.2 22.3 15.4 22.5C15.5 22.6 15.7 22.6 15.9 22.6zM15.8 21.5C16.1 21.5 16.4 21.6 16.6 21.7C16.9 21.9 16.9 22.1 16.7 22.3C16.6 22.4 16.4 22.5 16.3 22.5C16 22.6 15.6 22.5 15.4 22.3C15.1 22 15.2 21.7 15.6 21.6C15.5 21.5 15.6 21.5 15.8 21.5z M16.7 19.9V19.7C16.7 19.5 16.6 19.3 16.4 19.3C16.2 19.3 16 19.5 16 19.6C15.9 19.9 16 20.2 16 20.6C16 20.7 16 20.7 16.1 20.7C16.3 20.7 16.5 20.6 16.6 20.5C16.7 20.5 16.7 20.4 16.7 20.4V19.9zM15.8 20.1V19.8C15.8 19.6 15.7 19.5 15.6 19.4C15.4 19.2 15.2 19.3 15.1 19.5C15 19.7 15 20 15 20.3C15 20.4 15 20.4 15.1 20.4C15.3 20.5 15.5 20.5 15.7 20.6C15.8 20.6 15.8 20.6 15.8 20.5V20.1z M10.5 5H10.3C10.2 5.1 10 5.2 9.9 5.4C9.7 5.6 9.7 5.9 10 6.2C10.2 6.5 10.6 6.7 10.9 6.9C10.1 7.6 9.7 8.4 9.5 9.4C9.3 10.1 9.3 10.9 9.3 11.7C9.3 12.9 9.5 14 9.5 15.2C9.2 15 8.9 14.8 8.5 14.7H8.3C8.1 14.9 8 15.1 8 15.3C8 15.5 8.2 15.7 8.3 15.8C8.6 16 8.9 16.1 9.3 16.1C9.5 16.1 9.5 16.2 9.5 16.3C9.4 17.3 9.3 18.3 9.3 19.3C9.2 20.3 9.2 21.4 9.4 22.4C9.5 22.9 9.5 22.9 9.1 23C8.6 23.3 8.3 23.9 8.4 24.4C8.6 25.5 9.8 26 10.8 25.5C10.9 25.4 11 25.4 11.1 25.5C11.6 25.9 12.1 26.2 12.7 26.4C14.4 27 16.2 27.1 17.9 26.8C18.8 26.7 19.7 26.4 20.4 25.8C20.6 25.6 20.8 25.6 21 25.7C21.8 26.1 22.7 25.8 23.1 25C23.5 24.2 23.2 23.5 22.3 23.1C22.2 23 22.2 23 22.2 22.9C22.5 21.9 22.6 20.9 22.6 19.8C22.6 18.6 22.6 17.5 22.7 16.3C22.7 16.1 22.7 16.1 22.9 16C23.3 16 23.6 15.8 23.9 15.5C24.1 15.3 24.1 15.2 23.9 14.9V14.8C23.9 14.6 23.7 14.5 23.5 14.5S23.1 14.6 23 14.7C22.9 14.7 22.8 14.8 22.7 14.8V14.7C22.7 14.1 22.8 13.5 22.8 12.8C22.8 11.7 22.8 10.7 22.6 9.6C22.4 8.6 22 7.6 21.3 6.8C21.2 6.7 21.2 6.6 21.3 6.5C21.6 6.3 21.9 6 22.1 5.6C22.2 5.3 22.1 5.1 21.8 4.9C21.6 4.7 21.4 4.8 21.2 4.9L20.8 5.3C20.6 5.5 20.5 5.7 20.3 5.8C20.2 5.9 20.1 5.9 20 5.8C18.9 5.2 17.7 5 16.5 5C15.1 4.9 13.6 5.1 12.3 5.7H12.2C12 5.5 11.6 5.4 11.4 5.2C11.1 5.4 10.8 5.2 10.5 5zM18.3 22C18.5 22 18.8 22 19 22.1C19.8 22.4 20.3 23 20.4 23.8C20.4 24.7 19.9 25.4 19.2 25.7C18.4 26 17.3 25.7 16.7 25.1C16.3 24.7 16.1 24.2 16.2 23.6C16.4 22.6 17.2 22 18.3 22zM13.1 25.6H12.6C11.4 25.4 10.7 24.3 11.1 23.1C11.4 22.2 12.3 21.7 13.3 21.8C14 21.9 14.6 22.2 15 22.9C15.5 24 15 25.6 13.1 25.6zM15.9 22.6C15.7 22.6 15.5 22.6 15.3 22.5C15 22.3 14.8 22.2 14.9 21.8C14.9 21.7 14.8 21.7 14.8 21.7C14.6 21.6 14.4 21.4 14.4 21.1C14.3 20.7 14.6 20.5 14.9 20.5C15.1 20.5 15.3 20.6 15.5 20.7C15.8 20.8 16.1 20.8 16.4 20.7C16.5 20.6 16.7 20.6 16.8 20.5C17.1 20.4 17.3 20.5 17.4 20.7C17.5 20.9 17.5 21.1 17.3 21.3C17.2 21.5 17 21.6 16.8 21.7C16.7 21.7 16.7 21.8 16.7 21.9C16.8 22.2 16.7 22.4 16.4 22.5C16.3 22.6 16.1 22.6 15.9 22.6zM16.7 19.9V20.4C16.7 20.5 16.7 20.5 16.6 20.5C16.4 20.6 16.2 20.6 16.1 20.7C16 20.7 16 20.7 16 20.6C16 20.3 15.9 20 16 19.6C16 19.4 16.2 19.2 16.4 19.3C16.6 19.3 16.7 19.5 16.7 19.7V19.9zM15.8 20.1V20.5C15.8 20.6 15.8 20.6 15.7 20.6C15.5 20.5 15.3 20.5 15.1 20.4C15 20.4 15 20.3 15 20.3C15 20 15 19.8 15.1 19.5C15.2 19.3 15.4 19.2 15.6 19.4C15.7 19.5 15.8 19.6 15.8 19.8C15.7 19.9 15.8 20 15.8 20.1z M16.6 23.8C16.6 24.2 16.9 24.5 17.2 24.5S17.8 24.2 17.8 23.8C17.8 23.4 17.5 23.1 17.2 23.1S16.6 23.4 16.6 23.8zM17.7 23.6C17.7 23.7 17.7 23.8 17.6 23.8S17.5 23.7 17.5 23.6S17.5 23.4 17.6 23.4C17.6 23.4 17.6 23.5 17.7 23.6zM12.7 23.6C12.7 23.2 12.4 22.9 12.1 22.9S11.5 23.2 11.5 23.6C11.5 24 11.8 24.3 12.1 24.3S12.7 24 12.7 23.6zM12.4 23.3C12.5 23.3 12.5 23.4 12.5 23.4C12.5 23.5 12.5 23.6 12.4 23.6S12.3 23.5 12.3 23.5C12.2 23.4 12.3 23.3 12.4 23.3zM15.8 21.5C15.7 21.5 15.5 21.5 15.4 21.6C15 21.7 15 22 15.2 22.3C15.5 22.5 15.8 22.6 16.1 22.5C16.3 22.5 16.4 22.4 16.5 22.3C16.7 22.1 16.7 21.8 16.4 21.7C16.3 21.6 16.1 21.5 15.8 21.5z M17.7 23.6C17.7 23.5 17.7 23.4 17.6 23.4S17.5 23.5 17.5 23.6S17.5 23.8 17.6 23.8C17.6 23.8 17.6 23.7 17.7 23.6zM12.4 23.3C12.3 23.3 12.3 23.4 12.3 23.5S12.3 23.7 12.4 23.6C12.5 23.6 12.5 23.5 12.5 23.4S12.5 23.3 12.4 23.3z" />
    <glyph glyph-name="go2"
      unicode="&#xE029;"
      horiz-adv-x="32" d=" M11.3 7C11.8 7.1 12.1 6.6 12.6 6.6C12.4 6.1 11.3 5.9 11 6.3C10.8 6.6 11.1 6.8 11.3 7zM19.4 6.5C19.8 6.7 20.2 7.1 20.7 7.1C20.9 6.9 21.2 6.7 21.1 6.4C21 6.1 20.7 6.1 20.4 6.1C20 6.1 19.6 6.1 19.4 6.5zM9.3 14.1C9.9 13.8 9.8 13.3 9.8 12.8C9.8 12.5 9.5 12.4 9.2 12.4C8.6 13 8.7 13.5 9.3 14.1zM22.8 12.4C22.5 12.4 22.2 12.5 22.2 12.8C22.2 13.3 22.1 13.8 22.7 14.1C23.3 13.5 23.4 13 22.8 12.4z M23.6 23.5C23.3 23.9 22.9 24 22.4 23.8C21.9 23.7 21.6 23.8 21.2 24.1C18.4 26.5 13.9 26.6 11 24.3C10.5 23.9 10 23.7 9.3 23.8C8.6 24 8 23.3 8.2 22.7C8.3 22.3 8.7 22.1 9 21.9C9.2 21.8 9.4 21.6 9.4 21.3C9.3 18.8 9.7 16.3 9.3 13.8C9.5 13.3 9.7 12.8 9.2 12.3C9.2 11.8 9.3 11.2 9.3 10.7C9.5 9.4 9.9 8.3 10.9 7.4C11.1 7.3 11.3 7.1 11.3 6.9C11.7 6.8 12.1 6.3 12.6 6.5C14.8 6 17.1 5.9 19.3 6.5C19.8 6.5 20.2 6.8 20.6 7.1C22.2 8.5 22.6 10.4 22.7 12.4C22.2 12.9 22.4 13.4 22.6 13.9C22.6 15.1 22.4 16.2 22.4 17.4C22.5 18.5 22.7 19.6 22.5 20.8C22.4 21.4 22.6 21.8 23.1 22.2C23.9 22.5 24 23 23.6 23.5zM12.9 18C11.9 17.9 10.9 19 10.9 20.1C10.9 21.5 11.9 22.6 13.2 22.6C14.5 22.6 15.2 21.8 15.2 20.5C15.3 18.9 14.1 18.1 12.9 18zM19.1 18C18 18.1 16.7 18.8 16.8 20.5C16.8 21.8 17.6 22.6 18.8 22.6S21.1 21.5 21.1 20.1C21.1 19.1 20.1 18 19.1 18z M16.8 17.9C16.9 17.9 17 17.8 17.1 17.8C17.3 17.6 17.7 17.4 17.6 17C17.5 16.6 17.1 16.5 16.7 16.4C16.2 16.3 15.7 16.4 15.3 16.4C14.9 16.5 14.5 16.6 14.5 17.2C14.5 17.6 14.8 17.8 15.3 17.9C15.6 17.2 16.4 17.3 16.8 17.9z M16.8 17.9C16.9 17.3 16.5 17.2 16.1 17.2C15.6 17.2 15.1 17.2 15.2 17.9C15.7 18.4 16.3 18.4 16.8 17.9z" />
    <glyph glyph-name="gradle"
      unicode="&#xE02A;"
      horiz-adv-x="32" d=" M14.2 22.5H19.9L22.8 17.6H26C25.3 22.4 21.1 26.1 16.1 26.1C14.8 26.1 13.6 25.9 12.5 25.4L14.2 22.5 M22.9 14.6L19.9 9.4H12.3L8.5 16L11.5 21.2L9.9 23.9C7.5 22.1 6 19.2 6 16C6 10.4 10.5 5.9 16.1 5.9C21.2 5.9 25.4 9.6 26 14.5L22.9 14.6 M19.6 16C19.6 14 18 12.4 16 12.4S12.4 14 12.4 16S14 19.6 16 19.6S19.6 18 19.6 16" />
    <glyph glyph-name="grails"
      unicode="&#xE02B;"
      horiz-adv-x="32" d=" M15.5 9.2H15.2C15.1 9.3 14.9 9.3 14.8 9.3C14.5 9.4 14.1 9.5 13.8 9.6C13.5 9.8 13.4 10 13.6 10.3C13.8 10.6 13.9 10.9 14 11.2C14.5 12.3 14.9 13.4 14.7 14.7C14.6 15.7 14.1 16.5 13.1 16.9C12.3 17.2 11.5 17.6 10.9 18.2C9.5 19.5 8.5 20.9 8.6 22.9H23.4C23.4 21.9 23.2 21 22.7 20.2C21.8 18.6 20.5 17.6 18.9 16.9C17.9 16.4 17.3 15.6 17.2 14.5C17.1 13.1 17.7 11.8 18.3 10.6C18.6 10 18.5 9.9 17.9 9.6C17.7 9.5 17.6 9.5 17.4 9.4C17.1 9.3 16.7 9.3 16.4 9.2H16C15.9 9.3 15.7 9.3 15.5 9.2zM28 18.1C27.8 17.9 27.8 17.6 27.7 17.4C27.2 16.3 26.4 15.5 25.3 15.2C24.5 15 24.3 14.4 24.3 13.7C24.2 12.9 24.5 12.2 24.8 11.5C25.1 10.9 25 10.7 24.3 10.6C23.6 10.5 23 10.5 22.3 10.7C22 10.8 21.9 11 22.1 11.3C22.5 12 22.8 12.7 22.7 13.6C22.6 14.6 22.4 14.9 21.7 15C21.5 15 21.3 15.1 21.2 15.3C21.3 15.3 21.3 15.4 21.4 15.4C23 16 24.1 17.1 24.9 18.5C25 18.7 25.2 18.7 25.4 18.7H28V18.1zM4 18.8H6.5C6.7 18.8 6.8 18.8 6.9 18.6C7.8 17.1 9.1 16.1 10.7 15.4C10.6 15.3 10.5 15.3 10.4 15.2C9.6 14.9 9.3 14.4 9.3 13.5C9.3 12.9 9.5 12.3 9.8 11.7C9.9 11.5 10 11.3 10.1 11.2C10.2 11 10.2 10.8 10 10.8C9.1 10.4 8.2 10.4 7.3 10.8C7 10.8 7 11 7.1 11.3C7.5 12.1 7.9 12.9 7.8 13.8C7.7 14.6 7.5 14.8 6.8 15C5.5 15.4 4.7 16.4 4.2 17.6C4.1 17.7 4.2 17.9 4 17.9V18.8z" />
    <glyph glyph-name="grunt"
      unicode="&#xE02C;"
      horiz-adv-x="32" d=" M22.5 15.6C22.9 15.8 23.4 16 23.8 16.3C24.7 16.9 24.7 18 23.8 18.4C23.6 18.5 23.5 18.7 23.4 19C23.3 19.6 23.4 20.1 23.7 20.6C24.4 21.6 23.9 22.4 22.6 22.5H22.5L22.4 22.6C22.3 23.1 22.2 23.5 22.8 23.9C23 24 23.3 24.1 23.6 24.2C23.8 24.3 24 24.3 24.1 24.3C24.1 24.4 24 24.4 24 24.4C23.3 25.2 22.3 25.4 21.4 25.3C20.2 25.2 19.5 24.6 18.8 23.8C18.7 23.6 18.5 23.6 18.3 23.7S18.1 23.9 18.1 24C18.1 24.2 18.2 24.4 18.2 24.6L18.5 25.2C17.9 25.2 17.5 24.9 17 24.6C16.7 25.1 16.7 25.5 16.9 26C16 25.7 15.4 25.3 15.2 24.4C14.9 24.7 15 25.1 15 25.5H14.9C14.8 25.5 14.8 25.4 14.7 25.4C14.2 25 13.9 24.5 13.8 24C13.8 23.9 13.7 23.8 13.7 23.7C13.6 23.8 13.5 23.8 13.4 23.9C13 24.2 12.6 24.6 12.2 24.9C11 25.6 9.9 25.6 8.7 25L7.9 24.2C8.3 24 8.7 24 9.1 23.8C9.8 23.6 10 23.2 9.7 22.4C9.5 22.4 9.3 22.3 9.1 22.3C8.4 22.1 8.1 21.6 8.2 21C8.3 20.7 8.5 20.4 8.6 20.1C8.6 20 8.7 19.9 8.7 19.8V18.8C8.7 18.6 8.5 18.4 8.3 18.2C8.1 18 7.8 17.8 7.7 17.5C7.4 17 7.7 16.4 8.2 16C8.6 15.7 9 15.5 9.5 15.3C10.1 15 10.3 14.6 10.3 14.1C10.3 13.5 10.3 13 10.2 12.4C10.2 12.2 10.1 11.9 10.1 11.6C9.5 12.1 9.1 12.6 9 13.3C8.4 12.8 8.1 12.3 8.1 11.7C7.9 10.4 8.4 9.1 10 8.5C10.1 8.5 10.2 8.4 10.3 8.3C10.9 7.3 11.8 6.7 13 6.5C13.1 6.5 13.2 6.5 13.2 6.4C14.3 5.7 15.4 5.6 16.6 5.7C17.3 5.8 17.9 5.9 18.4 6.3C18.5 6.4 18.7 6.4 18.8 6.5C20 6.7 20.8 7.3 21.4 8.2L21.7 8.5C22.3 8.7 22.8 9 23.1 9.5C23.6 10.2 23.7 11.1 23.6 11.8C23.5 12.4 23.2 12.8 22.7 13.3C22.5 12.6 22.2 12.1 21.6 11.6C21.5 12.5 21.5 13.4 21.5 14.2C21.7 15 22 15.4 22.5 15.6zM14.1 10.3H18.6H14.1z" />
    <glyph glyph-name="gulp"
      unicode="&#xE02D;"
      horiz-adv-x="32" d=" M20.1 9.2C19.9 8.9 19.8 8.7 19.7 8.5C19.6 8.3 19.5 8 19.5 7.8C19.4 6.8 19.3 5.7 19.2 4.7C19.2 4.3 19 4.1 18.7 4C18 3.8 17.2 3.5 16.5 3.3H15.4C15.3 3.3 15.1 3.4 15 3.4C14.4 3.6 13.8 3.8 13.3 4.1C13.2 4.2 13 4.4 13 4.6C12.9 5.4 12.9 6.1 12.9 6.9C12.9 7.7 12.9 8.5 12.3 9.1V9.2C14.8 8.5 17.4 8.5 20.1 9.2zM21.6 21.9C21.5 20.5 21.3 19.1 21.2 17.7L20.8 13.6C20.7 12.6 20.6 11.5 20.5 10.4C20.5 9.7 20.1 9.4 19.5 9.3C18.5 9.1 17.6 9 16.6 8.9C15.2 8.8 13.8 8.9 12.4 9.3C11.9 9.4 11.8 9.8 11.7 10.2C11.7 10.7 11.6 11.2 11.5 11.6C11.4 12.5 11.3 13.4 11.2 14.4L11.1 15.3C11.1 15.4 11 15.5 11 15.6C10.9 17.2 10.6 18.7 10.4 20.3C10.3 20.8 10.3 21.3 10.3 21.8C14.1 21 17.9 21 21.6 21.9zM10.3 22.5C10.5 22.6 10.7 22.7 10.9 22.7C11.8 22.8 12.8 22.9 13.7 23C13.8 23 14.1 23.2 14.1 23.2C13.8 24.1 13.8 25 13.1 25.7C12.3 26.5 11.6 27.4 10.8 28.2C11.4 28.8 11.4 28.8 11.9 28.3C12.3 27.9 12.6 27.5 13 27.2C14.1 26.3 14.8 25.1 15 23.7C15.2 23.1 15.5 23 16 23C17.7 22.9 19.3 22.8 21 22.7C21.2 22.7 21.4 22.6 21.7 22.5C20 21.2 11.3 21.3 10.3 22.5z" />
    <glyph glyph-name="hacklang"
      unicode="&#xE02E;"
      horiz-adv-x="32" d=" M15.8 27V20.7C15.8 20.6 15.8 20.5 15.7 20.4L9.3 14S9.3 13.9 9.2 13.9V20.3C9.2 20.4 9.2 20.4 9.3 20.4C11.5 22.6 13.6 24.8 15.8 27zM23.8 17.8V11.4C23.8 11.3 23.8 11.3 23.7 11.3L17.2 4.8H17.1V11.2C17.1 11.3 17.1 11.3 17.2 11.3C19.4 13.4 21.5 15.6 23.8 17.8C23.7 17.8 23.7 17.8 23.8 17.8zM23.5 19.3L17.1 12.9V19.2C17.1 19.3 17.1 19.3 17.2 19.3H23.5zM15.9 19V12.7C15.9 12.6 15.9 12.6 15.8 12.6H9.5C11.6 14.8 13.7 16.9 15.9 19zM9.2 5S9.2 5.1 9.2 5V11.3C9.2 11.4 9.2 11.4 9.3 11.4H15.6C13.5 9.3 11.4 7.1 9.2 5z" />
    <glyph glyph-name="haml"
      unicode="&#xE02F;"
      horiz-adv-x="32" d=" M20 17C19 17.4 19.7 19 19.7 19L20.8 20S21.1 19.9 21.4 20.1C21.8 20.3 21.7 20.8 21.7 20.8L22.5 21.7S22.8 21.8 21.6 22.7S20 23.1 20 23.1L19.1 22.4S18.8 22.4 18.6 22.3S18.6 21.8 18.6 21.8L14.5 18.4L12.4 23.2S12.6 23.4 12.5 23.7C12.5 24 12.2 24 12.2 24C11.7 24.9 11.5 24.9 11.5 24.9C9.8 25.3 9.1 24.2 9.1 24.2C9 24.1 9.2 23.5 9.2 23.5S9 23.4 9.1 22.9C9.3 22.2 9.7 22.5 9.7 22.5L12.4 16.5C12.4 16 10.3 8.1 10.3 8.1C11.9 6.4 14.3 7.2 14.3 7.2C14.3 8.2 15.5 14 15.5 14C16.8 12.8 18.2 12.6 18.7 12.6C18.7 12.2 18.8 11.9 18.8 11.9S20.7 11.2 21.7 12.7C21.8 12.8 21.8 12.9 21.8 13C21.8 13 22.9 13.4 22.9 14.4C22.9 15.8 21 16.6 20 17zM22 13.4C22.2 14.1 21.8 14.5 21.8 14.5S21.7 13.9 20.6 13.6C19.5 13.3 19.2 13.8 19.2 13.8S19 13.5 18.8 13.1C16.5 13.5 15.8 14.7 15.6 15C15.5 15.3 15.7 16 15.7 16L18.7 18.2C18.5 16.8 20.1 16.3 20.1 16.3S22.4 15.5 22.4 14.3C22.5 13.8 22.2 13.5 22 13.4z" />
    <glyph glyph-name="haskell"
      unicode="&#xE030;"
      horiz-adv-x="32" d=" M14.2 23.1C15.4 21.4 16.5 19.6 17.7 17.9C19.7 14.9 21.7 12 23.6 9H20.1L20 9.1C19.1 10.5 18.1 11.9 17.2 13.3C17.1 13.4 17.2 13.4 17.1 13.3C16.2 11.9 15.2 10.5 14.3 9.1L14.2 9H10.7V9.1C12.2 11.4 13.8 13.7 15.3 16V16.1C13.8 18.4 12.2 20.7 10.7 23V23.1H14.2z M9.5 8.9H6V9C6.4 9.6 6.8 10.3 7.3 10.9C8.4 12.6 9.5 14.2 10.6 15.9V16C9.1 18.4 7.6 20.7 6 23H9.5L9.6 22.9C10.4 21.8 11.1 20.6 11.9 19.5C12.7 18.3 13.5 17.2 14.2 16V15.9C12.7 13.6 11.1 11.3 9.5 8.9C9.6 9 9.6 9 9.5 8.9zM26 16.6H19.7C19.2 17.4 18.7 18.1 18.2 18.9V19H26V16.6zM26 13S26 13.1 26 13H22C21.5 13.8 21 14.5 20.5 15.3V15.4H26V13z" />
    <glyph glyph-name="heroku"
      unicode="&#xE031;"
      horiz-adv-x="32" d=" M21.2 18C21 18.9 20.4 19.6 19.6 20C19.2 20.2 18.7 20.3 18.3 20.3C17.6 20.4 16.8 20.4 16.1 20.2C15 20 13.9 19.8 12.8 19.4H12.7V25.9H9.6V15.8H9.7C10.4 16.1 11.1 16.3 11.9 16.6C13.2 17 14.4 17.4 15.7 17.6C16.2 17.7 16.8 17.7 17.3 17.7C17.6 17.7 17.8 17.6 18 17.5C18.2 17.4 18.3 17.2 18.3 17V5.9H21.3V16.9C21.3 17.3 21.3 17.7 21.2 18zM22.4 26H19.2C19.1 26 19 26 19 25.9C18.5 24.8 18 23.8 17.3 22.8C17.1 22.5 16.9 22.3 16.8 22H20C20.1 22 20.1 22 20.1 22.1C20.5 22.7 20.9 23.2 21.3 23.8C21.7 24.5 22.1 25.1 22.4 25.9V26zM9.6 6L12.7 9.1L9.6 12.2V6z" />
    <glyph glyph-name="hex"
      unicode="&#xE032;"
      horiz-adv-x="32" d=" M20.994 7.35H11.006L6.012 16L11.006 24.65H20.994L25.988 16L20.994 7.35zM18.527 11.622L21.055 16L18.527 20.378H13.473L10.945 16L13.473 11.622H18.527z" />
    <glyph glyph-name="html"
      unicode="&#xE033;"
      horiz-adv-x="32" d=" M8 17L14 22.6V20L9.5 16L14 12V9.4L8 15V17zM24 14.9L18 9.3V12L22.6 16L18 20V22.7L24 17.1V14.9z" />
    <glyph glyph-name="html_erb"
      unicode="&#xE034;"
      horiz-adv-x="32" d=" M7.5 17.1L13.9 23V20.2L9.1 16L13.9 11.8V9L7.5 14.9V17.1zM24.5 14.8L18.1 8.9V11.7L23 15.9V16L18.1 20.2V23.1L24.5 17.2V14.8z" />
    <glyph glyph-name="ignored"
      unicode="&#xE035;"
      horiz-adv-x="32" d=" M22.9 21.7C23 21.9 23.1 22.1 23.1 22.3C23 22.7 22.8 22.9 22.5 23C22.2 23.1 21.9 23 21.6 22.8L19.6 20.8C19.5 20.7 19.4 20.7 19.2 20.7C16.9 21.6 14.7 21.6 12.4 20.6S8.4 17.9 7.1 15.9C6.9 15.5 6.9 15.2 7.2 14.9C7.7 14.3 8.3 13.7 8.9 13.2C9.5 12.7 10.1 12.3 10.7 11.9C10.6 11.9 10.6 11.8 10.5 11.8C10 11.3 9.5 10.9 9.1 10.4C8.9 10.2 8.8 9.9 8.9 9.5C9 9.2 9.2 9 9.6 8.9C9.9 8.9 10.2 9 10.4 9.2L22.8 21.6L22.9 21.7zM12.1 13.3H11.9C10.8 13.9 9.8 14.6 8.9 15.6C9.9 16.9 11.1 18.1 12.6 18.9C11.6 17.2 11.7 15.6 12.8 14L12.1 13.3zM16.6 18.8C16.5 18.5 16.3 18.3 15.9 18.3C15 18.3 14.3 17.7 14.2 16.8V16.5C14.2 16.1 13.9 15.9 13.6 15.9C13.2 15.9 13 16.2 13 16.6C13 18.2 14.3 19.6 15.9 19.6C16.4 19.6 16.7 19.2 16.6 18.8zM24.8 16C24.3 16.6 23.8 17.3 23.3 17.9C22.9 18.4 22.3 18.8 21.9 19.3L20.7 18.1C21.6 17.4 22.4 16.6 23.1 15.6C23 15.5 22.9 15.4 22.8 15.4C22.5 15.1 22.2 14.8 21.9 14.6C19.9 13 17.7 12.2 15.2 12.5C15 12.5 14.9 12.5 14.8 12.4C14.6 12.2 14.4 12 14.2 11.7L13.6 11.1H13.7C15.1 10.8 16.6 10.7 18 11C20.8 11.5 23 13 24.8 15.1C25.1 15.3 25.1 15.6 24.8 16z" />
    <glyph glyph-name="illustrator"
      unicode="&#xE036;"
      horiz-adv-x="32" d=" M25 24H7V7H25V24zM17.4 11.7H16.4C16.2 11.7 16.2 11.7 16.1 11.9C15.9 12.6 15.6 13.4 15.4 14.1C15.4 14.2 15.3 14.3 15.1 14.3H13C12.8 14.3 12.8 14.2 12.7 14.1C12.5 13.4 12.3 12.6 12.1 11.9C12.1 11.8 12 11.7 11.9 11.7H10.8C10.6 11.7 10.6 11.8 10.6 11.9C11 13.2 11.3 14.5 11.7 15.8C12.1 17.3 12.6 18.9 13 20.4C13.1 20.6 13.1 20.7 13.3 20.6H14.8C14.9 20.6 15 20.6 15 20.4C15.5 18.9 15.9 17.3 16.4 15.8L17.6 11.9C17.7 11.7 17.7 11.7 17.4 11.7zM20.4 12.2C20.4 11.7 20.4 11.7 19.9 11.7H19.2C19 11.7 19 11.7 19 11.9V18.4C19 18.6 19.1 18.7 19.2 18.6H20.1C20.3 18.6 20.3 18.5 20.3 18.4C20.4 16.3 20.4 14.2 20.4 12.2zM19.7 19.3C19.3 19.3 18.9 19.6 18.9 20C18.9 20.4 19.2 20.8 19.7 20.8C20.1 20.8 20.5 20.5 20.5 20.1C20.5 19.6 20.2 19.3 19.7 19.3z M14.2 18.7C14.2 18.8 14.1 18.8 14 18.7C14 18.6 13.9 18.5 13.9 18.4C13.7 17.5 13.5 16.6 13.2 15.8C13.2 15.7 13.2 15.6 13.3 15.6H14.7C14.9 15.6 14.9 15.7 14.8 15.8C14.7 16.8 14.5 17.8 14.2 18.7z" />
    <glyph glyph-name="image"
      unicode="&#xE037;"
      horiz-adv-x="32" d=" M21.3 14.8C22.3 14.8 23.1 15.6 23.1 16.6S22.3 18.4 21.3 18.4S19.5 17.6 19.5 16.6S20.3 14.8 21.3 14.8zM10.2 20.3V7.9H25.5V20.3H10.2zM10.9 19.6H24.8V8.8L21.2 12.9L19 10.3L14.6 15L10.9 10.4V19.6zM20.7 24.1H6.5V13.3H8.4V22.4H20.7V24.1z" />
    <glyph glyph-name="info"
      unicode="&#xE038;"
      horiz-adv-x="32" d=" M26 16.9C25.9 18.6 25.3 20.1 24.4 21.5C23 23.6 21 25 18.6 25.6C17.9 25.8 17.2 25.9 16.6 25.9H15C13 25.7 11.3 25 9.7 23.8C7.9 22.3 6.7 20.5 6.2 18.2C6.1 17.7 6 17.1 6 16.6V15C6.2 13.3 6.7 11.7 7.7 10.3C8.8 8.7 10.3 7.4 12.1 6.7C13.2 6.3 14.3 6 15.4 5.9H17C19.4 6.1 21.5 7.1 23.2 8.9C24.6 10.3 25.5 12 25.9 13.9C26 14.4 26 14.8 26.1 15.3V16.4C26 16.6 26 16.7 26 16.9zM16 7.5C11.3 7.5 7.6 11.3 7.6 16S11.4 24.5 16.2 24.5C20.8 24.4 24.6 20.7 24.6 16C24.5 11.3 20.7 7.5 16 7.5z M18.4 10.6C18.2 10.6 18.1 10.6 17.9 10.7C17.7 10.7 17.7 10.9 17.6 11V17.5C16 17.4 14.5 17.4 12.9 17.3V16.5H13.9C14.3 16.5 14.5 16.2 14.5 15.8V11.2C14.5 10.8 14.3 10.6 13.9 10.6H13V9.8H19V10.6H18.4zM15.8 18.7C16.8 18.7 17.5 19.5 17.5 20.4C17.5 21.3 16.7 22.1 15.8 22.1C14.8 22.1 14.1 21.3 14.1 20.4C14.1 19.5 14.9 18.7 15.8 18.7z" />
    <glyph glyph-name="ionic"
      unicode="&#xE039;"
      horiz-adv-x="32" d=" M24.9 20.4C25.3 20.8 25.5 21.4 25.5 22.1C25.5 23.5 24.4 24.7 22.9 24.7C22.4 24.7 21.9 24.5 21.5 24.3C20 25.4 18.1 26 16 26C10.5 26 6 21.5 6 16S10.5 6 16 6S26 10.5 26 16C26 17.6 25.6 19.1 24.9 20.4zM16 7.6C11.3 7.6 7.6 11.4 7.6 16S11.4 24.4 16 24.4C17.7 24.4 19.3 23.9 20.6 23C20.5 22.7 20.4 22.4 20.4 22.1C20.4 20.7 21.5 19.5 23 19.5C23.2 19.5 23.4 19.5 23.6 19.6C24.1 18.5 24.4 17.3 24.4 16C24.4 11.3 20.7 7.6 16 7.6z M16 20.1C13.7 20.1 11.9 18.3 11.8 16C11.8 13.7 13.6 11.9 15.9 11.8C18.2 11.8 20 13.6 20.1 15.9C20.1 18.2 18.3 20.1 16 20.1z" />
    <glyph glyph-name="jade"
      unicode="&#xE03A;"
      horiz-adv-x="32" d=" M26 12.1C25.8 13.2 25.8 14.4 25.9 15.5C26 16.1 26.1 16.7 25.9 17.4C25.7 18 25.6 18.6 25.5 19.2C25.3 20.5 25.1 21.9 24.6 23.2C24.4 23.6 24.2 23.9 23.7 23.9C23.3 23.9 23.1 23.7 23.1 23.3C23.2 22.4 23.4 21.4 23.5 20.5C23.6 19.8 23.8 19.2 23.9 18.5V18.1C23.8 18.1 23.6 18.1 23.5 18.2C23.1 18.5 22.7 18.7 22.4 19.1C21.9 19.8 21.5 20.5 21.2 21.2C20.6 22.6 20.1 24 19.4 25.2C18.8 26.2 18 26.4 17 26.4C16.7 26.4 16.6 26.2 16.6 26C16.7 25.7 16.7 25.4 16.9 25.1C17.8 23.5 18.6 21.8 19.5 20.2C19.8 19.7 20.2 19.2 20.5 18.8C20.9 18.2 20.8 18 20.2 17.7C20.1 17.7 20.1 17.7 20 17.6C19.2 17.4 18.6 17.7 18.1 18.2C17.6 18.6 17 18.9 16.3 19C16 19 15.6 19.1 15.3 19.1C13.9 19.2 12.6 19.2 11.2 18.7C9.2 18 8.1 16.4 7.4 14.5C7.2 13.9 7 13.2 6.8 12.5C6.7 12.7 6.7 12.7 6.6 12.8C6.5 12.9 6.4 13 6.4 13.2C6.3 13.1 6.1 13 6 12.8V12.3C6 12 6.1 11.7 6.2 11.5C6.9 9.8 7.6 8 8.2 6.3C8.4 5.9 8.7 5.7 9.1 5.7C10.1 5.6 11.1 5.6 12 5.8L13.8 6.1C13.6 6.3 13.4 6.5 13.2 6.6C13.2 6.7 13.3 6.7 13.3 6.8C13.8 6.7 14.2 6.6 14.7 6.5C16.3 5.9 17.9 5.6 19.6 5.7C19.9 5.7 20.2 5.8 20.3 6.1L20.6 6.7C20.8 7.5 21.2 8.2 21.6 8.8C22.3 9.8 22.2 9.7 23.3 9.4C24.5 9 25.6 9.6 25.9 10.8C26 11.2 26 11.7 26 12.1zM24.9 13.3C24.8 13.2 24.6 13 24.5 13C23.6 12.9 22.7 12.9 21.9 13.3C21.6 13.4 21.4 13.7 21.1 14C21.4 14.1 21.7 14.2 21.9 14.3C22.8 14.4 23.6 14.2 24.4 13.8C24.5 13.8 24.6 13.7 24.6 13.7C24.7 13.6 24.9 13.4 24.9 13.3z" />
    <glyph glyph-name="java"
      unicode="&#xE03B;"
      horiz-adv-x="32" d=" M18.5 28.5S18.6 28.5 18.5 28.5C18.9 28 19 27.6 19.1 27.1V26.7C19.1 26.3 19 25.9 18.9 25.5C18.7 24.9 18.3 24.3 17.9 23.8C17.6 23.5 17.3 23.1 17 22.8C16.6 22.4 16.2 22.1 15.8 21.8C15.3 21.4 14.9 21 14.6 20.6C14.4 20.3 14.2 19.9 14.1 19.6C14 19 14 18.5 14.1 18C14.2 17.6 14.4 17.2 14.6 16.9C14.9 16.5 15.2 16 15.5 15.6C15.7 15.3 15.8 15.1 16 14.8C15.9 14.8 15.9 14.9 15.8 14.9C15.4 15.2 15.1 15.5 14.8 15.9C14.3 16.4 13.8 16.9 13.4 17.5C13.1 17.9 12.9 18.2 12.8 18.7C12.7 18.9 12.7 19.1 12.7 19.3C12.7 19.8 12.8 20.3 13.2 20.7C13.5 21.2 14 21.6 14.4 21.9C15 22.4 15.6 22.8 16.1 23.3C16.4 23.5 16.7 23.8 17 24C17.4 24.4 17.7 24.7 18 25.2C18.3 25.7 18.5 26.2 18.6 26.8C18.6 27 18.7 27.2 18.6 27.5C18.6 27.8 18.6 28.2 18.5 28.5zM6.8 6C6.9 6.2 7 6.3 7.2 6.4C7.5 6.6 7.8 6.7 8.1 6.9C8.6 7.1 9.2 7.3 9.8 7.4C10.1 7.4 10.4 7.5 10.6 7.4C10.7 7.4 10.8 7.4 10.9 7.3C10.4 7.3 9.9 7.2 9.5 7C9.3 6.9 9 6.8 8.8 6.7C8.7 6.7 8.7 6.6 8.6 6.6C8.5 6.5 8.5 6.4 8.6 6.3C8.7 6.3 8.7 6.2 8.8 6.2C9.1 6.1 9.5 6 9.9 5.9C10.4 5.8 11 5.7 11.5 5.7S12.4 5.6 12.9 5.6C14 5.5 15 5.5 16.1 5.5H17.4C17.8 5.5 18.1 5.5 18.5 5.6C19 5.6 19.5 5.7 20.1 5.7C20.6 5.8 21.2 5.8 21.7 5.9S22.7 6.1 23.2 6.3C23.4 6.4 23.5 6.4 23.7 6.5C23.8 6.5 23.8 6.6 23.9 6.7S24 7 23.9 7.2V7.3C24 7.3 24.1 7.2 24.1 7.2C24.3 7 24.4 6.8 24.1 6.6C24 6.5 23.8 6.4 23.7 6.3C23.3 6.1 22.9 5.9 22.5 5.8C21.8 5.6 21.1 5.5 20.5 5.4C20 5.3 19.4 5.2 18.9 5.2C18.6 5.2 18.2 5.1 17.9 5.1C17.4 5.1 16.8 5 16.3 5H14.1C13.6 5 13.1 5 12.7 5.1C12.2 5.1 11.8 5.2 11.3 5.2C10.8 5.2 10.2 5.3 9.7 5.4S8.6 5.5 8.1 5.6C7.8 5.6 7.6 5.7 7.3 5.8C7.2 5.8 7.1 5.9 7 6L6.9 6.1C6.8 5.9 6.8 5.9 6.8 6zM15.3 3.5H14.9C14.4 3.5 13.9 3.5 13.4 3.6C12.8 3.6 12.3 3.7 11.8 3.8C11.4 3.9 10.9 4 10.5 4.1C10.4 4.1 10.3 4.2 10.2 4.2H10.4C10.9 4.1 11.5 4.1 12 4C12.4 4 12.8 3.9 13.1 3.9C14 3.8 15 3.8 15.9 3.8C16.4 3.8 17 3.8 17.5 3.9C17.9 3.9 18.4 4 18.8 4C19.8 4.1 20.8 4.2 21.7 4.4C22.4 4.5 23.1 4.7 23.8 5C24 5.1 24.2 5.1 24.3 5.2C24.6 5.4 24.8 5.5 25 5.7V5.6C24.9 5.4 24.8 5.2 24.7 5.1C24.5 4.9 24.3 4.7 24 4.6C23.6 4.4 23.2 4.2 22.8 4.1C22.2 3.9 21.6 3.8 20.9 3.7C20.4 3.6 20 3.6 19.5 3.5C19.2 3.5 18.9 3.5 18.6 3.4C18.1 3.4 17.7 3.3 17.2 3.3H17.1C16.7 3.5 16 3.5 15.3 3.5z M21.6 23.4C21.6 23.3 21.5 23.3 21.4 23.3C20.8 23 20.3 22.6 19.8 22.3C19.4 22 18.9 21.7 18.5 21.3C18.2 21.1 18 20.8 17.8 20.5C17.6 20.3 17.5 20.1 17.5 19.8C17.4 19.5 17.5 19.2 17.6 19C17.7 18.7 17.9 18.4 18.1 18.1C18.2 17.9 18.4 17.7 18.5 17.5C18.7 17.2 18.8 16.9 18.8 16.5C18.8 16.3 18.8 16 18.7 15.8C18.6 15.5 18.4 15.3 18.2 15.1C17.8 14.7 17.3 14.3 16.8 14L16.9 14.1L17 14.2C17.2 14.4 17.4 14.7 17.5 15C17.7 15.5 17.6 15.9 17.4 16.3C17.3 16.5 17.2 16.6 17 16.8C16.7 17.2 16.5 17.5 16.3 17.9C16.2 18.2 16.1 18.4 16.1 18.7C16 19.2 16.1 19.6 16.3 20.1C16.5 20.5 16.8 20.9 17.2 21.2C17.7 21.6 18.2 21.9 18.7 22.2C19.3 22.5 20 22.8 20.7 23.1C21 23.2 21.3 23.3 21.5 23.4H21.6zM19.9 8C19.7 7.9 19.6 7.9 19.4 7.8C18.7 7.5 17.9 7.4 17.2 7.3C16.8 7.3 16.5 7.2 16.1 7.2H15.1C14.3 7.2 13.5 7.3 12.8 7.5C12.5 7.6 12.2 7.7 11.9 7.9C11.8 8 11.7 8 11.6 8.1L11.5 8.2C11.4 8.4 11.4 8.5 11.5 8.7L11.7 8.9C12 9.1 12.2 9.2 12.5 9.2L12.4 9.1L12.3 9C12.2 8.9 12.2 8.8 12.4 8.7C12.5 8.6 12.6 8.6 12.7 8.6C12.9 8.5 13.1 8.5 13.3 8.5C13.6 8.5 14 8.4 14.3 8.4H15.9C16.3 8.4 16.7 8.5 17.2 8.5C17.6 8.6 18 8.6 18.4 8.7H18.5C19 8.4 19.5 8.2 19.9 8z M21.3 13.8C21.1 13.7 20.8 13.6 20.6 13.4C20.5 13.4 20.4 13.3 20.4 13.3C20.3 13.2 20.2 13.2 20.1 13.2C19.7 13.1 19.2 13 18.8 12.9C18.4 12.8 17.9 12.8 17.5 12.7C17.2 12.7 16.8 12.6 16.5 12.6C16.1 12.6 15.7 12.5 15.3 12.5H12.6C12.1 12.5 11.5 12.6 11 12.6C10.6 12.6 10.1 12.7 9.7 12.8C9.5 12.8 9.4 12.9 9.2 12.9C9.1 12.9 9 13 8.9 13C8.8 13.1 8.8 13.2 8.9 13.4C9 13.5 9.1 13.6 9.2 13.6C9.6 13.8 9.9 13.9 10.3 14.1C10.8 14.3 11.4 14.4 12 14.5C12.4 14.6 12.8 14.6 13.2 14.6H13.1C12.5 14.5 12 14.3 11.4 14.1C11.2 14 11 13.9 10.9 13.8C10.8 13.8 10.8 13.7 10.7 13.7C10.6 13.6 10.6 13.5 10.7 13.4C10.8 13.4 10.8 13.3 10.9 13.3C11.1 13.2 11.3 13.2 11.5 13.2C11.9 13.1 12.4 13.1 12.8 13.1H14.6C15.2 13.1 15.7 13.1 16.3 13.2C16.6 13.2 16.8 13.2 17.1 13.3C17.4 13.3 17.8 13.4 18.1 13.4C18.4 13.4 18.8 13.5 19.1 13.5C19.5 13.6 19.9 13.6 20.3 13.7C20.6 13.7 20.9 13.8 21.3 13.8zM12.1 11.9C12.1 11.8 12 11.8 12.1 11.9C12 11.7 11.9 11.7 11.9 11.6C11.8 11.4 11.9 11.3 12 11.2C12.1 11.1 12.2 11.1 12.3 11.1C12.5 11 12.7 11 12.9 11C13.3 11 13.7 10.9 14.1 10.9H16.5C17.1 10.9 17.8 11 18.4 11.1C18.7 11.2 19.1 11.2 19.4 11.3H19.5L20.4 10.7H20.5C20.4 10.7 20.3 10.6 20.2 10.6C19.6 10.4 19 10.3 18.3 10.2C17.9 10.1 17.4 10.1 17 10C16.3 9.9 15.6 9.9 14.9 9.9C14.4 9.9 14 9.9 13.5 10C13 10.1 12.5 10.1 12 10.3C11.7 10.4 11.5 10.5 11.3 10.6C11.2 10.6 11.1 10.7 11.1 10.8C11 11 11 11.1 11.1 11.3C11.2 11.4 11.3 11.5 11.4 11.5C11.4 11.6 11.7 11.8 12.1 11.9zM21.3 10.1C21.3 10.2 21.4 10.2 21.5 10.3C22 10.6 22.5 10.9 22.9 11.2C23.3 11.5 23.6 11.8 23.9 12.3C24 12.5 24.1 12.8 24.2 13C24.3 13.6 24.1 14 23.7 14.4C23.4 14.6 23.1 14.8 22.7 14.8C22.6 14.8 22.4 14.8 22.3 14.7C22.2 14.7 22.1 14.6 21.9 14.6V14.7C22 14.8 22.1 14.9 22.3 14.9C22.6 15 22.9 15.1 23.3 15.1C23.8 15.1 24.2 14.9 24.6 14.6S25.2 14 25.2 13.5C25.2 13.2 25.2 12.9 25.1 12.6C24.9 12.2 24.7 11.9 24.4 11.7C23.9 11.3 23.4 11 22.8 10.7C22.3 10.4 21.8 10.2 21.3 10.1zM21.6 23.4zM12.1 11.9zM16 14.8zM23.7 7.1z" />
    <glyph glyph-name="javascript"
      unicode="&#xE03C;"
      horiz-adv-x="32" d=" M11.4 22H14.1V14.4C14.1 11 12.5 9.8 9.8 9.8C9.2 9.8 8.3 9.9 7.8 10.1L8.1 12.3C8.5 12.1 9 12 9.5 12C10.6 12 11.4 12.5 11.4 14.4V22zM16.5 12.8C17.2 12.4 18.4 12 19.5 12C20.8 12 21.4 12.5 21.4 13.3S20.8 14.5 19.4 15C17.4 15.7 16.1 16.8 16.1 18.6C16.1 20.7 17.8 22.2 20.7 22.2C22.1 22.2 23.1 21.9 23.8 21.6L23.2 19.4C22.7 19.6 21.9 20 20.7 20S18.9 19.5 18.9 18.8C18.9 18 19.6 17.7 21.1 17.1C23.2 16.3 24.2 15.2 24.2 13.5C24.2 11.5 22.6 9.8 19.3 9.8C17.9 9.8 16.6 10.2 15.9 10.5L16.5 12.8z" />
    <glyph glyph-name="js_erb"
      unicode="&#xE03D;"
      horiz-adv-x="32" d=" M11.4 22H14.1V14.4C14.1 11 12.5 9.8 9.8 9.8C9.2 9.8 8.3 9.9 7.8 10.1L8.1 12.3C8.5 12.1 9 12 9.5 12C10.6 12 11.4 12.5 11.4 14.4V22zM16.5 12.8C17.2 12.4 18.4 12 19.5 12C20.8 12 21.4 12.5 21.4 13.3S20.8 14.5 19.4 15C17.4 15.7 16.1 16.8 16.1 18.6C16.1 20.7 17.8 22.2 20.7 22.2C22.1 22.2 23.1 21.9 23.8 21.6L23.2 19.4C22.7 19.6 21.9 20 20.7 20S18.9 19.5 18.9 18.8C18.9 18 19.6 17.7 21.1 17.1C23.2 16.3 24.2 15.2 24.2 13.5C24.2 11.5 22.6 9.8 19.3 9.8C17.9 9.8 16.6 10.2 15.9 10.5L16.5 12.8z" />
    <glyph glyph-name="json"
      unicode="&#xE03E;"
      horiz-adv-x="32" d=" M7.5 16.9C9 16.9 9.2 17.7 9.2 18.4C9.2 19 9.1 19.5 9.1 20.1S9 21.3 9 21.8C9 23.9 10.3 24.8 12.4 24.8H13.2V22.9H12.8C11.8 22.9 11.5 22.3 11.5 21.3C11.5 20.9 11.6 20.5 11.6 20C11.6 19.6 11.7 19.1 11.7 18.5C11.7 16.8 11 16.2 9.8 15.9C11 15.6 11.7 15 11.7 13.3C11.7 12.7 11.6 12.2 11.6 11.8C11.6 11.4 11.5 10.9 11.5 10.6C11.5 9.6 11.8 9 12.8 9H13.2V7.1H12.4C10.4 7.1 9.1 7.9 9.1 10.1C9.1 10.7 9.1 11.2 9.2 11.8C9.3 12.4 9.3 13 9.3 13.5C9.3 14.1 9.1 15 7.6 15L7.5 16.9zM24.5 15.2C23 15.2 22.8 14.3 22.8 13.7S22.9 12.6 22.9 12C23 11.4 23 10.8 23 10.3C23 8.1 21.6 7.3 19.6 7.3H18.8V9H19.2C20.2 9 20.5 9.6 20.5 10.6C20.5 11 20.5 11.4 20.4 11.8C20.4 12.3 20.3 12.8 20.3 13.3C20.3 15 21 15.6 22.2 15.9C21 16.2 20.3 16.8 20.3 18.5C20.3 19.1 20.4 19.6 20.4 20C20.5 20.5 20.5 20.9 20.5 21.3C20.5 22.3 20.1 22.8 19.2 22.9H18.8V24.8H19.6C21.7 24.8 23 23.9 23 21.8C23 21.2 22.9 20.7 22.9 20.1C22.8 19.5 22.8 18.9 22.8 18.4C22.8 17.7 23 16.9 24.5 16.9V15.2z" />
    <glyph glyph-name="julia"
      unicode="&#xE03F;"
      horiz-adv-x="32" d=" M7.4 11.7C7.4 9.5460894756599 9.1460894756599 7.8 11.3 7.8C13.4539105243401 7.8 15.2 9.5460894756599 15.2 11.7C15.2 13.8539105243401 13.4539105243401 15.6 11.3 15.6C9.1460894756599 15.6 7.4 13.8539105243401 7.4 11.7z M16.8 11.7C16.8 9.5460894756599 18.5460894756599 7.8 20.7 7.8C22.8539105243401 7.8 24.6 9.5460894756599 24.6 11.7C24.6 13.8539105243401 22.8539105243401 15.6 20.7 15.6C18.5460894756599 15.6 16.8 13.8539105243401 16.8 11.7z M12.1 20.3C12.1 18.1460894756599 13.8460894756599 16.4 16 16.4C18.1539105243401 16.4 19.9 18.1460894756599 19.9 20.3C19.9 22.4539105243401 18.1539105243401 24.2 16 24.2C13.8460894756599 24.2 12.1 22.4539105243401 12.1 20.3z" />
    <glyph glyph-name="karma"
      unicode="&#xE040;"
      horiz-adv-x="32" d=" M9 24.6V19.8L12.3 7.3H13.8V12.3H14.6L18 7.3H23L17.1 16.2V16.7L22.6 24.7H17.3L14.6 20.3H13.8V24.6z" />
    <glyph glyph-name="less"
      unicode="&#xE041;"
      horiz-adv-x="32" d=" M7.5 16.9C9 16.9 9.2 17.7 9.2 18.4C9.2 19 9.1 19.5 9.1 20.1S9 21.3 9 21.8C9 23.9 10.3 24.8 12.4 24.8H13.2V22.9H12.8C11.8 22.9 11.5 22.3 11.5 21.3C11.5 20.9 11.6 20.5 11.6 20C11.6 19.6 11.7 19.1 11.7 18.5C11.7 16.8 11 16.2 9.8 15.9C11 15.6 11.7 15 11.7 13.3C11.7 12.7 11.6 12.2 11.6 11.8C11.6 11.4 11.5 10.9 11.5 10.6C11.5 9.6 11.8 9 12.8 9H13.2V7.1H12.4C10.4 7.1 9.1 7.9 9.1 10.1C9.1 10.7 9.1 11.2 9.2 11.8C9.3 12.4 9.3 13 9.3 13.5C9.3 14.1 9.1 15 7.6 15L7.5 16.9zM24.5 15.2C23 15.2 22.8 14.3 22.8 13.7S22.9 12.6 22.9 12C23 11.4 23 10.8 23 10.3C23 8.1 21.6 7.3 19.6 7.3H18.8V9H19.2C20.2 9 20.5 9.6 20.5 10.6C20.5 11 20.5 11.4 20.4 11.8C20.4 12.3 20.3 12.8 20.3 13.3C20.3 15 21 15.6 22.2 15.9C21 16.2 20.3 16.8 20.3 18.5C20.3 19.1 20.4 19.6 20.4 20C20.5 20.5 20.5 20.9 20.5 21.3C20.5 22.3 20.1 22.8 19.2 22.9H18.8V24.8H19.6C21.7 24.8 23 23.9 23 21.8C23 21.2 22.9 20.7 22.9 20.1C22.8 19.5 22.8 18.9 22.8 18.4C22.8 17.7 23 16.9 24.5 16.9V15.2z" />
    <glyph glyph-name="license"
      unicode="&#xE042;"
      horiz-adv-x="32" d=" M18.7 19.2C18.5 21.4 16.8 22.9 14.5 23H13C12.9 24.3 13.4 26.1 15.5 26.3C16.4 26.4 17.2 26.2 17.9 25.5C18.5 24.8 18.7 24 18.7 23.1C18.7 23 18.7 22.8 18.8 22.7L19.7 21.8C20 22.7 20 23.6 19.8 24.5C19.3 26.3 17.8 27.4 15.9 27.5C14.8 27.5 13.8 27.3 13 26.5C11.6 25.2 11.1 22.3 13.1 20.4C13.4 20.1 13.8 19.9 14.2 19.7C14.7 19.5 15.1 19.9 15.1 20.3C15.1 20.7 14.9 21 14.4 21.1C14.3 21.1 14.2 21.2 14.1 21.3V21.4C14.5 21.5 15 21.4 15.3 21.1C15.6 20.8 15.7 20.4 15.6 19.9C15.4 19.2 14.8 18.9 14 19.1C12.9 19.4 12.2 20.1 11.7 21.1C11.6 21.4 11.4 21.7 11.3 22C10.6 21.3 10 20.6 9.8 19.6C9.4 17.8 9.9 16.3 11.2 15.1C11.3 15 11.4 14.9 11.3 14.7C11.2 13.9 11.1 13.2 10.9 12.4C10.6 10.7 10.4 9.1 10.1 7.4C10 6.9 10 6.3 10.1 5.8C10.2 5.4 10.4 5.1 10.9 4.9C11 5.3 11 5.7 11.1 6.1C11.4 7.8 11.6 9.4 11.9 11.1C12.1 12.1 12.2 13.2 12.4 14.2C12.4 14.4 12.5 14.5 12.7 14.5C12.9 14.5 12.9 14.3 12.9 14.1C12.8 13.1 12.6 12.1 12.4 11.2C12.1 9.1 11.7 7 11.4 4.9C11.4 4.8 11.5 4.7 11.5 4.7C12 4.7 12.4 4.6 12.9 4.6C13.4 4.6 13.8 5 14.1 5.4C14.4 5.7 14.4 6.1 14.2 6.5C14.1 6.6 14 6.7 14 6.8C13.7 7.2 13.8 7.5 14.2 7.7C14.3 7.8 14.5 7.8 14.6 7.9C14.8 8 14.9 8.3 14.7 8.5C14.4 8.8 14.2 9.1 13.9 9.3C13.7 9.5 13.8 9.9 14 10C14.3 10.2 14.7 10.3 15 10.5C15.2 10.6 15.3 10.8 15.1 11C15 11.1 14.9 11.2 14.8 11.4C14.5 11.7 14.6 12.2 14.9 12.4C15 12.5 15.1 12.6 15.3 12.6C15.5 12.7 15.6 12.8 15.6 13C15.6 13.3 15.7 13.6 15.7 13.9C15.7 14 15.8 14.2 15.9 14.3C16.2 14.6 16.6 14.8 17 15C18.4 16 18.9 17.5 18.7 19.2zM22.3 7.8C22.3 8 22.2 8.2 21.9 8.2C21.7 8.2 21.4 8.2 21.3 8.5C21.2 8.8 21.2 9.1 21.3 9.4C21.5 9.8 21.4 10.1 20.9 10.2C20.7 10.2 20.5 10.3 20.2 10.3C20 10.3 19.9 10.4 19.9 10.6C19.9 10.8 19.8 11 19.8 11.2C19.8 11.5 20 11.7 20.2 11.9C20.4 12.2 20.4 12.3 20.1 12.5C20 12.6 19.8 12.7 19.7 12.8C19.3 13 19.3 13.2 19.5 13.6C19.6 13.7 19.7 13.8 19.7 13.9C19.9 14.1 19.9 14.3 19.8 14.5C19.7 14.7 19.6 15 19.4 15.2C19.3 15.4 19.3 15.6 19.4 15.8C20.2 17.4 20.4 19 19.7 20.7C19.2 21.8 18.3 22.5 17.1 22.8L17 22.7C17.1 22.6 17.2 22.4 17.3 22.3C18.5 21.3 19.2 20 19.2 18.4C19.2 16.7 18.5 15.3 17 14.2C16.8 14.1 16.7 13.9 16.8 13.7C17.2 12.7 17.5 11.8 17.9 10.8C18.7 8.9 19.5 7.1 20.3 5.2C20.4 5.1 20.4 5 20.6 5C21.8 5.6 22.5 6.7 22.3 7.8zM16.3 13.7C16.2 13.3 16.2 13 16.1 12.7C16.1 12.5 16 12.3 16.1 12.1C16.8 10.4 17.5 8.6 18.2 6.9C18.4 6.4 18.7 5.9 19.2 5.5C19.4 5.4 19.6 5.3 19.7 5.2L19.8 5.3C18.7 8.1 17.5 10.9 16.3 13.7z" />
    <glyph glyph-name="liquid"
      unicode="&#xE043;"
      horiz-adv-x="32" d=" M18.1 13.2C18.1 12.7 18 12.1 18 11.6C17.9 10 17.8 8.4 17.8 6.8V6.1C17.8 6 17.8 6 17.7 6L14.7 6.6C14.2 6.7 13.8 6.7 13.3 6.8C12.8 6.9 12.4 7 12 7C10.7 7.2 9.4 7.5 8.1 7.7C7.6 7.9 7 8 6.5 8.1C6.4 8.1 6.4 8.2 6.4 8.3C6.6 9.4 6.7 10.6 6.8 11.7C6.8 11.9 6.9 12.2 6.9 12.4C7 12.5 6.9 12.6 7 12.8C7.1 13.3 7.1 13.8 7.2 14.4C7.3 14.9 7.4 15.4 7.4 16C7.6 17.3 7.8 18.7 7.9 20C7.9 20.3 8.1 20.5 8.3 20.6L10.1 21.2C10.2 21.2 10.3 21.3 10.3 21.5C10.5 22.6 11 23.6 11.6 24.5C12 25.1 12.5 25.6 13.1 25.9C13.5 25.9 13.8 26 14.2 26C14.7 26 15.1 25.9 15.4 25.5C15.5 25.4 15.5 25.4 15.6 25.4C16.1 25.4 16.6 25.2 16.9 24.8C17.2 24.4 17.4 24 17.6 23.6C17.6 23.5 17.7 23.5 17.8 23.5C18 23.6 18.1 23.6 18.3 23.7C18.5 23.7 18.5 23.7 18.5 23.5C18.5 22.6 18.4 21.8 18.4 20.9C18.3 19.8 18.3 18.6 18.2 17.5C18.1 16.1 18.1 14.8 18 13.4C18.1 13.3 18.1 13.3 18.1 13.2zM10.7 13.7C10.9 13.5 11.1 13.3 11.4 13.1C11.7 12.9 12 12.6 12.1 12.2C12.2 11.7 12 11.3 11.5 11.2H11C10.4 11.3 9.9 11.6 9.5 11.9C9.4 12 9.4 12 9.3 11.8C9.2 11.4 9.1 11 8.9 10.6C8.8 10.3 8.9 10.1 9.1 10C10 9.3 11 9 12 9.1C13.1 9.2 13.9 9.8 14.3 10.8C14.5 11.3 14.6 11.8 14.6 12.3S14.4 13.3 14.1 13.7C14.1 13.8 14 13.8 14 13.9C13.7 14.4 13.2 14.7 12.7 15C12.5 15.1 12.3 15.3 12.1 15.5C11.8 16 12 16.8 12.7 17C13.4 17.1 14 17 14.6 16.8C14.7 16.7 14.8 16.8 14.8 16.9L15.4 18.7C15.5 19 15.5 19 15.2 19.1C14.5 19.3 13.8 19.3 13.1 19.2C11.5 18.9 10.1 17.8 10 16C9.8 15.1 10.1 14.3 10.7 13.7zM14.7 25.2C14.6 25.3 14.6 25.3 14.5 25.3C14.3 25.4 14.1 25.3 13.8 25.3C13.2 25.1 12.8 24.8 12.4 24.3C11.7 23.5 11.3 22.5 11 21.5C11 21.4 11 21.4 11.1 21.4C11.6 21.5 12 21.7 12.5 21.8C12.6 21.8 12.6 21.9 12.6 21.9C12.6 22.1 12.7 22.3 12.7 22.5C13.1 23.6 13.6 24.6 14.7 25.2zM15.4 23.1C15.4 23.5 15.3 24 15.2 24.4C15.1 24.6 15.1 24.6 15 24.5C14.8 24.4 14.5 24.2 14.4 24C14 23.5 13.7 22.9 13.5 22.3V22.2H13.6C14.1 22.3 14.6 22.5 15 22.6C15.4 22.7 15.4 22.7 15.4 23.1zM16.2 22.9C16.4 23 16.7 23.1 17 23.2V23.3C16.9 23.7 16.7 24.1 16.4 24.4C16.3 24.5 16.2 24.6 16 24.7H15.9V24.6C15.9 24.5 16 24.3 16 24.2C16.1 23.9 16.1 23.5 16.1 23.1C16.1 23 16.1 22.9 16.2 22.9zM25.4 9.6L25.7 7.5C25.7 7.4 25.7 7.4 25.6 7.3C24.4 7.1 23.3 6.8 22.1 6.6C21.3 6.4 20.4 6.2 19.6 6.1C19.5 6.1 19.4 6 19.5 6.2C19.5 6.5 19.5 6.9 19.6 7.2C19.7 8.6 19.7 9.9 19.8 11.3V12.3C19.8 12.6 19.8 13 19.9 13.3V14C20 15.8 20.1 17.5 20.2 19.3V20.3C20.3 21.1 20.3 21.8 20.3 22.6V23.6C20.4 23.6 20.4 23.6 20.4 23.5L20.8 23.1C21 22.9 21.2 22.8 21.3 22.6C21.4 22.4 21.6 22.4 21.8 22.4C22.2 22.4 22.7 22.3 23.1 22.3C23.2 22.3 23.3 22.2 23.3 22.1C23.4 21.7 23.4 21.3 23.5 20.9C23.6 20.2 23.7 19.6 23.8 18.9C24 17.9 24.1 16.8 24.3 15.8C24.6 14.1 24.8 12.4 25.1 10.7C25.2 10.3 25.3 10 25.4 9.6z" />
    <glyph glyph-name="livescript"
      unicode="&#xE044;"
      horiz-adv-x="32" d=" M16 24.5V17C16.1 17 16.1 17 16.1 17.1C16.1 17.1 16.2 17.1 16.2 17.2C16.2 17.2 16.3 17.2 16.3 17.3C16.4 17.3 16.4 17.3 16.4 17.4C16.5 17.4 16.5 17.4 16.5 17.5C16.6 17.5 16.6 17.6 16.6 17.7V23.8C16.6 24 16.7 24.1 16.9 24.1H17.5C17.8 24.1 17.8 24.1 17.8 23.8V18.8H17.9C18 18.8 18 18.8 18 18.9V19L18.2 19.2C18.3 19.3 18.2 19.4 18.2 19.4V23.2H19.3V20.4C19.4 20.4 19.4 20.5 19.5 20.5L20.6 21.6C20.7 21.6 20.7 21.7 20.7 21.8V23.3C20.9 23.4 21.1 23.3 21.3 23.3C21.5 23.3 21.8 23.4 21.9 23.3C22 23.2 21.9 22.9 21.9 22.7V22.2C21.9 22.1 21.9 22.1 22 22C22 22 21.9 22 22 22H22.9C23 22 23.1 22 23.1 21.8V20.8H22.8C22.9 20.9 23 20.8 23.1 20.9H21.7C21.6 20.9 21.6 20.9 21.6 20.8C21.2 20.4 20.7 20 20.3 19.5C20.3 19.4 20.4 19.4 20.5 19.4H22.9C23.1 19.4 23.1 19.4 23.1 19.2V18.5C23.1 18.3 23.1 18.2 22.8 18.2H19.2C19.1 18.2 19 18.3 19 18.1L17.8 16.9H23.1V16C23.1 15.8 23 15.8 22.8 15.8H16.5C16.4 15.8 16.4 15.8 16.4 15.7C16.3 15.7 16.3 15.7 16.3 15.6C16.2 15.6 16.2 15.6 16.2 15.5C16.1 15.5 16.1 15.5 16.1 15.4C16 15.4 16 15.4 16 15.3C15.9 15.3 15.9 15.3 15.9 15.2C15.8 15.2 15.8 15.2 15.8 15.1C15.9 15 16 15.1 16 15.1H23.5C23.6 15.1 23.6 15.1 23.6 15V14.3C23.6 14 23.6 14 23.3 14H14.4L14.3 13.9C14.2 13.7 14 13.6 13.9 13.4C14 13.3 14.1 13.4 14.2 13.4H24.1C24.2 13.4 24.3 13.4 24.3 13.2V12.2H12.9C12.8 12.2 12.7 12.2 12.6 12.1L11.5 11C11.5 10.9 11.7 10.9 11.7 10.9H25.3C25.5 10.9 25.5 10.9 25.5 10.7V8.8C25.5 8.5 25.5 8.5 25.2 8.5H10.5C10.4 8.4 10.5 8.3 10.5 8.3V6H8.2C8 6 8 6.1 8 6.2V8.5C7.9 8.6 7.9 8.5 7.8 8.5H5.8C5.6 8.5 5.6 8.5 5.6 8.7V10.7C5.6 10.9 5.7 10.9 5.8 10.9H8H5.6C5.7 11 5.7 10.9 5.8 10.9H8.1C8.2 11 8.1 11.1 8.1 11.1V25.6C8.1 25.8 8.1 25.8 8.3 25.8H10.2C10.5 25.8 10.5 25.8 10.5 25.5V11.7C10.7 11.8 10.8 12 10.9 12.1C11.2 12.4 11.4 12.7 11.7 12.9C11.8 12.9 11.8 13 11.8 13.1V24.5C12 24.6 12.3 24.5 12.5 24.5C12.7 24.5 12.9 24.6 13 24.5C13.1 24.4 13 24.2 13 24V14.3C13.4 14.7 13.8 15.1 14.3 15.5C14.4 15.6 14.4 15.7 14.4 15.7V24.5H15.5C15.6 24.5 15.6 24.5 15.6 24.4C15.9 24.6 15.9 24.5 16 24.5C15.9 22 15.9 19.6 15.9 17.2V17C16 17.1 15.9 17.2 15.9 17.3V24.3C16 24.3 15.9 24.4 16 24.5z M11 8.5C11.1 8.6 11.2 8.5 11.3 8.5H25.7C26 8.5 26 8.5 26 8.8V10.7C26 10.9 26 10.9 25.8 10.9H12.2C12.1 10.9 12 10.8 12 11H25.9C26 11 26 11 26 10.8V8.7C26 8.5 26 8.5 25.8 8.5H11zM11 11.9C10.9 12 11 12.1 11 12.2V25.7C11 26 11 26 10.7 26H8.8C8.6 26 8.6 26 8.6 25.8V25.9C8.5 26 8.5 26 8.7 26H10.8C10.9 26 11 26 11 25.8V11.9zM18.5 19.5C18.4 19.6 18.5 19.7 18.5 19.7V24.5C18.5 24.8 18.5 24.8 18.2 24.8H17.6C17.4 24.8 17.3 24.7 17.3 24.5V18.4C17.3 18.3 17.3 18.2 17.2 18.2C17.3 18.3 17.3 18.4 17.3 18.5V24.7C17.3 24.9 17.3 24.9 17.5 24.9H18.4C18.5 24.9 18.6 24.9 18.6 24.7V19.9C18.5 19.7 18.5 19.6 18.5 19.5zM15.6 14.8C15.7 14.9 15.8 14.8 15.9 14.8H24.5C24.8 14.8 24.8 14.8 24.8 15.1V15.8C24.8 15.9 24.8 16 24.7 15.9H17H24.7C24.9 15.9 24.9 15.9 24.9 15.7V14.9C24.9 14.8 24.9 14.7 24.7 14.7H15.9C15.7 14.8 15.7 14.8 15.6 14.8zM12.3 24.7C12.4 24.6 12.3 24.6 12.3 24.5V13.3C12.3 13.2 12.3 13.1 12.2 13.1V24.5C12.3 24.6 12.3 24.7 12.3 24.7zM24.7 12.3V13.3C24.7 13.4 24.7 13.5 24.5 13.5H14.3H24.3C24.6 13.5 24.6 13.5 24.6 13.2V12.4C24.7 12.4 24.8 12.3 24.7 12.3zM14.8 24.7V15.9C14.8 15.8 14.8 15.7 14.7 15.7V24.6C14.8 24.6 14.7 24.7 14.8 24.7zM20.6 19.7C20.6 19.8 20.7 19.8 20.8 19.8H24.4C24.6 19.8 24.7 19.9 24.7 20.1V20.8C24.7 21 24.7 21 24.5 21H22.1C22 21 21.9 21 21.9 21.1H24.8C24.9 21.1 24.9 21 24.9 21V19.8H21.1C20.8 19.8 20.7 19.8 20.6 19.7C20.6 19.8 20.6 19.8 20.6 19.7zM16 24.5C15.9 24.4 16 24.3 16 24.3V17.2C15.9 19.6 15.9 22 16 24.5C15.9 24.5 15.9 24.6 16 24.7V24.5zM18.1 17.3C18.2 17.4 18.3 17.3 18.3 17.3H24.4C24.6 17.3 24.7 17.3 24.7 17.5V18.4C24.8 18.4 24.8 18.3 24.8 18.2V17.3C24.8 17.2 24.8 17.1 24.6 17.1C22.4 17.3 20.3 17.3 18.1 17.3zM6 11H8.4H6.2C6 11 6 11 6 10.8V8.8C6 8.6 6 8.6 6.2 8.6H8.4H6.1C6 8.6 6 8.6 6 8.7V11zM19.8 24.7V24.6C19.8 24.7 19.7 24.8 19.8 24.7zM20.7 19.8H24.7H20.7zM21 22C20.9 22 21 22.1 21 22.2V24.8C21.1 24.8 21 24.7 21 24.7V22zM23.1 22.3C23.1 22.4 23.2 22.4 23.2 22.4H24.6C24.5 22.3 24.4 22.4 24.3 22.3H23.1zM24.7 21H21.9H24.7zM10.9 6V8.5V6.2C11 6.1 11 6.1 10.9 6zM24.7 22.3V23.3C24.7 23.4 24.7 23.5 24.5 23.5H23.6C23.5 23.5 23.6 23.5 23.6 23.5H24.7C24.8 23.1 24.7 22.7 24.7 22.3zM22.3 24.7C22.4 24.7 22.3 24.6 22.3 24.5V23.2C22.3 23.1 22.3 23.1 22.2 23C22.2 23.7 22.3 24.2 22.3 24.7zM17.8 16.9C17.8 17 17.8 17 17.9 17C17.9 17 17.8 17 17.8 16.9zM17.1 16.3C17.1 16.4 17.1 16.4 17.2 16.4C17.2 16.4 17.2 16.3 17.1 16.3zM17.7 16.8C17.7 16.9 17.7 16.9 17.7 16.8C17.7 16.9 17.7 16.8 17.7 16.8zM16.1 17C16.1 16.9 16.1 16.9 16.1 17C16 16.9 16.1 17 16.1 17zM17.9 17.1C17.9 17.2 18 17.2 17.9 17.1C18 17.2 18 17.1 17.9 17.1zM17.4 16.6C17.4 16.7 17.5 16.7 17.4 16.6C17.5 16.7 17.5 16.6 17.4 16.6zM16.7 17.6C16.7 17.5 16.6 17.5 16.7 17.6C16.6 17.5 16.6 17.5 16.7 17.6zM16.9 17.8C16.9 17.7 16.8 17.7 16.9 17.8C16.8 17.7 16.8 17.7 16.9 17.8zM17 16.2zM16.9 16C16.9 16.1 16.9 16.1 16.9 16C16.9 16.1 16.9 16.1 16.9 16zM19 19.9C19 19.8 18.9 19.8 19 19.9C18.9 19.8 18.9 19.8 19 19.9zM16.2 17.1zM16.3 17.2S16.3 17.1 16.3 17.2C16.2 17.2 16.3 17.2 16.3 17.2zM14.8 24.5C14.7 24.5 14.7 24.5 14.8 24.5zM24.7 23.5zM14.8 14zM17.6 16.8zM17.6 16.7S17.6 16.8 17.6 16.7C17.6 16.8 17.6 16.7 17.6 16.7zM14.9 14zM17.5 16.7S17.6 16.7 17.5 16.7C17.6 16.7 17.5 16.7 17.5 16.7zM14.9 14.1zM17.4 16.6zM17.4 16.5S17.4 16.6 17.4 16.5C17.4 16.6 17.4 16.5 17.4 16.5zM17.3 16.5S17.4 16.5 17.3 16.5C17.4 16.5 17.3 16.5 17.3 16.5zM14.9 14.1C15 14.1 15 14.1 14.9 14.1C15 14.1 15 14.1 14.9 14.1zM17.3 16.4C17.3 16.5 17.3 16.5 17.3 16.4C17.3 16.5 17.3 16.5 17.3 16.4zM17.2 16.4C17.3 16.4 17.3 16.4 17.2 16.4C17.3 16.4 17.3 16.4 17.2 16.4zM15 14.1C15 14.2 15 14.2 15 14.1C15 14.2 15 14.2 15 14.1zM15 14.2S15.1 14.2 15 14.2C15.1 14.2 15 14.2 15 14.2zM17.1 16.2C17.1 16.3 17.1 16.3 17.1 16.2C17.1 16.3 17.1 16.3 17.1 16.2zM15.1 14.3C15.2 14.3 15.2 14.3 15.1 14.3C15.2 14.3 15.2 14.3 15.1 14.3zM19.7 20.7C19.7 20.6 19.7 20.6 19.7 20.7C19.7 20.6 19.7 20.6 19.7 20.7zM15.6 14.7zM15.5 14.7zM15.5 14.6S15.5 14.7 15.5 14.6C15.5 14.7 15.5 14.6 15.5 14.6zM15.4 14.6zM15.3 14.5C15.4 14.5 15.4 14.5 15.3 14.5C15.4 14.5 15.4 14.5 15.3 14.5zM15.3 14.5zM15.3 14.4S15.3 14.5 15.3 14.4C15.3 14.5 15.3 14.4 15.3 14.4zM15.2 14.4S15.3 14.4 15.2 14.4C15.3 14.4 15.2 14.4 15.2 14.4zM18.6 19.5zM18.7 19.6S18.6 19.5 18.7 19.6C18.6 19.5 18.7 19.6 18.7 19.6zM18.8 19.7C18.7 19.6 18.7 19.6 18.8 19.7C18.7 19.6 18.7 19.6 18.8 19.7zM18.8 19.7zM18.8 19.7zM19.5 20.4zM18.9 19.8zM19 19.9zM19 20C19 19.9 19 19.9 19 20C19 19.9 19 19.9 19 20zM19.1 20zM19.2 20.1S19.1 20 19.2 20.1C19.1 20 19.2 20.1 19.2 20.1zM19.2 20.1zM19.3 20.2C19.2 20.1 19.2 20.1 19.3 20.2C19.2 20.1 19.2 20.1 19.3 20.2zM19.3 20.2zM19.4 20.3S19.3 20.2 19.4 20.3C19.3 20.2 19.4 20.3 19.4 20.3zM19.4 20.3zM19.5 20.4C19.4 20.3 19.4 20.3 19.5 20.4C19.4 20.3 19.4 20.3 19.5 20.4zM17.7 16.9S17.8 16.9 17.7 16.9C17.8 16.9 17.7 16.9 17.7 16.9zM16.2 17.1S16.1 17 16.2 17.1C16.1 17 16.2 17.1 16.2 17.1zM17.9 17.1zM18 17.2zM16.4 17.3S16.3 17.2 16.4 17.3C16.3 17.2 16.4 17.3 16.4 17.3zM16.4 17.3zM16.5 17.4zM16.6 17.5S16.6 17.4 16.6 17.5C16.6 17.4 16.6 17.5 16.6 17.5zM16.7 17.6zM16.7 17.6zM16.9 17.8zM17 17.9C16.9 17.8 16.9 17.8 17 17.9C16.9 17.8 16.9 17.8 17 17.9zM17 17.9zM17.1 18S17 17.9 17.1 18C17 17.9 17.1 18 17.1 18zM17.1 18zM17.2 18.1zM19.7 20.6z" />
    <glyph glyph-name="lua"
      unicode="&#xE045;"
      horiz-adv-x="32" d=" M14.7 6C9.9 6 6 9.9 6 14.7C6 19.5 9.9 23.5 14.9 23.4C19.6 23.3 23.4 19.5 23.4 14.7C23.4 9.9 19.5 6 14.7 6zM18.3 20.9C16.9 20.9 15.7 19.7 15.7 18.3C15.7 16.9 16.8 15.7 18.3 15.7C19.7 15.7 20.9 16.8 20.9 18.3C20.9 19.7 19.8 20.9 18.3 20.9zM23.4 20.9C22 20.9 20.8 22 20.9 23.5C20.9 24.9 22 26 23.5 26C24.9 26 26 24.8 26 23.4C26 22 24.8 20.9 23.4 20.9z" />
    <glyph glyph-name="makefile"
      unicode="&#xE046;"
      horiz-adv-x="32" d=" M10.2 25L7 24.2V8.2H11.2V18.1L14.8 14.2H17.2L20.8 18.1V8.2H25V24.2L21.8 25L16 18.7L10.2 25z" />
    <glyph glyph-name="markdown"
      unicode="&#xE047;"
      horiz-adv-x="32" d=" M20.7 25.3V15.4H24.5C21.6 12.4 18.7 9.5 15.8 6.6C13.1 9.4 10.2 12.4 7.4 15.3H10.9V25.4C12.2 24.5 15.3 22.3 15.9 22.3C16.5 22.3 19.5 24.5 20.7 25.3z" />
    <glyph glyph-name="maven"
      unicode="&#xE048;"
      horiz-adv-x="32" d=" M16.2 26.4C14.2 24.8 13.5 24.4 12.5 23S11.5 17.6 13.5 16.1C13 16.1 11 17.3 11 17.3S13.7 13.5 14.8 12.4C16.4 10.1 17.4 7.6 17.8 5C18.1 7.2 17.7 9.3 16.6 11.3V11.4C16.5 11.9 16.6 12.3 17.1 12.7C17.6 13 19.7 15 19.7 15S17.5 13.7 16.9 13.6C17.8 14.5 18.4 15.3 19.3 15.9C20.8 17.1 21.1 18.6 20.9 20.1C20.9 20.5 20.8 20.8 20.7 21.2C20.2 23.4 19 25.3 17.1 27.1C16.8 26.7 16.5 26.6 16.2 26.4z" />
    <glyph glyph-name="mdo"
      unicode="&#xE049;"
      horiz-adv-x="32" d=" M18 14.3C17 14.3 16.2 15.1 16.2 16.1S17 17.9 18 17.9C18.7 17.9 19.4 17.5 19.7 16.8H21.2C20.8 18.3 19.5 19.3 18 19.3C16.2 19.3 14.7 17.8 14.7 16S16.2 12.7 18 12.7H22.7V14.2H18zM12.5 19.3H14V12.8H12.5V19.3zM11.1 18.2H12.6V16.7H11.1V18.2z M22.9 22.9H9.4L6 16S9.4 9.2 9.4 9.1H22.9C24.6 9.1 26 10.5 26 12.2V19.9C26 21.5 24.7 22.9 22.9 22.9zM24.5 12.1C24.5 11.2 23.8 10.6 23 10.6H10.6S7.5 15.5 7.5 15.8L10.6 21.3H23C23.9 21.3 24.5 20.6 24.5 19.8V12.1z" />
    <glyph glyph-name="mustache"
      unicode="&#xE04A;"
      horiz-adv-x="32" d=" M7.4 16.3C7.4 16.5 7.4 16.7 7.3 16.8C7.1 17 6.7 17 6.6 16.7C6.3 16.2 6.6 15.7 7.2 15.5C7.6 15.4 7.9 15.4 8.2 15.7C8.7 16.1 9.2 16.5 9.7 17C10.4 17.6 11 18.2 11.9 18.5C13.1 18.9 14.3 18.9 15.3 18L15.9 17.4L16.1 17.2C16.2 17.4 16.3 17.5 16.4 17.6C17 18.3 17.8 18.7 18.8 18.7C19.9 18.7 20.9 18.3 21.7 17.6C22.3 17.1 22.8 16.6 23.4 16.1C23.7 15.8 24 15.6 24.4 15.5C24.9 15.4 25.4 15.7 25.6 16.1C25.7 16.4 25.6 16.6 25.4 16.8C25.2 17 25 17 24.8 16.9C24.6 16.8 24.5 16.6 24.6 16.4V16.3C24.3 16.5 24.2 16.8 24.2 17.1C24.2 17.5 24.5 17.7 24.8 17.8C25.7 18.1 26.6 17.6 26.8 16.6C26.9 16 26.9 15.3 26.6 14.7C26.3 14 25.7 13.7 25 13.5C23.6 13.1 22.3 13.4 21 13.9L18.3 15.1C17.2 15.6 16 15.8 14.8 15.5C14.1 15.3 13.3 15 12.6 14.7C11.7 14.3 10.9 13.9 10 13.6C8.9 13.2 7.8 13.1 6.7 13.5C5.6 13.9 4.8 14.7 4.9 16.2C5 16.9 5.2 17.5 5.9 17.7C6.3 17.9 6.8 17.9 7.2 17.7C7.9 17.4 7.9 16.7 7.4 16.3z" />
    <glyph glyph-name="new-file"
      unicode="&#xE04B;"
      horiz-adv-x="32" d=" M17.3 26C17.3 25.9 17.4 25.9 17.4 25.8L22.1 21.1C22.2 21 22.2 20.9 22.2 20.8V17.8C21.8 18 21.4 18.1 20.9 18.3V19.8H17.2C16.4 19.8 15.9 20.3 15.9 21.1V24.7H8.4V7.2H13.5C13.6 7.2 13.7 7.2 13.8 7.1C14.1 6.8 14.5 6.4 14.9 6.1L15 6H8.2C7.3 6.2 7.1 6.8 7.1 7.5V24.7C7.1 25.3 7.4 25.7 7.9 25.9C8.1 25.9 8.2 26 8.3 26H17.3zM21 21L17.3 24.7V21H21z M18.7 6C18.3 6.1 18 6.1 17.6 6.2C15.4 6.8 13.8 8.8 13.6 11C13.3 14 15.4 16.7 18.4 17.1C21.5 17.5 24.5 15.3 24.8 12.1V11C24.6 8.8 23 6.8 20.8 6.2C20.4 6.1 20 6 19.7 6H18.7zM19.1 16C16.7 16 14.7 14 14.7 11.6C14.7 9.2 16.7 7.2 19.1 7.3C21.5 7.3 23.5 9.3 23.5 11.7C23.5 14.1 21.5 16 19.1 16z M19.8 12.2H21C21.4 12.2 21.7 11.9 21.7 11.6C21.7 11.2 21.4 11 21 11H19.8V9.6C19.7 9.3 19.4 9.1 19.1 9.1C18.8 9.1 18.5 9.4 18.5 9.7V11H17.2C16.9 11 16.6 11.3 16.6 11.6S16.9 12.2 17.2 12.2H18.5V13.5C18.5 13.8 18.8 14.1 19.1 14.1S19.7 13.8 19.7 13.5V13C19.8 12.8 19.8 12.6 19.8 12.2C19.8 12.3 19.8 12.3 19.8 12.2z" />
    <glyph glyph-name="npm"
      unicode="&#xE04C;"
      horiz-adv-x="32" d=" M4 20.7V12.7H10.8V11.3H16.1V12.6H28V20.7H4zM10.6 14H9.3V17.9H8V14H5.3V19.3H10.6V14zM17.2 14H14.5V12.6H11.8V19.2H17.1C17.2 17.6 17.2 15.8 17.2 14zM26.6 14H25.3V17.9H24V14H22.6V17.9H21.3V14H18.6V19.3H26.6V14zM15.9 17.9H14.6V15.3H15.9V17.9z" />
    <glyph glyph-name="npm_ignored"
      unicode="&#xE04D;"
      horiz-adv-x="32" d=" M4 20.7V12.7H10.8V11.3H16.1V12.6H28V20.7H4zM10.6 14H9.3V17.9H8V14H5.3V19.3H10.6V14zM17.3 14H14.6V12.6H11.9V19.2H17.2C17.3 17.6 17.3 15.8 17.3 14zM26.6 14H25.3V17.9H24V14H22.6V17.9H21.3V14H18.6V19.3H26.6V14zM15.9 17.9H14.6V15.3H15.9V17.9z" />
    <glyph glyph-name="nunjucks"
      unicode="&#xE04E;"
      horiz-adv-x="32" d=" M20.7 19.4L19.5 19C19.2 20 18.1 23.1 16.1 23.1S12.9 19.9 12.6 19L11.2 19.4L8.3 10L11.9 8.9L14.8 18.3L13.5 18.7C13.8 19.8 14.9 22.1 16 22.1S18.1 19.8 18.4 18.7L16.9 18.2L19.8 8.8L23.4 9.9L20.7 19.4z" />
    <glyph glyph-name="ocaml"
      unicode="&#xE04F;"
      horiz-adv-x="32" d=" M26 8.1V21.6C26 22 26 22.4 25.9 22.8C25.8 23.4 25.4 23.9 24.9 24.3C24.6 24.5 24.3 24.7 23.9 24.7C23.8 24.7 23.8 24.7 23.8 24.8H8.1C8.1 24.6 7.8 24.6 7.7 24.6C6.9 24.3 6.4 23.7 6.1 22.9C6 22.7 6 22.5 6 22.3V17.7C6 17.4 6 17.4 6.3 17.5C6.5 17.6 6.6 17.6 6.8 17.7C7.2 17.8 7.3 18.2 7.5 18.4C7.7 18.7 7.8 18.9 8.1 19.1C8.3 19.3 8.5 19.3 8.8 19.1C9 19 9.2 18.8 9.5 18.7C9.8 18.6 10.2 18.5 10.5 18.6C10.8 18.6 10.9 18.9 11 19.1C11.1 19.3 11.2 19.5 11.3 19.6C11.5 19.7 11.6 19.7 11.9 19.7C12.5 19.6 12.9 19.1 13.3 18.6C13.4 18.4 13.5 18.3 13.7 18.2C13.9 18.1 14.1 17.9 14.3 17.7C14.8 17.1 15.5 16.7 16 16.2C16.3 15.9 16.7 15.6 17.2 15.4C17.8 15.2 18.3 15.1 18.8 15.8C19.2 16.3 19.5 16.9 19.6 17.5C19.7 17.8 19.9 18 20.1 18.3H20.2C20.7 18.4 21.2 18.3 21.6 18.2C21.8 18.2 21.9 18.2 22.1 18.1C22.5 18 22.9 18 23.3 17.8C23.7 17.6 23.8 17.2 23.7 16.8C23.6 16.4 23.5 16.6 23.3 16.6H23C22.6 16.5 22.2 16.3 21.8 16.1C21.6 16 21.4 15.8 21.4 15.6C21.3 15.2 21.1 14.9 20.8 14.7C20.7 14.6 20.6 14.6 20.6 14.4C20.4 14.3 20.4 14.1 20.2 14C19.5 13.3 18.6 13 17.6 12.9H16C15.8 12.9 15.8 12.8 15.8 12.7C15.9 12.3 15.8 11.9 15.9 11.5C16 11.3 16 11.1 16 10.9C16 10.5 16.2 10.1 16.5 9.8C16.6 9.7 16.6 9.6 16.6 9.5C16.6 9.2 16.6 8.8 16.7 8.5C16.8 8.1 16.9 7.6 17.1 7.2C17.2 7.1 17.3 7 17.4 7.1C17.6 7.2 17.8 7.2 18 7.3C18.5 7.5 19.1 7.5 19.7 7.5C20.9 7.5 22 7.7 23.2 7.4C23.6 7.3 23.9 7.3 24.3 7.2C24.9 7 25.4 7 26 7C26.2 7 26.4 7.1 26.4 7.4C25.9 7.8 26 7.9 26 8.1z M10.7 10.9L10.8 11C10.9 11.5 11.1 12 11.5 12.4H11.4C10.7 12.4 10.1 12.5 9.4 12.7C8.9 12.8 8.3 13 7.9 13.4C7.6 13.7 7.2 13.6 7 13.2C7 13.1 6.9 12.9 6.9 12.8C6.7 12.4 6.5 12.1 6.2 11.8C6.1 11.6 6 11.4 6 11.1V9.2C6 9 6.1 8.9 6.3 8.9C6.8 8.8 7.2 8.6 7.6 8.5C8.2 8.3 8.8 8 9.4 8C9.8 8 9.8 8 9.9 8.4C9.9 8.5 10 8.5 10 8.6H9.9H10V8.8V8.7C10 8.8 10.1 8.8 10.1 8.9V9C10.2 9.2 10.2 9.4 10.2 9.5C10.2 9.7 10.2 9.9 10.3 10V10.1C10.5 10.2 10.6 10.5 10.7 10.7V10.9zM15.7 9C15.5 9.2 15.4 9.4 15.3 9.7C15.3 9.8 15.3 10 15.2 10C15.2 10.3 15.1 10.5 15 10.8C14.8 11.5 14.4 12.1 13.8 12.6C13.3 12.9 13.1 12.9 12.7 12.5C12.6 12.4 12.6 12.3 12.5 12.2C12.2 11.7 11.9 11.2 11.6 10.6C11.5 10.4 11.4 10.3 11.4 10C11.3 9.9 11.3 9.7 11.2 9.5C10.9 9.2 10.7 8.7 10.5 8.3C10.5 8.2 10.4 8.2 10.5 8.1H10.7C11.1 8.2 11.5 8.3 11.9 8.5C12.5 8.8 13.2 8.8 13.8 8.6C14.4 8.4 14.8 8.1 15.3 7.7C15.6 7.5 15.9 7.4 16.2 7.3H16.4V7.4C16.1 8 16 8.5 15.7 9z" />
    <glyph glyph-name="pdf"
      unicode="&#xE050;"
      horiz-adv-x="32" d=" M7 9.1C7.1 9.7 7.5 10.1 7.9 10.5C8.4 11 9 11.3 9.7 11.7C10.4 12.1 11.1 12.4 11.8 12.7C11.9 12.7 12 12.8 12 12.9C12.6 14.1 13.2 15.3 13.7 16.5C14 17.2 14.2 17.9 14.5 18.6V18.7C14.2 19.4 13.9 20.2 13.8 21C13.6 21.8 13.6 22.6 13.7 23.4C13.8 23.9 14.1 24.3 14.5 24.7C14.6 24.8 14.8 24.8 15 24.8H15.8C16 24.8 16.2 24.7 16.3 24.5C16.6 24.3 16.8 24 17 23.7C17.2 23.3 17.2 22.9 17.3 22.5C17.3 21.3 17.1 20.2 16.9 19.1C16.8 18.7 16.7 18.4 16.6 18V17.9C17.2 16.8 18 15.8 18.8 14.9C18.9 14.8 18.9 14.8 19.1 14.8C20.2 15 21.3 15 22.3 15C22.9 15 23.6 14.9 24.2 14.6C24.5 14.4 24.8 14.2 25 13.9C25.1 13.7 25.2 13.5 25.2 13.3V12.6C25.2 12.4 25.1 12.2 24.9 12.1C24.7 11.9 24.5 11.6 24.1 11.6C23.9 11.6 23.6 11.5 23.4 11.5C21.8 11.4 20.5 11.9 19.2 12.8C19 13 18.7 13.2 18.5 13.4C18.4 13.4 18.4 13.5 18.3 13.5C17.7 13.4 17.1 13.3 16.5 13.1C15.7 12.9 14.9 12.6 14.1 12.4C14 12.4 14 12.3 13.9 12.3C13.4 11.4 12.8 10.5 12.2 9.7C11.7 9.1 11.1 8.5 10.5 8C10.2 7.8 9.8 7.6 9.4 7.5H8.6C8.4 7.5 8.3 7.5 8.1 7.6C7.6 7.8 7.2 8.2 7.1 8.7C7 8.7 7 8.9 7 9.1zM15.8 16.1C15.5 15.3 15.1 14.5 14.8 13.7L17.2 14.3C16.7 14.9 16.2 15.6 15.8 16.1zM20.1 13.5C20.7 13.1 21.4 12.8 22.1 12.6C22.4 12.5 22.6 12.6 22.8 12.7C23 12.8 23.1 13.1 22.9 13.2C22.9 13.3 22.8 13.3 22.7 13.3C22.5 13.4 22.2 13.4 21.9 13.5C21.3 13.6 20.7 13.6 20.1 13.5zM10.7 10.7S10.6 10.7 10.7 10.7C10.1 10.4 9.5 10 9 9.6C8.7 9.4 8.5 9.1 8.3 8.8V8.6C8.4 8.5 8.4 8.5 8.5 8.5C8.8 8.7 9 8.9 9.2 9C9.8 9.5 10.2 10.1 10.7 10.7zM15 20.8C15.1 20.8 15.1 20.8 15 20.8C15.2 21.4 15.3 22 15.3 22.5C15.3 22.8 15.3 23.1 15.2 23.4C15.2 23.5 15.1 23.5 15 23.5S14.9 23.4 14.8 23.4C14.6 23.1 14.6 22.8 14.6 22.4C14.6 22.1 14.6 21.9 14.7 21.6C14.9 21.4 14.9 21.1 15 20.8z" />
    <glyph glyph-name="perl"
      unicode="&#xE051;"
      horiz-adv-x="32" d=" M13.4 6H11.9C12 6.3 12 6.7 12.1 6.8C13.1 7.2 12.8 8 12.8 8.8V15C11.8 15.2 10.8 15.1 10.1 15.5C7.9 16.9 7.3 19.2 8.3 21.6C8.6 22.3 8.5 22.8 7.6 22.9C7.4 22.9 7.1 23 6.8 23.1V23.3C7.4 23.6 7.9 24 8.5 24.3C8.7 24.4 9.1 24.3 9.3 24.5C10.9 25.3 11.2 25.2 12.1 23.6C12.6 22.6 12.5 21.7 12 20.7C11.7 20.2 11.3 19.5 12.1 19.2C14.1 22 15.8 24.9 19.3 26H20C20.5 25.3 21.2 24.8 21.6 24C22.7 22.2 23.5 20.3 24.6 18.6C25.4 17.4 25.3 15 24.3 14.2V17.7H23.9C23 16.4 23.5 14.9 23.5 13.4C23.5 10.9 23.4 8.4 23.4 6H22.7C22.7 6.3 22.6 6.5 22.7 6.8C23.1 9.9 22.7 13 21.6 16C20.7 15.2 20.3 14.2 20.2 13C20.1 12.1 19.8 11.2 19.5 10.3C19.2 9.5 18.4 8.8 19.4 8C19.5 7.9 19.3 7.4 19.3 6.9C18.9 7.4 18.7 7.7 18.5 7.9V7.6C17.8 7.4 17 7.3 16.3 7.1C16.3 7.2 16.2 7.4 16.2 7.5C16.4 7.6 16.6 7.7 16.8 7.9C17.8 8.5 17.9 9.1 17.1 9.8C15.8 10.8 15.4 12 16 13.5C16.2 13.9 16.1 14.4 16.2 15.2C15.5 14.8 14.9 14.6 14.8 14.3C14.4 12.8 14.2 11.2 14 9.7C13.7 8.3 13.6 7.2 13.4 6zM18 9.8C19.4 11.6 19.6 13.6 18.6 15C18 13.8 17.4 12.6 16.8 11.3L18 9.8z" />
    <glyph glyph-name="photoshop"
      unicode="&#xE052;"
      horiz-adv-x="32" d=" M25 24.6V25H7V7H24.5C24.9 7 25 7.1 25 7.5V24.6zM14.4 14.9C13.6 14.7 13 14.7 12 14.6V11H10.2C10.1 11 10 11.3 10 11.5V21C10 21.1 11 21.2 11.5 21.2C12.4 21.2 13.3 21.2 14.1 21.1C15.8 20.9 16.7 19.8 16.8 18.3C16.9 16.6 16 15.3 14.4 14.9zM22.1 12.9C22 12 21.5 11.4 20.7 11.1C19.5 10.6 18.3 10.7 17.1 11.2C17 11.2 16.9 11.4 16.9 11.5C17 11.9 17.1 12.3 17.2 12.6C17.9 12.5 18.6 12.3 19.2 12.2C19.6 12.1 20 12.3 20.1 12.8C20.2 13.2 20 13.5 19.5 13.8C19.2 14 18.8 14.1 18.5 14.2C17.4 14.7 16.9 15.4 17 16.5C17.1 17.4 17.8 18.1 18.9 18.4C19.8 18.6 20.7 18.5 21.5 18.2C21.6 18.2 21.8 17.9 21.7 17.8C21.6 17.4 21.5 17.1 21.4 16.7C20.9 16.8 20.4 16.9 20 17C19.8 17 19.5 17 19.3 16.9C18.8 16.7 18.7 16.1 19.1 15.8C19.3 15.6 19.5 15.6 19.8 15.4C20.1 15.2 20.5 15.1 20.9 14.9C21.7 14.6 22.1 13.9 22.1 12.9z M13.9 19.5C13.3 19.6 13 19.6 12 19.7V16.3C13 16.2 13.4 16.2 14.1 16.5C14.8 16.8 14.9 17.5 14.9 18.1C14.9 18.8 14.5 19.3 13.9 19.5z" />
    <glyph glyph-name="php"
      unicode="&#xE053;"
      horiz-adv-x="32" d=" M12.7 12.3C12.6 12.9 12.3 13.4 11.7 13.6C11.5 13.7 11.2 13.9 11 14C10.7 14.1 10.4 14.2 10.2 14.3C10 14.4 9.8 14.3 9.6 14.1C9.5 13.9 9.6 13.7 9.7 13.6C9.8 13.4 9.9 13.3 10.1 13.1C10.3 12.8 10.5 12.6 10.8 12.3C11 12 11.2 11.8 11.1 11.4C11 10.7 10.7 10 10.2 9.5C10.1 9.4 10 9.4 10 9.4C9.7 9.4 9.3 9.6 9.1 9.8C8.8 10.1 8.9 10.4 9.2 10.6C9.3 10.6 9.4 10.7 9.4 10.8C9.6 11 9.7 11.2 9.6 11.5C9.5 11.6 9.5 11.7 9.4 11.8C9 12.2 8.5 12.6 8 13C6.7 14 6.1 15.2 6 16.6C5.9 18.2 6.3 19.7 7.1 21.1C7.4 21.6 7.8 22.1 8.4 22.4C8.8 22.6 9.2 22.7 9.6 22.8C10.7 23.1 11.9 23.3 13.1 23.1C14.1 22.9 14.9 22.4 15.2 21.4C15.4 20.7 15.5 20.1 15.4 19.4C15.3 18 14.2 16.8 12.9 16.4C12.3 16.2 12 16.3 11.7 16.8C11.5 17.1 11.2 17.5 11 17.9V18C11 18.1 10.9 18.1 10.9 18.2C11 17.6 11.1 17 11.4 16.5C11.6 16.2 11.8 16 12.2 16C13.5 15.9 14.5 16.3 15.3 17.3C16.1 18.4 16.3 19.7 16.1 21.1C16.1 21.4 16 21.6 15.9 21.9C15.9 22.1 15.9 22.2 16.1 22.3C16.2 22.3 16.3 22.3 16.3 22.4C17.3 22.6 18.4 22.7 19.4 22.6C20.6 22.5 21.7 22.2 22.7 21.5C24.3 20.5 25.3 19 25.8 17.2C25.9 16.9 25.9 16.7 25.9 16.4C25.9 16.2 25.8 16.2 25.6 16.3C25.4 16.4 25.3 16.6 25.2 16.7C25.1 16.8 25 17 24.9 17.1C24.8 17.2 24.7 17.2 24.7 17.1S24.6 16.9 24.6 16.8C24.3 15.8 23.9 14.9 23.2 14.2C23.1 14.1 23 13.9 23 13.8C23 13.4 22.9 13 23 12.6C23.1 11.8 23.2 10.9 23.3 10.1C23.4 9.6 23.2 9.4 22.8 9.2C22.5 9.1 22.2 9 21.8 9H20.2C20.2 9.6 20.2 10.2 19.7 10.5C19.8 10.9 19.9 11.3 20 11.8C20.1 12.2 20 12.5 19.8 12.8C19.6 13.1 19.3 13.1 19 13C18.2 12.5 17.4 12.5 16.5 12.8C16.1 12.9 15.8 12.9 15.6 12.5C15.4 12.1 15.3 11.7 15.3 11.3C15.3 10.8 15.4 10.2 15.5 9.7C15.5 9.4 15.5 9.3 15.2 9.2C14.5 9 13.8 9 13.2 9.1H13.1C13.1 9.7 13.1 10.3 12.4 10.6C12.8 11 12.8 11.7 12.7 12.3zM8.6 14.6C8.7 14.7 8.8 14.8 8.8 15C8.9 15.3 8.6 15.8 8.3 15.9C8.1 16 8 15.9 7.9 15.8C7.6 15.5 7.4 15.2 7.1 14.9C7.1 14.8 7 14.8 7 14.7C6.9 14.5 7 14.3 7.2 14.3C7.3 14.3 7.5 14.3 7.6 14.2C8 14.2 8.3 14.3 8.6 14.6zM8.6 17.9C8.6 18.1 8.4 18.3 8.2 18.3S7.7 18.1 7.8 17.8C7.8 17.6 8 17.4 8.3 17.4C8.4 17.5 8.6 17.7 8.6 17.9z" />
    <glyph glyph-name="project"
      unicode="&#xE054;"
      horiz-adv-x="32" d=" M8.7 9H16V7.1H8.7z M17.3 16.6H23.7V14.7H17.3z M7 24.9H13.6V23H7z M10.9 16.6H15.9V14.7H10.9z M10.9 12.7H17.1V10.8H10.9z M21.8 12.7H25V10.8H21.8z M8.7 20.7H16V18.8H8.7z M18.5 12.7H20.5V10.8H18.5z" />
    <glyph glyph-name="pug"
      unicode="&#xE055;"
      horiz-adv-x="32" d=" M22.2 12C22.2 11.7 22.1 11.4 22 11.1C21.6 10.2 20.7 9.5 19.4 9.7C19.2 9.8 18.9 9.8 18.7 9.9C18.1 10.1 17.6 10.5 17.2 11C17 10.4 16.8 9.9 16.4 9.4V9.3C16.2 9.2 16 9.1 15.9 8.9H15.8C14.7 8.2 13.4 8.5 12.6 9.6C12.6 9.7 12.5 9.7 12.5 9.8C12.3 10.2 12.2 10.5 12.1 10.9C12 11.5 12 12 12 12.6C12 12.9 12.1 13.1 12.2 13.4C12.3 13.6 12.4 13.8 12.4 13.9C12.4 13.9 12.4 14 12.5 14C12.8 14.7 13.2 15.3 13.7 15.8C13.8 15.9 14 16 14 16.2C14.1 16.2 14.1 16.2 14.1 16.3C14.1 16.3 14.2 16.3 14.2 16.4C14.5 16.7 14.9 16.9 15.3 16.9C15.6 17 15.9 17 16.3 17.1S17.1 17.3 17.6 17.2C17.7 17.2 17.9 17.2 18 17.1H18.1C18.9 16.9 19.6 16.5 20.2 16C20.3 15.9 20.4 15.8 20.5 15.8C20.5 15.7 20.6 15.7 20.6 15.7C20.6 15.6 20.7 15.6 20.7 15.5C20.9 15.3 21.1 15.2 21.2 15C21.3 14.8 21.5 14.7 21.6 14.6C21.7 14.5 21.7 14.5 21.7 14.4C22 13.6 22.3 12.9 22.2 12zM14.8 15.1C14.7 14.9 14.7 14.8 14.8 14.6C14.9 14.2 15.2 13.9 15.6 13.7C15.8 13.6 16.1 13.5 16.3 13.3C16.6 13 16.8 12.6 16.9 12.2C17 11.9 17.1 11.7 17.2 11.4V11.7C17.2 12 17.1 12.3 17.1 12.6C17.1 13.1 17.1 13.5 17.5 13.9C17.8 14.3 18 14.7 18 15.3C18 15.5 18 15.6 17.8 15.7C17.7 15.9 17.5 16 17.3 16.1C16.6 16.2 16 16.1 15.4 15.7C15 15.6 14.9 15.4 14.8 15.1zM14.6 9.5C14.8 9.5 14.9 9.6 14.9 9.7S14.8 9.9 14.7 9.9C14.5 9.9 14.4 9.8 14.4 9.7C14.4 9.5 14.5 9.5 14.6 9.5zM20.6 11.8C20.8 11.8 20.9 11.9 20.9 12S20.8 12.2 20.7 12.2C20.5 12.2 20.4 12.1 20.4 12S20.5 11.8 20.6 11.8zM15.3 11.2C15.1 11.2 15 11.1 15 11S15.1 10.8 15.2 10.8C15.4 10.8 15.5 10.9 15.5 11C15.6 11.2 15.5 11.2 15.3 11.2zM20.2 11.1C20 11.1 19.8 11 19.8 10.9S19.9 10.7 20 10.7C20.2 10.7 20.3 10.8 20.3 10.9C20.4 11.1 20.3 11.1 20.2 11.1zM13.6 10.3C13.7 10.3 13.9 10.3 13.9 10.5V10.7C13.8 10.8 13.7 10.8 13.5 10.7C13.4 10.7 13.3 10.6 13.4 10.5C13.4 10.3 13.5 10.3 13.6 10.3zM18.9 11.7C19.1 11.7 19.2 11.8 19.2 11.9S19.1 12.1 19 12C18.9 12 18.7 12 18.7 11.8C18.7 11.7 18.8 11.6 18.9 11.7zM11.4 21.3C11.6 21.3 11.8 21.5 12 21.6C12.6 21.8 13.2 22.1 13.8 22.4H13.9C13.9 22.3 13.8 22.2 13.9 22.2S14.1 22.2 14.2 22.3C14.5 22.5 14.8 22.7 15 22.8C15.1 22.8 15.2 22.9 15.3 22.9C15.2 22.7 15.1 22.6 15 22.5C15.3 22.6 15.6 22.8 15.9 22.9C16.1 22.9 16.4 23 16.8 23C16.7 22.9 16.6 22.8 16.4 22.7C17 22.8 17.5 22.7 18.1 22.7C18.3 22.7 18.4 22.7 18.6 22.6H18.7C19.2 21.9 19.9 21.4 20.5 20.8C20.8 20.6 21.1 20.4 21.3 20.1C21.2 20.1 21.1 20.2 21 20.2C20.4 20.4 19.9 20.5 19.2 20.4C18.7 20.3 18.2 20 17.8 19.7C17.3 19.3 16.9 18.9 16.4 18.6C15.9 18.3 15.3 18.1 14.6 18.2C14 18.3 13.5 18.4 13 18.6C12.5 18.7 12 18.8 11.5 18.7C10.8 18.6 10.2 18.2 9.8 17.6C9.7 17.5 9.7 17.4 9.6 17.4C9.6 17.4 9.6 17.5 9.7 17.5C10.2 18.6 10.8 19.7 11 20.8C11.1 21.2 11.3 21.2 11.4 21.3zM13.4 19.6C14.7 18.9 16.7 19.7 17.2 20.7C16.7 20.3 16.1 20 15.4 19.8C14.7 19.6 14 19.6 13.4 19.6zM14 20.5C14.8 20.1 15.9 20.6 16.1 21.1C15.8 20.9 15.5 20.7 15.1 20.6C14.7 20.5 14.3 20.5 14 20.5z M11 21C10.7 19.6 10 18.3 9.4 17C9.4 16.9 9.4 16.9 9.3 16.8V16.7S9.3 16.6 9.2 16.6C9 16.3 8.9 16 8.8 15.7C8.5 15.1 8.1 14.5 7.8 13.9C7.6 13.6 7.4 13.2 7.1 12.9C6.8 12.5 6.6 12.6 6.4 13C6.1 13.8 6 14.7 6.1 15.5C6.1 16.1 6.1 16.8 6.2 17.4C6.2 17.9 6.2 18.3 6.1 18.8C6 19.1 6.1 19.3 6.3 19.6C6.5 20 6.7 20.1 7 20.3C7.8 20.7 8.6 20.9 9.4 21.2C9.7 21.3 10.1 21.4 10.4 21.6C11 21.7 11 21.6 11 21zM21.8 19.7C21.5 20 21.1 20.3 20.8 20.5C20 21.2 19.2 21.8 18.6 22.7H18.5C18.5 22.8 18.4 22.9 18.3 23.1C18.2 23.4 18.3 23.5 18.6 23.5H18.9C19.7 23.5 20.5 23.7 21.3 23.7C21.8 23.7 22.4 23.8 22.9 23.7C23.5 23.6 23.7 23.4 23.9 22.8C24 22.4 24.2 22 24.4 21.7C24.8 20.8 25.3 20 25.7 19.1C25.9 18.6 26 18 26.1 17.5C26.1 17.1 26 17 25.6 17.1C25.3 17.2 25 17.4 24.7 17.6C24.6 17.6 24.6 17.7 24.5 17.7V17.8C24 18.2 23.5 18.5 23 18.9H22.9C22.6 19.1 22.3 19.4 22 19.5L21.8 19.7C21.9 19.7 21.8 19.7 21.8 19.7z M8.3 15.3C8.6 15.8 8.8 16.3 9.1 16.8V16.6C8.9 16 8.9 15.4 9 14.8C9.1 14 9.4 13.3 10.1 12.8C10.5 12.5 10.9 12.3 11.4 12.4C11.6 12.4 11.7 12.5 11.9 12.5C11.8 11.9 11.8 11.4 12 10.8C12.1 10.4 12.3 10.1 12.4 9.7C12.1 9.7 11.9 9.9 11.7 10C10 11 9 12.5 8.6 14.4L8.3 15.3zM22.2 19.5L23.4 18.6C23.4 18.3 23.5 18 23.6 17.8C23.7 17.2 23.8 16.6 23.8 16C23.7 14.6 23.3 13.3 22.4 12.2C22.4 12.1 22.3 12.1 22.3 12.1C22.4 13 22.1 13.7 21.7 14.5C21.7 14.6 21.6 14.6 21.6 14.7S21.7 14.8 21.8 14.8C22.2 14.8 22.5 15 22.7 15.2C23.2 15.8 23.4 16.6 23.3 17.4C23.2 18.2 22.9 18.8 22.4 19.4C22.2 19.4 22.1 19.4 22.2 19.5zM18.7 9.9C18.9 9.8 19.1 9.8 19.4 9.7C19.1 8.9 18.6 8.3 17.7 8.2C17 8.1 16.3 8.3 15.8 8.9C15.9 9.1 16.1 9.2 16.3 9.3C16.6 8.9 17 8.7 17.4 8.6H17.8C18.3 8.8 18.7 9.4 18.7 9.9zM18.9 23.4C18.8 23.3 18.8 23.4 18.7 23.4C18.5 23.4 18.4 23.3 18.4 23C18.4 22.9 18.5 22.8 18.5 22.7C18.3 22.7 18.2 22.7 18 22.8C18.1 23 18.2 23.1 18.2 23.3C18.2 23.4 18.3 23.4 18.4 23.4C18.6 23.4 18.8 23.5 18.9 23.4zM11 21.1C11 21.6 11 21.7 10.5 21.6C10.6 21.7 10.7 21.7 10.8 21.7C10.9 21.7 11 21.7 11 21.6C11.1 21.5 11.2 21.4 11.4 21.3C11.3 21.2 11.1 21.2 11 21.1zM12.4 9.8S12.4 9.7 12.4 9.8C12.4 9.7 12.4 9.7 12.4 9.8z M22.2 19.5C22.2 19.4 22.3 19.3 22.3 19.3C22.8 18.7 23.1 18 23.2 17.3C23.3 16.5 23.1 15.8 22.6 15.1C22.4 14.8 22 14.7 21.7 14.7C21.6 14.7 21.6 14.7 21.5 14.6L21.1 15C21 15.2 20.8 15.3 20.6 15.5C20.6 15.5 20.5 15.6 20.5 15.7S20.6 15.8 20.7 15.8C21.4 16.1 22 16.9 21.9 17.7C21.8 18.8 20.9 19.5 19.9 19.5C18.6 19.5 17.7 18.3 17.9 17.2C17.8 17.2 17.6 17.2 17.5 17.3C17.1 17.4 16.6 17.3 16.2 17.2C15.9 17.1 15.6 17.1 15.2 17S14.4 16.7 14.1 16.5L14 16.4C13.7 17.6 12.4 18.1 11.4 17.7C10.5 17.4 10 16.6 10.1 15.7C10.2 14.9 10.8 14.2 11.6 14C11.8 13.9 12.1 14 12.3 14C12.3 13.8 12.2 13.6 12.1 13.5C12 13.2 11.9 13 11.9 12.7C11.7 12.7 11.6 12.6 11.4 12.6C10.9 12.5 10.5 12.7 10.1 13C9.5 13.5 9.2 14.2 9 15C8.9 15.6 9 16.2 9.2 16.8V17C9.3 17.2 9.4 17.5 9.6 17.7C9.6 17.7 9.7 17.7 9.7 17.8V17.9C9.8 17.9 9.8 18 9.9 18.1C10.4 18.6 10.9 19 11.6 19.2C12.1 19.3 12.6 19.2 13.1 19.1C13.6 18.9 14.2 18.8 14.7 18.7C15.3 18.6 15.9 18.7 16.5 19.1C17 19.4 17.4 19.8 17.9 20.2C18.3 20.5 18.7 20.8 19.3 20.9C19.9 21 20.5 20.9 21.1 20.7C21.2 20.7 21.3 20.6 21.4 20.6H21.5C21.6 20 21.9 19.8 22.2 19.5C22.1 19.5 22.1 19.6 22.2 19.5C22.1 19.6 22.2 19.5 22.2 19.5z M14.8 15.1C14.8 14.3 15.4 14 16 13.9C16.7 13.8 17.4 14.3 17.6 15C17.7 15.2 17.6 15.5 17.6 15.7C17.8 15.6 17.8 15.5 17.8 15.3C17.9 14.8 17.7 14.3 17.3 13.9C17 13.5 17 13.1 17 12.6C17 12.3 17.1 12 17.1 11.7C17.1 11.6 17.2 11.5 17.1 11.4C17 11.7 16.9 12 16.8 12.2C16.6 12.6 16.5 13 16.2 13.3C16 13.5 15.7 13.5 15.5 13.7C15.2 13.9 14.9 14.2 14.7 14.6C14.7 14.8 14.7 15 14.8 15.1zM14.6 9.5C14.5 9.5 14.4 9.5 14.4 9.7C14.4 9.8 14.6 9.9 14.7 9.9C14.8 9.9 14.9 9.9 14.9 9.7C15 9.6 14.8 9.5 14.6 9.5zM20.6 11.8C20.5 11.8 20.4 11.8 20.4 12C20.4 12.1 20.6 12.2 20.7 12.2C20.8 12.2 20.9 12.2 20.9 12C21 11.9 20.8 11.8 20.6 11.8zM15.3 11.2C15.4 11.2 15.5 11.2 15.5 11C15.5 10.9 15.3 10.8 15.2 10.8C15.1 10.8 15 10.8 15 11C15 11.1 15.2 11.2 15.3 11.2zM20.2 11.1C20.3 11.1 20.4 11.1 20.4 10.9C20.4 10.8 20.2 10.7 20.1 10.7C20 10.7 19.9 10.8 19.9 10.9C19.8 11 20 11.1 20.2 11.1zM13.6 10.3C13.5 10.3 13.4 10.3 13.4 10.4S13.5 10.6 13.5 10.6C13.6 10.7 13.7 10.7 13.9 10.6C14 10.6 14 10.5 13.9 10.4C13.9 10.3 13.7 10.3 13.6 10.3zM18.9 11.7C18.8 11.7 18.7 11.7 18.7 11.9S18.9 12.1 19 12.1C19.1 12.1 19.2 12.1 19.2 12C19.3 11.8 19.1 11.7 18.9 11.7zM9.6 17.6C9.6 17.5 9.6 17.5 9.6 17.6C9.5 17.5 9.6 17.5 9.6 17.6zM9.6 17.6zM9.2 16.8C9.2 16.7 9.2 16.7 9.2 16.8C9.1 16.7 9.1 16.8 9.2 16.8zM21.3 20.2zM22.1 19.6S22.1 19.5 22.1 19.6zM21.4 20.1S21.3 20.1 21.4 20.1C21.3 20.1 21.4 20.1 21.4 20.1zM23.4 18.6z" />
    <glyph glyph-name="puppet"
      unicode="&#xE056;"
      horiz-adv-x="32" d=" M7.239 29.135H15.211C15.215 27.105 15.204 25.075 15.216 23.045C16.304 21.974 17.376 20.885 18.46 19.81L18.494 19.795C20.514 19.789 22.534 19.795 24.554 19.792L24.553 11.821H18.539C18.436 11.829 18.385 11.718 18.315 11.661C17.281 10.631 16.255 9.593 15.216 8.567C15.204 6.538 15.215 4.507 15.211 2.478H7.239V10.45C9.272 10.452 11.305 10.447 13.338 10.452C14.421 11.542 15.51 12.626 16.596 13.712V17.898C15.51 18.988 14.42 20.074 13.334 21.163H7.239V29.134z M9.91 26.464H12.553V23.822H9.91V26.464zM9.91 7.778H12.553V5.136H9.91V7.778z" />
    </font>
</defs>
</svg>
