<?xml version="1.0" encoding="utf-8"?>
<!-- Generator: Adobe Illustrator 18.1.1, SVG Export Plug-In . SVG Version: 6.00 Build 0)  -->
<svg version="1.1" id="Layer_1" xmlns="http://www.w3.org/2000/svg" xmlns:xlink="http://www.w3.org/1999/xlink" x="0px" y="0px"
	 viewBox="0 0 32 32" enable-background="new 0 0 32 32" xml:space="preserve">
<g>
	<path d="M24.6,20.6C24.6,20.6,24.6,20.6,24.6,20.6C24.6,20.6,24.6,20.6,24.6,20.6c-0.1,0.2-0.1,0.3-0.1,0.4c-0.4,1.1-1,2.1-1.7,3
		c-0.3,0.4-0.7,0.8-1.1,1.1c-0.3,0.2-0.5,0.4-0.8,0.6c-0.2,0.1-0.5,0.2-0.7,0.2c-0.1,0-0.1,0-0.2,0c-0.1,0-0.1,0-0.2,0c0,0,0,0,0,0
		c-0.1,0-0.1,0-0.2,0c-0.3,0-0.6-0.1-0.8-0.2c-0.3-0.1-0.6-0.2-0.9-0.3c-0.2-0.1-0.3-0.1-0.5-0.2c-0.2-0.1-0.5-0.1-0.7-0.1
		c-0.3,0-0.6,0-0.9,0.1c-0.4,0.1-0.8,0.2-1.2,0.4c-0.2,0.1-0.3,0.1-0.5,0.2c-0.3,0.1-0.6,0.2-0.9,0.2c0,0-0.1,0-0.1,0
		c-0.1,0-0.2,0-0.2,0c0,0,0,0,0,0c0,0-0.1,0-0.1,0c-0.3,0-0.6-0.1-0.8-0.3c-0.4-0.2-0.8-0.5-1.1-0.8c-0.3-0.3-0.6-0.6-0.8-1
		c-0.5-0.6-0.9-1.3-1.2-2c-0.4-0.8-0.7-1.6-0.9-2.5c-0.1-0.4-0.2-0.8-0.2-1.3c0-0.3-0.1-0.6-0.1-0.9c0-0.1,0-0.2,0-0.3c0,0,0,0,0,0
		c0-0.2,0-0.3,0-0.5c0,0,0-0.1,0-0.1c0-0.2,0-0.4,0.1-0.7c0-0.3,0.1-0.7,0.2-1c0.2-0.9,0.6-1.6,1.2-2.3c0.6-0.7,1.4-1.2,2.2-1.4
		c0.4-0.1,0.9-0.2,1.3-0.2c0.3,0,0.7,0,1,0c0.3,0,0.6,0.1,0.9,0.2c0.2,0.1,0.5,0.2,0.7,0.3c0.2,0.1,0.4,0.2,0.6,0.2
		c0.2,0.1,0.5,0.1,0.7,0.1c0.2,0,0.5-0.1,0.7-0.2c0.3-0.1,0.6-0.2,0.9-0.3c0.5-0.2,1.1-0.3,1.7-0.3c0.5,0,1,0,1.4,0.1
		c0.5,0.1,0.9,0.2,1.3,0.5c0.7,0.3,1.2,0.8,1.7,1.4c0,0,0,0,0,0c0,0,0,0,0,0c0,0,0,0,0,0c-0.3,0.2-0.6,0.5-0.9,0.8
		c-0.4,0.4-0.7,0.8-0.9,1.2c-0.2,0.5-0.4,0.9-0.4,1.4c0,0.2,0,0.5,0,0.7c0,0.3,0.1,0.5,0.1,0.8c0.2,0.8,0.6,1.4,1.2,2
		c0.3,0.3,0.7,0.6,1.2,0.9C24.4,20.5,24.5,20.5,24.6,20.6z"/>
	<path d="M20,6C20,6,20,6,20,6c0,0.3,0,0.6,0,0.8c0,0.7-0.3,1.4-0.7,2c-0.4,0.6-0.9,1.1-1.5,1.4c-0.4,0.3-0.9,0.4-1.4,0.5
		c-0.2,0-0.4,0-0.5,0c0,0,0,0,0,0c0,0,0-0.1,0-0.1c0-0.1,0-0.3,0-0.4c0-0.4,0-0.7,0.1-1.1c0.1-0.5,0.4-0.9,0.7-1.3
		c0.4-0.5,0.8-0.9,1.3-1.2c0.5-0.3,1-0.6,1.6-0.7C19.7,6,19.8,6,20,6C20,6,20,6,20,6z"/>
</g>
</svg>
