<svg xmlns="http://www.w3.org/2000/svg" viewBox="0 0 32 32"><g font-weight="600" font-family="Lucida Grande" letter-spacing="0" word-spacing="0"><path style="line-height:25px;-inkscape-font-specification:'Lucida Grande Semi-Bold'" d="M.521 21.637l4.02-11.274h2.15l4.021 11.274H8.506l-1.074-3.009H3.16l-1.075 3.01zm3.17-4.51H6.9l-1.605-4.494zM11.363 21.538v-1.935q2.174.762 3.72.762 1.083 0 1.701-.404.628-.403.628-1.097 0-.548-.391-.921-.391-.381-1.483-.9l-.9-.418q-1.81-.854-2.557-1.63-.746-.785-.746-1.829 0-1.394 1.22-2.24 1.227-.845 3.238-.845 1.61 0 3.63.388v1.806q-2.066-.648-3.266-.648-.928 0-1.492.35-.555.344-.555.907 0 .465.391.815.391.35 1.474.861l.964.45q1.947.914 2.684 1.683.736.77.736 1.874 0 1.57-1.391 2.46-1.392.892-3.84.892-1.618 0-3.765-.38zM21.085 21.637V10.363h2.848l2.485 7.93 2.562-7.93h2.499v11.274h-1.983v-8.509l-2.52 7.755h-1.73l-2.471-7.87v8.624z"/></g></svg>