<?xml version="1.0" encoding="UTF-8" standalone="no"?>
<svg
   xmlns:dc="http://purl.org/dc/elements/1.1/"
   xmlns:cc="http://creativecommons.org/ns#"
   xmlns:rdf="http://www.w3.org/1999/02/22-rdf-syntax-ns#"
   xmlns:svg="http://www.w3.org/2000/svg"
   xmlns="http://www.w3.org/2000/svg"
   viewBox="0 0 32 32"
   version="1.1"
   id="svg8">
  <metadata
     id="metadata14">
    <rdf:RDF>
      <cc:Work
         rdf:about="">
        <dc:format>image/svg+xml</dc:format>
        <dc:type
           rdf:resource="http://purl.org/dc/dcmitype/StillImage" />
        <dc:title></dc:title>
      </cc:Work>
    </rdf:RDF>
  </metadata>
  <defs
     id="defs12" />
  <g
     transform="matrix(0.59562761,0,0,0.650052,14.655874,16.701182)"
     id="g8432">
    <path
       id="path8419"
       style="font-style:normal;font-variant:normal;font-weight:600;font-stretch:normal;font-size:medium;line-height:25px;font-family:'Lucida Grande';-inkscape-font-specification:'Lucida Grande Semi-Bold';letter-spacing:0px;word-spacing:0px;fill:#000000;fill-opacity:1;stroke:none;stroke-width:1px;stroke-linecap:butt;stroke-linejoin:miter;stroke-opacity:1"
       d="m -23.730467,7.5932202 6.75,-17.34375 h 3.609375 l 6.7499991,17.34375 H -10.324218 L -12.128905,2.964314 h -7.171875 l -1.804687,4.6289062 z m 5.320312,-6.93749997 h 5.390625 l -2.695312,-6.91406253 z" />
    <path
       id="path8421"
       style="font-style:normal;font-variant:normal;font-weight:600;font-stretch:normal;font-size:medium;line-height:25px;font-family:'Lucida Grande';-inkscape-font-specification:'Lucida Grande Semi-Bold';letter-spacing:0px;word-spacing:0px;fill:#000000;fill-opacity:1;stroke:none;stroke-width:1.14160514px;stroke-linecap:butt;stroke-linejoin:miter;stroke-opacity:1"
       d="M -5.5289297,7.4408765 V 4.464314 q 3.6501524,1.171875 6.24649514,1.171875 1.81744006,0 2.85597716,-0.6210938 1.0538096,-0.6210937 1.0538096,-1.6875 0,-0.84375 -0.656722,-1.4179687 Q 3.3139082,1.323689 1.4811957,0.52681398 L -0.03079217,-0.11771727 Q -3.0700405,-1.4302173 -4.3223941,-2.6255298 q -1.2523535,-1.2070312 -1.2523535,-2.8125 0,-2.1445312 2.046529,-3.4453125 2.0618017,-1.3007817 5.4370472,-1.3007817 2.703251,0 6.0937693,0.5976567 v 2.7773438 q -3.4668813,-0.9960938 -5.4828651,-0.9960938 -1.55780564,0 -2.50470716,0.5390625 -0.93162882,0.5273438 -0.93162882,1.3945313 0,0.7148437 0.65672194,1.2539062 0.65672199,0.5390625 2.47416194,1.3242188 l 1.6188961,0.6914062 q 3.2683374,1.40625 4.5054183,2.58984378 1.237081,1.18359372 1.237081,2.88281252 0,2.4140625 -2.3367085,3.7851562 -2.3367085,1.3710938 -6.44503912,1.3710938 -2.71852358,0 -6.32285818,-0.5859375 z" />
    <path
       id="path8423"
       style="font-style:normal;font-variant:normal;font-weight:600;font-stretch:normal;font-size:medium;line-height:25px;font-family:'Lucida Grande';-inkscape-font-specification:'Lucida Grande Semi-Bold';letter-spacing:0px;word-spacing:0px;fill:#000000;fill-opacity:1;stroke:none;stroke-width:1px;stroke-linecap:butt;stroke-linejoin:miter;stroke-opacity:1"
       d="m 10.794558,7.5932202 v -17.34375 h 4.78125 L 19.747683,2.448689 24.048465,-9.7505298 h 4.195312 v 17.34375 H 24.915652 V -5.4966235 L 20.685183,6.433064 h -2.90625 L 13.630496,-5.6724048 v 13.265625 z" />
  </g>
</svg>
