<svg version="1.1" viewBox="0 0 32 32" xmlns="http://www.w3.org/2000/svg"><g transform="matrix(.596 0 0 .65 14.7 16.7)"><path d="m-23.7 7.59 6.75-17.3h3.61l6.75 17.3h-3.7l-1.8-4.63h-7.17l-1.8 4.63zm5.32-6.94h5.39l-2.7-6.91z"/><path d="m-5.53 7.44v-2.98q3.65 1.17 6.25 1.17 1.82 0 2.86-0.621 1.05-0.621 1.05-1.69 0-0.844-0.657-1.42-0.657-0.586-2.49-1.38l-1.51-0.645q-3.04-1.31-4.29-2.51-1.25-1.21-1.25-2.81 0-2.14 2.05-3.45 2.06-1.3 5.44-1.3 2.7 0 6.09 0.598v2.78q-3.47-0.996-5.48-0.996-1.56 0-2.5 0.539-0.932 0.527-0.932 1.39 0 0.715 0.657 1.25 0.657 0.539 2.47 1.32l1.62 0.691q3.27 1.41 4.51 2.59 1.24 1.18 1.24 2.88 0 2.41-2.34 3.79-2.34 1.37-6.45 1.37-2.72 0-6.32-0.586z"/><path d="m10.8 7.59v-17.3h4.78l4.17 12.2 4.3-12.2h4.2v17.3h-3.33v-13.1l-4.23 11.9h-2.91l-4.15-12.1v13.3z"/></g></svg>
