<?xml version="1.0" encoding="utf-8"?>
<!-- Generator: Adobe Illustrator 18.1.1, SVG Export Plug-In . SVG Version: 6.00 Build 0)  -->
<svg version="1.1" id="Layer_1" xmlns="http://www.w3.org/2000/svg" xmlns:xlink="http://www.w3.org/1999/xlink" x="0px" y="0px"
	 viewBox="0 0 32 32" enable-background="new 0 0 32 32" xml:space="preserve">
<g>
	<path d="M16.3,23.8c-0.2,0-0.4-0.2-0.6-0.3c-1.5-1.3-3-2.6-4.6-3.9c-0.1-0.1-0.1-0.1-0.2-0.1c-1.4,0-2.8,0-4.2,0
		c-0.4,0-0.6-0.2-0.7-0.5c0-0.1,0-0.2,0-0.3c0-1.8,0-3.6,0-5.4c0-0.5,0.3-0.8,0.8-0.8c1.4,0,2.8,0,4.2,0c0.1,0,0.2,0,0.2-0.1
		c1.5-1.3,3.1-2.7,4.6-4c0.4-0.3,0.8-0.3,1.1,0.1c0.1,0.1,0.1,0.3,0.1,0.4c0,0,0,0.1,0,0.1c0,4.7,0,9.3,0,14c0,0.3-0.1,0.6-0.4,0.7
		c-0.1,0-0.1,0-0.2,0.1C16.4,23.8,16.4,23.8,16.3,23.8z"/>
	<path d="M26,16.1c0,0.3,0,0.6-0.1,0.9c-0.1,1.2-0.4,2.4-0.9,3.6c-0.4,1-0.9,1.9-1.6,2.7c-0.1,0.2-0.3,0.3-0.6,0.4
		c-0.3,0-0.5-0.1-0.7-0.3c-0.2-0.2-0.2-0.5,0-0.7c0.1-0.2,0.3-0.4,0.4-0.6c1-1.4,1.6-2.9,1.8-4.5c0.4-3-0.3-5.7-2.2-8.1
		c-0.2-0.3-0.3-0.6,0-0.9c0.3-0.4,0.8-0.4,1.2,0c0.7,0.9,1.3,1.8,1.7,2.9c0.5,1.2,0.8,2.5,0.9,3.8c0,0.2,0,0.5,0,0.7
		C26,16,26,16.1,26,16.1z"/>
	<path d="M23.3,15.9c0,2.1-0.6,3.9-1.7,5.5c-0.1,0.2-0.3,0.3-0.6,0.4c-0.3,0-0.5-0.1-0.7-0.3c-0.2-0.2-0.2-0.5,0-0.8
		c0-0.1,0.1-0.1,0.1-0.2c0.8-1.1,1.2-2.2,1.4-3.5c0.3-2.1-0.2-4-1.5-5.8c-0.1-0.2-0.2-0.4-0.2-0.6c0.1-0.3,0.2-0.5,0.5-0.6
		c0.3-0.1,0.6,0,0.8,0.3c0.3,0.4,0.6,0.9,0.9,1.4c0.5,1.1,0.9,2.3,0.9,3.5C23.3,15.6,23.3,15.8,23.3,15.9z"/>
	<path d="M20.5,16c0,1.2-0.3,2.4-1,3.4c-0.2,0.4-0.6,0.5-1,0.3c-0.3-0.2-0.5-0.6-0.2-1c0.4-0.6,0.6-1.3,0.7-2
		c0.2-1.2-0.1-2.4-0.7-3.4c-0.2-0.4-0.1-0.8,0.2-1c0.3-0.2,0.8-0.1,1,0.2c0.4,0.6,0.6,1.2,0.8,1.9C20.4,15,20.5,15.5,20.5,16z"/>
</g>
</svg>
