<svg version="1.1" xmlns="http://www.w3.org/2000/svg" x="0" y="0" viewBox="0 0 32 32"><path d="M25 10.6l2.7-2.4c.7-1.1 1.1-2.4 1.1-3.8v-.3c0-.3-.1-.6-.2-.8-.5-1-1.4-1.7-2.5-2.1-1-.7-2.8-1-5.4-1.1-2.9.4-5.7 1.1-8.3 2.2-1 .7-2.1 1.4-3.2 2v.2c.1 0 .2-.1.3-.1.1 0 .2 0 .2.1l.2-.1h.1v.1s-.1.2-.5.4-1 .7-1.8 1.3l.3.2-.2-.1c0 .1-.1.1-.3.1v.1l.2.3c-.1 0-.2 0-.3-.1-.6.1-1.1.5-1.4 1v.4c.2-.2.4-.4.7-.6V7.8h-.1l-.2.1V8l.2.3v.1c.1-.2.2-.3.3-.4l.3-.3.2-.2.2-.2.1-.1.5-.3c.3.1.4.2.4.3h.2c1.5-1.1 3.1-2 4.8-2.6v.2c-.1.2-.3.4-.4.5-.1.1-.1.1-.2.1 0 .1.1.3.2.4-.6 1.9-1.3 3.7-2.2 5.4-2.3 6-5 11.8-8.1 17.4 0 .1.1.2.1.3l.3-.1c.3-.1.5-.2.7-.3h.1v.2h.2l.2-.1h.2v.4c-.1.2-.2.5-.3.7-.3.5-.6 1-.7 1.6v.1H4l.3-.4c.7-.8 1.3-1.6 1.7-2.5l1-.3c.7-.2 1.3-.4 1.8-.6l.2-.1c1-.4 2-.8 3-1.3 1.1 0 2.3-.4 3.2-1.1V25l-.5.2h-.1V25c.8-.1 1.5-.3 2.1-.7 2-1.5 3.5-2.6 4.5-3.3 3.1-2.3 4.6-4.5 4.5-6.6-.5-.8-1.1-1.6-1.8-2.2l-.3-.4c0-.2.4-.6 1.4-1.2zm-4.8 7.6l-2.8 2.2c-1.1.7-2.2 1.4-3.3 2-1.8 1.1-3.7 2-5.7 2.7-.1 0-.3.1-.4.1h-.1c.1-.4 1.6-3.3 4.4-8.9 2-.3 4-.9 5.8-1.7l.7-.1c1.1-.2 2.2.1 3 .8v.4c-.5 1.4-1 2.2-1.6 2.5zm1.7-9.1c-.7.7-1.5 1.3-2.4 1.8-1.6.5-3.2 1.1-4.7 1.9-.1 0-.1 0-.2-.1h-.3v-.2c0-.5.2-1.1.5-1.5.2-1.1.4-1.8.7-1.9L17.8 4c0-.3.5-.6 1.5-.7h.3v.3c1-.2 1.6-.2 1.8-.2 1.7-.2 2.6.2 2.8.9v.2h.2v-.7h.2c.4.2.7.5.8.9v.2c0 .4-.2.8-.5 1.1-.1 0-.2-.1-.2-.3h-.2v.6c-.9 1.4-1.6 2.1-2 2.1-.3.4-.5.6-.6.7z"/></svg>