<?xml version="1.0" encoding="utf-8"?>
<svg version="1.1" id="Layer_1" xmlns="http://www.w3.org/2000/svg" xmlns:xlink="http://www.w3.org/1999/xlink" x="0px" y="0px"
	 width="32px" height="32px" viewBox="0 0 32 32" style="enable-background:new 0 0 32 32;" xml:space="preserve">
<path style="fill:#32B0E7;" d="M21.5,18H13l2-5h3.3l0.7-1.5h-3L15,10l1-1.5h3L18.3,7H15l-2.2,3l0.9,1.5l-6,7.5C7.3,19.5,7,20.3,7,21
	c0,1.5,1.1,2.8,2.5,3c0,0,10.5,1,12,1c1.9,0,3.5-1.6,3.5-3.5S23.4,18,21.5,18z M10,22.5c-0.8,0-1.5-0.7-1.5-1.5s0.7-1.5,1.5-1.5
	s1.5,0.7,1.5,1.5S10.8,22.5,10,22.5z M21.5,23.5c-1.1,0-2-0.9-2-2c0-1.1,0.9-2,2-2s2,0.9,2,2C23.5,22.6,22.6,23.5,21.5,23.5z"/>
</svg>