<?xml version="1.0" encoding="utf-8"?>
<!-- Generator: Adobe Illustrator 18.1.1, SVG Export Plug-In . SVG Version: 6.00 Build 0)  -->
<svg version="1.1" id="Layer_1" xmlns="http://www.w3.org/2000/svg" xmlns:xlink="http://www.w3.org/1999/xlink" x="0px" y="0px"
	 viewBox="0 32 64 64" enable-background="new 0 32 64 64" xml:space="preserve">
<path fill="#EF7623" d="M49.9,63.1c-0.6-0.2-1.2-0.6-2.1-0.8c-3.5-1-7.2-1.4-10.7-2.1c-0.6,0-1.2-0.2-1.9-0.2c0.2-1,0.6-1.4,1.9-1.6
	c0.2,0.2,0.2,0.6,0.4,0.8c0,0.2,0.2,0.4,0.4,0.2c0.4,0,1,0,1.4,0c2.5-0.4,4.1-1.6,4.9-3.9c0.2-0.8,0.4-1.6,0.6-2.3
	c0.2-1.6,0.8-3.3,2.1-4.5c0.2-0.2,0.2-0.2,0.4-0.4c-2.7-0.8-7.8,1-9.7,5.2c-0.4-0.2-1-0.2-1.4-0.4c-0.2,0-0.4-0.2-0.4-0.4
	c-0.8-2.3-2.3-4.1-4.5-5.4c-1.6-0.8-3.7-1-5.6-0.8c-4.1,0.6-7.6,2.5-10.3,5.8c-2.7,3.3-3.7,7.2-3.5,11.3c0.2,4.3,1.6,8.2,4.1,11.7
	c0.8,1.2,2.1,2.5,3.3,3.3c1.4,0.8,3.1,0.8,4.3-0.4c0.2-0.2,0.4-0.6,0.6-0.8c0,0.2,0.2,0.2,0.2,0.4c0.4,0.8,0.6,1.9,1,2.7
	c0.4,0.8,1.9,1.4,2.7,1c0.2-0.2,0.4-0.2,0.6,0c0.8,0.4,1.6,0.4,2.5,0c0.4-0.2,0.6-0.6,1-0.6c0.4-0.2,0.8,0,1.2,0
	c1-0.2,1.9-0.6,2.1-1.9c0,0,0-0.2,0.2-0.2c0.4-0.2,0.8-0.6,0.8-1c0.2-0.6,0.2-1.2,0-1.9c-0.6-1-1.2-2.3-1.9-3.3l-0.2-0.2
	c0.6,0.2,1.2,0.4,1.9,0.6c1,0.2,1.9,0.2,2.7-0.6c0.2,0,0.2,0.2,0.4,0.2c1.6,1,3.7,0.6,4.9-0.8c0.2,0,0.4,0,0.4,0
	c1.2,0.2,2.3,0,3.3-0.8c0.4-0.4,0.8-0.8,0.8-1.4v-0.2c1.9-0.2,2.9-1,2.9-2.9C51.6,64.7,51.2,63.7,49.9,63.1L49.9,63.1z M41.1,57.7
	c-0.8,0.4-1.6,0.6-2.7,0.6c0,0-0.2,0-0.2-0.2c-0.2-0.4-0.2-0.8-0.4-1.2c0-0.2,0-0.2,0.2-0.2c0.6,0,0.8,0,0.8,0.8l0,0
	c0.4-0.6,0.4-0.6,1-0.4c0.4,0.2,0.8,0.2,1.2,0.4C41.3,57.7,41.3,57.7,41.1,57.7L41.1,57.7z M38.6,53.6c0.8-1.4,1.9-2.5,3.1-3.3
	c1-0.6,2.1-1,3.3-1c-0.2,0.2-0.4,0.4-0.6,0.8c-0.6,0.8-0.6,1.9-0.8,2.7c-0.2,1-0.4,2.1-0.8,3.1c0,0.4-0.4,0.6-0.4,0.8
	c-0.6-0.6-1.2-1-1.9-1.6c0,0,0-0.2,0-0.4c0.8-1.4,1.6-2.9,2.9-4.1l0,0c-1.9,0.8-2.7,2.3-3.7,3.9c-0.4-0.2-0.6-0.4-1-0.6
	C38.4,54,38.6,53.8,38.6,53.6L38.6,53.6z M33.2,56.9L33.2,56.9c0-1,0.2-1.9,0.8-2.7c0-0.2,0.4-0.2,0.4-0.2c1.9,0.2,3.5,0.8,5.2,2.1
	c0.4,0.2,0.6,0.6,1,0.8c-0.4-0.2-1-0.2-1.4-0.4c-1-0.2-2.3-0.2-3.3,0.2C35.1,57.1,34.1,57.1,33.2,56.9L33.2,56.9L33.2,56.9
	c0.6,0.6,1.2,0.6,1.9,0.4c0.6,0,1-0.2,1.6-0.4l0,0c0,0.2-0.2,0.4-0.2,0.4c-0.8,0.6-1.9,1-2.9,1.4c0,0,0,0-0.2,0
	C33.2,58.1,33.2,57.5,33.2,56.9L33.2,56.9z M27.1,52.1c1.9,0,3.5,1.6,3.5,3.5c0,1.9-1.6,3.5-3.5,3.5c-1.9,0-3.5-1.6-3.5-3.5
	C23.6,53.6,25.2,52.1,27.1,52.1L27.1,52.1z M36.3,64.3c0.8,0.2,1.9,0.4,2.7,0.4c1.2,0.2,2.3,0.4,3.5,0.6c0.4,0,0.6,0.2,0.2,0.6
	c-0.4,0.6-1.4,1-2.3,0.8c0,0-0.2,0-0.4,0c0.2,0.4,0,1-0.4,1.2c-0.6,0.6-1.2,0.8-2.1,0.8c-0.4,0-1-0.2-1.4-0.2
	c-0.2,1.2-2.5,1.6-3.7,0.6c0.2,0.6,0.4,1.2,0.6,1.9c0,0.2,0,0.4,0,0.6c-0.4,2.9-2.9,5.2-5.8,5.4c-2.9,0.2-5.6-0.6-8-2.3
	c-2.3-1.4-3.9-3.3-4.9-5.6c0-0.2-0.2-0.2-0.2-0.4c0.8,0.2,1.6,0.4,2.3,0.6c1.4,0.2,2.9,0.2,4.3-0.8c0.2,0,0.4,0,0.4,0
	c1.4,0.4,2.9,0.6,4.3,0.4c2.3-0.4,3.9-1.6,5.4-3.3c0.6-0.6,1-1.4,1.4-2.3c0.4-0.6,0.8-1,1.2-1.4c0,0,0.2,0,0.4,0
	c1.6,0.2,3.3,0.4,4.9,0.6c2.3,0.4,4.3,0.8,6.6,1.2c0,0,0.2,0,0.2,0.2C42.9,64.1,39.6,64.5,36.3,64.3L36.3,64.3z M27.1,57.7
	c1.2,0,2.1-0.8,2.1-2.1s-1-2.1-2.1-2.1c-1.2,0-2.1,1-2.1,2.1S25.8,57.7,27.1,57.7z M26,54.2c0.2-0.2,0.6-0.2,1-0.4
	c0.4,0.2,0.6,0.2,1,0.4c0.4,0.2,0.4,0.6,0,1c-0.4,0.4-1.4,0.4-2.1,0C25.6,54.8,25.6,54.4,26,54.2L26,54.2z"/>
</svg>
