<svg viewBox="-68.686 -96.639 595.27 595.27" xmlns="http://www.w3.org/2000/svg"><path fill="#0E1112" d="M453.689 198.606c-23.79-22.859-142.749-37.129-180.285-41.283a110.157 110.157 0 004.644-13.308 150.218 150.218 0 0116.352-6.067c.696 2.053 3.974 9.919 5.842 13.652 75.479 2.082 79.354-56.091 82.424-72.028 3.002-15.583 2.849-30.64 28.739-58.166-38.571-11.24-94.039 17.421-112.618 60.08-6.982-2.616-13.979-4.548-20.9-5.743C272.927 55.737 247.101 0 179.329 0 93.522 0 0 70.789 0 190.621c0 100.73 68.772 189.007 107.628 189.007 16.969 0 31.566-12.707 34.993-24.098 2.873 7.81 11.688 32.09 14.583 38.271 4.279 9.14 24.068 17.049 32.728 7.564 11.135 6.186 31.566 9.912 42.702-6.585 21.445 4.536 40.404-8.252 40.818-23.511 10.523-.562 15.685-15.337 13.387-27.104-1.694-8.663-19.789-39.748-26.847-50.478 13.972 11.365 49.363 14.582 53.661.007 22.527 17.682 57.633 8.401 60.417-5.979 27.372 7.112 58.767-8.508 53.612-27.426 43.973-3.041 38.345-49.827 26.007-61.683z"></path><path fill="#519ABA" d="M331.252 98.825c9.471-18.791 21.372-39.309 36.404-52.003-16.545 6.668-32.88 26.601-42.538 47.906a148.99 148.99 0 00-14.961-8.361c13.473-28.758 44.779-52.775 79.28-54.651-23.109 20.958-14.906 64.518-33.906 87.578-5.437-5.461-17.921-16-24.279-20.469zm-14.938 30.599c.01-.719.279-6.266.784-8.798-1.325-.312-9.561-1.923-13.855-1.822-.313 5.393 2.266 14.568 4.815 20.091 17.555-.368 30.235-5.625 37.698-10.458-6.354-2.962-17.196-5.595-25.44-7.17-.92 1.903-3.184 6.752-4.002 8.157z"></path><path fill="#8DC149" d="M251.083 278.09c.004.025.015.059.018.084-2.225-4.788-4.588-10.604-7.41-18.206 10.988 15.994 45.426 7.745 43.62-6.587 16.856 12.683 51.553-2.113 43.665-19.897 16.885 7.868 36.157-7.963 31.835-14.861 28.787 5.552 56.374 11.086 65.034 13.302-5.753 9.38-18.855 16.004-38.605 11.401 10.672 14.538-10.048 31.979-38.908 22.373 6.353 14.272-19.343 27.121-48.548 12.245.371 14.278-36.231 15.922-50.701.146zm57.105-72.167c33.411 2.565 88.663 7.547 122.869 12.334-2.161-11.132-8.064-14.312-26.633-19.3-19.971 2.13-70.638 7.107-96.236 6.966z"></path><path fill="#CBCB41" d="M287.311 253.381c16.856 12.683 51.553-2.113 43.665-19.897 16.885 7.868 36.157-7.963 31.835-14.861-34.034-6.562-69.747-13.148-77.848-14.299 4.914.261 13.059.819 23.225 1.6 25.599.141 76.266-4.836 96.236-6.966-32.336-8.199-98.356-20.164-143.95-23.112-2.113 3.088-5.997 8.325-12.762 13.89-19.948 42.207-56.091 70.262-96.081 70.262-11.654 0-24.693-1.966-39.308-6.638-9.114 9.764-47.973 17.163-79.503 1.687 25.01 58.562 83.01 97.654 147.211 97.654 54.07 0 78.046-55.214 72.799-69.823-1.273-3.547-6.318-15.308-9.141-22.909 10.99 15.993 45.427 7.744 43.622-6.588z"></path><path fill="#D4D7D6" d="M254.543 142.258c4.774-2.597 21.272-12.597 36.993-16.355a69.743 69.743 0 01-.551-5.263c-10.314 2.47-29.759 10.804-40.902-.681 23.509 7.094 35.247-6.321 52.526-6.321 10.296 0 24.988 2.876 36.569 7.423-9.315-8.605-39.861-34.575-77.681-34.665-8.444 10.237-17.571 32.412-6.954 55.862z"></path><path fill="#E37933" d="M112.323 253.36c14.615 4.672 27.654 6.638 39.308 6.638 39.99 0 76.132-28.056 96.081-70.262-14.754 12.316-40.396 22.854-80.441 22.854 35.669-8.088 66.375-25.863 81.995-51.845-10.98-17.476-22.889-56.138 7.269-86.702-4.639-14.904-27.219-54.248-77.206-54.248-87.236 0-159.533 72.997-159.533 170.825 0 23.158 4.675 44.877 13.025 64.426 31.529 15.477 70.388 8.078 79.502-1.686z"></path><path fill="#CBCB41" d="M138.496 104.407c0 22.252 18.039 40.293 40.292 40.293s40.294-18.041 40.294-40.293c0-22.253-18.041-40.293-40.294-40.293-22.253 0-40.292 18.04-40.292 40.293z"></path><path fill="#0E1112" d="M154.664 104.407c0 13.322 10.802 24.123 24.123 24.123 13.324 0 24.124-10.801 24.124-24.123 0-13.323-10.799-24.124-24.124-24.124-13.321 0-24.123 10.801-24.123 24.124z"></path><ellipse fill="#D4D7D6" cx="178.787" cy="93.703" rx="14.057" ry="8.74"></ellipse></svg>