<?xml version="1.0" encoding="utf-8"?>
<!-- Generator: Adobe Illustrator 18.1.1, SVG Export Plug-In . SVG Version: 6.00 Build 0)  -->
<svg version="1.1" id="Layer_1" xmlns="http://www.w3.org/2000/svg" xmlns:xlink="http://www.w3.org/1999/xlink" x="0px" y="0px"
	 viewBox="0 0 32 32" enable-background="new 0 0 32 32" xml:space="preserve">
<path fill="#EF7623" d="M25.1,15.5c-0.3-0.1-0.6-0.3-1-0.4c-1.8-0.5-3.6-0.7-5.4-1c-0.3,0-0.6-0.1-1-0.1c0.1-0.5,0.3-0.7,1-0.8
	c0.1,0.1,0.1,0.3,0.2,0.4c0,0.1,0.1,0.2,0.2,0.1c0.2,0,0.5,0,0.7,0c1.2-0.2,2-0.8,2.5-2c0.1-0.4,0.2-0.8,0.3-1.1
	c0.1-0.8,0.4-1.6,1-2.2c0.1-0.1,0.1-0.1,0.2-0.2c-1.4-0.4-3.9,0.5-4.9,2.6c-0.2-0.1-0.5-0.1-0.7-0.2c-0.1,0-0.2-0.1-0.2-0.2
	c-0.4-1.1-1.1-2-2.2-2.7C15,7.2,13.9,7.1,13,7.2c-2.1,0.3-3.8,1.3-5.1,2.9S6,13.7,6.1,15.7c0.1,2.1,0.8,4.1,2,5.9
	c0.4,0.6,1.1,1.2,1.6,1.7c0.7,0.4,1.6,0.4,2.2-0.2c0.1-0.1,0.2-0.3,0.3-0.4c0,0.1,0.1,0.1,0.1,0.2c0.2,0.4,0.3,1,0.5,1.3
	c0.2,0.4,0.9,0.7,1.4,0.5c0.1-0.1,0.2-0.1,0.3,0c0.4,0.2,0.8,0.2,1.2,0c0.2-0.1,0.3-0.3,0.5-0.3c0.2-0.1,0.4,0,0.6,0
	c0.5-0.1,1-0.3,1-1c0,0,0-0.1,0.1-0.1c0.2-0.1,0.4-0.3,0.4-0.5c0.1-0.3,0.1-0.6,0-1c-0.3-0.5-0.6-1.2-1-1.7l-0.1-0.1
	c0.3,0.1,0.6,0.2,1,0.3c0.5,0.1,1,0.1,1.4-0.3c0.1,0,0.1,0.1,0.2,0.1c0.8,0.5,1.9,0.3,2.5-0.4c0.1,0,0.2,0,0.2,0
	c0.6,0.1,1.1,0,1.6-0.4c0.2-0.2,0.4-0.4,0.4-0.7v-0.1c1-0.1,1.5-0.5,1.5-1.5C25.9,16.3,25.7,15.8,25.1,15.5L25.1,15.5z M20.7,12.8
	c-0.4,0.2-0.8,0.3-1.4,0.3c0,0-0.1,0-0.1-0.1c-0.1-0.2-0.1-0.4-0.2-0.6c0-0.1,0-0.1,0.1-0.1c0.3,0,0.4,0,0.4,0.4l0,0
	c0.2-0.3,0.2-0.3,0.5-0.2c0.2,0.1,0.4,0.1,0.6,0.2C20.8,12.8,20.8,12.8,20.7,12.8L20.7,12.8z M19.4,10.7c0.4-0.7,1-1.2,1.5-1.6
	c0.5-0.3,1-0.5,1.6-0.5c-0.1,0.1-0.2,0.2-0.3,0.4c-0.3,0.4-0.3,1-0.4,1.4c-0.1,0.5-0.2,1-0.4,1.5c0,0.2-0.2,0.3-0.2,0.4
	c-0.3-0.3-0.6-0.5-1-0.8c0,0,0-0.1,0-0.2c0.4-0.7,0.8-1.5,1.5-2l0,0c-1,0.4-1.4,1.1-1.9,2c-0.2-0.1-0.3-0.2-0.5-0.3
	C19.3,10.9,19.4,10.8,19.4,10.7L19.4,10.7z M16.7,12.4L16.7,12.4c0-0.5,0.1-1,0.4-1.4c0-0.1,0.2-0.1,0.2-0.1c1,0.1,1.8,0.4,2.6,1
	c0.2,0.1,0.3,0.3,0.5,0.4c-0.2-0.1-0.5-0.1-0.7-0.2c-0.5-0.1-1.1-0.1-1.6,0.1C17.7,12.5,17.2,12.5,16.7,12.4L16.7,12.4L16.7,12.4
	c0.3,0.3,0.6,0.3,1,0.2c0.3,0,0.5-0.1,0.8-0.2l0,0c0,0.1-0.1,0.2-0.1,0.2c-0.4,0.3-1,0.5-1.5,0.7c0,0,0,0-0.1,0
	C16.7,13,16.7,12.7,16.7,12.4L16.7,12.4z M13.7,10c0.9,0,1.8,0.8,1.8,1.8s-0.8,1.8-1.8,1.8s-1.8-0.8-1.8-1.8
	C11.9,10.7,12.7,10,13.7,10L13.7,10z M18.3,16.1c0.4,0.1,1,0.2,1.4,0.2c0.6,0.1,1.1,0.2,1.8,0.3c0.2,0,0.3,0.1,0.1,0.3
	c-0.2,0.3-0.7,0.5-1.1,0.4c0,0-0.1,0-0.2,0c0.1,0.2,0,0.5-0.2,0.6c-0.3,0.3-0.6,0.4-1,0.4c-0.2,0-0.5-0.1-0.7-0.1
	c-0.1,0.6-1.2,0.8-1.9,0.3c0.1,0.3,0.2,0.6,0.3,1c0,0.1,0,0.2,0,0.3c-0.2,1.5-1.4,2.6-2.9,2.7c-1.4,0.1-2.8-0.3-4-1.2
	c-1.1-0.7-1.9-1.7-2.4-2.8c0-0.1-0.1-0.1-0.1-0.2c0.4,0.1,0.8,0.2,1.1,0.3c0.7,0.1,1.4,0.1,2.1-0.4c0.1,0,0.2,0,0.2,0
	c0.7,0.2,1.4,0.3,2.2,0.2c1.1-0.2,1.9-0.8,2.7-1.7c0.3-0.3,0.5-0.7,0.7-1.1c0.2-0.3,0.4-0.5,0.6-0.7c0,0,0.1,0,0.2,0
	c0.8,0.1,1.6,0.2,2.5,0.3c1.1,0.2,2.1,0.4,3.3,0.6c0,0,0.1,0,0.1,0.1C21.6,16,19.9,16.2,18.3,16.1L18.3,16.1z M13.7,12.8
	c0.6,0,1.1-0.4,1.1-1s-0.5-1-1.1-1c-0.6,0-1.1,0.5-1.1,1S13,12.8,13.7,12.8z M13.1,11c0.1-0.1,0.3-0.1,0.5-0.2
	c0.2,0.1,0.3,0.1,0.5,0.2s0.2,0.3,0,0.5s-0.7,0.2-1.1,0C12.9,11.3,12.9,11.1,13.1,11L13.1,11z"/>
</svg>
