<?xml version="1.0" encoding="utf-8"?>
<!-- Generator: Adobe Illustrator 21.0.0, SVG Export Plug-In . SVG Version: 6.00 Build 0)  -->
<svg version="1.1" id="Layer_1" xmlns="http://www.w3.org/2000/svg" xmlns:xlink="http://www.w3.org/1999/xlink" x="0px" y="0px"
	 viewBox="0 0 32 32" style="enable-background:new 0 0 32 32;" xml:space="preserve">
<g id="_1C_logo">
	<path d="M16.8,20L16.8,20z"/>
	<path d="M16.8,19v3H27v-3H16.8z"/>
	<path d="M7,10h3v12H7V10z"/>
	<path d="M5,11h2v3H5V11z"/>
	<path d="M14,16c0-1.7,1.3-3,3-3c1.3,0,2.4,0.8,2.8,2h3.1c-0.5-2.8-2.9-5-5.9-5c-3.3,0-6,2.7-6,6s2.7,6,6,6c2.2,0,4.2-1.2,5.2-3H17
		C15.3,19,14,17.7,14,16z"/>
</g>
</svg>
