<svg version="1.1" viewBox="0 0 32 32" xmlns="http://www.w3.org/2000/svg"><g transform="translate(-.746)"><path d="m16.9 22.6q-1.07 0.572-2.22 0.863-1.14 0.292-2.39 0.292-3.73 0-5.91-2.16-2.18-2.17-2.18-5.89 0-3.72 2.18-5.89 2.18-2.18 5.91-2.18 1.24 0 2.39 0.292 1.16 0.291 2.22 0.863v3.22q-1.08-0.76-2.12-1.11-1.03-0.353-2.18-0.353-2.07 0-3.24 1.37-1.18 1.37-1.18 3.79 0 2.4 1.18 3.78 1.18 1.37 3.24 1.37 1.14 0 2.18-0.354 1.04-0.354 2.12-1.11z" font-size="22" font-stretch="semi-condensed" font-weight="700" letter-spacing="0" stroke-width=".917" word-spacing="0"/><g transform="matrix(1.38 0 0 1.01 -6.59 6.91)" stroke-width="1px" aria-label="♯"><path d="m24 0.22h0.539l0.0586 0.0586v3.56l1.39-0.703 0.0352 0.0234v1.65q-0.0352 0.082-1.43 0.785v4.37l1.43-0.645v1.58q-0.0117 0.0469-1.43 0.832v3.48l-0.0586 0.0469h-0.539l-0.0586-0.0469v-3.2l-3.38 1.64v4.05l-0.0586 0.0469h-0.492l-0.0586-0.0469v-3.76l-1.51 0.703v-1.66q0-0.0703 1.51-0.773v-4.44h-0.0234l-1.49 0.656v-1.63l1.51-0.762v-3.36l0.0586-0.0469h0.492l0.0586 0.0469v3.07l3.38-1.57v-3.9zm-3.43 7.3v4.42l3.38-1.63v-4.36z"/></g></g></svg>
