<?xml version="1.0" encoding="utf-8"?>
<!-- Generator: Adobe Illustrator 18.1.1, SVG Export Plug-In . SVG Version: 6.00 Build 0)  -->
<svg version="1.1" id="Layer_1" xmlns="http://www.w3.org/2000/svg" xmlns:xlink="http://www.w3.org/1999/xlink" x="0px" y="0px"
	 viewBox="0 0 32 32" enable-background="new 0 0 32 32" xml:space="preserve">
<g enable-background="new    ">
	<path fill="#529BBA" d="M8.3,15.5c0-1.3,0.2-2.4,0.6-3.4c0.4-1,0.9-1.8,1.6-2.5C11.2,8.9,12,8.4,12.9,8s1.9-0.5,2.9-0.5
		s1.9,0.2,2.7,0.6c0.8,0.4,1.5,0.9,2,1.4L18.3,12c-0.4-0.3-0.7-0.6-1.1-0.7S16.4,11,15.8,11c-0.5,0-0.9,0.1-1.3,0.3
		c-0.4,0.2-0.8,0.5-1.1,0.9s-0.5,0.8-0.7,1.4c-0.2,0.6-0.3,1.2-0.3,1.9c0,1.5,0.3,2.6,1,3.3c0.7,0.8,1.5,1.2,2.6,1.2
		c0.5,0,1-0.1,1.4-0.3c0.4-0.2,0.8-0.5,1.1-0.9l2.2,2.5c-0.7,0.8-1.4,1.3-2.2,1.7c-0.8,0.4-1.7,0.6-2.7,0.6s-2-0.2-2.9-0.5
		s-1.7-0.8-2.4-1.5S9.4,19.9,9,18.9C8.5,17.9,8.3,16.8,8.3,15.5z"/>
</g>
<g>
	<path fill="#529BBA" d="M21.8,16.7H21l-0.3,2h-1l0.3-2H19v-0.9h1.2l0.2-1.3h-1.1v-0.9h1.2l0.3-2h1l-0.3,2h0.8l0.3-2h1l-0.3,2h1.1
		v0.9h-1.3l-0.2,1.3h1.1v0.9h-1.3l-0.3,2h-1L21.8,16.7z M21.2,15.8H22l0.2-1.3h-0.8L21.2,15.8z"/>
</g>
</svg>
