<?xml version="1.0" encoding="utf-8"?>
<!-- Generator: Adobe Illustrator 18.1.1, SVG Export Plug-In . SVG Version: 6.00 Build 0)  -->
<svg version="1.1" id="Layer_1" xmlns="http://www.w3.org/2000/svg" xmlns:xlink="http://www.w3.org/1999/xlink" x="0px" y="0px"
	 viewBox="0 0 32 32" enable-background="new 0 0 32 32" xml:space="preserve">
<g>
	<path fill="#529BBA" d="M7.1,15.9c0-1.3,0.2-2.4,0.6-3.4c0.4-1,0.9-1.8,1.6-2.5c0.7-0.7,1.5-1.2,2.4-1.6s1.9-0.5,2.9-0.5
		s1.9,0.2,2.7,0.6c0.8,0.4,1.5,0.9,2,1.4l-2.2,2.5c-0.4-0.3-0.7-0.6-1.1-0.7c-0.4-0.1-0.8-0.3-1.4-0.3c-0.5,0-0.9,0.1-1.3,0.3
		c-0.4,0.2-0.8,0.5-1.1,0.9s-0.5,0.8-0.7,1.4c-0.2,0.6-0.3,1.2-0.3,1.9c0,1.5,0.3,2.6,1,3.3c0.7,0.8,1.5,1.2,2.6,1.2
		c0.5,0,1-0.1,1.4-0.3c0.4-0.2,0.8-0.5,1.1-0.9l2.2,2.5c-0.7,0.8-1.4,1.3-2.2,1.7c-0.8,0.4-1.7,0.6-2.7,0.6s-2-0.2-2.9-0.5
		s-1.7-0.8-2.4-1.5s-1.1-1.7-1.5-2.7C7.3,18.4,7.1,17.2,7.1,15.9z"/>
	<path fill="#529BBA" d="M21.8,17.1h-1l-0.4,2.4h-1.2l0.4-2.4h-1.2v-1.1h1.5l0.2-1.6h-1.3v-1.1h1.5l0.4-2.4h1.2l-0.4,2.4h1l0.4-2.4
		h1.2l-0.4,2.4h1.3v1.1h-1.6l-0.2,1.6h1.3v1.1h-1.6l-0.4,2.4h-1.2C21.3,19.6,21.8,17.1,21.8,17.1z M21,16.1h1l0.2-1.6h-1L21,16.1z"
		/>
</g>
</svg>
