<svg viewBox="0 0 32 32" xmlns="http://www.w3.org/2000/svg"><path d="M16.154 22.6q-1.07.572-2.22.863-1.14.292-2.39.292-3.73 0-5.91-2.16-2.18-2.17-2.18-5.89 0-3.72 2.18-5.89 2.18-2.18 5.91-2.18 1.24 0 2.39.292 1.16.291 2.22.863v3.22q-1.08-.76-2.12-1.11-1.03-.353-2.18-.353-2.07 0-3.24 1.37-1.18 1.37-1.18 3.79 0 2.4 1.18 3.78 1.18 1.37 3.24 1.37 1.14 0 2.18-.354 1.04-.354 2.12-1.11z" font-size="22" font-stretch="semi-condensed" font-weight="700" letter-spacing="0" word-spacing="0"/><path d="M25.784 7.132h.744l.08.06v3.595l1.919-.71.048.024v1.666q-.048.083-1.973.793v4.414l1.973-.652v1.596q-.016.047-1.973.84v3.515l-.08.047h-.745l-.08-.047v-3.232l-4.665 1.657v4.09l-.08.047h-.68l-.08-.047V20.99l-2.084.71v-1.676q0-.071 2.083-.78v-4.485h-.032l-2.056.662v-1.646l2.084-.77V9.612l.08-.048h.68l.08.048v3.1l4.665-1.585v-3.94zm-4.733 7.373v4.464l4.664-1.646V12.92z"/></svg>