<svg xmlns="http://www.w3.org/2000/svg" viewBox="0 0 32 32"><path fill="#529BBA" d="M16.2 24c-.8 0-1.7 0-2.5-.3-.9-.3-1.6-.7-2.3-1.3-.8-.7-1.4-1.5-1.9-2.4-.3-.7-.6-1.4-.7-2.1-.1-.7-.2-1.4-.1-2.2.1-1.6.4-3.1 1.3-4.4.7-1 1.6-1.8 2.7-2.4.8-.5 1.7-.7 2.6-.9.7 0 1.4 0 2.1.1.9.1 1.7.3 2.5.7 1.1.6 1.9 1.4 2.5 2.4.5.9.8 1.8 1 2.8 0 .1 0 .2-.1.2-1.3-.1-2.6 0-3.9 0-.1 0-.2-.1-.2-.2-.2-.8-.6-1.5-1.4-1.9-1.1-.4-2.1-.3-3 .4-.7.5-1 1.3-1.2 2.2-.2 1.2-.2 2.3.2 3.4.4 1 .9 1.7 1.9 2.1.8.3 1.5.3 2.3-.2.5-.3.8-.8.9-1.3.1-.2.2-.4.2-.7 0-.1.1-.2.2-.1.8.1 1.6.1 2.4.2.4 0 .8 0 1.2.1.3 0 .4 0 .4.4 0 1.4-.5 2.7-1.6 3.7-1 1-2.3 1.5-3.7 1.7h-1.8z"/></svg>