<?xml version="1.0" encoding="UTF-8" standalone="no"?>
<svg
   xmlns:dc="http://purl.org/dc/elements/1.1/"
   xmlns:cc="http://creativecommons.org/ns#"
   xmlns:rdf="http://www.w3.org/1999/02/22-rdf-syntax-ns#"
   xmlns:svg="http://www.w3.org/2000/svg"
   xmlns="http://www.w3.org/2000/svg"
   id="svg8"
   version="1.1"
   viewBox="0 0 32 32">
  <metadata
     id="metadata14">
    <rdf:RDF>
      <cc:Work
         rdf:about="">
        <dc:format>image/svg+xml</dc:format>
        <dc:type
           rdf:resource="http://purl.org/dc/dcmitype/StillImage" />
        <dc:title></dc:title>
      </cc:Work>
    </rdf:RDF>
  </metadata>
  <defs
     id="defs12" />
  <path
     id="path2"
     word-spacing="0"
     letter-spacing="0"
     font-size="22.016"
     font-stretch="semi-condensed"
     font-weight="700"
     style="font-weight:700;font-stretch:semi-condensed;font-size:22.01600075px;font-family:'DejaVu Sans';-inkscape-font-specification:'DejaVu Sans Bold Semi-Condensed';letter-spacing:0;word-spacing:0;stroke-width:0.917"
     d="m 22.3475,22.9045 q -1.066,0.572 -2.221,0.863 -1.144,0.292 -2.388,0.292 -3.731,0 -5.908,-2.165 -2.178,-2.174 -2.178,-5.89 0,-3.724 2.177,-5.889 2.177,-2.175 5.908,-2.175 1.244,0 2.388,0.292 1.155,0.291 2.22,0.863 v 3.216 q -1.076,-0.76 -2.12,-1.114 -1.033,-0.353 -2.177,-0.353 -2.066,0 -3.243,1.373 -1.177,1.374 -1.177,3.788 0,2.404 1.177,3.777 1.177,1.374 3.243,1.374 1.144,0 2.177,-0.354 1.044,-0.354 2.12,-1.114 z" />
</svg>
