<?xml version="1.0" encoding="utf-8"?>
<!-- Generator: Adobe Illustrator 18.1.1, SVG Export Plug-In . SVG Version: 6.00 Build 0)  -->
<svg version="1.1" id="Layer_1" xmlns="http://www.w3.org/2000/svg" xmlns:xlink="http://www.w3.org/1999/xlink" x="0px" y="0px"
	 viewBox="0 0 32 32" enable-background="new 0 0 32 32" xml:space="preserve">
<path fill="#529BBA" d="M16.2,24c-0.8,0-1.7,0-2.5-0.3c-0.9-0.3-1.6-0.7-2.3-1.3c-0.8-0.7-1.4-1.5-1.9-2.4c-0.3-0.7-0.6-1.4-0.7-2.1
	c-0.1-0.7-0.2-1.4-0.1-2.2c0.1-1.6,0.4-3.1,1.3-4.4c0.7-1,1.6-1.8,2.7-2.4c0.8-0.5,1.7-0.7,2.6-0.9C16,8,16.7,8,17.4,8.1
	c0.9,0.1,1.7,0.3,2.5,0.7c1.1,0.6,1.9,1.4,2.5,2.4c0.5,0.9,0.8,1.8,1,2.8c0,0.1,0,0.2-0.1,0.2c-1.3-0.1-2.6,0-3.9,0
	c-0.1,0-0.2-0.1-0.2-0.2c-0.2-0.8-0.6-1.5-1.4-1.9c-1.1-0.4-2.1-0.3-3,0.4c-0.7,0.5-1,1.3-1.2,2.2c-0.2,1.2-0.2,2.3,0.2,3.4
	c0.4,1,0.9,1.7,1.9,2.1c0.8,0.3,1.5,0.3,2.3-0.2c0.5-0.3,0.8-0.8,0.9-1.3c0.1-0.2,0.2-0.4,0.2-0.7c0-0.1,0.1-0.2,0.2-0.1
	c0.8,0.1,1.6,0.1,2.4,0.2c0.4,0,0.8,0,1.2,0.1c0.3,0,0.4,0,0.4,0.4c0,1.4-0.5,2.7-1.6,3.7c-1,1-2.3,1.5-3.7,1.7
	C17.4,24,16.8,24,16.2,24z"/>
</svg>
