<svg xmlns="http://www.w3.org/2000/svg" viewBox="0 0 32 32"><g fill="#CD3F45"><path d="M16 25.5c-1.2-.2-2.3-.3-3.5-.5-1.5-.3-2.9-.9-4-2.1-.6-.6-.9-1.3-.8-2.2 3.1 2.7 6.9 2.9 10.8 2.8v1.8c-.3.1-.6.2-1 .3-.5-.1-1-.1-1.5-.1zm-.3-15.6c1.1 1.9 2.1 3.8 3.2 5.7-3.7.3-7.2.2-10.4-1.4-.7-.4-1.4-.9-1.9-1.5-.9-1-.8-2.3.1-3.3s2-1.6 3.2-2c4.4-1.3 8.9-1.4 13.2.4.9.4 1.7 1.2 2.4 1.9.6.6.6 1.4.4 2.1-.1.4-.3.6-.8.5l-9-2.4h-.4z"/><path d="M19.1 16.5c-.1.9-.1 1.6-.2 2.4 0 .2-.3.4-.4.4-3.3-.1-6.6-.1-9.6-1.6-1.4-.7-2.4-1.7-2.5-3.3 0-.3-.1-.7-.2-1.1 2.2 2.4 5 3 8 3.2 1.6.1 3.2 0 4.9 0z"/><path d="M18.8 20.2c-.1.8-.1 1.6-.2 2.4-2.2.3-4.2.2-6.3-.4-1.2-.4-2.4-.9-3.5-1.5-1.2-.6-1.7-1.7-1.7-3.2 3.4 2.8 7.5 2.6 11.7 2.7zm6.1-4.3c-2-.7-3.9-1.3-5.8-2-.2-.1-.3-.2-.4-.4-.4-.7-.9-1.5-1.4-2.4.6.2 1.1.3 1.6.4 2 .6 4 1.2 6 1.7.4.1.5.3.4.6-.1.7-.2 1.3-.4 2.1zm-5.1-.9c1.6.6 3.3 1.2 5 1.8-.1.7-.2 1.5-.4 2.3-1.6-.6-3-1.2-4.4-1.8-.1-.8-.1-1.5-.2-2.3zm4.2 7.5c-1.1-.6-2.1-1-3.1-1.5-1.3-.6-1.3-.6-1.1-2 0-.2.1-.5.1-.8 1.4.6 2.7 1.1 4.1 1.7.1.1.3.3.2.4 0 .6-.1 1.3-.2 2.2z"/></g></svg>