<?xml version="1.0" encoding="utf-8"?>
<!-- Generator: Adobe Illustrator 19.2.1, SVG Export Plug-In . SVG Version: 6.00 Build 0)  -->
<svg version="1.1" id="Layer_1" xmlns="http://www.w3.org/2000/svg" xmlns:xlink="http://www.w3.org/1999/xlink" x="0px" y="0px"
	 viewBox="0 0 32 32" style="enable-background:new 0 0 32 32;" xml:space="preserve">
<style type="text/css">
	.st0{fill:#706257;}
	.st1{fill:#D33C45;}
</style>
<path class="st0" d="M-351.2,98.1c-0.4,0.1-0.7,0.2-1.1,0.3c0-44.7,0-89.3,0-134c0.4,0.1,0.7,0.1,1.1,0.2
	C-351.2,9.1-351.2,53.6-351.2,98.1z"/>
<path class="st1" d="M21.1,17c0.5,1.7,1.7,6.3,1.7,6.3l4.1-0.5v-6.5L21.1,17z"/>
<polygon class="st1" points="14.1,17.7 6.7,18.5 6.7,25.3 15.4,24.2 "/>
<path class="st1" d="M20.3,11.1c-0.2,0.4-0.4,0.8-0.7,1.1c0.2,0.7,0.4,1.3,0.6,2l6.6-0.8c0,0-1.6-2.7-3.8-4.1
	c-0.8-0.5-1.7-0.9-2.4-1.1C20.8,8.9,20.8,9.9,20.3,11.1z"/>
<path class="st1" d="M13.1,14.3c-1.2-0.1-2.1-0.6-2.8-1.4l-3.6,2.8l6.6-0.8C13.2,14.7,13.2,14.5,13.1,14.3z"/>
<path class="st1" d="M17.8,12.3c-0.1-0.3-0.1-0.5,0.1-0.7c0.2-0.3,0.4-0.6,0.6-1c0.4-0.9,0.5-1.9-0.1-2.8c-0.6-1-1.5-1.3-2.6-1.1
	c-0.3,0-0.4,0.3-0.2,0.6c0.3,0.6,0.6,1.2,0.9,1.8c0,0.1,0.1,0.2-0.1,0.2c-0.6,0.4-1.2,0.8-1.7,1.1c-0.1,0.1-0.2,0.1-0.3,0
	C14,10,13.7,9.6,13.4,9.2c-0.2-0.2-0.5-0.4-0.5-0.4s-0.3-0.1-0.4,0.1c-0.5,0.8-0.8,2.2-0.2,3.1c0.5,0.8,1.2,1.2,2.1,1.2
	c0.2,0,0.4,0,0.5,0.3c0.2,0.9,2.3,9.6,2.5,10.9c0.1,0.6,0.5,1.1,1,1c0.7-0.1,1.5-0.1,2.1-0.7c0.4-0.4,0.5-0.8,0.4-1.3
	C20.6,22.8,18.2,13.7,17.8,12.3z"/>
</svg>
