<?xml version="1.0" encoding="utf-8"?>
<!-- Generator: Adobe Illustrator 19.2.1, SVG Export Plug-In . SVG Version: 6.00 Build 0)  -->
<svg version="1.1" id="Layer_1" xmlns="http://www.w3.org/2000/svg" xmlns:xlink="http://www.w3.org/1999/xlink" x="0px" y="0px"
	 viewBox="0 0 32 32" style="enable-background:new 0 0 32 32;" xml:space="preserve">
<g>
	<path d="M16,14.5c0,1,0,2,0,3.1c-0.4,0-0.8,0-1.2,0c-1.7-0.1-3.3-0.2-4.9-0.7c-0.8-0.2-1.5-0.5-2.2-0.8C7.3,16,7,15.8,6.7,15.6
		C6.2,15.2,6,14.8,6,14.2c0-0.9,0-1.8,0-2.6c0-0.4,0.2-0.8,0.5-1.1c0.5-0.5,1.2-0.8,1.9-1c1.4-0.5,2.9-0.8,4.3-0.9
		c1.4-0.1,2.7-0.2,4.1-0.2c2.3,0,4.5,0.3,6.7,1c0.6,0.2,1.2,0.6,1.8,0.9c0.5,0.3,0.8,0.8,0.8,1.5c0,0.8,0,1.7,0,2.5
		c0,0.6-0.2,1.1-0.7,1.4c-0.4,0.3-0.9,0.5-1.3,0.7c-0.1,0.1-0.3,0-0.4,0c-2.4-0.6-4.8-1.2-7.3-1.8C16.2,14.5,16.1,14.5,16,14.5z"/>
	<path d="M16,23.7c-0.7,0-1.4,0-2,0c-1.7-0.1-3.4-0.3-5-0.8c-0.7-0.2-1.4-0.6-2.1-0.9C6.3,21.6,6,21,6,20.3c0-0.8,0-1.5,0-2.3
		c0.9,1.2,2.2,1.6,3.5,2c2,0.5,4,0.7,6.1,0.7c0.3,0,0.4,0.1,0.4,0.4C16,22,16,22.8,16,23.7z"/>
	<path d="M26,17.9c0,1,0,1.9,0,2.8c0,0.4-0.2,0.7-0.6,1c-0.5,0.3-1,0.6-1.5,0.8c-0.1,0.1-0.3,0-0.5,0c-2-0.5-4-1-6-1.5
		c-0.4-0.1-0.8-0.2-1.2-0.3c-0.1,0-0.2-0.2-0.2-0.2c0-0.9,0-1.8,0-2.7c0,0,0-0.1,0-0.1c0.7,0.2,1.3,0.3,2,0.5
		c1.9,0.5,3.7,0.9,5.6,1.4c0.1,0,0.3,0,0.4,0C24.8,19.1,25.5,18.8,26,17.9z"/>
</g>
</svg>
