<?xml version="1.0" encoding="utf-8"?>
<!-- Generator: Adobe Illustrator 19.2.1, SVG Export Plug-In . SVG Version: 6.00 Build 0)  -->
<svg version="1.1" id="Layer_1" xmlns="http://www.w3.org/2000/svg" xmlns:xlink="http://www.w3.org/1999/xlink" x="0px" y="0px"
	 viewBox="0 0 32 32" style="enable-background:new 0 0 32 32;" xml:space="preserve">
<path d="M13.2,19.9c0.2-0.2,0.2-0.3,0.3-0.3c2.9-4.3,5.9-8.7,8.8-12.9c0.6-0.8,1.1-0.9,2-0.3c0.5,0.3,1.1,0.8,1.5,1.1
	c0.6,0.5,0.8,1.1,0.3,1.7c-3.7,5.3-7.3,10.7-11,16c-0.8,1.1-1.8,1.2-2.7,0.3c-0.2-0.2-0.2-0.2-0.3-0.3c-2-2-4.1-4.1-6.1-6.1
	c-0.6-0.6-0.6-1.2,0-1.8C6.5,16.7,7,16.3,7.3,16c0.8-0.8,1.2-0.8,2,0c1.2,1.2,2.6,2.6,3.8,3.8C13.1,19.6,13.2,19.8,13.2,19.9z"/>
</svg>
