<?xml version="1.0" encoding="utf-8"?>
<!-- Generator: Adobe Illustrator 19.2.1, SVG Export Plug-In . SVG Version: 6.00 Build 0)  -->
<svg version="1.1" id="Layer_1" xmlns="http://www.w3.org/2000/svg" xmlns:xlink="http://www.w3.org/1999/xlink" x="0px" y="0px"
	 viewBox="0 0 32 32" style="enable-background:new 0 0 32 32;" xml:space="preserve">
<path d="M25.8,8.5c-0.5-1.4-1.5-2.2-3-2.4c0,0-0.1,0-0.1,0c-4.4,0-8.9,0-13.3,0C9.1,6.1,8.7,6.1,8.5,6.2C7.1,6.8,6.3,7.8,6,9.2
	c0,0,0,0.1,0,0.1c0,4.4,0,8.9,0,13.3c0.1,0.3,0.1,0.6,0.2,0.9c0.5,1.4,1.5,2.2,3,2.4c0,0,0.1,0,0.1,0c4.4,0,8.9,0,13.3,0
	c0.3-0.1,0.6-0.1,0.9-0.2c1.4-0.5,2.2-1.5,2.4-3c0,0,0-0.1,0-0.1c0-4.4,0-8.9,0-13.3C25.9,9.1,25.9,8.7,25.8,8.5z M23.6,21.5
	c0,1.1-0.6,1.9-1.6,2.1c-0.2,0-0.3,0-0.5,0c-3.7,0-7.4,0-11,0c-1.1,0-1.9-0.6-2.1-1.6c0-0.2,0-0.4,0-0.5c0-1.8,0-3.7,0-5.5
	c0-1.8,0-3.7,0-5.5c0-0.8,0.3-1.4,1-1.8c0.3-0.2,0.7-0.3,1.1-0.3c3.7,0,7.4,0,11.1,0c1,0,1.8,0.6,2,1.6c0,0.2,0,0.3,0,0.5
	C23.6,14.2,23.6,17.8,23.6,21.5z"/>
</svg>
