<?xml version="1.0" encoding="utf-8"?>
<!-- Generator: Adobe Illustrator 18.1.1, SVG Export Plug-In . SVG Version: 6.00 Build 0)  -->
<svg version="1.1" id="Layer_1" xmlns="http://www.w3.org/2000/svg" xmlns:xlink="http://www.w3.org/1999/xlink" x="0px" y="0px"
	 viewBox="0 0 32 32" enable-background="new 0 0 32 32" xml:space="preserve">
<g>
	<path d="M15.5,7c0.4,0,0.7,0,1.1,0c0,0,0.1,0,0.1,0c0.5,0.1,0.9,0.1,1.4,0.2c1.2,0.3,2.3,0.8,3.3,1.5c0.8,0.6,1.4,1.2,1.9,2
		c0.9,1.2,1.4,2.5,1.6,4c0,0.2,0.1,0.4,0.1,0.7c0,0.4,0,0.7,0,1.1c0,0.1,0,0.1,0,0.2c-0.1,0.4-0.1,0.8-0.2,1.1
		c-0.3,1.2-0.8,2.4-1.5,3.4c-0.7,1-1.6,1.8-2.7,2.5c-1.1,0.6-2.2,1.1-3.5,1.2c-0.2,0-0.4,0.1-0.6,0.1c-0.4,0-0.7,0-1.1,0
		c-0.1,0-0.1,0-0.2,0c-0.4-0.1-0.8-0.1-1.1-0.2c-1.2-0.3-2.4-0.8-3.4-1.5c-1-0.7-1.8-1.6-2.5-2.7c-0.6-1.1-1.1-2.2-1.2-3.5
		C7.1,17,7,16.8,7,16.5c0-0.4,0-0.7,0-1.1c0,0,0-0.1,0-0.1c0.1-0.5,0.1-0.9,0.2-1.4c0.3-1.2,0.8-2.3,1.5-3.3c0.7-1,1.7-1.8,2.7-2.4
		c1-0.6,2.1-1,3.3-1.1C15,7.1,15.2,7,15.5,7z M8.5,16.2c0.1,4.1,3.5,7.4,7.6,7.4c4.2,0,7.6-3.5,7.5-7.8c-0.1-4-3.5-7.4-7.8-7.3
		C11.8,8.6,8.4,11.9,8.5,16.2z"/>
	<path d="M16.4,16c0.2-0.2,0.5-0.3,0.7-0.5c0.9-0.6,1.8-1.2,2.6-1.8c0.1-0.1,0.2-0.1,0.2-0.2c0.2-0.2,0.5-0.1,0.7,0.1
		c0.2,0.2,0.1,0.5-0.1,0.7c-0.3,0.2-0.7,0.5-1,0.7c-0.7,0.5-1.5,1-2.2,1.6c-0.4,0.3-0.7,0.5-1.1,0.8c-0.3,0.2-0.7,0-0.7-0.3
		c0-0.1,0-0.1,0-0.2c0-2.1,0-4.2,0-6.3c0-0.3,0.1-0.5,0.4-0.5c0.2-0.1,0.5,0.1,0.5,0.4c0,0.1,0,0.2,0,0.3c0,1.7,0,3.4,0,5.2
		C16.4,15.9,16.4,16,16.4,16z"/>
</g>
</svg>
