<svg xmlns="http://www.w3.org/2000/svg" width="256" height="256" viewBox="0 0 67.733 67.733"><g aria-label="A ..B" style="line-height:1.25" font-weight="700" font-size="85.333" font-family="monospace" letter-spacing="0" word-spacing="0" stroke-width="1.258"><path d="M24.212 14.419l-2.048 7.977h4.11zm-2.652-3.525h5.318l5.937 19.492H28.47l-1.355-4.817h-5.819l-1.326 4.817h-4.346zM18.41 49.837h4.905v4.792H18.41zM29.165 49.837h4.906v4.792h-4.906zM43.619 45.776v5.771h2.887q2.078 0 2.903-.626.84-.627.84-2.18 0-1.58-.87-2.273-.869-.692-2.873-.692zm0-7.598v4.53h2.887q1.65 0 2.343-.522.707-.522.707-1.723 0-1.202-.722-1.737-.707-.548-2.328-.548zM39.42 35.11h7.086q3.669 0 5.51 1.24 1.856 1.227 1.856 3.682 0 1.88-1.09 2.937-1.09 1.058-3.197 1.228 2.52.222 3.786 1.501 1.282 1.28 1.282 3.577 0 2.82-1.915 4.087t-6.232 1.267H39.42z" style="-inkscape-font-specification:'monospace Bold'"/></g></svg>