<svg xmlns="http://www.w3.org/2000/svg" width="256" height="256" viewBox="0 0 67.733 67.733"><g stroke="#000"><path d="M33.857 45.783A23.31 15.964 0 0016.93 50.8h33.874a23.31 15.964 0 00-16.947-5.017z" stroke-width="0" stroke-linecap="round"/><path stroke-width="0" stroke-linecap="round" d="M31.75 18.187h4.234v30.104H31.75z"/><path stroke-width="0" stroke-linecap="round" d="M19.047 16.933h29.64v2.51h-29.64zM11.637 33.24a9.284 8.467 0 008.466 5.017 9.284 8.467 0 008.47-5.017z"/><path d="M12.43 33.24l7.675-15.052L27.78 33.24" fill="none" stroke-width="1.152" stroke-linecap="square" stroke-linejoin="round"/><path d="M39.16 33.24a9.284 8.467 0 008.466 5.017 9.284 8.467 0 008.47-5.017z" stroke-width="0" stroke-linecap="round"/><path d="M39.953 33.24l7.675-15.052 7.675 15.052" fill="none" stroke-width="1.152" stroke-linecap="square" stroke-linejoin="round"/></g></svg>