<?xml version="1.0" encoding="utf-8"?>
<!-- Generator: Adobe Illustrator 18.1.1, SVG Export Plug-In . SVG Version: 6.00 Build 0)  -->
<svg version="1.1" id="Layer_1" xmlns="http://www.w3.org/2000/svg" xmlns:xlink="http://www.w3.org/1999/xlink" x="0px" y="0px"
	 viewBox="0 0 32 32" enable-background="new 0 0 32 32" xml:space="preserve">
<path fill="#CD3F45" d="M16.8,9.1c-0.5,0.1-0.8,0.3-2.3,1c-0.8,0.4-1.9,0.5-2.2,0.2c-0.3-0.4,0.1-0.6,1-0.6c0.8,0,1-0.1,0.7-0.3
	c-0.6-0.4-2-0.1-2.3,0.4c-0.1,0.3-0.1,0.4,0.1,0.7c0.5,0.5,0.9,0.7,2,0.6c0.8,0,1.2-0.1,2-0.6c1.2-0.6,2.5-0.9,3.3-0.8
	c0.8,0.1,1,0.4,0.5,0.7c-0.4,0.3-1.4,0.4-1.8,0c-0.4-0.2-0.9-0.2-0.9,0.2c0,0.5,1.5,0.9,2.8,0.6c1.5-0.3,1.5-1.6,0-2.1
	C19.1,9,17.6,8.9,16.8,9.1L16.8,9.1z M8.3,10.4c-0.3,0.2-0.5,0.5-0.5,0.6c-0.1,0.4,0.7,1,1.9,1.4c1.1,0.3,1.5,0.4,3.2,0.6
	c1.1,0.1,6.1,0.1,7.1,0c0.4-0.1,1-0.1,1.2-0.2c0.7-0.1,2.6-0.6,3-0.9c0.6-0.3,0.9-0.8,0.7-1.1c-0.3-0.6-1-1-0.8-0.4
	c0.2,0.8-2.1,1.6-5.1,1.8c-1.1,0.1-4.4,0.1-5,0c-0.2,0-0.9-0.1-1.4-0.1C10.9,12,9,11.3,8.9,10.8c0-0.1,0-0.4,0.1-0.5
	C9.1,10,8.9,10,8.3,10.4L8.3,10.4z M8,13.1c0,0.4,0.2,1,0.3,1.5l0.3,0.8l-0.4,0.3c-0.2,0.2-0.6,0.6-0.8,0.9C7.1,17.2,7,17.4,7,18.3
	c0,1.2,0.2,1.7,1.2,2.4c0.5,0.4,0.7,0.4,1.5,0.4c1.2,0,1.6-0.3,0.7-0.4c-0.7-0.1-1.7-1-2-1.8c-0.3-0.7-0.2-1.8,0.1-2.3
	c0.1-0.2,0.3-0.4,0.3-0.4s0.2,0.3,0.4,0.6c0.2,0.3,0.8,1.2,1.3,2c0.6,0.8,1.1,1.7,1.2,2.1c0.6,1.6,1.7,2.1,4.7,2.1
	c3,0,4.2-0.6,4.8-2.2c0.1-0.4,0.7-1.3,1.2-2c0.5-0.7,1.2-1.7,1.4-2.3c0.5-1.1,1.2-3.3,1.2-3.8c0-0.3,0-0.3-0.3,0
	c-0.5,0.5-2.2,1-4.4,1.2c-1.8,0.2-7.5,0.1-8.9-0.2c-0.2,0-0.5-0.1-0.8-0.1c-0.7-0.1-2.2-0.8-2.5-1C8,12.5,7.9,12.5,8,13.1L8,13.1z"
	/>
</svg>
