<?xml version="1.0" encoding="utf-8"?>
<!-- Generator: Adobe Illustrator 18.1.1, SVG Export Plug-In . SVG Version: 6.00 Build 0)  -->
<svg version="1.1" id="Layer_1" xmlns="http://www.w3.org/2000/svg" xmlns:xlink="http://www.w3.org/1999/xlink" x="0px" y="0px"
	 viewBox="0 0 32 32" enable-background="new 0 0 32 32" xml:space="preserve">
<g enable-background="new    ">
	<path fill="#529BBA" d="M8.3,15.5c0-1.3,0.2-2.4,0.6-3.4c0.4-1,0.9-1.8,1.6-2.5c0.7-0.7,1.5-1.2,2.4-1.6s1.9-0.5,2.9-0.5
		c1,0,1.9,0.2,2.7,0.6c0.8,0.4,1.5,0.9,2,1.4l-2.2,2.5c-0.4-0.3-0.7-0.6-1.1-0.7s-0.8-0.3-1.4-0.3c-0.5,0-0.9,0.1-1.3,0.3
		c-0.4,0.2-0.8,0.5-1.1,0.9s-0.5,0.8-0.7,1.4c-0.2,0.6-0.3,1.2-0.3,1.9c0,1.5,0.3,2.6,1,3.3c0.7,0.8,1.5,1.2,2.6,1.2
		c0.5,0,1-0.1,1.4-0.3c0.4-0.2,0.8-0.5,1.1-0.9l2.2,2.5c-0.7,0.8-1.4,1.3-2.2,1.7c-0.8,0.4-1.7,0.6-2.7,0.6c-1,0-2-0.2-2.9-0.5
		s-1.7-0.8-2.4-1.5S9.4,19.9,9,18.9C8.5,17.9,8.3,16.8,8.3,15.5z"/>
</g>
<polygon fill="#529BBA" points="18.5,12.7 17.1,12.7 17.1,14.4 15.5,14.4 15.5,15.8 17.1,15.8 17.1,17.6 18.5,17.6 18.5,15.8 
	20.1,15.8 20.1,14.4 18.5,14.4 "/>
<polygon fill="#529BBA" points="23.6,14.4 23.6,12.7 22.2,12.7 22.2,14.4 20.6,14.4 20.6,15.8 22.2,15.8 22.2,17.6 23.6,17.6 
	23.6,15.8 25.2,15.8 25.2,14.4 "/>
</svg>
