<svg xmlns="http://www.w3.org/2000/svg" viewBox="0 0 32 32"><path d="M13.215 23.185q-1.066.572-2.221.863-1.144.292-2.388.292-3.731 0-5.908-2.165Q.52 20.001.52 16.285q0-3.724 2.177-5.889 2.177-2.175 5.908-2.175 1.244 0 2.388.292 1.155.291 2.22.863v3.216q-1.076-.76-2.12-1.114-1.033-.353-2.177-.353-2.066 0-3.243 1.373-1.177 1.374-1.177 3.788 0 2.404 1.177 3.777 1.177 1.374 3.243 1.374 1.144 0 2.177-.354 1.044-.354 2.12-1.114z" style="-inkscape-font-specification:'DejaVu Sans Bold Semi-Condensed'" font-weight="700" font-stretch="semi-condensed" font-family="DejaVu Sans" font-size="22.016" letter-spacing="0" word-spacing="0" stroke-width=".917"/><g style="line-height:19.56785011px" font-weight="500" font-size="18.785" font-family="Source Han Sans" letter-spacing="-.391" word-spacing="0" stroke-width=".783"><path d="M15.89 21.208h1.653v-4.057h3.814v-1.578h-3.814v-4.058H15.89v4.058h-3.813v1.578h3.813zM26.212 21.208h1.653v-4.057h3.814v-1.578h-3.814v-4.058h-1.653v4.058H22.4v1.578h3.813z" style="-inkscape-font-specification:'Source Han Sans Medium'"/></g></svg>