<svg xmlns="http://www.w3.org/2000/svg" viewBox="0 0 32 32"><path fill="#529BBA" d="M8.3 15.5c0-1.3.2-2.4.6-3.4.4-1 .9-1.8 1.6-2.5.7-.7 1.5-1.2 2.4-1.6s1.9-.5 2.9-.5 1.9.2 2.7.6c.8.4 1.5.9 2 1.4L18.3 12c-.4-.3-.7-.6-1.1-.7s-.8-.3-1.4-.3c-.5 0-.9.1-1.3.3-.4.2-.8.5-1.1.9s-.5.8-.7 1.4c-.2.6-.3 1.2-.3 1.9 0 1.5.3 2.6 1 3.3.7.8 1.5 1.2 2.6 1.2.5 0 1-.1 1.4-.3.4-.2.8-.5 1.1-.9l2.2 2.5c-.7.8-1.4 1.3-2.2 1.7-.8.4-1.7.6-2.7.6-1 0-2-.2-2.9-.5s-1.7-.8-2.4-1.5-1.1-1.7-1.5-2.7c-.5-1-.7-2.1-.7-3.4z"/><path fill="#529BBA" d="M18.5 12.7h-1.4v1.7h-1.6v1.4h1.6v1.8h1.4v-1.8h1.6v-1.4h-1.6zM23.6 14.4v-1.7h-1.4v1.7h-1.6v1.4h1.6v1.8h1.4v-1.8h1.6v-1.4z"/></svg>