<svg version="1.1" viewBox="0 0 32 32" xmlns="http://www.w3.org/2000/svg"><path d="m13.2 23.2q-1.07 0.572-2.22 0.863-1.14 0.292-2.39 0.292-3.73 0-5.91-2.16-2.18-2.17-2.18-5.89 0-3.72 2.18-5.89 2.18-2.18 5.91-2.18 1.24 0 2.39 0.292 1.16 0.291 2.22 0.863v3.22q-1.08-0.76-2.12-1.11-1.03-0.353-2.18-0.353-2.07 0-3.24 1.37-1.18 1.37-1.18 3.79 0 2.4 1.18 3.78 1.18 1.37 3.24 1.37 1.14 0 2.18-0.354 1.04-0.354 2.12-1.11z" font-family="DejaVu Sans" font-size="22" font-stretch="semi-condensed" font-weight="700" letter-spacing="0" stroke-width=".917" word-spacing="0"/><g font-family="Source Han Sans" font-size="18.8" font-weight="500" letter-spacing="-.391" stroke-width=".783" word-spacing="0"><path d="m15.9 21.2h1.65v-4.06h3.81v-1.58h-3.81v-4.06h-1.65v4.06h-3.81v1.58h3.81zm10.3 0h1.65v-4.06h3.81v-1.58h-3.81v-4.06h-1.65v4.06h-3.81v1.58h3.81z"/></g></svg>
