<?xml version="1.0" encoding="utf-8"?>
<!-- Generator: Adobe Illustrator 18.1.1, SVG Export Plug-In . SVG Version: 6.00 Build 0)  -->
<svg version="1.1" id="Layer_1" xmlns="http://www.w3.org/2000/svg" xmlns:xlink="http://www.w3.org/1999/xlink" x="0px" y="0px"
	 viewBox="0 0 32 32" enable-background="new 0 0 32 32" xml:space="preserve">
<g>
	<path d="M25,13.6c0,0.1,0,0.2,0,0.3c-0.1,0.1-0.1,0.2-0.2,0.3c-0.3,0.4-0.7,0.8-1,1.2c-0.3,0.3-0.6,0.7-0.6,1.2
		c0,0.1-0.1,0.1-0.2,0.2c-2.1,0.5-4.2,0.8-6.3,0.9c-1.5,0-3,0-4.5-0.3c-1.1-0.2-2.1-0.4-3.2-0.6c-0.1,0-0.2-0.1-0.2-0.1
		c0-0.6-0.3-1-0.7-1.3c-0.3-0.3-0.6-0.5-0.9-0.8c-0.5-0.6-0.3-1.3,0.5-1.6c0.7-0.3,1.5-0.5,2.2-0.9c1.2-0.6,2.4-1.4,3.6-2.1
		C14.3,9.4,15,9,15.9,8.8c0.1,0,0.2,0,0.3,0c0.8,0.2,1.6,0.6,2.3,1c0.6,0.3,1.2,0.7,1.7,1.1c1.3,0.7,2.5,1.4,3.9,1.9
		C24.6,12.9,24.9,13.1,25,13.6z M16.1,12.4c-0.7,0-1.3,0.4-1.7,0.8c0,0-0.1,0.1-0.1,0.2c0.1,0.8,0.4,1.5,0.9,2.1
		c0.1,0.2,0.3,0.3,0.5,0.4c0.5,0.2,0.9,0,1.2-0.4c0.5-0.6,0.8-1.3,0.9-2.1c0-0.1,0-0.1-0.1-0.2C17.3,12.8,16.8,12.4,16.1,12.4z"/>
	<path d="M15.8,23.2c-0.5-0.1-0.9-0.1-1.4-0.2c-1.6-0.3-2.8-1.1-3.9-2.3c-0.6-0.7-1.1-1.4-1.5-2.2c0-0.1-0.1-0.1-0.1-0.2
		c0,0,0,0,0-0.1c4.8,1.2,9.5,1.2,14.3,0c0,0.1,0,0.1,0,0.2c-0.9,1.8-2.2,3.3-4.1,4.1c-0.8,0.4-1.7,0.6-2.6,0.6c-0.1,0-0.2,0-0.2,0
		C16.1,23.2,15.9,23.2,15.8,23.2z"/>
</g>
</svg>
