<?xml version="1.0" encoding="utf-8"?>
<!-- Generator: Adobe Illustrator 18.1.1, SVG Export Plug-In . SVG Version: 6.00 Build 0)  -->
<svg version="1.1" id="Layer_1" xmlns="http://www.w3.org/2000/svg" xmlns:xlink="http://www.w3.org/1999/xlink" x="0px" y="0px"
	 viewBox="0 0 32 32" enable-background="new 0 0 32 32" xml:space="preserve">
<g>
	<rect x="14.5" y="8.6" fill="#519ABA" width="2" height="2"/>
	<rect x="14.5" y="10.9" fill="#519ABA" width="2" height="2"/>
	<rect x="14.5" y="13.3" fill="#519ABA" width="2" height="2"/>
	<rect x="12.2" y="10.9" fill="#519ABA" width="2" height="2"/>
	<rect x="12.2" y="13.3" fill="#519ABA" width="2" height="2"/>
	<rect x="9.8" y="10.9" fill="#519ABA" width="2" height="2"/>
	<rect x="9.8" y="13.3" fill="#519ABA" width="2" height="2"/>
	<rect x="7.5" y="13.3" fill="#519ABA" width="2" height="2"/>
	<rect x="16.9" y="13.3" fill="#519ABA" width="2" height="2"/>
	<path fill="#519ABA" d="M27.1,13.6c-0.4-0.1-0.9-0.2-1.3-0.2c-0.5,0.1-0.8-0.1-1-0.6c-0.2-0.5-0.5-0.9-0.9-1.2
		c-0.6-0.7-1.2-0.5-1.5,0.3c-0.2,0.7-0.2,1.5-0.1,2.2c0.2,0.9,0.1,1.1-0.8,1.3c-1.1,0.3-16.3,0.2-16.3,0.2c-0.2,0-0.3,0.5-0.3,1
		s0.1,2,0.4,2.7c1,2.2,2.7,3.8,5.2,4c0.2,0,4.2,0,4.5,0c2.9-0.1,5.2-1.5,7.2-3.6c0.8-0.9,1.5-1.9,2-3c0.2-0.4,0.5-0.6,0.9-0.7
		c0.7-0.1,1.3-0.2,1.8-0.6c0.1-0.2,0.3-0.4,0.4-0.5C28,14.4,27.9,13.8,27.1,13.6z M12.2,18.7c0.4,0,0.8,0.3,0.8,0.8
		s-0.3,0.8-0.8,0.8c-0.4,0-0.8-0.3-0.8-0.8S11.8,18.7,12.2,18.7z M7.3,20.9c0.8-0.1,1.6,0.1,2.3-0.1c0.9-0.3,1.6-0.2,2.1,0.8
		c0.3,0.6,1,0.9,1.7,1.3C11.2,23.2,8.8,22.4,7.3,20.9z"/>
</g>
</svg>
