<svg xmlns="http://www.w3.org/2000/svg" viewBox="0 0 32 32"><path d="M18.9 18.8c.3.1.7.2 1.1.3 0 .5-.2.8-.5 1.2-.3.4-.6.9-.9 1.3-.5.6-1.2 1-1.9 1.4-.8.5-1.7.9-2.6 1.3-.2.1-.5.2-.7.4-.5.3-1 .5-1.6.6-1 .1-2.1.4-3.1.3-.7 0-1.4 0-2.2-.2-.3-.1-.4-.3-.5-.6-.1-.2-.1-.3-.1-.6.2.2.3.3.5.4.4.4.9.5 1.4.3H8c.2 0 .4-.1.5-.3 0-.2-.1-.4-.2-.6 0-.1-.1-.1-.2-.1-.4-.1-.7-.3-1.1-.4-.3-.1-.7-.2-1.1 0 .1-.3.1-.6.2-.9.2-.9.4-1.8.6-2.6.2-.7.4-1.3.6-2 .1-.2.2-.1.4-.1.4.1.7.3 1.1.3.6.1 1.3.2 1.9.1.5-.1.9-.3 1.3-.6.2-.2.6-.2.8.1v.2c0 1.1.5 1.8 1.3 2.4.3.2.7.3 1.1.3h1.5c.6 0 1.2-.2 1.7-.5.1-.1.2-.2.3-.4.1-.4.2-.7.2-1zm1.2-.1c-.4-.1-.8-.1-1-.1-.2-.2-.3-.3-.5-.4-.8-.4-1.7-.6-2.5-.8-.9-.2-1.7-.2-2.6-.2-.1 0-.2.1-.3.1-.1.1-.2.1-.3 0-.1-.1-.2-.1-.4-.1-.1 0-.1-.1-.1-.2.1-.3-.1-.6-.3-.7-.8-.4-1.6-.8-2.5-1.2-.3-.1-.6-.1-.9-.2.2-.6.5-1 .8-1.5.2-.3.3-.6.5-.8.3-.4.7-.8 1.1-1 .2-.1.4-.1.5-.1.8-.1 1.7-.1 2.5 0 .6.1 1.3.2 1.9.4.5.2.9.3 1.4.5.4.2.7.4 1.1.6.2.2.4.4.4.7.2.5.4 1.1.5 1.6.1.5.3 1 .4 1.4.2.7.2 1.3.3 2zM16 6.8c0-.2 0-.5-.3-.6-.3-.2-.7-.3-1.1-.4-.2-.1-.5-.1-.7-.1-.1 0-.2 0-.3.1-.6.2-1.1.6-1.7 1.1-.2.1-.3.2-.4.4-.3.6-.6 1.1-.9 1.7-.2.4-.3.8-.3 1.3l.3-.1c.4-.1.7-.2 1-.2.9 0 1.8 0 2.6.1h.2c.2 0 .3-.1.4-.2.1-.1.2-.3.3-.4.8-.8 1.1-1.7.9-2.7zm-.7-.6l-.3-.1c.1 0 .2.1.3.1zm11.5 8.9c0-.3-.1-.5-.3-.7-.2-.3-.5-.6-.9-.8h-.1c-.2-.1-.4-.2-.7-.2H24c-.7 0-1.4.2-2 .6-.4.2-.7.6-1.1.8l.2 1.2c.1.5.2 1 .2 1.6v1.5h.1c.6.2 1.2.2 1.8 0 .9-.3 1.7-.9 2.4-1.5.5-.5 1-1.1 1.2-1.9v-.6z"/></svg>