<?xml version="1.0" encoding="utf-8"?>
<!-- Generator: Adobe Illustrator 18.1.1, SVG Export Plug-In . SVG Version: 6.00 Build 0)  -->
<svg version="1.1" id="Layer_1" xmlns="http://www.w3.org/2000/svg" xmlns:xlink="http://www.w3.org/1999/xlink" x="0px" y="0px"
	 viewBox="0 0 32 32" enable-background="new 0 0 32 32" xml:space="preserve">
<path d="M18.9,18.8c0.3,0.1,0.7,0.2,1.1,0.3c0,0.5-0.2,0.8-0.5,1.2c-0.3,0.4-0.6,0.9-0.9,1.3c-0.5,0.6-1.2,1-1.9,1.4
	c-0.8,0.5-1.7,0.9-2.6,1.3c-0.2,0.1-0.5,0.2-0.7,0.4c-0.5,0.3-1,0.5-1.6,0.6c-1,0.1-2.1,0.4-3.1,0.3c-0.7,0-1.4,0-2.2-0.2
	c-0.3-0.1-0.4-0.3-0.5-0.6c-0.1-0.2-0.1-0.3-0.1-0.6c0.2,0.2,0.3,0.3,0.5,0.4c0.4,0.4,0.9,0.5,1.4,0.3c0.1,0,0.1,0,0.2,0
	c0.2,0,0.4-0.1,0.5-0.3c0-0.2-0.1-0.4-0.2-0.6c0-0.1-0.1-0.1-0.2-0.1c-0.4-0.1-0.7-0.3-1.1-0.4c-0.3-0.1-0.7-0.2-1.1,0
	c0.1-0.3,0.1-0.6,0.2-0.9c0.2-0.9,0.4-1.8,0.6-2.6c0.2-0.7,0.4-1.3,0.6-2c0.1-0.2,0.2-0.1,0.4-0.1c0.4,0.1,0.7,0.3,1.1,0.3
	c0.6,0.1,1.3,0.2,1.9,0.1c0.5-0.1,0.9-0.3,1.3-0.6c0.2-0.2,0.6-0.2,0.8,0.1c0,0,0,0.1,0,0.2c0,1.1,0.5,1.8,1.3,2.4
	c0.3,0.2,0.7,0.3,1.1,0.3c0.5,0,1,0,1.5,0c0.6,0,1.2-0.2,1.7-0.5c0.1-0.1,0.2-0.2,0.3-0.4C18.8,19.4,18.9,19.1,18.9,18.8z"/>
<path d="M20.1,18.7c-0.4-0.1-0.8-0.1-1-0.1c-0.2-0.2-0.3-0.3-0.5-0.4c-0.8-0.4-1.7-0.6-2.5-0.8c-0.9-0.2-1.7-0.2-2.6-0.2
	c-0.1,0-0.2,0.1-0.3,0.1c-0.1,0.1-0.2,0.1-0.3,0c-0.1-0.1-0.2-0.1-0.4-0.1c-0.1,0-0.1-0.1-0.1-0.2c0.1-0.3-0.1-0.6-0.3-0.7
	c-0.8-0.4-1.6-0.8-2.5-1.2C9.3,15,9,15,8.7,14.9c0.2-0.6,0.5-1,0.8-1.5c0.2-0.3,0.3-0.6,0.5-0.8c0.3-0.4,0.7-0.8,1.1-1
	c0.2-0.1,0.4-0.1,0.5-0.1c0.8-0.1,1.7-0.1,2.5,0c0.6,0.1,1.3,0.2,1.9,0.4c0.5,0.2,0.9,0.3,1.4,0.5c0.4,0.2,0.7,0.4,1.1,0.6
	c0.2,0.2,0.4,0.4,0.4,0.7c0.2,0.5,0.4,1.1,0.5,1.6c0.1,0.5,0.3,1,0.4,1.4C20,17.4,20,18,20.1,18.7z"/>
<path d="M16,6.8c0-0.2,0-0.5-0.3-0.6c-0.3-0.2-0.7-0.3-1.1-0.4c-0.2-0.1-0.5-0.1-0.7-0.1l0,0l0,0c-0.1,0-0.2,0-0.3,0.1
	C13,6,12.5,6.4,11.9,6.9c-0.2,0.1-0.3,0.2-0.4,0.4c-0.3,0.6-0.6,1.1-0.9,1.7c-0.2,0.4-0.3,0.8-0.3,1.3l0.3-0.1
	c0.4-0.1,0.7-0.2,1-0.2c0.9,0,1.8,0,2.6,0.1c0.1,0,0.2,0,0.2,0c0.2,0,0.3-0.1,0.4-0.2l0,0l0,0c0.1-0.1,0.2-0.3,0.3-0.4
	C15.9,8.7,16.2,7.8,16,6.8z M15.3,6.2L15,6.1C15.1,6.1,15.2,6.2,15.3,6.2z"/>
<path d="M26.8,15.1L26.8,15.1c0-0.3-0.1-0.5-0.3-0.7c-0.2-0.3-0.5-0.6-0.9-0.8l0,0l-0.1,0c-0.2-0.1-0.4-0.2-0.7-0.2
	c-0.2,0-0.4,0-0.6,0c0,0-0.1,0-0.1,0l-0.1,0l0,0c-0.7,0-1.4,0.2-2,0.6c-0.4,0.2-0.7,0.6-1.1,0.8l0.2,1.2c0,0,0,0,0,0
	c0.1,0.5,0.2,1,0.2,1.6c0,0.5,0,1,0,1.5c0,0,0.1,0,0.1,0c0.6,0.2,1.2,0.2,1.8,0c0.9-0.3,1.7-0.9,2.4-1.5c0.5-0.5,1-1.1,1.2-1.9
	C26.8,15.5,26.8,15.3,26.8,15.1L26.8,15.1z"/>
</svg>
