<?xml version="1.0" encoding="utf-8"?>
<!-- Generator: Adobe Illustrator 18.1.1, SVG Export Plug-In . SVG Version: 6.00 Build 0)  -->
<svg version="1.1" id="Layer_1" xmlns="http://www.w3.org/2000/svg" xmlns:xlink="http://www.w3.org/1999/xlink" x="0px" y="0px"
	 viewBox="0 0 32 32" enable-background="new 0 0 32 32" xml:space="preserve">
<path d="M6,24C6,24,6,24,6,24c1.9-3,3.7-5.9,5.6-8.9c1.5-2.3,2.9-4.7,4.4-7c0,0,0,0,0,0c0,0,0,0,0,0.1c2,3.2,4,6.4,6,9.5
	c1.3,2.1,2.7,4.2,4,6.4c0,0,0,0,0,0c0,0,0,0,0,0c0,0,0,0,0,0C19.3,24,12.7,24,6,24C6,24,6,24,6,24z M15,12.9c0,2,0,4,0,6
	c0.7,0,1.3,0,2,0c0-2,0-4,0-6C16.3,12.9,15.7,12.9,15,12.9z M17,21.9c0-0.7,0-1.3,0-2c-0.7,0-1.3,0-2,0c0,0.7,0,1.3,0,2
	C15.7,21.9,16.3,21.9,17,21.9z"/>
</svg>
