<svg viewBox="-11.751 -11.647 100.94 100.94" xmlns="http://www.w3.org/2000/svg"><path d="M71.944 15.7A39.47 39.47 0 0041.588.009C32.3-.177 25.884 2.614 22.254 4.858 27.111 2.041 34.14.443 40.294.522c15.83.2 32.832 10.981 35.357 30.413 2.9 22.306-12.637 40.923-34.493 40.98-24.045.061-38.67-21.229-34.847-40.352a19.735 19.735 0 01.413-2.787 37.815 37.815 0 014.193-14.018c-2.769 1.433-6.295 5.965-8.035 10.163A41.355 41.355 0 00.284 45.1c.06.518.114 1.035.182 1.549A40.062 40.062 0 1071.944 15.7z" fill="#CC3E44"></path><path d="M76.625 29.826C74.374 9.518 56.263.39 40.294.522c-6.155.05-13.183 1.519-18.04 4.336a19.7 19.7 0 00-3.56 2.7c.129-.107.514-.424 1.152-.862l.063-.043.056-.038a26.655 26.655 0 017.692-3.572A43.5 43.5 0 0140.84 1.5a33.254 33.254 0 0131.25 31.993C72.457 46.7 61.648 57.23 49.188 57.84c-9.062.444-17.6-3.941-21.77-12.713a21.68 21.68 0 01-1.964-6.333c-1.976-13.35 6.989-24.735 15.21-27.554-4.435-3.874-15.548-3.611-23.819 2.474-5.956 4.382-9.82 11.049-11.1 19a32.945 32.945 0 002.34 18 35.3 35.3 0 0030.089 21.443q1.489.114 2.984.113c26.462 0 37.942-20.087 35.467-42.444z" fill="#E37933"></path><path d="M49.188 57.84c17.1-1.04 24.42-15.2 24.879-25.245C74.783 16.9 65.472-.02 40.84 1.5a43.5 43.5 0 00-13.183 1.546 28.855 28.855 0 00-7.692 3.572l-.056.038-.063.043q-.574.4-1.123.842A33.482 33.482 0 0139.7 3.605c14.142 1.856 27.072 12.857 27.072 27.373 0 11.169-8.631 19.7-18.738 19.087-15.015-.9-18.8-16.3-10.989-22.954-2.106-.453-6.064.435-8.82 4.555-2.473 3.7-2.333 9.41-.807 13.461a22.118 22.118 0 0021.77 12.713z" fill="#CBCB41"></path><path d="M72.016 18.726a22.458 22.458 0 00-4.882-8.144 30.224 30.224 0 00-9.094-6.493A40.518 40.518 0 0049.1.92a39.834 39.834 0 00-16.565-.1c-5.683 1.2-10.68 3.659-13.841 6.733a32.1 32.1 0 018.031-3.2 33.565 33.565 0 0131.173 8.1 27.01 27.01 0 014.329 5.3c4.895 7.959 4.432 17.965.615 23.866-2.835 4.384-8.907 8.5-14.572 8.452A23.629 23.629 0 0069.98 39.2c3.989-6.224 4.125-14.145 2.036-20.474z" fill="#A074C4"></path></svg>