<?xml version="1.0" encoding="utf-8"?>
<!-- Generator: Adobe Illustrator 18.1.1, SVG Export Plug-In . SVG Version: 6.00 Build 0)  -->
<svg version="1.1" id="Layer_1" xmlns="http://www.w3.org/2000/svg" xmlns:xlink="http://www.w3.org/1999/xlink" x="0px" y="0px"
	 viewBox="0 0 32 32" enable-background="new 0 0 32 32" xml:space="preserve">
<g>
	<g opacity="0.6">
		<path d="M21.1,18.3h-3.3l-0.4,0.9c-0.1,0.3-0.2,0.5-0.2,0.7c0,0.3,0.1,0.5,0.3,0.6c0.1,0.1,0.4,0.1,0.9,0.2v0.3h-3.1v-0.3
			c0.3-0.1,0.6-0.2,0.8-0.4s0.5-0.7,0.8-1.4l3.3-7.4h0.1l3.3,7.6c0.3,0.7,0.6,1.2,0.8,1.4c0.2,0.1,0.4,0.2,0.7,0.2v0.3h-4.5v-0.3H21
			c0.4,0,0.6-0.1,0.8-0.2c0.1-0.1,0.2-0.2,0.2-0.3c0-0.1,0-0.2,0-0.3c0,0-0.1-0.2-0.2-0.5L21.1,18.3z M20.9,17.7l-1.4-3.2l-1.4,3.2
			H20.9z"/>
	</g>
	<g>
		<path d="M6.7,22.4c0.5,0,0.9-0.3,1.2-0.7c0.2-0.3,0.5-0.8,0.8-1.7l4.4-10.9h0.6l4.5,10.5c0.5,1.2,0.9,1.9,1.1,2.3s0.6,0.5,1.1,0.5
			v0.5h-6.5v-0.5c0.7,0,1.1-0.1,1.3-0.2c0.2-0.1,0.3-0.3,0.3-0.6c0-0.2-0.1-0.4-0.2-0.7c-0.1-0.2-0.2-0.4-0.3-0.7L14.5,19H10
			c-0.3,0.8-0.5,1.3-0.6,1.6c-0.2,0.5-0.3,0.9-0.3,1.1c0,0.3,0.2,0.5,0.6,0.6c0.2,0.1,0.6,0.1,1,0.1v0.5H6.7V22.4z M14.2,18.2
			l-1.9-4.6h-0.2l-1.8,4.6H14.2z"/>
	</g>
</g>
</svg>
