<?xml version="1.0" encoding="utf-8"?>
<!-- Generator: Adobe Illustrator 18.1.1, SVG Export Plug-In . SVG Version: 6.00 Build 0)  -->
<svg version="1.1" id="Layer_1" xmlns="http://www.w3.org/2000/svg" xmlns:xlink="http://www.w3.org/1999/xlink" x="0px" y="0px"
	 viewBox="0 0 32 32" enable-background="new 0 0 32 32" xml:space="preserve">
<path fill="#41535B" d="M7,16.2c0-0.1,0-0.2,0-0.3c0.1-0.5,0.4-0.7,0.7-1.1c1.6-1.6,3.2-3.2,4.8-4.8c0.1-0.1,0.1-0.1,0.2-0.2
	c0,0,0.1,0,0.1,0.1c0.6,0.6,1.2,1.2,1.8,1.8c0.1,0.1,0.1,0.2,0,0.3c-0.1,0.6,0.1,1.2,0.6,1.5c0.2,0.1,0.2,0.2,0.2,0.4
	c0,1.5,0,2.9,0,4.4c0,0.2-0.1,0.3-0.2,0.4c-0.5,0.3-0.8,0.9-0.6,1.5c0.2,0.6,0.7,1,1.3,1c0.6,0,1.1-0.4,1.3-0.9
	c0.2-0.6,0-1.2-0.5-1.6c-0.2-0.1-0.2-0.2-0.2-0.4c0-1.4,0-2.8,0-4.3c0-0.1,0-0.1,0-0.2c0,0,0.1,0,0.1,0c0.5,0.5,1.1,1.1,1.6,1.6
	c0.1,0.1,0.1,0.2,0.1,0.2c0,0.2,0,0.4,0,0.6c0.1,0.8,0.8,1.3,1.6,1.2c0.8-0.1,1.4-0.9,1.2-1.7c-0.1-0.7-0.9-1.2-1.6-1.1
	c-0.1,0-0.2,0-0.4-0.1c-0.6-0.6-1.1-1.1-1.7-1.7c-0.1-0.1-0.1-0.2-0.1-0.3c0.2-0.9-0.7-1.8-1.6-1.6c-0.1,0-0.3,0-0.3-0.1
	c-0.6-0.6-1.2-1.2-1.8-1.7c-0.1-0.1-0.1-0.2,0-0.3c0.5-0.4,0.9-0.9,1.3-1.3c0.6-0.6,1.2-0.6,1.8,0c2.5,2.5,5.1,5.1,7.6,7.6
	c0.6,0.6,0.6,1.2,0,1.8c-2.4,2.4-4.8,4.8-7.3,7.3c-0.3,0.3-0.6,0.7-1.1,0.8c-0.1,0-0.2,0-0.2,0c-0.2-0.1-0.5-0.2-0.7-0.4
	c-0.6-0.6-1.3-1.2-1.9-1.9c-1.8-1.8-3.6-3.6-5.5-5.5C7.5,16.9,7.1,16.6,7,16.2z"/>
</svg>
