<?xml version="1.0" encoding="utf-8"?>
<!-- Generator: Adobe Illustrator 18.1.1, SVG Export Plug-In . SVG Version: 6.00 Build 0)  -->
<svg version="1.1" id="Layer_1" xmlns="http://www.w3.org/2000/svg" xmlns:xlink="http://www.w3.org/1999/xlink" x="0px" y="0px"
	 viewBox="0 0 32 32" enable-background="new 0 0 32 32" xml:space="preserve">
<path fill="#FFFFFF" d="M17.8,20.6c0.4-0.1,0.8-0.1,1.2-0.2c1.2-0.3,2.2-0.9,2.7-2c0.6-1.2,0.7-2.4,0.4-3.7c-0.1-0.6-0.4-1-0.8-1.5
	c-0.1-0.1-0.1-0.2-0.1-0.3c0.2-0.8,0.2-1.5-0.1-2.3c0-0.1-0.1-0.2-0.3-0.2c-0.5,0-0.9,0.2-1.3,0.4c-0.4,0.2-0.7,0.4-1,0.6
	c-0.1,0.1-0.2,0.1-0.3,0.1c-1.6-0.4-3.1-0.4-4.7,0c-0.1,0-0.2,0-0.3-0.1c-0.7-0.4-1.3-0.8-2.1-0.9c-0.5-0.1-0.5-0.1-0.6,0.4
	c-0.2,0.7-0.2,1.4,0,2.1c0,0.1,0,0.2,0,0.2c-0.9,1-1.1,2.3-0.9,3.5c0.1,0.4,0.1,0.7,0.2,1.1c0.5,1.4,1.5,2.2,3,2.6
	c0.4,0.1,0.8,0.2,1.3,0.3c-0.3,0.3-0.5,0.8-0.6,1.2c0,0.1-0.1,0.1-0.1,0.1c-1,0.4-2.1,0.3-2.8-0.8c-0.3-0.5-0.7-0.9-1.4-1
	c-0.2,0-0.3,0-0.5,0c-0.2,0-0.2,0.2-0.1,0.3c0.1,0.1,0.2,0.2,0.2,0.2c0.5,0.3,0.9,0.8,1.1,1.4c0.4,0.9,1.1,1.3,2.1,1.4
	c0.4,0,0.9,0,1.4-0.1c0,0.6,0,1.2,0,1.9c0,0.3-0.3,0.5-0.7,0.4c-0.8-0.3-1.6-0.7-2.4-1.2c-3-2.1-4.6-5-4.4-8.7
	c0.2-4.6,3.6-8.3,8.1-9.2c5.2-1,10.2,2.2,11.6,7.3c1.3,5-1.6,10.2-6.4,11.8c-0.5,0.2-0.8,0-0.8-0.6c0-0.8,0-1.6,0-2.4
	C18.5,21.9,18.4,21.2,17.8,20.6z"/>
</svg>
