<svg xmlns="http://www.w3.org/2000/svg" fill="none" viewBox="0 0 32 32">
  <path fill="#E37933" fill-rule="evenodd" d="M17.7376 7.8964c.4868.85279.1908 1.93917-.6611 2.4265l-5.2967 3.0299c-.1402.0802-.2267.2291-.2267.3904v4.7577c0 .1613.0865.3102.2267.3904l4.1909 2.3973c.139.0795.3098.0795.4488 0l4.1909-2.3973c.1402-.0802.2267-.2291.2267-.3904v-2.9588l-3.769 2.1288c-.8545.4827-1.9381.1805-2.4202-.6749-.4822-.8555-.1803-1.9402.6742-2.4229l5.3929-3.046c1.6428-.9279 3.6752.2603 3.6752 2.1485v5.1859c0 1.2146-.6501 2.3362-1.7036 2.9388l-4.8139 2.7537c-1.0395.5947-2.3156.5947-3.3551 0l-4.81394-2.7537C8.65016 21.1977 8 20.0761 8 18.8615v-5.4789c0-1.2147.65016-2.3362 1.70366-2.9388l5.61004-3.20917c.8519-.48732 1.9371-.19103 2.4239.66177Z" clip-rule="evenodd"/>
</svg>
