<?xml version="1.0" encoding="utf-8"?>
<!-- Generator: Adobe Illustrator 18.1.1, SVG Export Plug-In . SVG Version: 6.00 Build 0)  -->
<svg version="1.1" id="Layer_1" xmlns="http://www.w3.org/2000/svg" xmlns:xlink="http://www.w3.org/1999/xlink" x="0px" y="0px"
	 viewBox="0 0 32 32" enable-background="new 0 0 32 32" xml:space="preserve">
<g>
	<path fill="#FDFEFC" d="M18.3,10c-1.1,0-1.9-0.6-2.1-1.6c-0.1-0.6,0.1-1.1,0.5-1.5c0.6-0.7,1.6-0.9,2.5-0.6c0.8,0.3,1.3,1,1.2,1.9
		c0,0.8-0.5,1.4-1.4,1.7C18.7,10,18.5,10,18.3,10z M16.6,8.2c0,0.4,0.3,0.7,0.6,0.7c0.3,0,0.6-0.3,0.6-0.7c0-0.4-0.3-0.7-0.6-0.7
		C16.9,7.6,16.6,7.9,16.6,8.2z"/>
	<path fill="#FDFEFC" d="M13.1,6.4C15,6.4,15.5,8,15,9.1c-0.3,0.7-0.9,1-1.7,1.1c-1,0.2-1.9-0.4-2.2-1.3c-0.4-1.1,0.3-2.2,1.5-2.5
		C12.8,6.4,13,6.4,13.1,6.4z M12.7,8.4c0-0.4-0.3-0.7-0.6-0.7c-0.3,0-0.6,0.3-0.6,0.7c0,0.4,0.3,0.7,0.6,0.7
		C12.4,9.1,12.7,8.8,12.7,8.4z"/>
	<path fill="#FDFEFC" d="M15.9,9.4c0.2,0,0.4,0,0.6,0.1c0.3,0.1,0.4,0.4,0.3,0.6c0,0.1,0,0.1,0.1,0.2c0.2,0.1,0.3,0.2,0.5,0.4
		c0.2,0.2,0.2,0.4,0.1,0.6c-0.1,0.2-0.4,0.3-0.6,0.2c-0.1,0-0.3-0.1-0.4-0.2c-0.3-0.1-0.6-0.1-0.9,0c-0.2,0.1-0.4,0.2-0.6,0.2
		c-0.4,0-0.6-0.2-0.5-0.6c0-0.3,0.2-0.5,0.4-0.6c0,0,0.1,0,0.1-0.1c-0.1-0.4,0.2-0.5,0.4-0.7C15.5,9.4,15.7,9.4,15.9,9.4z
		 M15.8,10.5c0.3,0,0.6-0.1,0.8-0.2c0.3-0.2,0.3-0.4,0.1-0.6c-0.1-0.1-0.3-0.2-0.4-0.2c-0.3-0.1-0.7,0-0.9,0.2
		c-0.3,0.3-0.2,0.6,0.2,0.7C15.5,10.5,15.6,10.5,15.8,10.5z"/>
	<path fill="#FDFEFC" d="M16.7,12.1c0,0.1,0,0.1,0,0.2c0,0.2-0.1,0.4-0.3,0.4c-0.2,0-0.4-0.2-0.4-0.3c-0.1-0.3,0-0.6,0-1
		c0-0.1,0-0.1,0.1-0.1c0.2,0,0.4,0.1,0.5,0.2c0.1,0,0.1,0.1,0.1,0.1C16.7,11.8,16.7,12,16.7,12.1C16.7,12.1,16.7,12.1,16.7,12.1z"/>
	<path fill="#FDFEFC" d="M15.8,11.9c0,0.1,0,0.2,0,0.3c0,0.2-0.1,0.3-0.2,0.4c-0.2,0.2-0.4,0.1-0.5-0.1c-0.1-0.2-0.1-0.5-0.1-0.8
		c0-0.1,0-0.1,0.1-0.1c0.2-0.1,0.4-0.1,0.6-0.2c0.1,0,0.1,0,0.1,0.1C15.8,11.7,15.8,11.8,15.8,11.9C15.8,11.9,15.8,11.9,15.8,11.9z"
		/>
	<g>
		<path fill="#529BBA" d="M10.5,27c-0.1,0-0.2,0-0.2,0c-0.1-0.1-0.3-0.2-0.4-0.4c-0.2-0.2-0.2-0.5,0.1-0.8c0.2-0.3,0.6-0.5,0.9-0.7
			c-0.8-0.7-1.2-1.5-1.4-2.5c-0.2-0.7-0.2-1.5-0.2-2.3c0-1.2,0.2-2.3,0.2-3.5c-0.3,0.2-0.6,0.4-1,0.5c-0.1,0-0.2,0-0.2,0
			C8.1,17.1,8,16.9,8,16.7c0-0.2,0.2-0.4,0.3-0.5c0.3-0.2,0.6-0.3,1-0.3c0.2,0,0.2-0.1,0.2-0.2c-0.1-1-0.2-2-0.2-3
			c-0.1-1-0.1-2.1,0.1-3.1C9.5,9.1,9.5,9.1,9.1,9C8.6,8.7,8.3,8.1,8.4,7.6c0.2-1.1,1.4-1.6,2.4-1.1c0.1,0.1,0.2,0.1,0.3,0
			c0.5-0.4,1-0.7,1.6-0.9c1.7-0.6,3.5-0.7,5.2-0.4c0.9,0.1,1.8,0.4,2.5,1c0.2,0.2,0.4,0.2,0.6,0.1c0.8-0.4,1.7-0.1,2.1,0.7
			c0.4,0.8,0.1,1.5-0.8,1.9c-0.1,0.1-0.1,0.1-0.1,0.2c0.3,1,0.4,2,0.4,3.1c0,1.2,0,2.3,0.1,3.5c0,0.2,0,0.2,0.2,0.3
			c0.4,0,0.7,0.2,1,0.5c0.2,0.2,0.2,0.3,0,0.6c0,0,0,0.1,0,0.1c0,0.2-0.2,0.3-0.4,0.3c-0.2,0-0.4-0.1-0.5-0.2
			c-0.1,0-0.2-0.1-0.3-0.1c0,0,0,0.1,0,0.1c0,0.6,0.1,1.2,0.1,1.9c0,1.1,0,2.1-0.2,3.2c-0.2,1-0.6,2-1.3,2.8c-0.1,0.1-0.1,0.2,0,0.3
			c0.3,0.2,0.6,0.5,0.8,0.9c0.1,0.3,0,0.5-0.3,0.7c-0.2,0.2-0.4,0.1-0.6,0c-0.1-0.1-0.3-0.3-0.4-0.4c-0.2-0.2-0.3-0.4-0.5-0.5
			c-0.1-0.1-0.2-0.1-0.3,0c-1.1,0.6-2.3,0.8-3.5,0.8c-1.4,0.1-2.9-0.1-4.2-0.7c0,0-0.1,0-0.1,0c-0.2,0.2-0.6,0.3-0.8,0.5
			C11.1,26.6,10.8,26.8,10.5,27z M18.3,10c0.2,0,0.5,0,0.7-0.1c0.8-0.3,1.3-0.9,1.4-1.7c0-0.9-0.5-1.6-1.2-1.9
			c-0.8-0.3-1.9,0-2.5,0.6c-0.4,0.4-0.6,0.9-0.5,1.5C16.4,9.4,17.2,10,18.3,10z M13.1,6.4c-0.1,0-0.3,0-0.5,0
			c-1.2,0.2-1.9,1.3-1.5,2.5c0.3,0.9,1.2,1.4,2.2,1.3c0.7-0.1,1.3-0.4,1.7-1.1C15.5,8,15,6.4,13.1,6.4z M15.9,9.4
			c-0.2,0-0.4,0-0.6,0.1c-0.3,0.2-0.5,0.3-0.4,0.7c0,0.1-0.1,0.1-0.1,0.1c-0.2,0.1-0.4,0.3-0.4,0.6c-0.1,0.4,0.2,0.6,0.5,0.6
			c0.2,0,0.4-0.1,0.6-0.2c0.3-0.1,0.6-0.1,0.9,0c0.1,0.1,0.3,0.1,0.4,0.2c0.3,0.1,0.5,0,0.6-0.2c0.1-0.2,0.1-0.4-0.1-0.6
			c-0.1-0.2-0.3-0.3-0.5-0.4c-0.1,0-0.1-0.1-0.1-0.2c0.1-0.3,0-0.5-0.3-0.6C16.3,9.4,16.1,9.4,15.9,9.4z M16.7,12.1
			C16.7,12.1,16.7,12.1,16.7,12.1c0-0.2,0-0.3,0-0.5c0-0.1,0-0.1-0.1-0.1c-0.2-0.1-0.4-0.1-0.5-0.2c-0.1,0-0.1,0-0.1,0.1
			c0,0.3-0.1,0.6,0,1c0,0.2,0.2,0.4,0.4,0.3c0.2,0,0.3-0.2,0.3-0.4C16.7,12.3,16.7,12.2,16.7,12.1z M15.8,11.9
			C15.8,11.9,15.8,11.9,15.8,11.9c0-0.1,0-0.3,0-0.4c0-0.1,0-0.1-0.1-0.1c-0.2,0.1-0.4,0.1-0.6,0.2c-0.1,0-0.1,0.1-0.1,0.1
			c0,0.3,0,0.5,0.1,0.8c0.1,0.2,0.3,0.3,0.5,0.1c0.1-0.1,0.2-0.2,0.2-0.4C15.7,12.1,15.8,12,15.8,11.9z"/>
		<path fill="#529BBA" d="M16.6,8.2c0-0.4,0.3-0.7,0.6-0.7c0.3,0,0.6,0.3,0.6,0.7c0,0.4-0.3,0.7-0.6,0.7C16.9,8.9,16.6,8.6,16.6,8.2
			z M17.7,8.4c0-0.1,0-0.2-0.1-0.2c-0.1,0-0.1,0.1-0.1,0.2c0,0.1,0,0.2,0.1,0.2C17.6,8.6,17.6,8.5,17.7,8.4z"/>
		<path fill="#529BBA" d="M12.7,8.4c0,0.4-0.3,0.7-0.6,0.7c-0.3,0-0.6-0.3-0.6-0.7c0-0.4,0.3-0.7,0.6-0.7C12.4,7.7,12.7,8,12.7,8.4z
			 M12.4,8.7c0.1,0,0.1-0.1,0.1-0.1c0-0.1,0-0.2-0.1-0.2c-0.1,0-0.1,0.1-0.1,0.1C12.2,8.6,12.3,8.7,12.4,8.7z"/>
		<path fill="#529BBA" d="M15.8,10.5c-0.1,0-0.3,0-0.4-0.1c-0.4-0.1-0.4-0.4-0.2-0.7c0.3-0.2,0.6-0.3,0.9-0.2c0.2,0,0.3,0.1,0.4,0.2
			c0.2,0.2,0.2,0.5-0.1,0.6C16.3,10.4,16.1,10.5,15.8,10.5z"/>
	</g>
	<path fill="#FDFEFC" d="M17.7,8.4c0,0.1,0,0.2-0.1,0.2c-0.1,0-0.1-0.1-0.1-0.2c0-0.1,0-0.2,0.1-0.2C17.6,8.2,17.6,8.3,17.7,8.4z"/>
	<path fill="#FDFEFC" d="M12.4,8.7c-0.1,0-0.1-0.1-0.1-0.2c0-0.1,0-0.2,0.1-0.1c0.1,0,0.1,0.1,0.1,0.2C12.5,8.7,12.5,8.7,12.4,8.7z"
		/>
</g>
</svg>
