<?xml version="1.0" encoding="utf-8"?>
<!-- Generator: Adobe Illustrator 18.1.1, SVG Export Plug-In . SVG Version: 6.00 Build 0)  -->
<svg version="1.1" id="Layer_1" xmlns="http://www.w3.org/2000/svg" xmlns:xlink="http://www.w3.org/1999/xlink" x="0px" y="0px"
	 viewBox="0 0 32 32" enable-background="new 0 0 32 32" xml:space="preserve">
<g>
	<path fill="#529BBA" d="M11.3,25c0.5-0.1,0.8,0.4,1.3,0.4c-0.2,0.5-1.3,0.7-1.6,0.3C10.8,25.4,11.1,25.2,11.3,25z"/>
	<path fill="#529BBA" d="M19.4,25.5c0.4-0.2,0.8-0.6,1.3-0.6c0.2,0.2,0.5,0.4,0.4,0.7c-0.1,0.3-0.4,0.3-0.7,0.3
		C20,25.9,19.6,25.9,19.4,25.5z"/>
	<path fill="#529BBA" d="M9.3,17.9c0.6,0.3,0.5,0.8,0.5,1.3c0,0.3-0.3,0.4-0.6,0.4C8.6,19,8.7,18.5,9.3,17.9z"/>
	<path fill="#529BBA" d="M22.8,19.6c-0.3,0-0.6-0.1-0.6-0.4c0-0.5-0.1-1,0.5-1.3C23.3,18.5,23.4,19,22.8,19.6z"/>
	<path fill="#529BBA" d="M23.6,8.5c-0.3-0.4-0.7-0.5-1.2-0.3c-0.5,0.1-0.8,0-1.2-0.3C18.4,5.5,13.9,5.4,11,7.7
		c-0.5,0.4-1,0.6-1.7,0.5C8.6,8,8,8.7,8.2,9.3C8.3,9.7,8.7,9.9,9,10.1c0.2,0.1,0.4,0.3,0.4,0.6c-0.1,2.5,0.3,5-0.1,7.5
		c0.2,0.5,0.4,1-0.1,1.5c0,0.5,0.1,1.1,0.1,1.6c0.2,1.3,0.6,2.4,1.6,3.3c0.2,0.1,0.4,0.3,0.4,0.5c0.4,0.1,0.8,0.6,1.3,0.4
		c2.2,0.5,4.5,0.6,6.7,0c0.5,0,0.9-0.3,1.3-0.6c1.6-1.4,2-3.3,2.1-5.3c-0.5-0.5-0.3-1-0.1-1.5c0-1.2-0.2-2.3-0.2-3.5
		c0.1-1.1,0.3-2.2,0.1-3.4c-0.1-0.6,0.1-1,0.6-1.4C23.9,9.5,24,9,23.6,8.5z M12.9,14c-1,0.1-2-1-2-2.1c0-1.4,1-2.5,2.3-2.5
		c1.3,0,2,0.8,2,2.1C15.3,13.1,14.1,13.9,12.9,14z M19.1,14c-1.1-0.1-2.4-0.8-2.3-2.5c0-1.3,0.8-2.1,2-2.1c1.2,0,2.3,1.1,2.3,2.5
		C21.1,12.9,20.1,14,19.1,14z"/>
	<g>
		<path fill="#FFFFFF" d="M16.8,14.1c0.1,0,0.2,0.1,0.3,0.1c0.2,0.2,0.6,0.4,0.5,0.8c-0.1,0.4-0.5,0.5-0.9,0.6c-0.5,0.1-1,0-1.4,0
			c-0.4-0.1-0.8-0.2-0.8-0.8c0-0.4,0.3-0.6,0.8-0.7C15.6,14.8,16.4,14.7,16.8,14.1z"/>
		<path fill="#FFFFFF" d="M16.8,14.1c0.1,0.6-0.3,0.7-0.7,0.7c-0.5,0-1,0-0.9-0.7C15.7,13.6,16.3,13.6,16.8,14.1z"/>
	</g>
</g>
</svg>
