<?xml version="1.0" encoding="utf-8"?>
<!-- Generator: Adobe Illustrator 24.2.0, SVG Export Plug-In . SVG Version: 6.00 Build 0)  -->
<svg version="1.1" id="图层_1" xmlns="http://www.w3.org/2000/svg" xmlns:xlink="http://www.w3.org/1999/xlink" x="0px" y="0px"
	 viewBox="0 0 3968.5 1865.88" style="enable-background:new 0 0 3968.5 1865.88;" xml:space="preserve">
<style type="text/css">
	.st0{fill:#FFFFFF;}
</style>
<g>
	<g>
		<path class="st0" d="M566.93,932.92c0-220.7,179.58-400.28,400.32-400.28h615.82v184.75H967.25
			c-118.86,0-215.57,96.71-215.57,215.54c0,118.86,96.71,215.57,215.57,215.57h314.05v184.75H967.25
			C746.51,1333.24,566.93,1153.66,566.93,932.92z M1404.46,1332.23V1028.4H967.25V843.65h468c84.89,0,153.96,69.06,153.96,153.96
			v334.62H1404.46z"/>
		<path class="st0" d="M1712.48,932.92c0-220.7,179.55-400.28,400.28-400.28h307.91c220.74,0,400.28,179.58,400.28,400.28
			c0,220.74-179.55,400.32-400.28,400.32h-307.91C1892.03,1333.24,1712.48,1153.66,1712.48,932.92z M1897.23,932.92
			c0,118.86,96.68,215.57,215.54,215.57h307.91c118.86,0,215.54-96.71,215.54-215.57c0-118.82-96.68-215.54-215.54-215.54h-307.91
			C1993.9,717.38,1897.23,814.1,1897.23,932.92z"/>
	</g>
	<g>
		<path class="st0" d="M3238.57,534.81l0.64,161.81l161.81-0.67l0.56,138.65l-161.81,0.67l0.67,161.81l-138.69,0.56l-0.64-161.81
			l-161.81,0.67l-0.56-138.69l161.77-0.64l-0.64-161.81L3238.57,534.81z"/>
	</g>
</g>
</svg>
