<?xml version="1.0" encoding="utf-8"?>
<!-- Generator: Adobe Illustrator 19.2.1, SVG Export Plug-In . SVG Version: 6.00 Build 0)  -->
<svg version="1.1" id="Layer_1" xmlns="http://www.w3.org/2000/svg" xmlns:xlink="http://www.w3.org/1999/xlink" x="0px" y="0px"
	 viewBox="0 0 32 32" style="enable-background:new 0 0 32 32;" xml:space="preserve">
<style type="text/css">
	.st0{fill:#006533;}
	.st1{fill:#82B816;}
	.st2{fill:#006532;}
</style>
<path class="st0" d="M14.2,9.5h5.7l2.9,4.9H26c-0.7-4.8-4.9-8.5-9.9-8.5c-1.3,0-2.5,0.2-3.6,0.7L14.2,9.5"/>
<path class="st1" d="M22.9,17.4l-3,5.2h-7.6l-3.8-6.6l3-5.2L9.9,8.1C7.5,9.9,6,12.8,6,16c0,5.6,4.5,10.1,10.1,10.1
	c5.1,0,9.3-3.7,9.9-8.6L22.9,17.4"/>
<path class="st2" d="M19.6,16c0,2-1.6,3.6-3.6,3.6c-2,0-3.6-1.6-3.6-3.6c0-2,1.6-3.6,3.6-3.6C18,12.4,19.6,14,19.6,16"/>
</svg>
