<svg width="43" height="43" viewBox="0 0 43 43" xmlns="http://www.w3.org/2000/svg" xmlns:xlink="http://www.w3.org/1999/xlink"><title>gradle</title><defs><path d="M27.538 20.76l-1.593-.791v-.004a.994.994 0 0 1 1-.988c.552 0 1 .442 1 .988 0 .326-.16.615-.407.795m8.524-9.334a5.25 5.25 0 0 0-7.239-.12.486.486 0 0 0-.011.705l.656.648a.5.5 0 0 0 .648.046 2.991 2.991 0 0 1 1.788-.588c1.648 0 2.985 1.32 2.985 2.95 0 .815-.334 1.553-.874 2.087-4.135 4.088-9.655-7.367-22.179-1.474a1.688 1.688 0 0 0-.893 1.018c-.141.448-.086.934.151 1.34l2.149 3.672a1.71 1.71 0 0 0 2.3.625l.053-.03-.042.03.953-.527s1.637-.98 3-2.212a.53.53 0 0 1 .683-.021l.002.001.004.003a.484.484 0 0 1 .023.738 22.35 22.35 0 0 1-3.183 2.352l-.032.018-.952.527c-.416.23-.87.34-1.318.34a2.734 2.734 0 0 1-2.363-1.34L10.34 18.75c-3.898 2.722-6.265 7.968-4.994 14.604a.494.494 0 0 0 .486.399h2.312c.25 0 .459-.184.49-.428.213-1.649 1.637-2.923 3.362-2.923s3.148 1.274 3.36 2.923a.494.494 0 0 0 .492.428h2.254c.25 0 .459-.184.49-.428.213-1.649 1.637-2.923 3.361-2.923 1.726 0 3.15 1.274 3.362 2.923a.493.493 0 0 0 .49.428h2.226c.27 0 .49-.215.495-.482.052-3.105.898-6.67 3.312-8.455 8.355-6.181 6.157-11.478 4.225-13.389" id="a"/></defs><use fill="#02303A" xlink:href="#a" fill-rule="evenodd"/></svg>