<svg xmlns="http://www.w3.org/2000/svg" width="32" height="32" viewBox="0 0 32 32" preserveAspectRatio="xMidYMid">
  <path d="M13.865 8.255h6.756l3.41 5.904h3.89C27.037 8.403 22.065 4 16.064 4c-1.518 0-2.968.285-4.305.8l2.108 3.455" fill="#006533"/>
  <path d="M24.21 17.714l-3.59 6.216h-9.05l-4.524-7.837L10.66 9.83 8.665 6.556c-2.8 2.197-4.602 5.61-4.602 9.445 0 6.628 5.373 12 12 12 6.045 0 11.044-4.47 11.876-10.285h-3.73" fill="#82b816"/>
  <path d="M20.316 15.968c0 2.367-1.92 4.286-4.286 4.286-2.367 0-4.286-1.92-4.286-4.286 0-2.367 1.92-4.285 4.286-4.285 2.367 0 4.286 1.918 4.286 4.285" fill="#006532"/>
</svg>
