<?xml version="1.0" encoding="utf-8"?>
<!-- Generator: Adobe Illustrator 18.1.1, SVG Export Plug-In . SVG Version: 6.00 Build 0)  -->
<svg version="1.1" id="Layer_1" xmlns="http://www.w3.org/2000/svg" xmlns:xlink="http://www.w3.org/1999/xlink" x="0px" y="0px"
	 viewBox="0 0 32 32" enable-background="new 0 0 32 32" xml:space="preserve">
<g>
	<path d="M15.5,22.8c-0.1,0-0.2,0-0.3,0c-0.1-0.1-0.3-0.1-0.4-0.1c-0.3-0.1-0.7-0.2-1-0.3c-0.3-0.2-0.4-0.4-0.2-0.7
		c0.2-0.3,0.3-0.6,0.4-0.9c0.5-1.1,0.9-2.2,0.7-3.5c-0.1-1-0.6-1.8-1.6-2.2c-0.8-0.3-1.6-0.7-2.2-1.3c-1.4-1.3-2.4-2.7-2.3-4.7
		c4.9,0,9.9,0,14.8,0c0,1-0.2,1.9-0.7,2.7c-0.9,1.6-2.2,2.6-3.8,3.3c-1,0.5-1.6,1.3-1.7,2.4c-0.1,1.4,0.5,2.7,1.1,3.9
		c0.3,0.6,0.2,0.7-0.4,1c-0.2,0.1-0.3,0.1-0.5,0.2c-0.3,0.1-0.7,0.1-1,0.2c-0.1,0-0.3,0-0.4,0C15.9,22.7,15.7,22.7,15.5,22.8z"/>
	<path d="M28,13.9c-0.2,0.2-0.2,0.5-0.3,0.7c-0.5,1.1-1.3,1.9-2.4,2.2c-0.8,0.2-1,0.8-1,1.5c-0.1,0.8,0.2,1.5,0.5,2.2
		c0.3,0.6,0.2,0.8-0.5,0.9c-0.7,0.1-1.3,0.1-2-0.1c-0.3-0.1-0.4-0.3-0.2-0.6c0.4-0.7,0.7-1.4,0.6-2.3c-0.1-1-0.3-1.3-1-1.4
		c-0.2,0-0.4-0.1-0.5-0.3c0.1,0,0.1-0.1,0.2-0.1c1.6-0.6,2.7-1.7,3.5-3.1c0.1-0.2,0.3-0.2,0.5-0.2c0.9,0,1.7,0,2.6,0
		C28,13.4,28,13.7,28,13.9z"/>
	<path d="M4,13.2c0.8,0,1.7,0,2.5,0c0.2,0,0.3,0,0.4,0.2c0.9,1.5,2.2,2.5,3.8,3.2c-0.1,0.1-0.2,0.1-0.3,0.2
		c-0.8,0.3-1.1,0.8-1.1,1.7c0,0.6,0.2,1.2,0.5,1.8c0.1,0.2,0.2,0.4,0.3,0.5c0.1,0.2,0.1,0.4-0.1,0.4c-0.9,0.4-1.8,0.4-2.7,0
		C7,21.2,7,21,7.1,20.7c0.4-0.8,0.8-1.6,0.7-2.5c-0.1-0.8-0.3-1-1-1.2c-1.3-0.4-2.1-1.4-2.6-2.6c-0.1-0.1,0-0.3-0.2-0.3
		C4,13.7,4,13.5,4,13.2z"/>
</g>
</svg>
