<svg xmlns="http://www.w3.org/2000/svg" viewBox="0 0 32 32"><path fill="#E535AB" d="M24.8,18.8c-0.2-0.1-0.3-0.2-0.5-0.2v-5.2c0.2,0,0.4-0.1,0.5-0.2c0.9-0.5,1.3-1.7,0.7-2.7c-0.5-0.9-1.7-1.3-2.7-0.7c-0.2,0.1-0.3,0.2-0.4,0.4l-4.5-2.6C17.9,7.3,18,7.2,18,7c0-1.1-0.9-2-2-2s-2,0.9-2,2c0,0.2,0,0.4,0.1,0.6l-4.5,2.6C9.5,10,9.3,9.9,9.2,9.8C8.2,9.2,7,9.6,6.5,10.5c-0.5,0.9-0.2,2.1,0.7,2.7c0.2,0.1,0.3,0.2,0.5,0.2v5.2c-0.2,0-0.4,0.1-0.5,0.2c-0.9,0.5-1.3,1.7-0.7,2.7c0.5,0.9,1.7,1.3,2.7,0.7c0.2-0.1,0.3-0.2,0.4-0.4l4.5,2.6C14.1,24.7,14,24.8,14,25c0,1.1,0.9,2,2,2s2-0.9,2-2c0-0.2,0-0.4-0.1-0.6l4.5-2.6c0.1,0.2,0.3,0.3,0.5,0.4c0.9,0.5,2.1,0.2,2.7-0.7C26.1,20.6,25.7,19.4,24.8,18.8z M10.1,20.1c0-0.2-0.1-0.4-0.2-0.5c-0.1-0.2-0.2-0.3-0.3-0.4l5.9-10.3c0.2,0,0.4,0.1,0.5,0.1c0.2,0,0.4,0,0.5-0.1l5.9,10.3c-0.1,0.1-0.3,0.3-0.3,0.4c-0.1,0.2-0.2,0.3-0.2,0.5H10.1z M21.9,10.9c-0.1,0.5-0.1,1,0.2,1.5c0.3,0.5,0.7,0.8,1.2,0.9v5.2c0,0,0,0-0.1,0L17.4,8.4c0,0,0,0,0.1-0.1L21.9,10.9z M14.6,8.3C14.6,8.3,14.6,8.4,14.6,8.3L8.7,18.6c0,0-0.1,0-0.1,0v-5.2c0.5-0.1,0.9-0.4,1.2-0.9c0.3-0.5,0.3-1,0.2-1.5L14.6,8.3z M17.4,23.7c-0.4-0.4-0.9-0.6-1.4-0.6c-0.6,0-1.1,0.2-1.4,0.6l-4.5-2.6c0,0,0,0,0-0.1h11.8c0,0,0,0.1,0,0.1L17.4,23.7z"/></svg>
