<?xml version="1.0" encoding="utf-8"?>
<!-- Generator: Adobe Illustrator 18.1.1, SVG Export Plug-In . SVG Version: 6.00 Build 0)  -->
<svg version="1.1" id="Layer_1" xmlns="http://www.w3.org/2000/svg" xmlns:xlink="http://www.w3.org/1999/xlink" x="0px" y="0px"
	 viewBox="0 0 32 32" enable-background="new 0 0 32 32" xml:space="preserve">
<path fill="#EF7623" d="M22.5,16.4c0.4-0.2,0.9-0.4,1.3-0.7c0.9-0.6,0.9-1.7,0-2.1c-0.2-0.1-0.3-0.3-0.4-0.6c-0.1-0.6,0-1.1,0.3-1.6
	c0.7-1,0.2-1.8-1.1-1.9h-0.1l-0.1-0.1c-0.1-0.5-0.2-0.9,0.4-1.3C23,8,23.3,7.9,23.6,7.8c0.2-0.1,0.4-0.1,0.5-0.1
	c0-0.1-0.1-0.1-0.1-0.1c-0.7-0.8-1.7-1-2.6-0.9c-1.2,0.1-1.9,0.7-2.6,1.5c-0.1,0.2-0.3,0.2-0.5,0.1c-0.2-0.1-0.2-0.2-0.2-0.3
	c0-0.2,0.1-0.4,0.1-0.6c0.1-0.2,0.2-0.4,0.3-0.6c-0.6,0-1,0.3-1.5,0.6c-0.3-0.5-0.3-0.9-0.1-1.4c-0.9,0.3-1.5,0.7-1.7,1.6
	C14.9,7.3,15,6.9,15,6.5c-0.1,0-0.1,0-0.1,0c-0.1,0-0.1,0.1-0.2,0.1C14.2,7,13.9,7.5,13.8,8c0,0.1-0.1,0.2-0.1,0.3
	c-0.1-0.1-0.2-0.1-0.3-0.2c-0.4-0.3-0.8-0.7-1.2-1c-1.2-0.7-2.3-0.7-3.5-0.1C8.3,7.4,8.1,7.6,7.9,7.8c0.4,0.2,0.8,0.2,1.2,0.4
	C9.8,8.4,10,8.8,9.7,9.6c-0.2,0-0.4,0.1-0.6,0.1c-0.7,0.2-1,0.7-0.9,1.3c0.1,0.3,0.3,0.6,0.4,0.9c0,0.1,0.1,0.2,0.1,0.3
	c0,0.3,0,0.7,0,1c0,0.2-0.2,0.4-0.4,0.6c-0.2,0.2-0.5,0.4-0.6,0.7c-0.3,0.5,0,1.1,0.5,1.5c0.4,0.3,0.8,0.5,1.3,0.7
	c0.6,0.3,0.8,0.7,0.8,1.2c0,0.6,0,1.1-0.1,1.7c0,0.2-0.1,0.5-0.1,0.8c-0.6-0.5-1-1-1.1-1.7c-0.6,0.5-0.9,1-0.9,1.6
	c-0.2,1.3,0.3,2.6,1.9,3.2c0.1,0,0.2,0.1,0.3,0.2c0.6,1,1.5,1.6,2.7,1.8c0.1,0,0.2,0,0.2,0.1c1.1,0.7,2.2,0.8,3.4,0.7
	c0.7-0.1,1.3-0.2,1.8-0.6c0.1-0.1,0.3-0.1,0.4-0.2c1.2-0.2,2-0.8,2.6-1.7c0.1-0.1,0.2-0.2,0.3-0.3c0.6-0.2,1.1-0.5,1.4-1
	c0.5-0.7,0.6-1.6,0.5-2.3c-0.1-0.6-0.4-1-0.9-1.5c-0.2,0.7-0.5,1.2-1.1,1.7c-0.1-0.9-0.1-1.8-0.1-2.6C21.7,17,22,16.6,22.5,16.4
	L22.5,16.4z M14.1,21.7c0.7,0,1.3,0,1.9,0c0.9,0,1.8,0,2.6,0c-0.9,0-1.8,0-2.6,0C15.3,21.7,14.8,21.7,14.1,21.7L14.1,21.7z"/>
</svg>
