<?xml version="1.0" encoding="utf-8"?>
<!-- Generator: Adobe Illustrator 18.1.1, SVG Export Plug-In . SVG Version: 6.00 Build 0)  -->
<svg version="1.1" id="Layer_1" xmlns="http://www.w3.org/2000/svg" xmlns:xlink="http://www.w3.org/1999/xlink" x="0px" y="0px"
	 viewBox="0 0 32 32" enable-background="new 0 0 32 32" xml:space="preserve">
<path fill="#CD3F45" d="M20.1,22.8c-0.2,0.3-0.3,0.5-0.4,0.7c-0.1,0.2-0.2,0.5-0.2,0.7c-0.1,1-0.2,2.1-0.3,3.1
	c0,0.4-0.2,0.6-0.5,0.7c-0.7,0.2-1.5,0.5-2.2,0.7c-0.4,0-0.7,0-1.1,0c-0.1,0-0.3-0.1-0.4-0.1c-0.6-0.2-1.2-0.4-1.7-0.7
	c-0.1-0.1-0.3-0.3-0.3-0.5c-0.1-0.8-0.1-1.5-0.1-2.3c0-0.8,0-1.6-0.6-2.2c0,0,0-0.1,0-0.1C14.8,23.5,17.4,23.5,20.1,22.8L20.1,22.8z
	 M21.6,10.1c-0.1,1.4-0.3,2.8-0.4,4.2l0,0l-0.4,4.1h0c-0.1,1-0.2,2.1-0.3,3.2c0,0.7-0.4,1-1,1.1c-1,0.2-1.9,0.3-2.9,0.4
	c-1.4,0.1-2.8,0-4.2-0.4c-0.5-0.1-0.6-0.5-0.7-0.9c0-0.5-0.1-1-0.2-1.4c-0.1-0.9-0.2-1.8-0.3-2.8c0,0,0,0,0,0l-0.1-0.9
	c0-0.1-0.1-0.2-0.1-0.3c-0.1-1.6-0.4-3.1-0.6-4.7c-0.1-0.5-0.1-1-0.1-1.5C14.1,11,17.9,11,21.6,10.1L21.6,10.1z M10.3,9.5
	c0.2-0.1,0.4-0.2,0.6-0.2c0.9-0.1,1.9-0.2,2.8-0.3c0.1,0,0.4-0.2,0.4-0.2c-0.3-0.9-0.3-1.8-1-2.5c-0.8-0.8-1.5-1.7-2.3-2.5
	c0.6-0.6,0.6-0.6,1.1-0.1c0.4,0.4,0.7,0.8,1.1,1.1c1.1,0.9,1.8,2.1,2,3.5C15.2,8.9,15.5,9,16,9c1.7,0.1,3.3,0.2,5,0.3
	c0.2,0,0.4,0.1,0.7,0.2C20,10.8,11.3,10.7,10.3,9.5L10.3,9.5z"/>
</svg>
