<?xml version="1.0" encoding="utf-8"?>
<!-- Generator: Adobe Illustrator 18.1.1, SVG Export Plug-In . SVG Version: 6.00 Build 0)  -->
<svg version="1.1" id="Layer_1" xmlns="http://www.w3.org/2000/svg" xmlns:xlink="http://www.w3.org/1999/xlink" x="0px" y="0px"
	 viewBox="0 0 32 32" enable-background="new 0 0 32 32" xml:space="preserve">
<path d="M15.8,5c0,0.1,0,0.1,0,0.1c0,2.1,0,4.1,0,6.2c0,0.1,0,0.2-0.1,0.3c-2.1,2.1-4.3,4.3-6.4,6.4c0,0,0,0.1-0.1,0.1
	c0,0,0-0.1,0-0.1c0-2.1,0-4.2,0-6.3c0-0.1,0-0.1,0.1-0.1C11.5,9.4,13.6,7.2,15.8,5C15.8,5,15.8,5,15.8,5z"/>
<path d="M23.8,14.2c0,0.1,0,0.1,0,0.1c0,2.1,0,4.2,0,6.3c0,0.1,0,0.1-0.1,0.1c-2.2,2.2-4.3,4.3-6.5,6.5c0,0,0,0-0.1,0c0,0,0,0,0-0.1
	c0-2.1,0-4.2,0-6.3c0-0.1,0-0.1,0.1-0.1C19.4,18.6,21.5,16.4,23.8,14.2C23.7,14.2,23.7,14.2,23.8,14.2z"/>
<path d="M23.5,12.7c-2.1,2.1-4.2,4.2-6.4,6.4c0,0,0-0.1,0-0.1c0-2.1,0-4.1,0-6.2c0-0.1,0-0.1,0.1-0.1C19.3,12.7,21.4,12.7,23.5,12.7
	C23.5,12.7,23.5,12.7,23.5,12.7z"/>
<path d="M15.9,13C15.9,13,15.9,13,15.9,13c0,2.1,0,4.2,0,6.3c0,0.1,0,0.1-0.1,0.1c-2.1,0-4.1,0-6.2,0c0,0-0.1,0-0.1,0
	C11.6,17.2,13.7,15.1,15.9,13z"/>
<path d="M9.2,27C9.2,27,9.2,26.9,9.2,27c0-2.1,0-4.2,0-6.3c0-0.1,0-0.1,0.1-0.1c2.1,0,4.1,0,6.2,0c0,0,0.1,0,0.1,0
	C13.5,22.7,11.4,24.9,9.2,27z"/>
</svg>
