<?xml version="1.0" encoding="utf-8"?>
<!-- Generator: Adobe Illustrator 18.1.1, SVG Export Plug-In . SVG Version: 6.00 Build 0)  -->
<svg version="1.1" id="Layer_1" xmlns="http://www.w3.org/2000/svg" xmlns:xlink="http://www.w3.org/1999/xlink" x="0px" y="0px"
	 viewBox="0 0 32 32" enable-background="new 0 0 32 32" xml:space="preserve">
<g>
	<g>
		<path fill="#CD3F45" d="M20,15c-1-0.4-0.3-2-0.3-2l1.1-1c0,0,0.3,0.1,0.6-0.1c0.4-0.2,0.3-0.7,0.3-0.7l0.8-0.9c0,0,0.3-0.1-0.9-1
			c-1.2-0.9-1.6-0.4-1.6-0.4l-0.9,0.7c0,0-0.3,0-0.5,0.1c-0.2,0.1,0,0.5,0,0.5l-4.1,3.4l-2.1-4.8c0,0,0.2-0.2,0.1-0.5
			C12.5,8,12.2,8,12.2,8c-0.5-0.9-0.7-0.9-0.7-0.9C9.8,6.7,9.1,7.8,9.1,7.8C9,7.9,9.2,8.5,9.2,8.5S9,8.6,9.1,9.1
			c0.2,0.7,0.6,0.4,0.6,0.4l2.7,6c0,0.5-2.1,8.4-2.1,8.4c1.6,1.7,4,0.9,4,0.9c0-1,1.2-6.8,1.2-6.8c1.3,1.2,2.7,1.4,3.2,1.4
			c0,0.4,0.1,0.7,0.1,0.7s1.9,0.7,2.9-0.8c0.1-0.1,0.1-0.2,0.1-0.3l0,0c0,0,1.1-0.4,1.1-1.4C22.9,16.2,21,15.4,20,15z M22,18.6
			c0.2-0.7-0.2-1.1-0.2-1.1s-0.1,0.6-1.2,0.9c-1.1,0.3-1.4-0.2-1.4-0.2s-0.2,0.3-0.4,0.7c-2.3-0.4-3-1.6-3.2-1.9
			c-0.1-0.3,0.1-1,0.1-1l3-2.2c-0.2,1.4,1.4,1.9,1.4,1.9s2.3,0.8,2.3,2C22.5,18.2,22.2,18.5,22,18.6z"/>
	</g>
</g>
</svg>
