<?xml version="1.0" encoding="utf-8"?>
<!-- Generator: Adobe Illustrator 18.1.1, SVG Export Plug-In . SVG Version: 6.00 Build 0)  -->
<svg version="1.1" id="Layer_1" xmlns="http://www.w3.org/2000/svg" xmlns:xlink="http://www.w3.org/1999/xlink" x="0px" y="0px"
	 viewBox="0 0 32 32" enable-background="new 0 0 32 32" xml:space="preserve">
<g>
	<path d="M14.2,8.9c1.2,1.7,2.3,3.5,3.5,5.2c2,3,4,5.9,5.9,8.9c0,0,0,0,0,0c-1.2,0-2.4,0-3.5,0c0,0,0,0-0.1-0.1
		c-0.9-1.4-1.9-2.8-2.8-4.2c-0.1-0.1,0-0.1-0.1,0c-0.9,1.4-1.9,2.8-2.8,4.2c0,0,0,0-0.1,0.1c-1.2,0-2.4,0-3.5,0c0,0,0,0,0,0
		c0,0,0,0,0-0.1c1.5-2.3,3.1-4.6,4.6-6.9c0-0.1,0-0.1,0-0.1c-1.5-2.3-3.1-4.6-4.6-6.9c0,0,0,0,0-0.1C11.9,8.9,13.1,8.9,14.2,8.9z"/>
	<path d="M9.5,23.1c-1.2,0-2.4,0-3.5,0C6,23,6,23,6,23c0.4-0.6,0.8-1.3,1.3-1.9c1.1-1.7,2.2-3.3,3.3-5c0-0.1,0-0.1,0-0.1
		C9.1,13.6,7.6,11.3,6,9C6,9,6,9,6,9c0,0,0,0,0,0c0.7,0,1.5,0,2.2,0c0.4,0,0.9,0,1.3,0c0,0,0,0,0.1,0.1c0.8,1.1,1.5,2.3,2.3,3.4
		c0.8,1.2,1.6,2.3,2.3,3.5c0,0.1,0,0.1,0,0.1C12.7,18.4,11.1,20.7,9.5,23.1C9.6,23,9.6,23,9.5,23.1z"/>
	<path d="M26,15.4C26,15.4,26,15.4,26,15.4c-2.1,0-4.2,0-6.2,0c0,0-0.1,0-0.1,0c-0.5-0.8-1-1.5-1.5-2.3c0,0,0,0,0-0.1
		c2.6,0,5.2,0,7.8,0C26,13.8,26,14.6,26,15.4z"/>
	<path d="M26,19C26,19,26,18.9,26,19c-1.3,0-2.6,0-3.9,0c0,0-0.1,0-0.1,0c-0.5-0.8-1-1.5-1.5-2.3c0,0,0,0,0-0.1c0,0,0,0,0.1,0
		c1.8,0,3.6,0,5.3,0c0,0,0,0,0.1,0C26,17.4,26,18.2,26,19z"/>
</g>
</svg>
