<?xml version="1.0" encoding="utf-8"?>
<!-- Generator: Adobe Illustrator 18.1.1, SVG Export Plug-In . SVG Version: 6.00 Build 0)  -->
<svg version="1.1" id="Layer_1" xmlns="http://www.w3.org/2000/svg" xmlns:xlink="http://www.w3.org/1999/xlink" x="0px" y="0px"
	 viewBox="0 0 32 32" enable-background="new 0 0 32 32" xml:space="preserve">
<path fill-rule="evenodd" clip-rule="evenodd" fill="#542D8D" d="M17,19.5c-0.4,0-0.7,0.1-1,0.1c-0.5,0-1,0-1.7,0
	c0.3-3.9,0.7-7.8,1-11.8c1.1,0,2-0.1,3,0c0.3,0,0.6,0.5,0.6,0.7c-0.3,2.1-0.7,4.3-1.1,6.4C17.5,16.5,17.3,18,17,19.5z"/>
<path fill-rule="evenodd" clip-rule="evenodd" fill="#542D8D" d="M17.4,23.2c0.1,1-0.7,1.9-1.9,2c-1.2,0.1-2.3-0.6-2.4-1.6
	c-0.1-1.1,0.8-1.9,2.1-2C16.4,21.5,17.3,22.2,17.4,23.2z"/>
</svg>
