<?xml version="1.0" encoding="utf-8"?>
<!-- Generator: Adobe Illustrator 18.1.1, SVG Export Plug-In . SVG Version: 6.00 Build 0)  -->
<svg version="1.1" id="Layer_1" xmlns="http://www.w3.org/2000/svg" xmlns:xlink="http://www.w3.org/1999/xlink" x="0px" y="0px"
	 viewBox="0 0 32 32" enable-background="new 0 0 32 32" xml:space="preserve">
<path fill="#5D5887" d="M22.6,13.4c-0.3-1.2-1-2.1-2.1-2.6c-0.5-0.2-1.1-0.4-1.7-0.4c-0.9-0.1-1.9-0.1-2.8,0.1
	c-1.5,0.2-2.9,0.6-4.2,1.1c0,0-0.1,0-0.1,0c0-2.8,0-5.6,0-8.3c-1.3,0-2.6,0-3.9,0c0,4.3,0,8.6,0,13c0.1,0,0.1,0,0.1,0
	c0.9-0.3,1.9-0.7,2.8-1c1.6-0.6,3.2-1,4.9-1.3c0.7-0.1,1.4-0.2,2.1-0.1c0.3,0,0.7,0.1,0.9,0.3c0.2,0.1,0.4,0.3,0.4,0.6
	c0,0.1,0,0.2,0,0.3c0,4.6,0,9.2,0,13.8c0,0,0,0.1,0,0.1c1.3,0,2.5,0,3.8,0c0,0,0-0.1,0-0.1c0-4.6,0-9.3,0-13.9
	C22.8,14.3,22.7,13.8,22.6,13.4L22.6,13.4z M24.2,3.2c-1.4,0-2.8,0-4.1,0c-0.1,0-0.1,0-0.1,0.1c-0.6,1.4-1.3,2.7-2.1,3.9
	c-0.2,0.3-0.5,0.7-0.7,1c0,0,0.1,0,0.1,0c1.3,0,2.7,0,4,0c0.1,0,0.1,0,0.1-0.1c0.5-0.7,1-1.4,1.5-2.2c0.5-0.8,1-1.7,1.4-2.6
	c0,0,0-0.1,0.1-0.1C24.2,3.2,24.2,3.2,24.2,3.2L24.2,3.2z M7.8,28.7c1.3-1.3,2.6-2.6,4-3.9c-1.3-1.3-2.6-2.6-3.9-3.9
	C7.8,23.5,7.8,26.1,7.8,28.7z"/>
</svg>
