<?xml version="1.0" encoding="utf-8"?>
<!-- Generator: Adobe Illustrator 18.1.1, SVG Export Plug-In . SVG Version: 6.00 Build 0)  -->
<svg version="1.1" id="Layer_1" xmlns="http://www.w3.org/2000/svg" xmlns:xlink="http://www.w3.org/1999/xlink" x="0px" y="0px"
	 viewBox="0 0 32 32" enable-background="new 0 0 32 32" xml:space="preserve">
<path fill="#E48825" d="M7.6,15.7c0-0.2,0-0.3-0.1-0.5C7.3,15,7,15,6.8,15.3c-0.2,0.5,0,1,0.5,1.1c0.3,0.1,0.7,0.1,1-0.2
	c0.5-0.4,1-0.8,1.4-1.2c0.6-0.6,1.3-1.2,2.1-1.4c1.2-0.4,2.3-0.3,3.3,0.4c0.2,0.2,0.4,0.4,0.6,0.6c0.1,0.1,0.1,0.1,0.2,0.2
	c0.1-0.2,0.2-0.3,0.3-0.4c0.6-0.7,1.4-1.1,2.3-1.1c1.1,0,2,0.4,2.8,1c0.6,0.4,1.1,0.9,1.6,1.4c0.3,0.3,0.6,0.5,1,0.6
	c0.5,0.1,1-0.2,1.1-0.6c0.1-0.3,0-0.5-0.2-0.7c-0.1-0.1-0.3-0.2-0.5-0.1c-0.2,0.1-0.2,0.3-0.2,0.5c0,0,0,0,0,0.1c0,0,0,0,0,0
	c-0.3-0.2-0.4-0.5-0.4-0.8c0-0.3,0.3-0.5,0.6-0.6c0.9-0.3,1.8,0.2,2,1.1c0.1,0.6,0.1,1.2-0.2,1.8c-0.3,0.6-0.9,1-1.6,1.2
	c-1.4,0.4-2.6,0.1-3.9-0.4c-0.9-0.4-1.8-0.8-2.7-1.2c-1.1-0.5-2.2-0.6-3.4-0.4c-0.7,0.2-1.4,0.5-2.1,0.8c-0.9,0.4-1.7,0.8-2.5,1.1
	c-1.1,0.4-2.1,0.5-3.2,0.1C6,18,5.2,17.3,5.3,15.8c0.1-0.7,0.3-1.2,1-1.5c0.4-0.2,0.8-0.2,1.2,0C8.1,14.6,8.2,15.3,7.6,15.7
	L7.6,15.7z"/>
</svg>
