<?xml version="1.0" encoding="utf-8"?>
<!-- Generator: Adobe Illustrator 18.1.1, SVG Export Plug-In . SVG Version: 6.00 Build 0)  -->
<svg version="1.1" id="Layer_1" xmlns="http://www.w3.org/2000/svg" xmlns:xlink="http://www.w3.org/1999/xlink" x="0px" y="0px"
	 viewBox="0 0 32 32" enable-background="new 0 0 32 32" xml:space="preserve">
<g>
	<path fill="#529BBA" d="M15.6,11.8h-3.4V22H9.7V11.8H6.3V10h9.2V11.8z"/>
	<path fill="#529BBA" d="M23.3,18.9c0-0.5-0.2-0.8-0.5-1.1c-0.3-0.3-0.9-0.5-1.7-0.8c-1.4-0.4-2.5-0.9-3.3-1.5
		c-0.7-0.6-1.1-1.3-1.1-2.3c0-1,0.4-1.8,1.3-2.4c0.8-0.6,1.9-0.9,3.2-0.9c1.3,0,2.4,0.4,3.2,1.1c0.8,0.7,1.2,1.6,1.2,2.6l0,0h-2.3
		c0-0.6-0.2-1-0.6-1.4c-0.4-0.3-0.9-0.5-1.6-0.5c-0.6,0-1.1,0.1-1.5,0.4c-0.4,0.3-0.5,0.7-0.5,1.1c0,0.4,0.2,0.7,0.6,1
		c0.4,0.3,1,0.5,2,0.8c1.3,0.4,2.3,0.9,3,1.5c0.7,0.6,1,1.4,1,2.4c0,1-0.4,1.9-1.2,2.4c-0.8,0.6-1.9,0.9-3.2,0.9
		c-1.3,0-2.5-0.3-3.4-1s-1.5-1.6-1.4-2.9l0,0h2.4c0,0.7,0.2,1.2,0.7,1.6c0.4,0.3,1.1,0.5,1.8,0.5c0.7,0,1.2-0.1,1.5-0.4
		C23.1,19.7,23.3,19.3,23.3,18.9z"/>
</g>
</svg>
