<?xml version="1.0" encoding="utf-8"?>
<!-- Generator: Adobe Illustrator 18.1.1, SVG Export Plug-In . SVG Version: 6.00 Build 0)  -->
<svg version="1.1" id="Layer_1" xmlns="http://www.w3.org/2000/svg" xmlns:xlink="http://www.w3.org/1999/xlink" x="0px" y="0px"
	 viewBox="0 0 32 32" enable-background="new 0 0 32 32" xml:space="preserve">
<path fill="#DBCD68" d="M7.5,15.1c1.5,0,1.7-0.8,1.7-1.5c0-0.6-0.1-1.1-0.1-1.7s-0.1-1.2-0.1-1.7c0-2.1,1.3-3,3.4-3h0.8v1.9h-0.4
	c-1,0-1.3,0.6-1.3,1.6c0,0.4,0.1,0.8,0.1,1.3c0,0.4,0.1,0.9,0.1,1.5c0,1.7-0.7,2.3-1.9,2.6v0c1.2,0.3,1.9,0.9,1.9,2.6
	c0,0.6-0.1,1.1-0.1,1.5c0,0.4-0.1,0.9-0.1,1.2c0,1,0.3,1.6,1.3,1.6h0.4v1.9h-0.8c-2,0-3.3-0.8-3.3-3c0-0.6,0-1.1,0.1-1.7
	c0.1-0.6,0.1-1.2,0.1-1.7c0-0.6-0.2-1.5-1.7-1.5L7.5,15.1L7.5,15.1z M24.5,16.8c-1.5,0-1.7,0.9-1.7,1.5c0,0.6,0.1,1.1,0.1,1.7
	c0.1,0.6,0.1,1.2,0.1,1.7c0,2.2-1.4,3-3.4,3h-0.8V23h0.4c1,0,1.3-0.6,1.3-1.6c0-0.4,0-0.8-0.1-1.2c0-0.5-0.1-1-0.1-1.5
	c0-1.7,0.7-2.3,1.9-2.6v0c-1.2-0.3-1.9-0.9-1.9-2.6c0-0.6,0.1-1.1,0.1-1.5c0.1-0.5,0.1-0.9,0.1-1.3c0-1-0.4-1.5-1.3-1.6h-0.4V7.2
	h0.8c2.1,0,3.4,0.9,3.4,3c0,0.6-0.1,1.1-0.1,1.7c-0.1,0.6-0.1,1.2-0.1,1.7c0,0.7,0.2,1.5,1.7,1.5L24.5,16.8L24.5,16.8z"/>
</svg>
