<?xml version="1.0" encoding="utf-8"?>
<!-- Generator: Adobe Illustrator 18.1.1, SVG Export Plug-In . SVG Version: 6.00 Build 0)  -->
<svg version="1.1" id="Layer_1" xmlns="http://www.w3.org/2000/svg" xmlns:xlink="http://www.w3.org/1999/xlink" x="0px" y="0px"
	 viewBox="0 0 32 32" enable-background="new 0 0 32 32" xml:space="preserve">
<path fill="#DBCD68" d="M19,12.5c-0.3-2.5-2.2-4.1-4.6-4.2c-0.5,0-1.1,0-1.6,0c-0.2-1.5,0.4-3.5,2.8-3.7c1-0.1,1.9,0.1,2.7,0.9
	C19,6.1,19.2,7,19.1,8c0,0.1,0,0.3,0.1,0.4c0.3,0.4,0.7,0.7,1.1,1c0.3-1,0.4-2,0.1-3c-0.5-2-2.2-3.3-4.4-3.3c-1.2,0-2.3,0.3-3.2,1.1
	c-1.5,1.4-2.1,4.7,0.1,6.8c0.3,0.3,0.8,0.6,1.2,0.7c0.5,0.2,1-0.2,1-0.7c0-0.5-0.2-0.7-0.8-0.9c-0.1,0-0.3-0.1-0.4-0.2
	c0,0,0-0.1,0.1-0.1c0.5-0.1,1,0,1.3,0.4c0.4,0.4,0.5,0.8,0.4,1.3c-0.2,0.8-0.9,1.1-1.8,0.9c-1.2-0.3-2-1.1-2.5-2.2
	c-0.2-0.3-0.3-0.6-0.4-1C10,10.1,9.3,10.9,9.1,12c-0.4,2,0.1,3.6,1.6,5c0.1,0.1,0.2,0.2,0.1,0.4c-0.1,0.9-0.3,1.7-0.4,2.6
	c-0.3,1.8-0.6,3.7-0.9,5.5c-0.1,0.6-0.1,1.2,0.1,1.8c0.1,0.4,0.4,0.8,0.8,1c0.1-0.5,0.1-0.9,0.2-1.3c0.3-1.9,0.6-3.7,0.9-5.5
	c0.2-1.2,0.4-2.3,0.5-3.5c0-0.2,0.1-0.3,0.3-0.3c0.2,0,0.3,0.2,0.2,0.4c-0.2,1.1-0.3,2.2-0.5,3.3c-0.4,2.3-0.7,4.7-1.1,7
	c0,0.1,0.1,0.2,0.1,0.2c0.5,0,1,0.1,1.5,0.1c0.6-0.1,1-0.5,1.3-0.9c0.4-0.4,0.4-0.8,0.1-1.2c-0.1-0.1-0.2-0.2-0.3-0.4
	c-0.3-0.5-0.3-0.7,0.2-1c0.1-0.1,0.3-0.2,0.4-0.2c0.2-0.2,0.3-0.5,0.1-0.7c-0.3-0.3-0.6-0.6-0.9-0.9c-0.2-0.2-0.2-0.6,0.1-0.8
	c0.4-0.2,0.7-0.4,1.1-0.6c0.3-0.1,0.3-0.4,0.1-0.6c-0.1-0.1-0.3-0.3-0.4-0.4c-0.3-0.3-0.2-0.8,0.2-1.1c0.1-0.1,0.3-0.2,0.4-0.2
	c0.2-0.1,0.3-0.2,0.3-0.5c0-0.3,0.1-0.6,0.1-1c0-0.1,0.1-0.3,0.2-0.4c0.4-0.3,0.8-0.5,1.2-0.8C18.7,16,19.3,14.4,19,12.5L19,12.5z
	 M23,25.1c0-0.2-0.1-0.4-0.4-0.4c-0.3,0-0.5,0-0.7-0.4c-0.2-0.4-0.1-0.7,0-1c0.2-0.4,0.1-0.8-0.4-0.9c-0.2,0-0.5-0.1-0.7-0.1
	c-0.2,0-0.3-0.1-0.4-0.3c0-0.2-0.1-0.5-0.1-0.7c0-0.4,0.3-0.6,0.5-0.8c0.2-0.3,0.2-0.5-0.1-0.7c-0.2-0.1-0.3-0.2-0.5-0.3
	c-0.4-0.3-0.5-0.5-0.3-0.9c0.1-0.1,0.2-0.2,0.3-0.3c0.2-0.2,0.2-0.4,0.1-0.7c-0.1-0.3-0.2-0.6-0.4-0.8c-0.1-0.2-0.1-0.4,0-0.7
	c0.9-1.8,1.1-3.6,0.3-5.5c-0.5-1.3-1.5-2-2.8-2.4c0,0-0.1,0.1-0.1,0.1c0.1,0.1,0.2,0.3,0.3,0.4c1.3,1.1,2.1,2.6,2.1,4.3
	c0,1.9-0.8,3.5-2.4,4.6c-0.2,0.2-0.3,0.3-0.2,0.6c0.4,1.1,0.8,2.2,1.2,3.2c0.9,2.1,1.8,4.1,2.7,6.2c0.1,0.1,0.1,0.2,0.3,0.2
	C22.5,27.5,23.2,26.3,23,25.1L23,25.1z M16.3,18.6c-0.1,0.4-0.1,0.8-0.2,1.2c0,0.2-0.1,0.5,0,0.7c0.8,1.9,1.5,3.9,2.3,5.8
	c0.2,0.6,0.6,1.1,1.1,1.5c0.2,0.1,0.4,0.2,0.6,0.3c0,0,0-0.1,0.1-0.1C19,24.8,17.7,21.7,16.3,18.6C16.4,18.6,16.3,18.6,16.3,18.6z"
	/>
</svg>
