<?xml version="1.0" encoding="utf-8"?>
<!-- Generator: Adobe Illustrator 18.1.1, SVG Export Plug-In . SVG Version: 6.00 Build 0)  -->
<svg version="1.1" id="Layer_1" xmlns="http://www.w3.org/2000/svg" xmlns:xlink="http://www.w3.org/1999/xlink" x="0px" y="0px"
	 viewBox="0 0 32 32" enable-background="new 0 0 32 32" xml:space="preserve">
<path fill="#6C5FAA" d="M13.1,19.1c-0.1-0.5-0.3-0.9-0.8-1.2c-0.2-0.1-0.4-0.2-0.6-0.3c-0.2-0.1-0.5-0.2-0.7-0.3
	c-0.2,0-0.4,0-0.5,0.2c-0.1,0.2,0,0.3,0.1,0.4c0.1,0.1,0.2,0.3,0.3,0.4c0.2,0.2,0.4,0.4,0.6,0.7c0.2,0.2,0.3,0.5,0.3,0.8
	c-0.1,0.6-0.3,1.2-0.8,1.6c-0.1,0-0.1,0.1-0.2,0.1c-0.3,0-0.6-0.1-0.8-0.4c-0.2-0.2-0.2-0.5,0.1-0.7c0.1,0,0.1-0.1,0.2-0.1
	c0.2-0.1,0.2-0.4,0.1-0.6c0-0.1-0.1-0.2-0.2-0.3c-0.4-0.3-0.8-0.7-1.2-1c-1-0.8-1.5-1.8-1.6-3c-0.1-1.4,0.2-2.6,0.9-3.8
	c0.3-0.4,0.6-0.9,1.1-1.1c0.3-0.1,0.7-0.2,1.1-0.3c1-0.3,2-0.4,3-0.3c0.9,0.1,1.5,0.6,1.8,1.5c0.2,0.6,0.2,1.1,0.2,1.7
	c-0.1,1.2-1,2.2-2.1,2.5c-0.5,0.1-0.8,0.1-1.1-0.3c-0.2-0.3-0.4-0.6-0.6-0.9c0,0,0-0.1-0.1-0.1c0,0,0-0.1-0.1-0.1
	c0.1,0.5,0.2,1,0.5,1.4c0.1,0.2,0.4,0.4,0.6,0.4c1.1,0.1,2-0.3,2.6-1.1c0.7-1,0.9-2.1,0.7-3.3c0-0.2-0.1-0.5-0.2-0.7
	c0-0.1,0-0.3,0.2-0.3c0.1,0,0.1,0,0.2-0.1c0.9-0.2,1.8-0.3,2.7-0.2c1,0.1,2,0.4,2.8,0.9c1.4,0.9,2.2,2.2,2.6,3.7
	c0.1,0.2,0.1,0.5,0.1,0.7c0,0.2-0.1,0.2-0.2,0.1c-0.1-0.1-0.3-0.2-0.4-0.4c-0.1-0.1-0.2-0.3-0.3-0.4c-0.1-0.1-0.1-0.1-0.2,0
	c0,0.1,0,0.1-0.1,0.2c-0.2,0.8-0.6,1.6-1.2,2.3C22.1,17.7,22,17.8,22,18c0,0.3,0,0.7,0,1c0.1,0.7,0.2,1.4,0.2,2.1
	c0,0.4-0.1,0.6-0.5,0.8C21.5,22,21.3,22,21,22.1c-0.4,0-0.9,0-1.3,0c0-0.5,0-1-0.4-1.3c0.1-0.4,0.2-0.7,0.3-1.1
	c0.1-0.3,0-0.6-0.2-0.8c-0.2-0.2-0.4-0.3-0.7-0.2c-0.7,0.4-1.4,0.4-2.1,0.1c-0.3-0.1-0.6-0.1-0.7,0.2c-0.2,0.3-0.3,0.7-0.3,1.1
	c0,0.5,0.1,0.9,0.2,1.4c0,0.3,0,0.3-0.3,0.4c-0.6,0.1-1.2,0.2-1.7,0.1c0,0-0.1,0-0.1,0c0-0.5,0-1-0.6-1.2
	C13.3,20.3,13.2,19.7,13.1,19.1L13.1,19.1z M9.7,17.2c0.1-0.1,0.2-0.2,0.2-0.3c0.1-0.3-0.2-0.7-0.4-0.8c-0.1-0.1-0.2,0-0.3,0.1
	c-0.2,0.3-0.5,0.5-0.7,0.8c0,0-0.1,0.1-0.1,0.2c-0.1,0.2,0,0.3,0.2,0.3c0.1,0,0.2,0,0.4,0.1C9.2,17.5,9.5,17.4,9.7,17.2L9.7,17.2z
	 M9.7,14.3c0-0.2-0.2-0.4-0.4-0.4C9.1,14,9,14.2,9,14.4c0,0.2,0.2,0.4,0.4,0.4C9.6,14.7,9.7,14.6,9.7,14.3L9.7,14.3z"/>
</svg>
