<?xml version="1.0" encoding="utf-8"?>
<!-- Generator: Adobe Illustrator 18.1.1, SVG Export Plug-In . SVG Version: 6.00 Build 0)  -->
<svg version="1.1" id="Layer_1" xmlns="http://www.w3.org/2000/svg" xmlns:xlink="http://www.w3.org/1999/xlink" x="0px" y="0px"
	 viewBox="0 0 32 32" enable-background="new 0 0 32 32" xml:space="preserve">
<path fill="#A6814F" d="M17.2,6.2c-0.7,0.2-1.1,0.3-3,1.4c-1.1,0.6-2.6,0.7-2.9,0.2C10.8,7.3,11.3,7,12.6,7c1,0,1.4-0.1,0.9-0.4
	c-0.8-0.5-2.7-0.2-3,0.6c-0.2,0.4-0.2,0.5,0.1,0.9c0.6,0.7,1.2,0.9,2.6,0.8c1.1,0,1.5-0.2,2.7-0.8c1.6-0.8,3.3-1.2,4.4-1
	c1,0.2,1.3,0.5,0.7,0.9c-0.5,0.4-1.8,0.5-2.4,0.1c-0.5-0.3-1.2-0.2-1.2,0.2c0,0.7,2,1.1,3.7,0.8c2-0.4,2-2.2,0-2.8
	C20.2,6,18.2,5.9,17.2,6.2L17.2,6.2z M6,7.9C5.6,8.2,5.3,8.5,5.3,8.8c-0.1,0.6,0.9,1.3,2.5,1.8c1.4,0.4,2,0.6,4.2,0.8
	c1.4,0.2,8.1,0.2,9.4,0c0.6-0.1,1.3-0.2,1.6-0.2c0.9-0.1,3.4-0.8,4-1.1c0.8-0.4,1.1-1,0.9-1.4c-0.5-0.8-1.3-1.3-1-0.6
	c0.3,1-2.8,2.1-6.8,2.4c-1.4,0.1-5.8,0.1-6.6,0c-0.3,0-1.1-0.1-1.8-0.2C9.4,10,6.9,9.1,6.7,8.5c0-0.2,0-0.5,0.1-0.7
	C7,7.4,6.7,7.4,6,7.9L6,7.9z M5.6,11.5c0.1,0.5,0.2,1.4,0.4,1.9l0.3,1.1L5.8,15c-0.3,0.3-0.8,0.8-1,1.2c-0.4,0.7-0.5,1-0.5,2.2
	c0,1.6,0.3,2.2,1.6,3.2c0.7,0.5,0.9,0.5,2,0.5c1.6-0.1,2.1-0.4,0.9-0.6c-1-0.1-2.3-1.3-2.7-2.3c-0.4-0.9-0.3-2.4,0.1-3.1
	c0.2-0.3,0.4-0.5,0.4-0.5s0.2,0.4,0.5,0.8c0.2,0.4,1,1.6,1.7,2.6c0.7,1,1.5,2.3,1.6,2.8c0.7,2.1,2.3,2.8,6.2,2.8
	c4,0,5.6-0.8,6.3-2.9c0.2-0.5,0.9-1.7,1.5-2.6s1.5-2.3,1.9-3c0.6-1.4,1.6-4.4,1.6-5c0-0.3,0-0.3-0.4,0c-0.7,0.7-2.9,1.3-5.9,1.6
	c-2.4,0.3-10,0.1-11.7-0.3c-0.3-0.1-0.7-0.1-1-0.2c-0.9-0.1-3-1-3.2-1.4C5.5,10.7,5.5,10.7,5.6,11.5L5.6,11.5z"/>
</svg>
