<?xml version="1.0" encoding="utf-8"?>
<!-- Generator: Adobe Illustrator 18.1.1, SVG Export Plug-In . SVG Version: 6.00 Build 0)  -->
<svg version="1.1" id="Layer_1" xmlns="http://www.w3.org/2000/svg" xmlns:xlink="http://www.w3.org/1999/xlink" x="0px" y="0px"
	 viewBox="0 0 32 32" enable-background="new 0 0 32 32" xml:space="preserve">
<path fill="#9F74B3" d="M21.2,14c-0.2-0.9-0.8-1.6-1.6-2c-0.4-0.2-0.9-0.3-1.3-0.3c-0.7-0.1-1.5-0.1-2.2,0.1
	c-1.1,0.2-2.2,0.4-3.3,0.8c0,0,0,0-0.1,0c0-2.2,0-4.3,0-6.5c-1,0-2.1,0-3.1,0c0,3.4,0,6.7,0,10.1c0,0,0.1,0,0.1,0
	c0.7-0.3,1.4-0.5,2.2-0.8c1.3-0.4,2.5-0.8,3.8-1c0.5-0.1,1.1-0.1,1.6-0.1c0.3,0,0.5,0.1,0.7,0.2c0.2,0.1,0.3,0.3,0.3,0.5
	c0,0.1,0,0.2,0,0.2c0,3.6,0,7.2,0,10.8c0,0,0,0.1,0,0.1c1,0,2,0,3,0c0,0,0-0.1,0-0.1c0-3.6,0-7.2,0-10.9
	C21.3,14.7,21.3,14.3,21.2,14L21.2,14z M22.4,6c-1.1,0-2.2,0-3.2,0C19.1,6,19,6,19,6.1c-0.5,1.1-1,2.1-1.7,3.1
	c-0.2,0.3-0.4,0.5-0.5,0.8c0,0,0,0,0.1,0c1,0,2.1,0,3.1,0c0.1,0,0.1,0,0.1-0.1c0.4-0.6,0.8-1.1,1.2-1.7c0.4-0.7,0.8-1.3,1.1-2.1
	C22.4,6.1,22.4,6,22.4,6C22.4,6,22.4,6,22.4,6L22.4,6z M9.6,26c1-1,2.1-2.1,3.1-3.1c-1-1-2.1-2.1-3.1-3.1C9.6,21.8,9.6,23.9,9.6,26z
	"/>
</svg>
