<?xml version="1.0" encoding="utf-8"?>
<!-- Generator: Adobe Illustrator 18.1.1, SVG Export Plug-In . SVG Version: 6.00 Build 0)  -->
<svg version="1.1" id="Layer_1" xmlns="http://www.w3.org/2000/svg" xmlns:xlink="http://www.w3.org/1999/xlink" x="0px" y="0px"
	 viewBox="0 0 32 32" enable-background="new 0 0 32 32" xml:space="preserve">
<path fill="#9F74B3" d="M12.7,19.7c-0.1-0.6-0.4-1.1-1-1.3c-0.2-0.1-0.5-0.3-0.7-0.4c-0.3-0.1-0.6-0.2-0.8-0.3
	c-0.2-0.1-0.4,0-0.6,0.2c-0.1,0.2,0,0.4,0.1,0.5c0.1,0.2,0.2,0.3,0.4,0.5c0.2,0.3,0.4,0.5,0.7,0.8c0.2,0.3,0.4,0.5,0.3,0.9
	c-0.1,0.7-0.4,1.4-0.9,1.9c-0.1,0.1-0.2,0.1-0.2,0.1c-0.3,0-0.7-0.2-0.9-0.4c-0.3-0.3-0.2-0.6,0.1-0.8c0.1,0,0.2-0.1,0.2-0.2
	c0.2-0.2,0.3-0.4,0.2-0.7c-0.1-0.1-0.1-0.2-0.2-0.3c-0.4-0.4-0.9-0.8-1.4-1.2C6.7,18,6.1,16.8,6,15.4c-0.1-1.6,0.3-3.1,1.1-4.5
	c0.3-0.5,0.7-1,1.3-1.3c0.4-0.2,0.8-0.3,1.2-0.4c1.1-0.3,2.3-0.5,3.5-0.3c1,0.2,1.8,0.7,2.1,1.7c0.2,0.7,0.3,1.3,0.2,2
	c-0.1,1.4-1.2,2.6-2.5,3c-0.6,0.2-0.9,0.1-1.2-0.4c-0.2-0.3-0.5-0.7-0.7-1.1C11,14.1,11,14,11,14c0-0.1-0.1-0.1-0.1-0.2
	c0.1,0.6,0.2,1.2,0.5,1.7c0.2,0.3,0.4,0.5,0.8,0.5c1.3,0.1,2.3-0.3,3.1-1.3c0.8-1.1,1-2.4,0.8-3.8c0-0.3-0.1-0.5-0.2-0.8
	c0-0.2,0-0.3,0.2-0.4c0.1,0,0.2,0,0.2-0.1c1-0.2,2.1-0.3,3.1-0.2c1.2,0.1,2.3,0.4,3.3,1.1c1.6,1,2.6,2.5,3.1,4.3
	c0.1,0.3,0.1,0.5,0.1,0.8c0,0.2-0.1,0.2-0.3,0.1c-0.2-0.1-0.3-0.3-0.4-0.4c-0.1-0.1-0.2-0.3-0.3-0.4c-0.1-0.1-0.2-0.1-0.2,0
	c0,0.1-0.1,0.2-0.1,0.3c-0.3,1-0.7,1.9-1.4,2.6c-0.1,0.1-0.2,0.3-0.2,0.4c0,0.4-0.1,0.8,0,1.2c0.1,0.8,0.2,1.7,0.3,2.5
	c0.1,0.5-0.1,0.7-0.5,0.9c-0.3,0.1-0.6,0.2-1,0.2c-0.5,0-1.1,0-1.6,0c0-0.6,0-1.2-0.5-1.5c0.1-0.4,0.2-0.8,0.3-1.3
	c0.1-0.4,0-0.7-0.2-1c-0.2-0.3-0.5-0.3-0.8-0.2c-0.8,0.5-1.6,0.5-2.5,0.2c-0.4-0.1-0.7-0.1-0.9,0.3c-0.2,0.4-0.3,0.8-0.3,1.2
	c0,0.5,0.1,1.1,0.2,1.6c0,0.3,0,0.4-0.3,0.5c-0.7,0.2-1.4,0.2-2,0.1c0,0-0.1,0-0.1,0c0-0.6,0-1.2-0.7-1.5
	C12.8,21,12.8,20.3,12.7,19.7L12.7,19.7z M8.6,17.4c0.1-0.1,0.2-0.2,0.2-0.4c0.1-0.3-0.2-0.8-0.5-0.9c-0.2-0.1-0.3,0-0.4,0.1
	c-0.3,0.3-0.5,0.6-0.8,0.9c0,0.1-0.1,0.1-0.1,0.2c-0.1,0.2,0,0.4,0.2,0.4c0.1,0,0.3,0,0.4,0.1C8,17.8,8.3,17.7,8.6,17.4L8.6,17.4z
	 M8.6,14.1c0-0.2-0.2-0.4-0.4-0.4c-0.2,0-0.5,0.2-0.4,0.5c0,0.2,0.2,0.4,0.5,0.4C8.4,14.5,8.6,14.3,8.6,14.1L8.6,14.1z"/>
</svg>
