<?xml version="1.0" encoding="utf-8"?>
<!-- Generator: Adobe Illustrator 18.1.1, SVG Export Plug-In . SVG Version: 6.00 Build 0)  -->
<svg version="1.1" id="Layer_1" xmlns="http://www.w3.org/2000/svg" xmlns:xlink="http://www.w3.org/1999/xlink" x="0px" y="0px"
	 viewBox="0 0 32 32" enable-background="new 0 0 32 32" xml:space="preserve">
<g>
	<path fill="#34679A" d="M9.9,15.3C9.9,15.3,9.9,15.3,9.9,15.3c-0.5,0-1-0.1-1.4,0c-1.7,0.2-3.5,0.4-4.6,1.9c-1.5,2-1.8,4.1-0.7,6.3
		c1.1,2.2,2.9,3.2,5.3,3.3c1.5,0,2.9,0.1,4.4,0c2.7-0.1,5-1.3,6.6-3.5c0.8-1.1,1.5-2.3,1.9-3.6c0.3-0.9,0.7-1.2,1.7-1.2
		c0.8,0.1,1.7,0,2.5,0c0.3,0,0.7,0,0.8-0.4c0.1-0.8,0.3-1.8-0.1-2.5c-0.3-0.6-1.1-0.2-1.7-0.3c-0.2,0-0.4,0-0.6,0
		c-0.6,0-0.8-0.1-0.5-0.7c0.7-1.5,1.7-2.7,3.4-3.3c0.6-0.2,1.4,0.1,1.7-0.6c0.2-0.6,0.1-1.3,0.1-2c0-0.3,0-0.6,0-1
		c0-0.4-0.2-0.6-0.6-0.6c-2.1,0.2-4,0.7-5.3,2.4c-1.4,1.8-2.4,3.9-3.2,6.2c-0.7,2-1.4,4.1-2.8,5.8c-0.7,0.8-1.5,1.4-2.5,1.5
		c-2.1,0.4-4.2,0.2-6.3-0.2c-1.1-0.2-1.7-1-1.6-2c0-1.1,0.7-1.9,1.8-2.2c1.1-0.3,2.2-0.2,3.3-0.2c0.6,0,0.9-0.3,0.9-0.9
		c0-2.7,0.2-2.3-2.2-2.3C10.2,15.3,10,15.3,9.9,15.3z"/>
</g>
</svg>
