<?xml version="1.0" encoding="utf-8"?>
<!-- Generator: Adobe Illustrator 18.1.1, SVG Export Plug-In . SVG Version: 6.00 Build 0)  -->
<svg version="1.1" id="Layer_1" xmlns="http://www.w3.org/2000/svg" xmlns:xlink="http://www.w3.org/1999/xlink" x="0px" y="0px"
	 viewBox="0 0 32 32" enable-background="new 0 0 32 32" xml:space="preserve">
<path fill="#40535B" d="M24.8,16.5c-0.4-0.1-0.8-0.3-1.1-0.4c0-0.7-0.1-1.3-0.1-2c0-0.1,0.1-0.1,0.1-0.2c0.4-0.2,0.7-0.3,1.1-0.5
	c0.4-0.2,0.5-0.6,0.4-1c-0.3-0.7-0.6-1.3-0.9-2c-0.2-0.4-0.6-0.6-1-0.4c-0.4,0.2-0.7,0.3-1.1,0.5c-0.1,0-0.2,0-0.2-0.1
	c-0.2-0.3-0.5-0.5-0.7-0.7c-0.2-0.2-0.5-0.4-0.7-0.6c0.2-0.4,0.3-0.8,0.5-1.2c0.2-0.5,0-0.9-0.5-1.1c-0.6-0.2-1.3-0.5-1.9-0.7
	c-0.5-0.2-0.9,0-1.1,0.5c-0.1,0.4-0.3,0.8-0.4,1.1c-0.7,0-1.3,0.1-2,0.1c-0.1,0-0.1-0.1-0.2-0.1c-0.2-0.4-0.3-0.7-0.5-1.1
	c-0.2-0.4-0.6-0.5-1-0.4c-0.7,0.3-1.3,0.6-2,0.9c-0.4,0.2-0.6,0.6-0.4,1c0.2,0.4,0.3,0.7,0.5,1.1c0,0.1,0,0.2-0.1,0.2
	c-0.2,0.2-0.4,0.3-0.5,0.5c-0.3,0.3-0.5,0.6-0.8,0.9c-0.4-0.1-0.8-0.3-1.1-0.4c-0.5-0.2-0.9,0-1.1,0.5c-0.2,0.6-0.5,1.2-0.7,1.9
	c-0.2,0.6-0.1,0.9,0.5,1.1c0.4,0.1,0.8,0.3,1.1,0.4c0,0.7,0.1,1.3,0.1,2c0,0.1-0.1,0.1-0.1,0.2c-0.4,0.2-0.7,0.3-1.1,0.5
	c-0.4,0.2-0.5,0.6-0.4,1c0.3,0.7,0.6,1.3,0.9,2c0.2,0.4,0.6,0.6,1,0.4c0.4-0.2,0.7-0.3,1.1-0.5c0.1,0,0.2,0,0.2,0.1
	c0.2,0.3,0.5,0.5,0.7,0.7c0.2,0.2,0.5,0.4,0.7,0.6c-0.2,0.4-0.3,0.8-0.5,1.2c-0.2,0.5,0,0.9,0.5,1.1c0.6,0.2,1.2,0.5,1.9,0.7
	c0.6,0.2,0.9,0.1,1.1-0.5c0.1-0.4,0.3-0.8,0.4-1.1c0.7,0,1.3-0.1,2-0.1c0.1,0,0.1,0.1,0.2,0.1c0.2,0.4,0.3,0.7,0.5,1.1
	c0.2,0.4,0.6,0.5,1,0.4c0.7-0.3,1.3-0.6,2-0.9c0.4-0.2,0.6-0.6,0.4-1c-0.2-0.4-0.3-0.7-0.5-1.1c0-0.1,0-0.2,0.1-0.2
	c0.3-0.2,0.5-0.5,0.7-0.7c0.2-0.2,0.4-0.5,0.6-0.7c0,0,0,0,0,0c0.4,0.1,0.8,0.3,1.1,0.4c0.5,0.2,0.9,0,1.1-0.5
	c0.2-0.6,0.5-1.2,0.7-1.9C25.6,17.1,25.4,16.8,24.8,16.5L24.8,16.5z M17.8,18.7c-1.9,0.8-4,0-4.9-1.9c-0.8-1.9,0-4,1.9-4.9
	c1.9-0.8,4,0,4.9,1.9C20.5,15.6,19.7,17.8,17.8,18.7z"/>
</svg>
