<?xml version="1.0" encoding="utf-8"?>
<!-- Generator: Adobe Illustrator 18.1.1, SVG Export Plug-In . SVG Version: 6.00 Build 0)  -->
<svg version="1.1" id="Layer_1" xmlns="http://www.w3.org/2000/svg" xmlns:xlink="http://www.w3.org/1999/xlink" x="0px" y="0px"
	 viewBox="0 0 32 32" enable-background="new 0 0 32 32" xml:space="preserve">
<g>
	<path fill-rule="evenodd" clip-rule="evenodd" fill="#9F74B3" d="M17.1,19.3c-0.5,0-0.8,0.1-1.1,0.1c-0.5,0-1.1,0-1.8,0
		c0.4-4.3,0.7-8.5,1.1-12.8c1.2,0,2.2-0.1,3.2,0c0.3,0,0.7,0.5,0.6,0.8c-0.3,2.3-0.8,4.7-1.2,7C17.7,16,17.4,17.6,17.1,19.3z"/>
	<path fill-rule="evenodd" clip-rule="evenodd" fill="#9F74B3" d="M17.5,23.3c0.1,1.1-0.8,2.1-2.1,2.2c-1.3,0.1-2.5-0.7-2.6-1.8
		c-0.1-1.2,0.8-2.1,2.2-2.2C16.4,21.4,17.4,22.1,17.5,23.3z"/>
</g>
</svg>
