<?xml version="1.0" encoding="utf-8"?>
<!-- Generator: Adobe Illustrator 18.1.1, SVG Export Plug-In . SVG Version: 6.00 Build 0)  -->
<svg version="1.1" id="Layer_1" xmlns="http://www.w3.org/2000/svg" xmlns:xlink="http://www.w3.org/1999/xlink" x="0px" y="0px"
	 viewBox="0 0 32 32" enable-background="new 0 0 32 32" xml:space="preserve">
<path fill="#84D4F3" d="M22.4,18.2c0.1,1.1,0.2,2.1,0.2,3.2c0,1.3-0.7,2.2-1.7,2.3c-0.5,0.1-1.1,0-1.6-0.2c-1-0.5-1.9-1.2-2.9-1.8
	c-0.5,0.4-1,0.8-1.6,1.2c-0.3,0.2-0.7,0.4-1,0.5c-1.8,0.8-3.3-0.1-3.4-2.1c0-1,0.1-2.1,0.2-3.2C10,18,9.3,17.8,8.7,17.4
	c-0.6-0.3-1.1-0.7-1.6-1.2c-0.9-0.9-0.8-2,0.1-2.9c0.8-0.9,1.9-1.3,3-1.7c0.1,0,0.3-0.1,0.4-0.1c-0.1-0.7-0.2-1.5-0.3-2.2
	c0-0.6,0.1-1.3,0.2-1.9c0.3-1.1,1.3-1.6,2.5-1.3c1.2,0.3,2.1,1,2.9,1.7c0.2,0.1,0.3,0.3,0.4,0.4c0.8-0.6,1.6-1.2,2.5-1.7
	c0.6-0.4,1.3-0.6,2-0.4c1,0.2,1.6,1.1,1.7,2.4c0,0.5,0,1,0,1.6c0,0.5-0.2,1-0.3,1.6c0.6,0.2,1.1,0.4,1.7,0.7
	c0.8,0.4,1.6,0.8,2.1,1.6c0.5,0.7,0.5,1.5,0,2.2c-0.5,0.8-1.3,1.2-2.1,1.6C23.5,17.8,22.9,18,22.4,18.2z M16.6,18.1
	c0.3,0,0.8-0.1,1.2-0.1c0.3,0,0.5-0.1,0.7-0.4c0.5-0.8,1-1.6,1.4-2.5c0.1-0.2,0.1-0.5,0-0.6c-0.5-0.9-1-1.7-1.5-2.5
	c-0.1-0.2-0.3-0.3-0.5-0.3c-0.9,0-1.7,0-2.6-0.1c-0.5,0-0.9,0.2-1.2,0.7c-0.2,0.3-0.4,0.6-0.6,1c-1.1,2-1.1,1.2,0,3.2
	C14.8,18.4,14.1,18,16.6,18.1z M10.8,17.4c0.3-0.8,0.6-1.6,0.9-2.3c0-0.1,0-0.3,0-0.4c-0.3-0.8-0.6-1.5-0.9-2.3
	c-1,0.3-2,0.7-2.8,1.3c-0.9,0.7-0.9,1.6,0,2.3C8.8,16.7,9.8,17.1,10.8,17.4z M22.1,12.2c-0.4,0.9-0.7,1.7-1,2.5c0,0.1-0.1,0.2,0,0.2
	c0.3,0.8,0.6,1.6,1,2.6c0.9-0.5,1.9-0.9,2.7-1.4c1.1-0.7,1.1-1.7,0-2.4C24,13.1,23.1,12.7,22.1,12.2z M11.5,11.2
	c0.9-0.1,1.7-0.2,2.5-0.4c0.1,0,0.2-0.1,0.2-0.1c0.5-0.7,1-1.3,1.6-2c-0.8-0.7-1.6-1.4-2.6-1.8c-1.1-0.4-1.8,0-2,1.2
	C11,9.1,11.3,10.2,11.5,11.2z M21.4,11.2c0-0.1,0.1-0.3,0.1-0.4c0.2-1,0.4-2.1,0-3.1c-0.2-0.7-0.7-1-1.3-0.9C18.9,7,18,7.9,17.1,8.7
	c0.5,0.7,1,1.3,1.5,1.9c0.1,0.1,0.2,0.2,0.3,0.3C19.8,11,20.6,11.1,21.4,11.2z M11.5,18.5c-0.2,1.1-0.5,2.1-0.2,3.2
	c0.2,1,0.9,1.4,1.9,1.1c1.1-0.3,1.9-1.1,2.7-1.8c-0.5-0.7-1-1.3-1.6-2c-0.1-0.1-0.2-0.2-0.3-0.2C13.1,18.7,12.3,18.6,11.5,18.5z
	 M17.1,20.9c0.6,0.8,1.8,1.6,2.6,1.9c1,0.3,1.7,0,1.9-1.1c0.2-1.1,0-2.1-0.2-3.2c-0.9,0.1-1.8,0.1-2.6,0.4c-0.6,0.3-0.9,1-1.3,1.5
	C17.4,20.6,17.3,20.8,17.1,20.9z M17.6,10.8c-0.4-0.5-0.8-0.9-1.2-1.4c-0.4,0.5-0.7,0.9-1.2,1.4C16.1,10.8,16.8,10.8,17.6,10.8z
	 M17.6,18.9c-0.8,0-1.5,0-2.3,0c0.4,0.5,0.8,0.9,1.2,1.4C16.9,19.9,17.2,19.5,17.6,18.9z M13.5,17.9c-0.4-0.7-0.8-1.3-1.2-2.1
	c-0.2,0.6-0.4,1.1-0.6,1.7C12.3,17.7,12.9,17.8,13.5,17.9z M20.6,15.9c-0.4,0.7-0.8,1.4-1.2,2.1c0.7-0.1,1.2-0.2,1.8-0.3
	C21,17,20.8,16.5,20.6,15.9z M12.3,13.8c0.4-0.7,0.8-1.4,1.2-2.1c-0.7,0.1-1.2,0.2-1.8,0.3C11.9,12.7,12.1,13.2,12.3,13.8z
	 M19.4,11.8c0.2,0.4,0.4,0.7,0.6,1c0.2,0.3,0.4,0.6,0.6,1c0.2-0.6,0.4-1.2,0.6-1.7C20.6,12,20.1,11.9,19.4,11.8z"/>
</svg>
