<?xml version="1.0" encoding="utf-8"?>
<!-- Generator: Adobe Illustrator 18.1.1, SVG Export Plug-In . SVG Version: 6.00 Build 0)  -->
<svg version="1.1" id="Layer_1" xmlns="http://www.w3.org/2000/svg" xmlns:xlink="http://www.w3.org/1999/xlink" x="0px" y="0px"
	 viewBox="0 0 32 32" enable-background="new 0 0 32 32" xml:space="preserve">
<path fill="#8CC148" d="M25.1,3.2c-0.2,0-0.5,0.1-0.7,0.2c-0.9,0.3-1.5,1-2.1,1.7c-1.2,1.3-2.2,2.8-3,4.4c-1.1,1.9-1.9,3.9-2.5,6
	c-0.2,0.8-0.4,1.7-0.4,2.6c0,0.5,0.4,0.8,0.8,0.7c0.9-0.1,1.4-0.8,1.9-1.4c0,0,0-0.2,0-0.3c-0.3,0.3-0.6,0.6-0.9,0.8
	c-0.3,0.2-0.5,0.1-0.5-0.2c0-0.3,0-0.6,0-1c0-1.2,0.3-2.4,0.7-3.5c0.4-1.1,0.8-2.2,1.3-3.2c0.7-1.5,1.6-3,2.8-4.2
	C23,5,23.7,4.5,24.7,4.4c0.5,0,0.8,0.1,0.9,0.5c0,0.1,0.1,0.1,0.1,0.1c0,0,0.1-0.1,0.2-0.1c0.1-0.3,0.2-0.6,0.2-0.9
	C26.1,3.6,25.6,3.1,25.1,3.2L25.1,3.2z M15.1,13.3c-0.7,0-1.8,0.8-2.1,1.4c0,0.1,0,0.1,0,0.2c0.1,0,0.1,0,0.2-0.1
	c0.1-0.1,0.2-0.3,0.4-0.4c0.2-0.2,0.4-0.4,0.7-0.3c0.3,0.1,0.3,0.5,0.2,0.7C14.4,16,14.2,17,14,18.1c-0.4,1.5-0.9,3-1.6,4.3
	c-0.8,1.6-1.7,3-3,4.2c-0.6,0.5-1.3,1-2.1,1c-0.5,0-0.7-0.1-0.8-0.6c0-0.1-0.1-0.1-0.2-0.2c-0.3,0.4-0.4,0.8-0.3,1.3
	c0.1,0.4,0.3,0.7,0.6,0.7c0.4,0,0.8-0.1,1.1-0.2c0.7-0.2,1.2-0.8,1.7-1.3c1.2-1.2,2.2-2.6,3-4.1c1.3-2.2,2.3-4.5,3-7
	c0.2-0.8,0.4-1.5,0.3-2.3C15.7,13.6,15.4,13.3,15.1,13.3L15.1,13.3z"/>
</svg>
