<?xml version="1.0" encoding="utf-8"?>
<!-- Generator: Adobe Illustrator 18.1.1, SVG Export Plug-In . SVG Version: 6.00 Build 0)  -->
<svg version="1.1" id="Layer_1" xmlns="http://www.w3.org/2000/svg" xmlns:xlink="http://www.w3.org/1999/xlink" x="0px" y="0px"
	 viewBox="0 0 32 32" enable-background="new 0 0 32 32" xml:space="preserve">
<path fill="#F0592B" d="M24.9,15.5c-0.3-0.1-0.6-0.3-1-0.4c-1.7-0.5-3.5-0.7-5.2-1c-0.3,0-0.6-0.1-0.9-0.1c0.1-0.5,0.3-0.7,0.9-0.8
	c0.1,0.1,0.1,0.3,0.2,0.4c0,0.1,0.1,0.2,0.2,0.1c0.2,0,0.5,0,0.7,0c1.2-0.2,2-0.8,2.4-1.9c0.1-0.4,0.2-0.8,0.3-1.1
	c0.1-0.8,0.4-1.6,1-2.2c0.1-0.1,0.1-0.1,0.2-0.2c-1.3-0.4-3.8,0.5-4.7,2.5c-0.2-0.1-0.5-0.1-0.7-0.2c-0.1,0-0.2-0.1-0.2-0.2
	c-0.4-1.1-1.1-2-2.2-2.6c-0.8-0.4-1.8-0.5-2.7-0.4c-2,0.3-3.7,1.2-5,2.8c-1.3,1.6-1.8,3.5-1.7,5.5c0.1,2.1,0.8,4,2,5.7
	c0.4,0.6,1,1.2,1.6,1.6c0.7,0.4,1.5,0.4,2.1-0.2c0.1-0.1,0.2-0.3,0.3-0.4c0,0.1,0.1,0.1,0.1,0.2c0.2,0.4,0.3,0.9,0.5,1.3
	c0.2,0.4,0.9,0.7,1.3,0.5c0.1-0.1,0.2-0.1,0.3,0c0.4,0.2,0.8,0.2,1.2,0c0.2-0.1,0.3-0.3,0.5-0.3c0.2-0.1,0.4,0,0.6,0
	c0.5-0.1,0.9-0.3,1-0.9c0,0,0-0.1,0.1-0.1c0.2-0.1,0.4-0.3,0.4-0.5c0.1-0.3,0.1-0.6,0-0.9c-0.3-0.5-0.6-1.1-0.9-1.6
	c0,0-0.1-0.1-0.1-0.1c0.3,0.1,0.6,0.2,0.9,0.3c0.5,0.1,0.9,0.1,1.3-0.3c0.1,0,0.1,0.1,0.2,0.1c0.8,0.5,1.8,0.3,2.4-0.4
	c0.1,0,0.2,0,0.2,0c0.6,0.1,1.1,0,1.6-0.4c0.2-0.2,0.4-0.4,0.4-0.7c0,0,0-0.1,0-0.1c0.9-0.1,1.4-0.5,1.4-1.4
	C25.7,16.3,25.5,15.8,24.9,15.5L24.9,15.5z M20.6,12.9c-0.4,0.2-0.8,0.3-1.3,0.3c0,0-0.1,0-0.1-0.1c-0.1-0.2-0.1-0.4-0.2-0.6
	c0-0.1,0-0.1,0.1-0.1c0.3,0,0.4,0,0.4,0.4c0,0,0,0,0,0c0.2-0.3,0.2-0.3,0.5-0.2c0.2,0.1,0.4,0.1,0.6,0.2
	C20.7,12.9,20.7,12.9,20.6,12.9L20.6,12.9z M19.4,10.9c0.4-0.7,0.9-1.2,1.5-1.6c0.5-0.3,1-0.5,1.6-0.5c-0.1,0.1-0.2,0.2-0.3,0.4
	c-0.3,0.4-0.3,0.9-0.4,1.3c-0.1,0.5-0.2,1-0.4,1.5c0,0.2-0.2,0.3-0.2,0.4c-0.3-0.3-0.6-0.5-0.9-0.8c0,0,0-0.1,0-0.2
	c0.4-0.7,0.8-1.4,1.4-2c0,0,0,0,0,0c-0.9,0.4-1.3,1.1-1.8,1.9c-0.2-0.1-0.3-0.2-0.5-0.3C19.3,11.1,19.4,11,19.4,10.9L19.4,10.9z
	 M16.8,12.5C16.8,12.5,16.8,12.5,16.8,12.5c0-0.5,0.1-0.9,0.4-1.3c0-0.1,0.2-0.1,0.2-0.1c0.9,0.1,1.7,0.4,2.5,1
	c0.2,0.1,0.3,0.3,0.5,0.4c-0.2-0.1-0.5-0.1-0.7-0.2c-0.5-0.1-1.1-0.1-1.6,0.1C17.7,12.6,17.2,12.6,16.8,12.5L16.8,12.5
	C16.8,12.5,16.8,12.5,16.8,12.5c0.3,0.3,0.6,0.3,0.9,0.2c0.3,0,0.5-0.1,0.8-0.2c0,0,0,0,0,0c0,0.1-0.1,0.2-0.1,0.2
	C18,13,17.5,13.2,17,13.4c0,0,0,0-0.1,0C16.8,13.1,16.8,12.8,16.8,12.5C16.8,12.5,16.8,12.5,16.8,12.5z M13.8,10.2
	c0.9,0,1.7,0.8,1.7,1.7c0,0.9-0.8,1.7-1.7,1.7c-0.9,0-1.7-0.8-1.7-1.7C12.1,10.9,12.9,10.2,13.8,10.2L13.8,10.2z M18.3,16.1
	c0.4,0.1,0.9,0.2,1.3,0.2c0.6,0.1,1.1,0.2,1.7,0.3c0.2,0,0.3,0.1,0.1,0.3c-0.2,0.3-0.7,0.5-1.1,0.4c0,0-0.1,0-0.2,0
	c0.1,0.2,0,0.5-0.2,0.6c-0.3,0.3-0.6,0.4-1,0.4c-0.2,0-0.5-0.1-0.7-0.1c-0.1,0.6-1.2,0.8-1.8,0.3c0.1,0.3,0.2,0.6,0.3,0.9
	c0,0.1,0,0.2,0,0.3c-0.2,1.4-1.4,2.5-2.8,2.6c-1.4,0.1-2.7-0.3-3.9-1.1c-1.1-0.7-1.9-1.6-2.4-2.7c0-0.1-0.1-0.1-0.1-0.2
	c0.4,0.1,0.8,0.2,1.1,0.3c0.7,0.1,1.4,0.1,2.1-0.4c0.1,0,0.2,0,0.2,0c0.7,0.2,1.4,0.3,2.1,0.2c1.1-0.2,1.9-0.8,2.6-1.6
	c0.3-0.3,0.5-0.7,0.7-1.1c0.2-0.3,0.4-0.5,0.6-0.7c0,0,0.1,0,0.2,0c0.8,0.1,1.6,0.2,2.4,0.3c1.1,0.2,2.1,0.4,3.2,0.6
	c0,0,0.1,0,0.1,0.1C21.5,16,19.9,16.2,18.3,16.1L18.3,16.1z M13.8,12.9c0.6,0,1-0.4,1-1c0-0.6-0.5-1-1-1c-0.6,0-1,0.5-1,1
	C12.8,12.4,13.2,12.9,13.8,12.9z M13.3,11.2c0.1-0.1,0.3-0.1,0.5-0.2c0.2,0.1,0.3,0.1,0.5,0.2c0.2,0.1,0.2,0.3,0,0.5
	c-0.2,0.2-0.7,0.2-1,0C13.1,11.5,13.1,11.3,13.3,11.2L13.3,11.2z"/>
</svg>
