<?xml version="1.0" encoding="utf-8"?>
<!-- Generator: Adobe Illustrator 18.1.1, SVG Export Plug-In . SVG Version: 6.00 Build 0)  -->
<svg version="1.1" id="Layer_1" xmlns="http://www.w3.org/2000/svg" xmlns:xlink="http://www.w3.org/1999/xlink" x="0px" y="0px"
	 viewBox="0 0 32 32" enable-background="new 0 0 32 32" xml:space="preserve">
<path fill="#CD3631" d="M4.8,11.6c0,2.5,0,5,0,7.5c1.8,0,3.6,0,5.5,0c0.2,0,0.5,0,0.8,0c0,0.4,0,0.8,0,1.3c1.7,0,3.3,0,5,0
	c0-0.4,0-0.8,0-1.2c3.7,0,7.4,0,11.2,0c0-0.1,0-0.2,0-0.3c0-2.3,0-4.6,0-7c0-0.1,0-0.2,0-0.3C19.7,11.6,12.3,11.6,4.8,11.6z
	 M11,17.9c-0.4,0-0.8,0-1.2,0c0-1.2,0-2.5,0-3.7c-0.4,0-0.8,0-1.2,0c0,1.2,0,2.4,0,3.7c-0.8,0-1.6,0-2.5,0c0-1.6,0-3.3,0-5
	c1.7,0,3.3,0,5,0C11,14.5,11,16.2,11,17.9z M17.3,17.9c-0.8,0-1.6,0-2.5,0c0,0.4,0,0.8,0,1.3c-0.9,0-1.7,0-2.5,0c0-2.1,0-4.1,0-6.2
	c1.6,0,3.3,0,5,0C17.3,14.5,17.3,16.2,17.3,17.9z M26,17.8c-0.4,0-0.8,0-1.2,0c0-1.2,0-2.4,0-3.7c-0.4,0-0.8,0-1.2,0
	c0,1.2,0,2.5,0,3.7c-0.4,0-0.8,0-1.3,0c0-1.2,0-2.5,0-3.7c-0.4,0-0.8,0-1.2,0c0,1.2,0,2.5,0,3.7c-0.8,0-1.6,0-2.5,0c0-1.7,0-3.3,0-5
	c2.5,0,5,0,7.5,0C26,14.6,26,16.2,26,17.8L26,17.8z M16,14.2c-0.4,0-0.8,0-1.2,0c0,0.8,0,1.6,0,2.4c0.4,0,0.8,0,1.2,0
	C16,15.8,16,15,16,14.2z"/>
</svg>
