<?xml version="1.0" encoding="utf-8"?>
<!-- Generator: Adobe Illustrator 18.1.1, SVG Export Plug-In . SVG Version: 6.00 Build 0)  -->
<svg version="1.1" id="Layer_1" xmlns="http://www.w3.org/2000/svg" xmlns:xlink="http://www.w3.org/1999/xlink" x="0px" y="0px"
	 viewBox="0 0 32 32" enable-background="new 0 0 32 32" xml:space="preserve">
<path fill="#529BBA" d="M8.4,15.2c1.4,0,1.5-0.7,1.5-1.3c0-0.5-0.1-1-0.1-1.5s-0.1-1.1-0.1-1.6c0-1.8,1.2-2.7,3-2.7h0.7v1.7H13
	c-0.9,0-1.2,0.5-1.2,1.4c0,0.4,0.1,0.7,0.1,1.1c0,0.4,0.1,0.8,0.1,1.3c0,1.5-0.6,2-1.7,2.3v0c1.1,0.2,1.7,0.8,1.7,2.3
	c0,0.5-0.1,1-0.1,1.4c0,0.4-0.1,0.8-0.1,1.1c0,0.9,0.3,1.4,1.2,1.4h0.4v1.6h-0.7c-1.7,0-3-0.7-3-2.7c0-0.5,0-1,0.1-1.6
	c0.1-0.5,0.1-1,0.1-1.5c0-0.5-0.1-1.3-1.5-1.3L8.4,15.2L8.4,15.2z M23.6,16.7c-1.3,0-1.5,0.8-1.5,1.3c0,0.5,0.1,1,0.1,1.5
	c0.1,0.5,0.1,1.1,0.1,1.6c0,2-1.2,2.7-3,2.7h-0.7v-1.6H19c0.9,0,1.2-0.5,1.2-1.4c0-0.3,0-0.7-0.1-1.1c0-0.4-0.1-0.9-0.1-1.4
	c0-1.5,0.6-2.1,1.7-2.3v0c-1.1-0.2-1.7-0.8-1.7-2.3c0-0.5,0.1-0.9,0.1-1.3c0.1-0.4,0.1-0.8,0.1-1.1c0-0.9-0.3-1.4-1.2-1.4h-0.4V8.2
	h0.7c1.8,0,3,0.8,3,2.6c0,0.5-0.1,1-0.1,1.6s-0.1,1-0.1,1.5c0,0.6,0.2,1.3,1.5,1.3L23.6,16.7L23.6,16.7z"/>
</svg>
