<?xml version="1.0" encoding="utf-8"?>
<!-- Generator: Adobe Illustrator 18.1.1, SVG Export Plug-In . SVG Version: 6.00 Build 0)  -->
<svg version="1.1" id="Layer_1" xmlns="http://www.w3.org/2000/svg" xmlns:xlink="http://www.w3.org/1999/xlink" x="0px" y="0px"
	 viewBox="0 0 32 32" enable-background="new 0 0 32 32" xml:space="preserve">
<path fill="#FAA91B" d="M22.6,16.5c0.4-0.2,0.9-0.4,1.3-0.7c0.9-0.6,0.9-1.7,0-2.2c-0.2-0.1-0.3-0.3-0.4-0.6c-0.1-0.6,0-1.1,0.3-1.6
	c0.7-1,0.2-1.9-1.1-2c0,0-0.1,0-0.1,0c0,0-0.1-0.1-0.1-0.1c-0.1-0.5-0.2-0.9,0.4-1.3c0.3-0.2,0.6-0.3,0.9-0.4
	c0.2-0.1,0.4-0.1,0.5-0.1c0-0.1-0.1-0.1-0.1-0.1c-0.7-0.8-1.7-1-2.7-0.9c-1.2,0.1-2,0.7-2.7,1.5c-0.1,0.2-0.3,0.2-0.5,0.1
	c-0.2-0.1-0.2-0.2-0.2-0.3c0-0.2,0.1-0.4,0.1-0.6c0.1-0.2,0.2-0.4,0.3-0.6c-0.6,0-1,0.3-1.5,0.6c-0.3-0.5-0.3-0.9-0.1-1.4
	c-0.9,0.3-1.5,0.7-1.7,1.6c-0.4-0.3-0.3-0.7-0.3-1.1c-0.1,0-0.1,0-0.1,0c-0.1,0-0.1,0.1-0.2,0.1c-0.5,0.4-0.8,0.9-0.9,1.5
	c0,0.1-0.1,0.2-0.1,0.3c-0.1-0.1-0.2-0.1-0.3-0.2c-0.4-0.3-0.8-0.7-1.2-1c-1.2-0.7-2.4-0.7-3.6-0.1C8.1,7.2,7.9,7.4,7.7,7.6
	C8.1,7.8,8.5,7.8,8.9,8c0.7,0.3,0.9,0.7,0.6,1.5c-0.2,0-0.4,0.1-0.6,0.1c-0.7,0.2-1,0.7-0.9,1.3c0.1,0.3,0.3,0.6,0.4,0.9
	c0,0.1,0.1,0.2,0.1,0.3c0,0.3,0,0.7,0,1c0,0.2-0.2,0.4-0.4,0.6c-0.2,0.2-0.5,0.4-0.6,0.7c-0.3,0.5,0,1.1,0.5,1.5
	c0.4,0.3,0.8,0.5,1.3,0.7c0.6,0.3,0.8,0.7,0.8,1.2c0,0.6,0,1.1-0.1,1.7c0,0.2-0.1,0.5-0.1,0.8c-0.6-0.5-1-1-1.1-1.7
	c-0.6,0.5-0.9,1-0.9,1.6c-0.2,1.3,0.3,2.7,2,3.3c0.1,0,0.2,0.1,0.3,0.2c0.6,1,1.5,1.6,2.8,1.8c0.1,0,0.2,0,0.2,0.1
	c1.1,0.7,2.3,0.8,3.5,0.7c0.7-0.1,1.3-0.2,1.9-0.6c0.1-0.1,0.3-0.1,0.4-0.2c1.2-0.2,2.1-0.8,2.7-1.7c0.1-0.1,0.2-0.2,0.3-0.3
	c0.6-0.2,1.1-0.5,1.4-1c0.5-0.7,0.6-1.6,0.5-2.4c-0.1-0.6-0.4-1-0.9-1.5c-0.2,0.7-0.5,1.2-1.1,1.7c-0.1-0.9-0.1-1.8-0.1-2.7
	C21.8,17.1,22.1,16.7,22.6,16.5L22.6,16.5z M14,21.9c0.7,0,1.3,0,2,0c0.9,0,1.8,0,2.7,0c-0.9,0-1.8,0-2.7,0
	C15.3,21.9,14.7,21.9,14,21.9L14,21.9z"/>
</svg>
