<?xml version="1.0" encoding="utf-8"?>
<!-- Generator: Adobe Illustrator 18.1.1, SVG Export Plug-In . SVG Version: 6.00 Build 0)  -->
<svg version="1.1" id="Layer_1" xmlns="http://www.w3.org/2000/svg" xmlns:xlink="http://www.w3.org/1999/xlink" x="0px" y="0px"
	 viewBox="0 0 32 32" enable-background="new 0 0 32 32" xml:space="preserve">
<path fill="#F79451" d="M7.5,6.5c9.7-0.2,17.3,8.3,17,17c-1.2,0-2.3,0-3.5,0c-0.1-3.7-1.4-6.9-4-9.5s-5.8-3.9-9.5-4
	C7.5,8.9,7.5,7.7,7.5,6.5z M19,23.5c-1.2,0-2.4,0-3.6,0c-0.1-0.7-0.2-1.4-0.4-2.1c-1-3.2-3.1-5.1-6.4-5.7c-0.3-0.1-0.6-0.1-0.9-0.1
	c-0.2,0-0.3-0.1-0.3-0.3c0-1.1,0-2.2,0-3.4c2.8,0,5.3,0.9,7.4,2.7C17.6,17,18.9,19.9,19,23.5z M12.2,21.1c0,1.3-1.1,2.4-2.4,2.4
	c-1.3,0-2.4-1.1-2.4-2.4c0-1.4,1-2.4,2.4-2.4C11.2,18.8,12.2,19.8,12.2,21.1L12.2,21.1z"/>
</svg>
