<?xml version="1.0" encoding="utf-8"?>
<!-- Generator: Adobe Illustrator 18.1.1, SVG Export Plug-In . SVG Version: 6.00 Build 0)  -->
<svg version="1.1" id="Layer_1" xmlns="http://www.w3.org/2000/svg" xmlns:xlink="http://www.w3.org/1999/xlink" x="0px" y="0px"
	 viewBox="0 0 32 32" enable-background="new 0 0 32 32" xml:space="preserve">
<g>
	<path fill="#41535B" d="M22.9,10.3c0.1-0.2,0.2-0.4,0.2-0.6C23,9.3,22.8,9.1,22.5,9c-0.3-0.1-0.6,0-0.9,0.2c-0.7,0.7-1.3,1.3-2,2
		c-0.1,0.1-0.2,0.1-0.4,0.1c-2.3-0.9-4.5-0.9-6.8,0.1c-2.3,1-4,2.7-5.3,4.7c-0.2,0.4-0.2,0.7,0.1,1c0.5,0.6,1.1,1.2,1.7,1.7
		c0.6,0.5,1.2,0.9,1.8,1.3c-0.1,0-0.1,0.1-0.2,0.1c-0.5,0.5-1,0.9-1.4,1.4c-0.2,0.2-0.3,0.5-0.2,0.9c0.1,0.3,0.3,0.5,0.7,0.6
		c0.3,0,0.6-0.1,0.8-0.3c4.1-4.1,8.2-8.2,12.4-12.4C22.8,10.4,22.9,10.3,22.9,10.3z M12.1,18.7c0,0-0.1,0-0.2,0
		c-1.1-0.6-2.1-1.3-3-2.3c1-1.3,2.2-2.5,3.7-3.3c-1,1.7-0.9,3.3,0.2,4.9C12.6,18.2,12.3,18.5,12.1,18.7z M16.6,13.2
		c-0.1,0.3-0.3,0.5-0.7,0.5c-0.9,0-1.6,0.6-1.7,1.5c0,0.1,0,0.2,0,0.3c0,0.4-0.3,0.6-0.6,0.6c-0.4,0-0.6-0.3-0.6-0.7
		c0-1.6,1.3-3,2.9-3C16.4,12.4,16.7,12.8,16.6,13.2z"/>
	<path fill="#41535B" d="M24.8,16c-0.5-0.6-1-1.3-1.5-1.9c-0.4-0.5-1-0.9-1.4-1.4c-0.4,0.4-0.8,0.8-1.2,1.2c0.9,0.7,1.7,1.5,2.4,2.5
		c-0.1,0.1-0.2,0.2-0.3,0.2c-0.3,0.3-0.6,0.6-0.9,0.8c-2,1.6-4.2,2.4-6.7,2.1c-0.2,0-0.3,0-0.4,0.1c-0.2,0.2-0.4,0.4-0.6,0.7
		c-0.2,0.2-0.4,0.4-0.6,0.6c0.1,0,0.1,0,0.1,0c1.4,0.3,2.9,0.4,4.3,0.1c2.8-0.5,5-2,6.8-4.1C25.1,16.7,25.1,16.4,24.8,16z"/>
</g>
</svg>
