<?xml version="1.0" encoding="utf-8"?>
<!-- Generator: Adobe Illustrator 18.1.1, SVG Export Plug-In . SVG Version: 6.00 Build 0)  -->
<svg version="1.1" id="Layer_1" xmlns="http://www.w3.org/2000/svg" xmlns:xlink="http://www.w3.org/1999/xlink" x="0px" y="0px"
	 viewBox="0 0 32 32" enable-background="new 0 0 32 32" xml:space="preserve">
<g>
	<path fill="#34679A" d="M10.8,14.5C10.8,14.5,10.8,14.5,10.8,14.5c-0.4,0-0.9-0.1-1.3,0c-1.6,0.2-3.2,0.3-4.2,1.7
		C3.9,18,3.6,20,4.6,22c1,2,2.7,2.9,4.9,3c1.3,0,2.7,0,4,0c2.5-0.1,4.5-1.2,6-3.2c0.8-1,1.4-2.1,1.8-3.3c0.3-0.8,0.7-1.1,1.5-1.1
		c0.8,0.1,1.5,0,2.3,0c0.3,0,0.7,0,0.7-0.4c0.1-0.8,0.3-1.6-0.1-2.3c-0.3-0.6-1-0.2-1.5-0.3c-0.2,0-0.3,0-0.5,0
		c-0.5,0-0.7-0.1-0.5-0.7c0.6-1.4,1.6-2.5,3.1-3c0.5-0.2,1.3,0,1.5-0.6C28.1,9.7,28,9,28,8.4c0-0.3,0-0.6,0-0.9
		C28,7.2,27.8,7,27.4,7c-1.9,0.2-3.7,0.7-4.9,2.2c-1.3,1.7-2.2,3.6-3,5.6c-0.7,1.9-1.3,3.8-2.6,5.3c-0.6,0.7-1.4,1.2-2.3,1.4
		c-1.9,0.3-3.8,0.2-5.7-0.2c-1-0.2-1.5-0.9-1.5-1.8c0-1,0.6-1.7,1.7-2c1-0.2,2-0.1,3-0.2c0.6,0,0.8-0.2,0.8-0.8c0-2.5,0.2-2.1-2-2.1
		C11,14.5,10.9,14.5,10.8,14.5z"/>
</g>
</svg>
