<?xml version="1.0" encoding="utf-8"?>
<!-- Generator: Adobe Illustrator 18.1.1, SVG Export Plug-In . SVG Version: 6.00 Build 0)  -->
<svg version="1.1" id="Layer_1" xmlns="http://www.w3.org/2000/svg" xmlns:xlink="http://www.w3.org/1999/xlink" x="0px" y="0px"
	 viewBox="0 0 32 32" enable-background="new 0 0 32 32" xml:space="preserve">
<path fill="#DBCD68" d="M18.7,12.8c-0.2-2.2-1.9-3.7-4.2-3.8c-0.5,0-1,0-1.5,0c-0.1-1.3,0.4-3.1,2.5-3.3c0.9-0.1,1.7,0.1,2.4,0.8
	c0.6,0.7,0.8,1.5,0.8,2.4c0,0.1,0,0.3,0.1,0.4c0.3,0.3,0.6,0.6,0.9,0.9c0.3-0.9,0.3-1.8,0.1-2.7c-0.5-1.8-2-2.9-3.9-3
	c-1.1,0-2.1,0.2-2.9,1c-1.4,1.3-1.9,4.2,0.1,6.1c0.3,0.3,0.7,0.5,1.1,0.7c0.5,0.2,0.9-0.2,0.9-0.6c0-0.4-0.2-0.7-0.7-0.8
	c-0.1,0-0.2-0.1-0.3-0.2c0,0,0-0.1,0-0.1c0.4-0.1,0.9,0,1.2,0.3c0.3,0.3,0.4,0.7,0.3,1.2c-0.2,0.7-0.8,1-1.6,0.8
	c-1.1-0.3-1.8-1-2.3-2c-0.1-0.3-0.3-0.6-0.4-0.9c-0.7,0.7-1.3,1.4-1.5,2.4c-0.4,1.8,0.1,3.3,1.4,4.5c0.1,0.1,0.2,0.2,0.1,0.4
	c-0.1,0.8-0.2,1.5-0.4,2.3c-0.3,1.7-0.5,3.3-0.8,5c-0.1,0.5-0.1,1.1,0,1.6c0.1,0.4,0.3,0.7,0.8,0.9c0.1-0.4,0.1-0.8,0.2-1.2
	c0.3-1.7,0.5-3.3,0.8-5c0.2-1,0.3-2.1,0.5-3.1c0-0.2,0.1-0.3,0.3-0.3c0.2,0,0.2,0.2,0.2,0.4c-0.1,1-0.3,2-0.5,2.9
	c-0.3,2.1-0.7,4.2-1,6.3c0,0.1,0.1,0.2,0.1,0.2c0.5,0,0.9,0.1,1.4,0.1c0.5,0,0.9-0.4,1.2-0.8c0.3-0.3,0.3-0.7,0.1-1.1
	c-0.1-0.1-0.2-0.2-0.2-0.3c-0.3-0.4-0.2-0.7,0.2-0.9c0.1-0.1,0.3-0.1,0.4-0.2c0.2-0.1,0.3-0.4,0.1-0.6c-0.3-0.3-0.5-0.6-0.8-0.8
	c-0.2-0.2-0.1-0.6,0.1-0.7c0.3-0.2,0.7-0.3,1-0.5c0.2-0.1,0.3-0.3,0.1-0.5c-0.1-0.1-0.2-0.2-0.3-0.4c-0.3-0.3-0.2-0.8,0.1-1
	c0.1-0.1,0.2-0.2,0.4-0.2c0.2-0.1,0.3-0.2,0.3-0.4c0-0.3,0.1-0.6,0.1-0.9c0-0.1,0.1-0.3,0.2-0.4c0.3-0.3,0.7-0.5,1.1-0.7
	C18.4,16,18.9,14.5,18.7,12.8L18.7,12.8z M22.3,24.2c0-0.2-0.1-0.4-0.4-0.4c-0.2,0-0.5,0-0.6-0.3c-0.1-0.3-0.1-0.6,0-0.9
	c0.2-0.4,0.1-0.7-0.4-0.8c-0.2,0-0.4-0.1-0.7-0.1c-0.2,0-0.3-0.1-0.3-0.3c0-0.2-0.1-0.4-0.1-0.6c0-0.3,0.2-0.5,0.4-0.7
	c0.2-0.3,0.2-0.4-0.1-0.6c-0.1-0.1-0.3-0.2-0.4-0.3c-0.4-0.2-0.4-0.4-0.2-0.8c0.1-0.1,0.2-0.2,0.2-0.3c0.2-0.2,0.2-0.4,0.1-0.6
	c-0.1-0.2-0.2-0.5-0.4-0.7c-0.1-0.2-0.1-0.4,0-0.6c0.8-1.6,1-3.2,0.3-4.9c-0.5-1.1-1.4-1.8-2.6-2.1c0,0-0.1,0.1-0.1,0.1
	c0.1,0.1,0.2,0.3,0.3,0.4c1.2,1,1.9,2.3,1.9,3.9c0,1.7-0.7,3.1-2.2,4.2c-0.2,0.1-0.3,0.3-0.2,0.5c0.4,1,0.7,1.9,1.1,2.9
	c0.8,1.9,1.6,3.7,2.4,5.6c0.1,0.1,0.1,0.2,0.3,0.2C21.8,26.4,22.5,25.3,22.3,24.2L22.3,24.2z M16.3,18.3c-0.1,0.4-0.1,0.7-0.2,1
	c0,0.2-0.1,0.4,0,0.6c0.7,1.7,1.4,3.5,2.1,5.2c0.2,0.5,0.5,1,1,1.4c0.2,0.1,0.4,0.2,0.5,0.3c0,0,0,0,0.1-0.1
	C18.7,23.9,17.5,21.1,16.3,18.3C16.3,18.3,16.3,18.3,16.3,18.3z"/>
</svg>
