<?xml version="1.0" encoding="utf-8"?>
<!-- Generator: Adobe Illustrator 18.1.1, SVG Export Plug-In . SVG Version: 6.00 Build 0)  -->
<svg version="1.1" id="Layer_1" xmlns="http://www.w3.org/2000/svg" xmlns:xlink="http://www.w3.org/1999/xlink" x="0px" y="0px"
	 viewBox="0 0 32 32" enable-background="new 0 0 32 32" xml:space="preserve">
<g>
	<path fill="#CD3F45" d="M16,25.5c-1.2-0.2-2.3-0.3-3.5-0.5c-1.5-0.3-2.9-0.9-4-2.1c-0.6-0.6-0.9-1.3-0.8-2.2
		c3.1,2.7,6.9,2.9,10.8,2.8c0,0.6,0,1.2,0,1.8c-0.3,0.1-0.6,0.2-1,0.3C17,25.5,16.5,25.5,16,25.5z"/>
	<path fill="#CD3F45" d="M15.7,9.9c1.1,1.9,2.1,3.8,3.2,5.7c-3.7,0.3-7.2,0.2-10.4-1.4c-0.7-0.4-1.4-0.9-1.9-1.5
		c-0.9-1-0.8-2.3,0.1-3.3c0.9-1,2-1.6,3.2-2c4.4-1.3,8.9-1.4,13.2,0.4C24,8.2,24.8,9,25.5,9.7c0.6,0.6,0.6,1.4,0.4,2.1
		c-0.1,0.4-0.3,0.6-0.8,0.5c-3-0.8-6-1.6-9-2.4C16,9.9,15.9,9.9,15.7,9.9z"/>
	<path fill="#CD3F45" d="M19.1,16.5c-0.1,0.9-0.1,1.6-0.2,2.4c0,0.2-0.3,0.4-0.4,0.4c-3.3-0.1-6.6-0.1-9.6-1.6
		C7.5,17,6.5,16,6.4,14.4c0-0.3-0.1-0.7-0.2-1.1c2.2,2.4,5,3,8,3.2C15.8,16.6,17.4,16.5,19.1,16.5z"/>
	<path fill="#CD3F45" d="M18.8,20.2c-0.1,0.8-0.1,1.6-0.2,2.4c-2.2,0.3-4.2,0.2-6.3-0.4c-1.2-0.4-2.4-0.9-3.5-1.5
		c-1.2-0.6-1.7-1.7-1.7-3.2C10.5,20.3,14.6,20.1,18.8,20.2z"/>
	<path fill="#CD3F45" d="M24.9,15.9c-2-0.7-3.9-1.3-5.8-2c-0.2-0.1-0.3-0.2-0.4-0.4c-0.4-0.7-0.9-1.5-1.4-2.4
		c0.6,0.2,1.1,0.3,1.6,0.4c2,0.6,4,1.2,6,1.7c0.4,0.1,0.5,0.3,0.4,0.6C25.2,14.5,25.1,15.1,24.9,15.9z"/>
	<path fill="#CD3F45" d="M19.8,15c1.6,0.6,3.3,1.2,5,1.8c-0.1,0.7-0.2,1.5-0.4,2.3c-1.6-0.6-3-1.2-4.4-1.8
		C19.9,16.5,19.9,15.8,19.8,15z"/>
	<path fill="#CD3F45" d="M24,22.5c-1.1-0.6-2.1-1-3.1-1.5c-1.3-0.6-1.3-0.6-1.1-2c0-0.2,0.1-0.5,0.1-0.8c1.4,0.6,2.7,1.1,4.1,1.7
		c0.1,0.1,0.3,0.3,0.2,0.4C24.2,20.9,24.1,21.6,24,22.5z"/>
</g>
</svg>
