<?xml version="1.0" encoding="utf-8"?>
<!-- Generator: Adobe Illustrator 18.1.1, SVG Export Plug-In . SVG Version: 6.00 Build 0)  -->
<svg version="1.1" id="Layer_1" xmlns="http://www.w3.org/2000/svg" xmlns:xlink="http://www.w3.org/1999/xlink" x="0px" y="0px"
	 viewBox="0 0 32 32" enable-background="new 0 0 32 32" xml:space="preserve">
<path fill="#CF6499" d="M18.3,17.5c-1.3,0.8-2.7,1.7-4,2.5c0.4,1,0.4,2.1,0.1,3.1c-0.6,1.8-1.9,2.8-3.7,3.1c-0.4,0.1-0.9,0-1.3-0.1
	C9,26,8.7,25.6,8.6,25.3c-0.4-1-0.3-1.9,0.3-2.7c0.4-0.5,0.9-1,1.5-1.4c0.6-0.5,1.4-0.8,2-1.3c0.1-0.1,0.2-0.1,0.4-0.2
	c-0.3-0.2-0.5-0.4-0.7-0.5c-0.9-0.6-1.8-1.3-2.6-2c-0.5-0.4-0.9-0.9-1.3-1.5c-0.7-0.9-0.8-2-0.3-3c0.5-1.1,1.2-2,2.1-2.8
	c1.8-1.6,3.9-2.7,6.1-3.5c1.6-0.6,3.2-0.8,4.8-0.6C21.4,6,22,6.1,22.5,6.4c1.7,0.7,2.4,2.1,1.8,3.9c-0.4,1.5-1.4,2.7-2.7,3.5
	c-1.8,1.1-3.7,1.6-5.8,1.3c-0.7-0.1-1.3-0.4-1.8-1c-0.1-0.2-0.2-0.4-0.3-0.6c0,0,0-0.1,0.1-0.2c0,0,0.1,0,0.2,0.1
	c0.9,0.9,1.9,1,3,0.8c1.9-0.3,3.6-1,4.9-2.5c0.5-0.6,0.9-1.2,1.1-2c0.2-0.9-0.2-1.6-1-2c-0.9-0.4-1.8-0.4-2.7-0.3
	C17,7.7,15,8.7,13.1,9.8c-1,0.6-1.9,1.3-2.6,2.2c-0.3,0.4-0.6,0.9-0.8,1.4c-0.3,0.9-0.2,1.8,0.4,2.5c0.4,0.5,0.9,0.9,1.4,1.3
	c0.7,0.6,1.5,1.2,2.2,1.8c0.1,0,0.2,0.1,0.3,0c0.3-0.2,0.6-0.3,0.9-0.5c1-0.6,2-1,3.2-1.2C18.1,17.4,18.2,17.4,18.3,17.5
	C18.3,17.4,18.3,17.4,18.3,17.5L18.3,17.5z M13.4,20.3c-1,0.6-1.8,1.1-2.6,1.9c-0.4,0.4-0.7,0.9-0.8,1.5c-0.1,0.7,0.3,1,1,0.9
	c0.9-0.2,1.6-0.8,2-1.5C13.6,22.3,13.7,21.4,13.4,20.3L13.4,20.3z"/>
</svg>
