<?xml version="1.0" encoding="utf-8"?>
<!-- Generator: Adobe Illustrator 18.1.1, SVG Export Plug-In . SVG Version: 6.00 Build 0)  -->
<svg version="1.1" id="Layer_1" xmlns="http://www.w3.org/2000/svg" xmlns:xlink="http://www.w3.org/1999/xlink" x="0px" y="0px"
	 viewBox="0 0 32 32" enable-background="new 0 0 32 32" xml:space="preserve">
<g>
	<path d="M25,8H7l0,17h18L25,8z M17.4,20.3c-0.3,0-0.6,0-1,0c-0.2,0-0.2,0-0.3-0.2c-0.2-0.7-0.5-1.5-0.7-2.2c0-0.1-0.1-0.2-0.3-0.2
		c-0.7,0-1.4,0-2.1,0c-0.2,0-0.2,0.1-0.3,0.2c-0.2,0.7-0.4,1.5-0.6,2.2c0,0.1-0.1,0.2-0.2,0.2c-0.4,0-0.8,0-1.1,0
		c-0.2,0-0.2-0.1-0.2-0.2c0.4-1.3,0.7-2.6,1.1-3.9c0.4-1.5,0.9-3.1,1.3-4.6c0.1-0.2,0.1-0.3,0.3-0.2c0.2,0,0.4,0,0.7,0
		c0.3,0,0.5,0,0.8,0c0.1,0,0.2,0,0.2,0.2c0.5,1.5,0.9,3.1,1.4,4.6c0.4,1.3,0.8,2.6,1.2,3.9C17.7,20.3,17.7,20.3,17.4,20.3z
		 M20.4,19.8c0,0.5,0,0.5-0.5,0.5c-0.2,0-0.5,0-0.7,0c-0.2,0-0.2,0-0.2-0.2c0-1.1,0-2.2,0-3.3c0,0,0,0,0,0c0-1.1,0-2.1,0-3.2
		c0-0.2,0.1-0.3,0.2-0.2c0.3,0,0.6,0,0.9,0c0.2,0,0.2,0.1,0.2,0.2C20.4,15.7,20.4,17.8,20.4,19.8z M19.7,12.7
		c-0.4,0-0.8-0.3-0.8-0.7c0-0.4,0.3-0.8,0.8-0.8c0.4,0,0.8,0.3,0.8,0.7C20.5,12.4,20.2,12.7,19.7,12.7z"/>
	<path d="M14.2,13.3c0-0.1-0.1-0.1-0.2,0c0,0.1-0.1,0.2-0.1,0.3c-0.2,0.9-0.4,1.8-0.7,2.6c0,0.1,0,0.2,0.1,0.2c0.5,0,0.9,0,1.4,0
		c0.2,0,0.2-0.1,0.1-0.2C14.7,15.2,14.5,14.2,14.2,13.3z"/>
</g>
</svg>
