<?xml version="1.0" encoding="utf-8"?>
<!-- Generator: Adobe Illustrator 19.2.1, SVG Export Plug-In . SVG Version: 6.00 Build 0)  -->
<svg version="1.1" id="Layer_1" xmlns="http://www.w3.org/2000/svg" xmlns:xlink="http://www.w3.org/1999/xlink" x="0px" y="0px"
	 viewBox="0 0 32 32" style="enable-background:new 0 0 32 32;" xml:space="preserve">
<g>
	<path d="M26,15.1c-0.1-1.7-0.7-3.2-1.6-4.6C23,8.4,21,7,18.6,6.4c-0.7-0.2-1.4-0.3-2-0.3c-0.1,0-0.1,0-0.2,0c-0.3,0-0.6,0-0.9,0
		c-0.2,0-0.3,0-0.5,0c-2,0.2-3.7,0.9-5.3,2.1c-1.8,1.5-3,3.3-3.5,5.6c-0.1,0.5-0.2,1.1-0.2,1.6c0,0.1,0,0.1,0,0.2c0,0.3,0,0.6,0,0.9
		c0,0.2,0,0.3,0,0.5c0.2,1.7,0.7,3.3,1.7,4.7c1.1,1.6,2.6,2.9,4.4,3.6c1.1,0.4,2.2,0.7,3.3,0.8c0.1,0,0.1,0,0.2,0c0.3,0,0.6,0,0.9,0
		c0.2,0,0.3,0,0.5,0c2.4-0.2,4.5-1.2,6.2-3c1.4-1.4,2.3-3.1,2.7-5c0.1-0.5,0.1-0.9,0.2-1.4c0-0.1,0-0.1,0-0.2c0-0.3,0-0.6,0-0.9
		C26,15.4,26,15.3,26,15.1z M16,24.5c-4.7,0-8.4-3.8-8.4-8.5c0-4.7,3.8-8.5,8.6-8.5c4.6,0.1,8.4,3.8,8.4,8.5
		C24.5,20.7,20.7,24.5,16,24.5z"/>
	<path d="M18.4,21.4c-0.2,0-0.3,0-0.5-0.1c-0.2,0-0.2-0.2-0.3-0.3c0-0.1,0-0.2,0-0.2c0-2,0-4.1,0-6.1c0-0.1,0-0.1,0-0.2
		c-1.6,0.1-3.1,0.1-4.7,0.2c0,0.3,0,0.5,0,0.8c0.1,0,0.1,0,0.1,0c0.3,0,0.6,0,0.9,0c0.4,0,0.6,0.3,0.6,0.7c0,1.5,0,3,0,4.5
		c0,0,0,0.1,0,0.1c0,0.4-0.2,0.6-0.6,0.6c-0.1,0-0.2,0-0.3,0c-0.2,0-0.4,0-0.6,0c0,0.3,0,0.5,0,0.8c2,0,4,0,6,0c0-0.3,0-0.5,0-0.8
		C18.8,21.4,18.6,21.4,18.4,21.4z"/>
	<path d="M15.8,13.3c1,0,1.7-0.8,1.7-1.7c0-0.9-0.8-1.7-1.7-1.7c-1,0-1.7,0.8-1.7,1.7C14.1,12.5,14.9,13.3,15.8,13.3z"/>
</g>
</svg>
