<?xml version="1.0" encoding="utf-8"?>
<!-- Generator: Adobe Illustrator 19.2.1, SVG Export Plug-In . SVG Version: 6.00 Build 0)  -->
<svg version="1.1" id="Layer_1" xmlns="http://www.w3.org/2000/svg" xmlns:xlink="http://www.w3.org/1999/xlink" x="0px" y="0px"
	 viewBox="0 0 32 32" style="enable-background:new 0 0 32 32;" xml:space="preserve">
<g>
	<path d="M24.9,11.6c0.4-0.4,0.6-1,0.6-1.7c0-1.4-1.1-2.6-2.6-2.6c-0.5,0-1,0.2-1.4,0.4C20,6.6,18.1,6,16,6C10.5,6,6,10.5,6,16
		c0,5.5,4.5,10,10,10s10-4.5,10-10C26,14.4,25.6,12.9,24.9,11.6z M16,24.4c-4.7,0-8.4-3.8-8.4-8.4s3.8-8.4,8.4-8.4
		c1.7,0,3.3,0.5,4.6,1.4c-0.1,0.3-0.2,0.6-0.2,0.9c0,1.4,1.1,2.6,2.6,2.6c0.2,0,0.4,0,0.6-0.1c0.5,1.1,0.8,2.3,0.8,3.6
		C24.4,20.7,20.7,24.4,16,24.4z"/>
	<path d="M16,11.9c-2.3,0-4.1,1.8-4.2,4.1c0,2.3,1.8,4.1,4.1,4.2c2.3,0,4.1-1.8,4.2-4.1C20.1,13.8,18.3,11.9,16,11.9z"/>
</g>
</svg>
