<?xml version="1.0" encoding="utf-8"?>
<!-- Generator: Adobe Illustrator 18.1.1, SVG Export Plug-In . SVG Version: 6.00 Build 0)  -->
<svg version="1.1" id="Layer_1" xmlns="http://www.w3.org/2000/svg" xmlns:xlink="http://www.w3.org/1999/xlink" x="0px" y="0px"
	 viewBox="0 0 32 32" enable-background="new 0 0 32 32" xml:space="preserve">
<path d="M26,19.9c-0.2-1.1-0.2-2.3-0.1-3.4c0.1-0.6,0.2-1.2,0-1.9c-0.2-0.6-0.3-1.2-0.4-1.8c-0.2-1.3-0.4-2.7-0.9-4
	c-0.2-0.4-0.4-0.7-0.9-0.7c-0.4,0-0.6,0.2-0.6,0.6c0.1,0.9,0.3,1.9,0.4,2.8c0.1,0.7,0.3,1.3,0.4,2c0,0.1,0,0.2,0,0.4
	c-0.1,0-0.3,0-0.4-0.1c-0.4-0.3-0.8-0.5-1.1-0.9c-0.5-0.7-0.9-1.4-1.2-2.1c-0.6-1.4-1.1-2.8-1.8-4C18.8,5.8,18,5.6,17,5.6
	c-0.3,0-0.4,0.2-0.4,0.4c0.1,0.3,0.1,0.6,0.3,0.9c0.9,1.6,1.7,3.3,2.6,4.9c0.3,0.5,0.7,1,1,1.4c0.4,0.6,0.3,0.8-0.3,1.1
	c-0.1,0-0.1,0-0.2,0.1c-0.8,0.2-1.4-0.1-1.9-0.6c-0.5-0.4-1.1-0.7-1.8-0.8c-0.3,0-0.7-0.1-1-0.1c-1.4-0.1-2.7-0.1-4.1,0.4
	c-2,0.7-3.1,2.3-3.8,4.2c-0.2,0.6-0.4,1.3-0.6,2c-0.1-0.2-0.1-0.2-0.2-0.3c-0.1-0.1-0.2-0.2-0.2-0.4c-0.1,0.1-0.3,0.2-0.4,0.4
	C6,19.3,6,19.5,6,19.7c0,0.3,0.1,0.6,0.2,0.8c0.7,1.7,1.4,3.5,2,5.2c0.2,0.4,0.5,0.6,0.9,0.6c1,0.1,2,0.1,2.9-0.1
	c0.6-0.1,1.2-0.2,1.8-0.3c-0.2-0.2-0.4-0.4-0.6-0.5c0-0.1,0.1-0.1,0.1-0.2c0.5,0.1,0.9,0.2,1.4,0.3c1.6,0.6,3.2,0.9,4.9,0.8
	c0.3,0,0.6-0.1,0.7-0.4c0.1-0.2,0.2-0.4,0.3-0.6c0.2-0.8,0.6-1.5,1-2.1c0.7-1,0.6-0.9,1.7-0.6c1.2,0.4,2.3-0.2,2.6-1.4
	C26,20.8,26,20.3,26,19.9z M24.9,18.7c-0.1,0.1-0.3,0.3-0.4,0.3c-0.9,0.1-1.8,0.1-2.6-0.3c-0.3-0.1-0.5-0.4-0.8-0.7
	c0.3-0.1,0.6-0.2,0.8-0.3c0.9-0.1,1.7,0.1,2.5,0.5c0.1,0,0.2,0.1,0.2,0.1C24.7,18.4,24.9,18.6,24.9,18.7z"/>
</svg>
