<?xml version="1.0" encoding="utf-8"?>
<!-- Generator: Adobe Illustrator 18.1.1, SVG Export Plug-In . SVG Version: 6.00 Build 0)  -->
<svg version="1.1" id="Layer_1" xmlns="http://www.w3.org/2000/svg" xmlns:xlink="http://www.w3.org/1999/xlink" x="0px" y="0px"
	 viewBox="0 0 32 32" enable-background="new 0 0 32 32" xml:space="preserve">
<g>
	<path d="M18.5,3.5C18.5,3.5,18.6,3.5,18.5,3.5c0.4,0.5,0.5,0.9,0.6,1.4c0,0.1,0,0.3,0,0.4c0,0.4-0.1,0.8-0.2,1.2
		c-0.2,0.6-0.6,1.2-1,1.7c-0.3,0.3-0.6,0.7-0.9,1c-0.4,0.4-0.8,0.7-1.2,1c-0.5,0.4-0.9,0.8-1.2,1.2c-0.2,0.3-0.4,0.7-0.5,1
		C14,13,14,13.5,14.1,14c0.1,0.4,0.3,0.8,0.5,1.1c0.3,0.4,0.6,0.9,0.9,1.3c0.2,0.3,0.3,0.5,0.5,0.8c0,0,0,0,0,0
		c-0.1,0-0.1-0.1-0.2-0.1c-0.4-0.3-0.7-0.6-1-1c-0.5-0.5-1-1-1.4-1.6c-0.3-0.4-0.5-0.7-0.6-1.2c-0.1-0.2-0.1-0.4-0.1-0.6
		c0-0.5,0.1-1,0.5-1.4c0.3-0.5,0.8-0.9,1.2-1.2c0.6-0.5,1.2-0.9,1.7-1.4c0.3-0.2,0.6-0.5,0.9-0.7c0.4-0.4,0.7-0.7,1-1.2
		c0.3-0.5,0.5-1,0.6-1.6c0-0.2,0.1-0.4,0-0.7C18.6,4.2,18.6,3.8,18.5,3.5C18.5,3.5,18.5,3.5,18.5,3.5z"/>
	<path d="M6.8,26C6.8,26,6.8,26,6.8,26c0.1-0.2,0.2-0.3,0.4-0.4c0.3-0.2,0.6-0.3,0.9-0.5c0.5-0.2,1.1-0.4,1.7-0.5
		c0.3,0,0.6-0.1,0.8,0c0.1,0,0.2,0,0.3,0.1c0,0,0,0,0,0c-0.5,0-1,0.1-1.4,0.3c-0.2,0.1-0.5,0.2-0.7,0.3c-0.1,0-0.1,0.1-0.2,0.1
		c-0.1,0.1-0.1,0.2,0,0.3c0.1,0,0.1,0.1,0.2,0.1c0.3,0.1,0.7,0.2,1.1,0.3c0.5,0.1,1.1,0.2,1.6,0.2c0.5,0,0.9,0.1,1.4,0.1
		c1.1,0.1,2.1,0.1,3.2,0.1c0.4,0,0.9,0,1.3,0c0.4,0,0.7,0,1.1-0.1c0.5,0,1-0.1,1.6-0.1c0.5-0.1,1.1-0.1,1.6-0.2
		c0.5-0.1,1-0.2,1.5-0.4c0.2-0.1,0.3-0.1,0.5-0.2c0.1,0,0.1-0.1,0.2-0.2c0.1-0.1,0.1-0.3,0-0.5c0,0,0,0,0-0.1l0,0
		c0.1,0,0.2,0.1,0.2,0.1c0.2,0.2,0.3,0.4,0,0.6c-0.1,0.1-0.3,0.2-0.4,0.3c-0.4,0.2-0.8,0.4-1.2,0.5c-0.7,0.2-1.4,0.3-2,0.4
		c-0.5,0.1-1.1,0.2-1.6,0.2c-0.3,0-0.7,0.1-1,0.1c-0.5,0-1.1,0.1-1.6,0.1c-0.7,0-1.4,0-2.2,0c-0.5,0-1,0-1.4-0.1
		c-0.5,0-0.9-0.1-1.4-0.1c-0.5,0-1.1-0.1-1.6-0.2c-0.5-0.1-1.1-0.1-1.6-0.2c-0.3,0-0.5-0.1-0.8-0.2c-0.1,0-0.2-0.1-0.3-0.2
		c0,0-0.1-0.1-0.1-0.1C6.8,26.1,6.8,26.1,6.8,26z"/>
	<path d="M15.3,28.5c-0.1,0-0.2,0-0.4,0c-0.5,0-1,0-1.5-0.1c-0.6,0-1.1-0.1-1.6-0.2c-0.4-0.1-0.9-0.2-1.3-0.3
		c-0.1,0-0.2-0.1-0.3-0.1c0,0,0,0,0,0c0.1,0,0.1,0,0.2,0c0.5,0.1,1.1,0.1,1.6,0.2c0.4,0,0.8,0.1,1.1,0.1c0.9,0.1,1.9,0.1,2.8,0.1
		c0.5,0,1.1,0,1.6-0.1c0.4,0,0.9-0.1,1.3-0.1c1-0.1,2-0.2,2.9-0.4c0.7-0.1,1.4-0.3,2.1-0.6c0.2-0.1,0.4-0.1,0.5-0.2
		c0.3-0.2,0.5-0.3,0.7-0.5c0,0,0,0.1,0,0.1c-0.1,0.2-0.2,0.4-0.3,0.5c-0.2,0.2-0.4,0.4-0.7,0.5c-0.4,0.2-0.8,0.4-1.2,0.5
		c-0.6,0.2-1.2,0.3-1.9,0.4c-0.5,0.1-0.9,0.1-1.4,0.2c-0.3,0-0.6,0-0.9,0.1c-0.5,0-0.9,0.1-1.4,0.1c0,0,0,0-0.1,0
		C16.7,28.5,16,28.5,15.3,28.5z"/>
	<path d="M21.6,8.6c0,0.1-0.1,0.1-0.2,0.1c-0.6,0.3-1.1,0.7-1.6,1c-0.4,0.3-0.9,0.6-1.3,1c-0.3,0.2-0.5,0.5-0.7,0.8
		c-0.2,0.2-0.3,0.4-0.3,0.7c-0.1,0.3,0,0.6,0.1,0.8c0.1,0.3,0.3,0.6,0.5,0.9c0.1,0.2,0.3,0.4,0.4,0.6c0.2,0.3,0.3,0.6,0.3,1
		c0,0.2,0,0.5-0.1,0.7c-0.1,0.3-0.3,0.5-0.5,0.7c-0.4,0.4-0.9,0.8-1.4,1.1c0,0,0,0,0,0c0,0,0,0,0.1-0.1c0,0,0,0,0.1-0.1
		c0.2-0.2,0.4-0.5,0.5-0.8c0.2-0.5,0.1-0.9-0.1-1.3c-0.1-0.2-0.2-0.3-0.4-0.5c-0.3-0.4-0.5-0.7-0.7-1.1c-0.1-0.3-0.2-0.5-0.2-0.8
		c-0.1-0.5,0-0.9,0.2-1.4c0.2-0.4,0.5-0.8,0.9-1.1c0.5-0.4,1-0.7,1.5-1c0.6-0.3,1.3-0.6,2-0.9c0.3-0.1,0.6-0.2,0.8-0.3
		C21.5,8.6,21.6,8.6,21.6,8.6L21.6,8.6z"/>
	<path d="M19.9,24c-0.2,0.1-0.3,0.1-0.5,0.2c-0.7,0.3-1.5,0.4-2.2,0.5c-0.4,0-0.7,0.1-1.1,0.1c-0.3,0-0.7,0-1,0
		c-0.8,0-1.6-0.1-2.3-0.3c-0.3-0.1-0.6-0.2-0.9-0.4c-0.1-0.1-0.2-0.1-0.3-0.2c0,0-0.1-0.1-0.1-0.1c-0.1-0.2-0.1-0.3,0-0.5
		c0.1-0.1,0.1-0.1,0.2-0.2c0.3-0.2,0.5-0.3,0.8-0.3c0,0-0.1,0.1-0.1,0.1c0,0-0.1,0.1-0.1,0.1c-0.1,0.1-0.1,0.2,0.1,0.3
		c0.1,0.1,0.2,0.1,0.3,0.1c0.2,0.1,0.4,0.1,0.6,0.1c0.3,0,0.7,0.1,1,0.1c0.1,0,0.2,0,0.4,0c0.4,0,0.8,0,1.2,0c0.4,0,0.8-0.1,1.3-0.1
		c0.4-0.1,0.8-0.1,1.2-0.2c0,0,0.1,0,0.1,0C19,23.6,19.5,23.8,19.9,24C19.9,24,19.9,24,19.9,24z"/>
	<path d="M21.3,18.2c-0.2,0.1-0.5,0.2-0.7,0.4c-0.1,0-0.2,0.1-0.2,0.1c-0.1,0.1-0.2,0.1-0.3,0.1c-0.4,0.1-0.9,0.2-1.3,0.3
		c-0.4,0.1-0.9,0.1-1.3,0.2c-0.3,0-0.7,0.1-1,0.1c-0.4,0-0.8,0.1-1.2,0.1c-0.4,0-0.7,0-1.1,0c-0.5,0-1,0-1.6,0
		c-0.5,0-1.1-0.1-1.6-0.1c-0.4,0-0.9-0.1-1.3-0.2c-0.2,0-0.3-0.1-0.5-0.1c-0.1,0-0.2-0.1-0.3-0.1c-0.1-0.1-0.1-0.2,0-0.4
		c0.1-0.1,0.2-0.2,0.3-0.2c0.4-0.2,0.7-0.3,1.1-0.5c0.5-0.2,1.1-0.3,1.7-0.4c0.4-0.1,0.8-0.1,1.2-0.1c0,0-0.1,0-0.1,0
		c-0.6,0.1-1.1,0.3-1.7,0.5c-0.2,0.1-0.4,0.2-0.5,0.3c-0.1,0-0.1,0.1-0.2,0.1c-0.1,0.1-0.1,0.2,0,0.3c0.1,0,0.1,0.1,0.2,0.1
		c0.2,0.1,0.4,0.1,0.6,0.1c0.4,0.1,0.9,0.1,1.3,0.1c0.6,0,1.2,0,1.8,0c0.6,0,1.1,0,1.7-0.1c0.3,0,0.5,0,0.8-0.1c0.3,0,0.7-0.1,1-0.1
		c0.3,0,0.7-0.1,1-0.1c0.4-0.1,0.8-0.1,1.2-0.2C20.6,18.3,20.9,18.2,21.3,18.2C21.3,18.2,21.3,18.2,21.3,18.2z"/>
	<path d="M12.1,20.1C12.1,20.2,12,20.2,12.1,20.1c-0.1,0.2-0.2,0.2-0.2,0.3c-0.1,0.2,0,0.3,0.1,0.4c0.1,0.1,0.2,0.1,0.3,0.1
		c0.2,0.1,0.4,0.1,0.6,0.1c0.4,0,0.8,0.1,1.2,0.1c0.4,0,0.7,0,1.1,0c0.4,0,0.9,0,1.3,0c0.6,0,1.3-0.1,1.9-0.2c0.3-0.1,0.7-0.1,1-0.2
		c0,0,0.1,0,0.1,0c0.3,0.2,0.6,0.4,0.9,0.6c0,0,0,0,0.1,0c-0.1,0-0.2,0.1-0.3,0.1c-0.6,0.2-1.2,0.3-1.9,0.4
		c-0.4,0.1-0.9,0.1-1.3,0.2c-0.7,0.1-1.4,0.1-2.1,0.1c-0.5,0-0.9,0-1.4-0.1c-0.5-0.1-1-0.1-1.5-0.3c-0.3-0.1-0.5-0.2-0.7-0.3
		c-0.1,0-0.2-0.1-0.2-0.2c-0.1-0.2-0.1-0.3,0-0.5c0.1-0.1,0.2-0.2,0.3-0.2C11.4,20.4,11.7,20.2,12.1,20.1
		C12.1,20.1,12.1,20.1,12.1,20.1C12.1,20.1,12.1,20.1,12.1,20.1z"/>
	<path d="M21.3,21.9c0-0.1,0.1-0.1,0.2-0.2c0.5-0.3,1-0.6,1.4-0.9c0.4-0.3,0.7-0.6,1-1.1c0.1-0.2,0.2-0.5,0.3-0.7
		c0.1-0.6-0.1-1-0.5-1.4c-0.3-0.2-0.6-0.4-1-0.4c-0.1,0-0.3,0-0.4,0.1c-0.1,0-0.2,0.1-0.4,0.1c0,0,0,0,0-0.1
		c0.1-0.1,0.2-0.2,0.4-0.2c0.3-0.1,0.6-0.2,1-0.2c0.5,0,0.9,0.2,1.3,0.5c0.4,0.3,0.6,0.6,0.6,1.1c0,0.3,0,0.6-0.1,0.9
		c-0.2,0.4-0.4,0.7-0.7,0.9c-0.5,0.4-1,0.7-1.6,1C22.3,21.6,21.8,21.8,21.3,21.9C21.3,21.9,21.3,21.9,21.3,21.9z"/>
	<path d="M21.6,8.6C21.6,8.6,21.6,8.6,21.6,8.6C21.6,8.6,21.6,8.6,21.6,8.6C21.6,8.6,21.6,8.6,21.6,8.6C21.6,8.6,21.6,8.6,21.6,8.6z
		"/>
	<path d="M12.1,20.1C12.1,20.1,12.1,20.1,12.1,20.1C12.1,20.1,12.1,20.1,12.1,20.1C12.1,20.1,12.1,20.1,12.1,20.1
		C12.1,20.1,12.1,20.1,12.1,20.1z"/>
	<path d="M16,17.2C16,17.2,16,17.2,16,17.2C16,17.2,16,17.2,16,17.2C16,17.2,16,17.2,16,17.2z"/>
	<path d="M23.7,24.9C23.7,24.9,23.7,24.9,23.7,24.9C23.7,24.9,23.7,24.9,23.7,24.9C23.7,24.9,23.7,24.9,23.7,24.9
		C23.7,24.9,23.7,24.9,23.7,24.9z"/>
</g>
</svg>
