<svg viewBox="-94.542 -44.55 386.1 386.1" xmlns="http://www.w3.org/2000/svg"><path d="M222.147 150.42c0 61.786-48.968 111.874-109.375 111.874-60.405 0-109.374-50.088-109.374-111.874 0-61.788 48.97-111.876 109.374-111.876 60.407 0 109.375 50.088 109.375 111.876" fill="#CC3E44" fill-rule="evenodd"></path><path d="M7.855 178.127s-7.918-116.666 99.583-120l-7.5-12.5-58.333 19.584L24.94 84.377l-14.584 27.918-8.334 32.5 2.5 21.666" fill="#CC3E44"></path><path d="M37.86 74.101C18.67 93.736 6.795 120.846 6.795 150.838c0 29.985 11.875 57.098 31.065 76.73 19.2 19.63 45.659 31.745 74.911 31.745 29.253 0 55.714-12.114 74.912-31.746 19.188-19.631 31.066-46.745 31.066-76.73 0-29.99-11.878-57.1-31.066-76.736-19.198-19.627-45.66-31.741-74.912-31.743-29.252.002-55.711 12.116-74.91 31.743zm-4.857 158.215C12.608 211.46 0 182.634 0 150.838c0-31.802 12.608-60.624 33.003-81.483 20.39-20.863 48.614-33.794 79.768-33.79 31.154-.004 59.381 12.927 79.768 33.79 20.396 20.859 33.006 49.684 33.004 81.483.002 31.796-12.608 60.621-33.004 81.478-20.386 20.862-48.614 33.791-79.768 33.791-31.154 0-59.378-12.93-79.768-33.79" fill="#0E1112"></path><path d="M158.814 151.04l-16.668 2.5-22.5 2.5-14.584.416-14.166-.416-10.834-3.334-9.583-10.416-7.5-21.25-1.667-4.584-10-3.332-5.833-9.584-4.167-13.75 4.584-12.084 10.833-3.75 8.75 4.168 4.167 9.166 5-.834 1.666-2.082-1.666-9.584-.417-12.084 2.5-16.666-.098-9.52 7.598-12.146 13.333-9.584 23.334-10 25.833 3.75 22.5 16.25 10.417 16.666 6.667 12.084 1.666 30-5 25.834-9.167 22.916-8.75 12.084" fill="#D4D7D6" fill-rule="evenodd"></path><path d="M144.646 223.123l-59.584 2.5v10l5 35-2.5 2.917-41.666-14.168-2.917-5-4.167-47.082-9.582-28.334-2.084-6.666 33.333-22.916 10.417-4.168 9.166 11.25 7.917 7.084 9.167 2.916 4.166 1.25 5 21.667 3.75 4.583 9.584-3.333-6.667 12.917 36.25 17.083-4.583 2.5" fill="#6D8086" fill-rule="evenodd"></path><path d="M45.896 77.706l10.832-3.75 8.75 4.168 4.168 9.166 5-.834 1.25-5-2.5-9.582 2.5-22.918-2.084-12.5 7.5-8.75 16.25-12.916-4.583-6.25-22.917 11.25-9.584 7.5-5.416 11.666-8.334 11.25-2.5 13.334 1.668 14.166" fill="#6D8086" fill-rule="evenodd"></path><path d="M62.979 38.54s6.25-15.416 31.25-22.916 1.25-5.418 1.25-5.418L68.395 20.624 57.978 31.04l-4.582 8.334 9.582-.834M50.479 74.79s-8.75-29.168 24.583-33.334l-1.25-5-22.916 5.418-6.667 21.666 1.667 14.166 4.582-2.916" fill="#D4D7D6" fill-rule="evenodd"></path><path d="M63.812 113.54l5.456-5.286s2.462.286 2.878 3.202c.416 2.918 1.666 29.168 19.582 43.335 1.635 1.293-13.332-2.085-13.332-2.085l-13.334-20.832M140.481 105.624s.972-12.63 4.373-11.659c3.401.971 3.401 4.373 3.401 4.373s-8.26 5.343-7.774 7.286" fill="#D4D7D6" fill-rule="evenodd"></path><path d="M175.063 59.374s-6.868 1.45-7.5 7.5c-.633 6.051 7.5 1.25 8.75.834M124.646 59.791s-9.167 1.25-9.167 7.083 10.417 5.417 13.334 2.917" fill="#D4D7D6"></path><path d="M67.978 86.874s-15.833-9.584-17.5-.416c-1.666 9.166-5.417 15.833 2.5 25.416l-5.416-1.666-5-12.917-1.666-12.5 9.582-10.001 10.834.834 6.25 5 .416 6.25M75.478 60.624s7.084-36.666 42.918-43.75c29.502-5.831 44.999 1.25 50.833 7.916 0 0-26.25-31.249-51.25-21.666-25 9.584-43.333 27.084-42.917 38.332.71 19.16.416 19.168.416 19.168M172.146 28.956s-12.082-.416-12.5 10.418c0 0-.001 1.666.833 3.332 0 0 9.585-10.833 15.417-5" fill="#D4D7D6" fill-rule="evenodd"></path><path d="M119.236 43.835s-2.08-16.629-16.258-6.961c-9.166 6.25-8.332 15-6.666 16.666 1.666 1.667 1.213 5.024 2.482 2.72 1.268-2.304.85-9.804 5.434-11.886 4.584-2.084 12.098-4.412 15.008-.539" fill="#D4D7D6" fill-rule="evenodd"></path><path d="M80.062 156.456l-39.166 17.5s16.25 64.584 7.916 84.584l-5.834-2.083-.416-24.583-10.832-46.666-4.584-12.918 40.832-27.499 12.084 11.665M84.09 192.178l5.556 6.78v25h-6.667s-.833-17.5-.833-19.584c0-2.084.833-9.584.833-9.584M84.228 227.708l-18.75.832 5.418 3.75 13.332 2.084" fill="#6D8086" fill-rule="evenodd"></path><path d="M148.396 223.54l15.417-.416 3.75 38.333-15.834 2.083-3.333-40" fill="#6D8086" fill-rule="evenodd"></path><path d="M152.563 223.54l23.333-1.25s9.583-24.167 9.583-25.417 8.334-35 8.334-35l-18.75-19.582-3.75-3.334-10 10v38.75l-8.75 35.833" fill="#6D8086" fill-rule="evenodd"></path><path d="M162.979 220.623l-14.583 2.917 2.083 11.668c5.416 2.5 14.584-4.168 14.584-4.168M163.396 147.708l29.167 21.666.833-10-22.083-20.416-7.917 8.75" fill="#6D8086" fill-rule="evenodd"></path><path d="M98.689 305.627l-8.627-35.005-4.29-25.828-.71-19.172 39.044-2.078 24.29-.004-2.208 43.754 3.75 33.75-.417 6.25-31.665 2.5-19.167-4.167" fill="#D4D7D6" fill-rule="evenodd"></path><path d="M142.979 223.123s-2.083 43.334 4.167 74.167c0 0-12.5 7.918-30.834 10l35-1.25 4.167-2.5-5-68.333-1.25-14.585" fill="#D4D7D6" fill-rule="evenodd"></path><path d="M168.272 258.127l16.25-4.583 30.833-1.666 4.584-14.167-8.334-24.584-9.582-1.25-13.334 4.167-12.793 6.246-6.791-1.246-5.293 2.08" fill="#D4D7D6" fill-rule="evenodd"></path><path d="M167.979 249.79s10.832-4.999 12.5-4.582l-4.583-22.918 5.417-2.083s3.75 21.666 3.75 24.166c0 0 23.332 1.25 25.416 1.25 0 0 5-9.583 3.75-19.583l4.583 13.333.417 7.5-6.667 10-7.5 1.667-12.5-.417-4.166-5.416-14.583 2.083-4.584 1.667" fill="#D4D7D6" fill-rule="evenodd"></path><path d="M151.605 220.211l-9.166-23.334-9.584-13.75s2.083-5.833 5-5.833h9.584l9.166 3.333-.832 15.417-4.168 24.167" fill="#D4D7D6"></path><path d="M153.396 212.29s-11.667-22.499-11.667-25.832c0 0 2.082-5 5-3.75 2.917 1.25 9.167 4.582 9.167 4.582v-7.916l-14.167-2.918-9.583 1.25 16.25 38.334 3.333.418" fill="#D4D7D6" fill-rule="evenodd"></path><path d="M102.439 157.295l-11.543-1.255-10.834-3.334v3.75l5.293 5.838 16.667 7.5" fill="#D4D7D6"></path><path d="M83.813 158.544s12.918 5.417 17.084 4.167l.415 4.995-11.665-2.495-7.084-5 1.25-1.667" fill="#D4D7D6" fill-rule="evenodd"></path><path d="M168.227 178.713c-7.07-.208-13.457-1.048-19.05-2.625.38-2.293-.33-4.543.24-6.194 1.56-1.123 4.172-1.105 6.528-1.369-2.037-1.001-4.9-1.398-7.251-.819-.055-1.591-.769-2.577-1.201-3.822 3.975-1.419 13.358-10.72 18.637-7.64 2.515 1.465 3.584 9.832 3.779 13.901.162 3.375-.306 6.78-1.681 8.568" fill="#CC3E44" fill-rule="evenodd"></path><path d="M168.227 178.713c-7.07-.208-13.457-1.048-19.05-2.625.38-2.293-.33-4.543.24-6.194 1.56-1.123 4.172-1.105 6.528-1.369-2.037-1.001-4.9-1.398-7.251-.819-.055-1.591-.769-2.577-1.201-3.822 3.975-1.419 13.358-10.72 18.637-7.64 2.515 1.465 3.584 9.832 3.779 13.901.162 3.375-.306 6.78-1.681 8.568z" fill="none" stroke="#CC3E44" stroke-width="2.5"></path><path d="M134.419 167.155c-.019.535-.042 1.074-.063 1.614-2.207 1.45-5.771 1.432-8.194 2.651 3.572.156 6.383 1.016 8.815 2.229l-.157 4.041c-4.046 2.77-7.742 6.895-12.507 9.493-2.252 1.228-10.157 4.39-12.554 3.83-1.356-.314-1.478-1.997-2.02-3.583-1.155-3.396-3.813-8.803-4.045-13.915-.296-6.457-.947-17.28 6.012-15.95 5.614 1.071 12.144 3.658 16.49 6.033 2.656 1.452 4.193 3.247 8.223 3.557" fill="#CC3E44" fill-rule="evenodd"></path><path d="M134.419 167.155c-.019.535-.042 1.074-.063 1.614-2.207 1.45-5.771 1.432-8.194 2.651 3.572.156 6.383 1.016 8.815 2.229l-.157 4.041c-4.046 2.77-7.742 6.895-12.507 9.493-2.252 1.228-10.157 4.39-12.554 3.83-1.356-.314-1.478-1.997-2.02-3.583-1.155-3.396-3.813-8.803-4.045-13.915-.296-6.457-.947-17.28 6.012-15.95 5.614 1.071 12.144 3.658 16.49 6.033 2.656 1.452 4.193 3.247 8.223 3.557z" fill="none" stroke="#CC3E44" stroke-width="2.5"></path><path d="M138.438 174.86c-.618-3.518-1.332-4.521-1.055-7.59 9.38-6.255 11.142 10.744 1.054 7.59" fill="#CC3E44" fill-rule="evenodd"></path><path d="M138.438 174.86c-.618-3.518-1.332-4.521-1.055-7.59 9.38-6.255 11.142 10.744 1.054 7.59z" fill="none" stroke="#CC3E44" stroke-width="2.5"></path><path d="M152.021 177.711s-2.917-4.167-.833-5.417c2.083-1.25 4.167.001 5.417-2.083s0-3.334.416-5.834c.416-2.5 2.501-2.917 4.584-3.333 2.083-.417 7.917-1.25 8.75.833l-2.5-7.5-5-1.666-15.834 9.166-.834 4.584v9.166M108.272 191.461c-.501-6.502-1.03-12.996-1.62-19.492-.882-9.7 2.33-8.008 10.738-8.008 1.284 0 7.908 1.531 8.381 2.5 2.273 4.641-3.8 3.61 2.618 7.11 5.417 2.954 14.987-1.793 12.799-8.36-1.225-1.46-6.383-.455-8.232-1.414l-9.765-5.062c-4.142-2.149-13.713-5.281-18.129-2.279-11.188 7.609.706 26.62 4.697 34.558" fill="#CC3E44" fill-rule="evenodd"></path><path d="M119.236 43.835c-11.357-2.645-17 4.752-20.442 12.425-3.074-.745-1.85-4.925-1.074-7.055 2.032-5.59 10.224-13.031 16.918-12.023 2.88.434 6.778 3.068 4.598 6.653M174.569 56.767l.539.022c2.566 5.331 4.787 10.978 8.024 15.685-2.168 5.051-16.422 9.521-16.202.451 3.083-1.348 8.404-.275 11.136-1.996-1.58-4.337-3.86-8.028-3.497-14.162M125.05 56.906c2.435 4.464 3.228 9.154 6.689 12.528 1.559 1.519 4.59 3.37 3.087 7.594-.351.996-2.917 3.217-4.398 3.653-5.412 1.598-18.02.33-13.75-6.416 4.474.209 10.49 2.906 13.835-.343-2.57-4.106-7.149-12.23-5.463-17.016M172.537 102.274c-8.147 5.234-17.232 10.925-30.582 9.605-2.853-2.48-3.94-7.999-1.169-11.644 1.443 2.48.536 7.041 4.556 7.728 7.575 1.296 16.392-4.634 21.84-6.707 3.38-5.696-.29-7.791-3.334-11.457-6.232-7.511-14.59-16.821-14.287-28.066 2.519-1.827 2.736 2.787 3.098 3.627 3.254 7.615 11.442 17.354 17.419 23.871 1.467 1.605 3.883 3.145 4.152 4.207.775 3.086-2.016 6.783-1.693 8.836M65.127 96.764c-2.554-1.458-3.162-7.878-6.16-8.06-4.284-.26-3.503 8.329-3.486 13.351-2.95-2.677-3.468-10.921-1.301-15.155-2.47-1.212-3.572 1.338-4.942 2.236 1.76-12.787 18.706-5.931 15.889 7.628M177.725 107.599c-3.792 7.219-9.157 15.169-20.286 15.4-.226-2.331-.4-5.879.012-7.283 8.508-.817 13.76-5.147 20.274-8.117M124.408 112.279c7.098 3.732 20.143 4.134 29.79 3.851.518 2.114.506 4.725.526 7.302-12.401.62-27.064-2.45-30.316-11.153M123.06 119.239c4.907 12.323 21.777 10.905 36.004 10.565-.626 1.6-1.984 3.49-3.671 4.173-4.56 1.855-17.133 3.263-23.462-.098-4.014-2.134-6.592-6.955-8.791-9.781-1.062-1.366-6.35-4.852-.08-4.86" fill="#0E1112" fill-rule="evenodd"></path><path d="M171.945 187.217c-5.76 9.865-11.271 19.998-18.105 28.7 2.865-8.424 4.091-22.523 4.524-33.272 5.994-2.805 11.126.631 13.581 4.572" fill="#7494A3" fill-rule="evenodd"></path><path d="M202.94 222.674c-6.449 1.29-10.98 7.558-17.271 7.156 3.457-4.874 9.516-6.929 17.271-7.156M205.785 232.766c-5.256.555-11.43 1.406-16.761.968 2.523-3.855 12.247-2.525 16.761-.968M207.606 241.467c-5.907.128-13.25.01-18.865-.46 3.321-3.568 15.034-1.324 18.865.46" fill="#0E1112" fill-rule="evenodd"></path><path d="M160.83 265.279c.847 7.419 3.789 14.936 3.42 23.06-3.266 1.102-5.143 2.066-9.519 2.06-.309-6.905-1.232-17.461-.956-24.044 2.152.143 5.326-1.538 7.055-1.076" fill="#D4D7D6" fill-rule="evenodd"></path><path d="M151.306 155.939c-2.966 1.936-5.492 4.354-8.341 6.421-6.318.312-9.765-.438-14.406-4.065.076-.291.542-.161.56-.519 6.762 3.014 15.359-1.227 22.187-1.837" fill="#D4D7D6" fill-rule="evenodd"></path><path d="M115.806 202.036c1.858-8.051 9.138-12.221 15.749-16.655 6.824 8.66 10.974 19.798 15.544 30.545-10.798-3.255-21.83-8.536-31.293-13.89" fill="#7494A3" fill-rule="evenodd"></path><path d="M153.775 266.355c-.276 6.582.647 17.139.956 24.044 4.377.006 6.253-.958 9.519-2.06.369-8.124-2.572-15.641-3.42-23.06-1.729-.462-4.902 1.219-7.055 1.076zm-68.143-37.436c2.886 26.529 7.066 48.83 14.732 72.321 17.014 5.166 37.525 5.616 52.564.955-2.762-13.259-1.555-29.401-3.17-43.55-1.215-10.635-.595-21.335-2.263-32.185-18.222-3.791-43.98-.886-61.863 2.459zm66.172-2.292c-.154 11.393.51 22.632 1.38 34.04 4.375-.657 7.344-1.096 11.409-1.987-1.32-10.982-1.158-23.34-3.847-33.055-3.107.03-5.844-.036-8.942 1.002zm22.194-1.837c-2.077-.476-4.494-.018-6.478.02.932 9.288 3.195 19.536 3.991 29.285 3.122.097 4.789-1.375 7.357-1.87.137-8.557-.748-20.347-4.87-27.435zm33.605 30.704c6.506-1.58 10.597-9.55 8.777-17.733-1.221-5.5-3.396-15.856-5.724-19.375-1.72-2.602-6.383-6.01-10.107-3.625-6.058 3.88-16.729 5.005-21.146 9.7 2.215 7.375 2.902 17.505 3.816 26.85 7.567.472 16.879-2.082 23.172.628-4.393 1.423-10.095 1.435-13.891 3.509 3.103 1.498 10.366 1.196 15.103.046zm-60.504-39.568c-4.57-10.747-8.72-21.884-15.544-30.545-6.611 4.434-13.891 8.604-15.75 16.655 9.464 5.354 20.496 10.635 31.294 13.89zm11.265-33.281c-.433 10.748-1.659 24.848-4.524 33.272 6.834-8.702 12.345-18.834 18.105-28.7-2.455-3.94-7.587-7.377-13.581-4.572zm-12.77-4.537c-2.589-.28-4.786 2.976-8.153 1.568-.771.853-1.472 1.777-2.258 2.609 7.435 8.96 10.813 21.672 16.556 32.202 3.081-10.115 2.726-21.196 3.405-32.236-4.234.269-6.583-3.829-9.55-4.144zm-8.211-10.838c-.277 3.069.437 4.072 1.055 7.59 10.087 3.154 8.326-13.845-1.055-7.59zm-11.187-3.673c-4.346-2.375-10.876-4.96-16.49-6.032-6.96-1.331-6.307 9.492-6.012 15.95.232 5.112 2.89 10.519 4.045 13.915.542 1.586.664 3.269 2.02 3.584 2.397.558 10.302-2.603 12.555-3.831 4.764-2.598 8.46-6.723 12.506-9.493.053-1.348.104-2.694.158-4.041-2.433-1.213-5.244-2.073-8.815-2.229 2.422-1.219 5.986-1.201 8.193-2.651.022-.54.044-1.079.063-1.614-4.03-.31-5.566-2.105-8.223-3.558zm-41.517-7.54c-3.607 3.662 10.118 8.654 14.489 8.923-.025-2.317 1.32-4.502 1.05-6.165-5.191-.911-12.012-.31-15.539-2.759zm44.44 1.72c-.018.357-.484.227-.56.518 4.641 3.628 8.089 4.378 14.406 4.065 2.849-2.067 5.375-4.485 8.341-6.421-6.828.61-15.425 4.851-22.187 1.837zm40.79 12.368c-.195-4.069-1.264-12.436-3.779-13.901-5.279-3.081-14.662 6.221-18.637 7.64.432 1.245 1.146 2.231 1.2 3.822 2.352-.578 5.215-.182 7.252.819-2.356.264-4.969.246-6.527 1.369-.572 1.651.14 3.901-.24 6.194 5.592 1.577 11.98 2.417 19.05 2.625 1.375-1.788 1.843-5.193 1.68-8.568zm-91.303-10.546c-1.133-.808-8.796-10.779-9.846-10.365-13.867 5.469-26.834 14.925-38.42 23.869 11.047 23.705 15.506 52.747 16.294 80.74 12.656 5.918 23.771 14.451 40.944 15.342-1.987-14.06-3.801-26.604-4.93-39.841-4.314-1.82-10.504.082-14.542-.564-.035-4.866 6.167-2.131 6.683-5.403.39-2.476-3.412-2.663-2.174-6.56 3.157 1.147 4.814 3.681 8.18 4.633 3.077-6.73-.042-18.638.401-24.263.084-1.056.528-5.85 2.893-5.01 2.094.745-.12 12.753.11 18.077.21 4.905-.592 9.65 1.394 12.73 16.594-2.259 33.457-3.719 51.412-4.212-3.95-1.694-8.643-3.298-13.787-6.198-2.79-1.573-11.58-4.844-12.386-7.493-1.284-4.221 3.37-6.47 4.166-10.088-8.377 4.568-10.011-4.38-11.993-10.718-1.795-5.741-2.817-10.03-3.257-13.341-7.216-3.44-14.931-6.924-21.142-11.335zm83.974-9.159c11.554-5.602 13.636 20.939 9.108 29.489.7 2.55 3.107 3.526 4.09 5.819-6.448 11.55-13.61 22.33-20.188 33.745 4.894-3.047 11.884-.545 17.643-2.825 2.105-.833 3.628-5.652 5.222-9.507 4.384-10.606 8.986-23.977 11.034-34.098.462-2.307 1.722-7.332 1.44-9.384-.504-3.675-5.49-6.4-8.026-8.673-4.673-4.197-7.615-7.891-12.49-11.816-1.975 2.918-6.217 4.878-7.833 7.25zM52.183 47.98c-5.506 6.058-4.353 17.408-3.687 25.483 9.951-6.26 23.16.495 23.035 11.142 4.75-.126 1.775-5.934.915-9.675-2.808-12.22 4.732-25.496.342-36.671-8.523.646-15.525 4.127-20.605 9.721zm39.392-35.157C79.11 16.355 63.138 25.41 58.017 36.608c3.965-.577 6.718-2.577 10.63-2.824 1.479-.096 3.416.62 5.115.197 3.387-.84 6.244-8.432 8.799-11.257 2.49-2.759 5.483-3.938 7.532-6.453 1.316-.635 3.262-.591 3.336-2.567-.57-.61-1.17-1.075-1.854-.881zm64.879 3.322c-12.936-7.299-34.833-12.789-48.594-5.929-11.103 5.537-26.112 14.697-31.23 26.304 4.781 11.201-1.415 21.465-1.81 32.838-.21 6.05 2.849 11.333 3.083 17.92-1.636 2.7-6.633 3.032-10.093 2.847-1.164-5.827-3.203-12.377-9.204-13.035-8.491-.929-14.7 6.099-15.085 13.443-.457 8.636 6.633 22.95 16.682 21.956 3.882-.384 4.835-4.275 9.065-4.235 2.292 4.574-3.536 6.01-4.136 9.281-.156.845.483 4.148.855 5.696 1.826 7.542 5.894 17.302 9.9 23.043 5.082 7.282 15.069 8.38 25.812 9.094 1.92-4.134 8.988-3.794 13.594-2.713-5.52-2.186-10.652-7.486-14.905-12.178-4.885-5.382-9.834-11.156-10.084-18.19 9.232 12.807 16.86 23.992 33.646 29.625 12.703 4.26 27.538-1.952 37.298-8.806 4.05-2.849 6.467-7.369 9.346-11.506 10.771-15.494 15.797-37.609 14.692-59.044-.455-8.84-.435-17.65-3.401-23.597-3.1-6.219-13.585-11.783-19.722-6.158-1.138-6.047 5.103-9.787 12.435-7.611-5.228-6.746-10.714-14.852-18.144-19.045zm24.101 199.459c10.109-5.025 28.996-13.526 35.334.019 2.339 4.992 5.082 13.432 6.294 18.586 1.71 7.271-1.855 22.554-9.33 24.994-6.6 2.154-14.303 2.023-22.254.426-.936-.779-1.979-2.136-2.708-3.551-5.677-.22-10.994.304-15.479 2.638.425 4.199-2.415 4.873-5.077 5.738-1.974 7.826 3.949 18.046 2.531 25.182-1.011 5.084-7.266 5.87-11.864 6.821-.15 2.826.202 5.184.515 7.574-1.05 3.874-5.766 6.079-10.233 6.619-14.699 1.767-37.017 2.561-51.155-2.523-3.945-9.677-7.053-21.447-10.34-32.497-13.789 1.473-24.94-5.95-35.455-10.813-3.64-1.687-8.675-2.617-10.035-5.514-1.319-2.805-.779-8.182-1.106-13.26-.833-12.972-1.546-25.483-4.97-38.764-1.539-5.96-4.22-11.219-6.09-16.962-1.728-5.322-4.748-11.9-5.536-17.207-1.168-7.866 6.24-8.304 10.976-11.712 7.321-5.272 13.069-8.187 20.998-12.944 2.349-1.409 9.431-4.975 10.237-6.618 1.602-3.256-2.749-7.847-3.912-10.4-1.84-4.036-2.8-7.465-3.063-11.447-6.652-1.052-11.694-5.01-14.74-9.474-5.039-7.388-8.533-21.055-4.174-31.451.342-.819 2.047-2.429 2.299-3.686.496-2.477-.934-5.77-1.023-8.403-.458-13.513 2.286-25.155 11.383-29.23 3.693-14.711 16.91-19.603 29.363-26.914 4.655-2.732 9.786-4.479 15.085-6.429 19.01-6.996 48.178-5.678 63.955 6.254 6.69 5.06 17.384 15.744 21.209 23.479 10.102 20.421 9.385 54.55 2.319 79.391-.95 3.335-2.328 8.238-4.252 12.244-1.34 2.797-5.51 8.395-5.003 10.865.521 2.554 9.505 9.375 11.431 11.233 3.469 3.346 10.059 7.787 10.592 12.01.574 4.493-1.98 10.64-3.273 14.977-4.325 14.471-8.545 27.848-13.449 40.749" fill="#0E1112" fill-rule="evenodd"></path><path d="M113.114 115.431c.548-.73 3.563-1.838 7.782.193 0 0-5 .834-4.584 9.17l-2.083-.418s-2.154-7.559-1.115-8.945" fill="#D4D7D6" fill-rule="evenodd"></path><path d="M149.646 187.083a2.292 2.292 0 11-4.583-.002 2.292 2.292 0 014.583.002M151.938 197.708a2.292 2.292 0 11-4.584-.002 2.292 2.292 0 014.583.002" fill="#0E1112" fill-rule="evenodd"></path></svg>