<?xml version="1.0" encoding="utf-8"?>
<!-- Generator: Adobe Illustrator 18.1.1, SVG Export Plug-In . SVG Version: 6.00 Build 0)  -->
<svg version="1.1" id="Layer_1" xmlns="http://www.w3.org/2000/svg" xmlns:xlink="http://www.w3.org/1999/xlink" x="0px" y="0px"
	 viewBox="0 0 32 32" enable-background="new 0 0 32 32" xml:space="preserve">
<path fill="#CD3F45" d="M11.4,10h2.7v7.6c0,3.4-1.6,4.6-4.3,4.6c-0.6,0-1.5-0.1-2-0.3l0.3-2.2C8.5,19.9,9,20,9.5,20
	c1.1,0,1.9-0.5,1.9-2.4L11.4,10L11.4,10z M16.5,19.2c0.7,0.4,1.9,0.8,3,0.8c1.3,0,1.9-0.5,1.9-1.3c0-0.8-0.6-1.2-2-1.7
	c-2-0.7-3.3-1.8-3.3-3.6c0-2.1,1.7-3.6,4.6-3.6c1.4,0,2.4,0.3,3.1,0.6l-0.6,2.2c-0.5-0.2-1.3-0.6-2.5-0.6s-1.8,0.5-1.8,1.2
	c0,0.8,0.7,1.1,2.2,1.7c2.1,0.8,3.1,1.9,3.1,3.6c0,2-1.6,3.7-4.9,3.7c-1.4,0-2.7-0.4-3.4-0.7L16.5,19.2L16.5,19.2z"/>
</svg>
