<?xml version="1.0" encoding="utf-8"?>
<!-- Generator: Adobe Illustrator 19.2.1, SVG Export Plug-In . SVG Version: 6.00 Build 0)  -->
<svg version="1.1" id="Layer_1" xmlns="http://www.w3.org/2000/svg" xmlns:xlink="http://www.w3.org/1999/xlink" x="0px" y="0px"
	 viewBox="0 0 32 32" style="enable-background:new 0 0 32 32;" xml:space="preserve">
<style type="text/css">
	.st0{stroke:#000000;stroke-miterlimit:10;}
</style>
<path class="st0" d="M8.8,7.7c0-0.3,0-0.5,0-0.7c2.8,0,5.6,0,8.4,0c0,0.2,0,0.5,0,0.7c-0.6,0-1.1,0-1.6,0c-0.3,0-0.7,0.1-1.1,0.2
	c-0.4,0.1-0.7,0.4-0.7,0.8s0,0.8,0,1.2c0,4.3,0,8.5,0,12.9c0,0.2,0,0.5,0,0.7c0,0.4,0.2,0.7,0.6,0.7c1.5,0,2.9,0.1,4.4-0.2
	c1.9-0.2,3-1.6,3.4-3.4c0.2-0.7,0.2-1.6,0.4-2.3c0.2,0,0.3,0,0.6,0c-0.1,0.8-0.2,1.6-0.2,2.3c-0.2,1.3-0.2,2.7-0.4,4
	c0,0.2-0.1,0.4-0.4,0.4c-4.4,0-8.7,0-13.1,0c-0.1,0-0.2,0-0.3,0c0-0.2,0-0.5,0-0.8c0.5,0,1,0,1.5,0c1-0.1,1.2-0.2,1.2-1.2
	c0-4.6,0-9.3,0-13.9c0-0.9-0.2-1.2-1.1-1.2C9.9,7.7,9.3,7.7,8.8,7.7z"/>
</svg>
