<?xml version="1.0" encoding="utf-8"?>
<!-- Generator: Adobe Illustrator 18.1.1, SVG Export Plug-In . SVG Version: 6.00 Build 0)  -->
<svg version="1.1" id="Layer_1" xmlns="http://www.w3.org/2000/svg" xmlns:xlink="http://www.w3.org/1999/xlink" x="0px" y="0px"
	 viewBox="0 0 32 32" enable-background="new 0 0 32 32" xml:space="preserve">
<g>
	<path d="M18.1,18.8c0,0.5-0.1,1.1-0.1,1.6c-0.1,1.6-0.2,3.2-0.2,4.8c0,0.2,0,0.5,0,0.7c0,0.1,0,0.1-0.1,0.1c-1-0.2-2-0.4-3-0.6
		c-0.5-0.1-0.9-0.1-1.4-0.2C12.8,25.1,12.4,25,12,25c-1.3-0.2-2.6-0.5-3.9-0.7C7.6,24.1,7,24,6.5,23.9c-0.1,0-0.1-0.1-0.1-0.2
		c0.2-1.1,0.3-2.3,0.4-3.4c0-0.2,0.1-0.5,0.1-0.7c0.1-0.1,0-0.2,0.1-0.4c0.1-0.5,0.1-1,0.2-1.6c0.1-0.5,0.2-1,0.2-1.6
		c0.2-1.3,0.4-2.7,0.5-4c0-0.3,0.2-0.5,0.4-0.6c0.6-0.2,1.2-0.4,1.8-0.6c0.1,0,0.2-0.1,0.2-0.3c0.2-1.1,0.7-2.1,1.3-3
		c0.4-0.6,0.9-1.1,1.5-1.4C13.5,6.1,13.8,6,14.2,6c0.5,0,0.9,0.1,1.2,0.5c0.1,0.1,0.1,0.1,0.2,0.1c0.5,0,1,0.2,1.3,0.6
		c0.3,0.4,0.5,0.8,0.7,1.2c0,0.1,0.1,0.1,0.2,0.1c0.2-0.1,0.3-0.1,0.5-0.2c0.2,0,0.2,0,0.2,0.2c0,0.9-0.1,1.7-0.1,2.6
		c-0.1,1.1-0.1,2.3-0.2,3.4c-0.1,1.4-0.1,2.7-0.2,4.1C18.1,18.7,18.1,18.7,18.1,18.8z M10.7,18.3c0.2,0.2,0.4,0.4,0.7,0.6
		c0.3,0.2,0.6,0.5,0.7,0.9c0.1,0.5-0.1,0.9-0.6,1c-0.1,0-0.3,0-0.5,0c-0.6-0.1-1.1-0.4-1.5-0.7c-0.1-0.1-0.1-0.1-0.2,0.1
		c-0.1,0.4-0.2,0.8-0.4,1.2c-0.1,0.3,0,0.5,0.2,0.6c0.9,0.7,1.9,1,2.9,0.9c1.1-0.1,1.9-0.7,2.3-1.7c0.2-0.5,0.3-1,0.3-1.5
		c0-0.5-0.2-1-0.5-1.4c0-0.1-0.1-0.1-0.1-0.2c-0.3-0.5-0.8-0.8-1.3-1.1c-0.2-0.1-0.4-0.3-0.6-0.5C11.8,16,12,15.2,12.7,15
		c0.7-0.1,1.3,0,1.9,0.2c0.1,0.1,0.2,0,0.2-0.1c0.2-0.6,0.4-1.2,0.6-1.8c0.1-0.3,0.1-0.3-0.2-0.4c-0.7-0.2-1.4-0.2-2.1-0.1
		c-1.6,0.3-3,1.4-3.1,3.2C9.8,16.9,10.1,17.7,10.7,18.3z M14.7,6.8c-0.1-0.1-0.1-0.1-0.2-0.1c-0.2-0.1-0.4,0-0.7,0
		c-0.6,0.2-1,0.5-1.4,1c-0.7,0.8-1.1,1.8-1.4,2.8c0,0.1,0,0.1,0.1,0.1c0.5-0.1,0.9-0.3,1.4-0.4c0.1,0,0.1-0.1,0.1-0.1
		c0-0.2,0.1-0.4,0.1-0.6C13.1,8.4,13.6,7.4,14.7,6.8z M15.4,8.9c0-0.4-0.1-0.9-0.2-1.3c-0.1-0.2-0.1-0.2-0.2-0.1
		c-0.2,0.1-0.5,0.3-0.6,0.5c-0.4,0.5-0.7,1.1-0.9,1.7c0,0,0,0.1,0,0.1c0,0,0.1,0,0.1,0c0.5-0.1,1-0.3,1.4-0.4
		C15.4,9.3,15.4,9.3,15.4,8.9z M16.2,9.1C16.4,9,16.7,8.9,17,8.8c0,0,0-0.1,0-0.1c-0.1-0.4-0.3-0.8-0.6-1.1
		c-0.1-0.1-0.2-0.2-0.4-0.3c0,0-0.1,0-0.1,0c0,0,0,0.1,0,0.1c0,0.1,0.1,0.3,0.1,0.4c0.1,0.3,0.1,0.7,0.1,1.1
		C16.1,9,16.1,9.1,16.2,9.1z"/>
	<path d="M25.4,22.4c0.1,0.7,0.2,1.4,0.3,2.1c0,0.1,0,0.1-0.1,0.2c-1.2,0.2-2.3,0.5-3.5,0.7c-0.8,0.2-1.7,0.4-2.5,0.5
		c-0.1,0-0.2,0.1-0.1-0.1c0-0.3,0-0.7,0.1-1c0.1-1.4,0.1-2.7,0.2-4.1c0-0.3,0-0.7,0-1c0-0.3,0-0.7,0.1-1c0-0.2,0-0.5,0-0.7
		c0.1-1.8,0.2-3.5,0.3-5.3c0-0.3,0-0.6,0-1c0.1-0.8,0.1-1.5,0.1-2.3c0-0.3,0-0.6,0-0.9c0,0,0-0.1,0-0.1c0.1,0,0.1,0,0.1,0.1
		c0.1,0.1,0.3,0.3,0.4,0.4c0.2,0.2,0.4,0.3,0.5,0.5c0.1,0.2,0.3,0.2,0.5,0.2c0.4,0,0.9,0.1,1.3,0.1c0.1,0,0.2,0.1,0.2,0.2
		c0.1,0.4,0.1,0.8,0.2,1.2c0.1,0.7,0.2,1.3,0.3,2c0.2,1,0.3,2.1,0.5,3.1c0.3,1.7,0.5,3.4,0.8,5.1C25.2,21.7,25.3,22,25.4,22.4z"/>
</g>
</svg>
