<?xml version="1.0" encoding="utf-8"?>
<!-- Generator: Adobe Illustrator 18.1.1, SVG Export Plug-In . SVG Version: 6.00 Build 0)  -->
<svg version="1.1" id="Layer_1" xmlns="http://www.w3.org/2000/svg" xmlns:xlink="http://www.w3.org/1999/xlink" x="0px" y="0px"
	 viewBox="0 0 32 32" enable-background="new 0 0 32 32" xml:space="preserve">
<g>
	<path d="M16,7.5c0,0.1,0,0.2,0,0.2c0,2.4,0,4.8,0,7.2c0,0,0,0.1,0,0.1c0.1,0,0.1,0,0.1-0.1c0,0,0,0,0,0c0,0,0,0,0,0c0,0,0,0,0,0
		c0,0,0.1,0,0.1-0.1c0,0,0,0,0,0c0,0,0.1,0,0.1-0.1c0,0,0,0,0,0c0,0,0,0,0,0c0,0,0,0,0,0c0,0,0,0,0,0c0,0,0,0,0,0c0,0,0,0,0,0
		c0,0,0,0,0,0c0,0,0,0,0,0c0,0,0,0,0,0c0.1,0,0.1,0,0.1-0.1c0,0,0,0,0,0c0,0,0,0,0,0c0,0,0,0,0,0c0,0,0,0,0,0c0,0,0,0,0,0
		c0.1,0,0.1,0,0.1-0.1c0,0,0,0,0,0c0,0,0,0,0,0c0,0,0,0,0,0c0,0,0,0,0,0c0,0,0,0,0,0c0,0,0,0,0,0c0,0,0,0,0,0c0,0,0,0,0,0
		c0,0,0,0,0,0c0,0,0,0,0,0c0,0,0,0,0,0c0,0,0,0,0,0c0,0,0,0,0,0c0.1,0,0.1-0.1,0.1-0.2c0-0.3,0-0.6,0-0.8c0-1.8,0-3.6,0-5.3
		c0-0.2,0.1-0.3,0.3-0.3c0.2,0,0.4,0,0.6,0c0.3,0,0.3,0,0.3,0.3c0,1.6,0,3.2,0,4.8c0,0.1,0,0.2,0,0.2c0,0,0,0,0.1,0c0,0,0,0,0,0
		c0,0,0,0,0,0c0,0,0,0,0,0c0,0,0,0,0,0c0,0,0,0,0,0c0,0,0,0,0,0c0,0,0,0,0,0c0,0,0,0,0,0c0,0,0,0,0,0c0,0,0,0,0,0c0,0,0,0,0,0
		c0,0,0,0,0,0c0.1,0,0.1,0,0.1-0.1c0,0,0,0,0,0c0,0,0,0,0,0c0,0,0,0,0,0c0,0,0,0,0,0c0,0,0,0,0,0c0,0,0,0,0,0c0,0,0,0,0,0
		c0,0,0,0,0,0c0,0,0,0,0,0c0,0,0,0,0,0c0,0,0,0,0,0c0,0,0,0,0,0c0,0,0,0,0,0c0,0,0,0,0,0c0,0,0,0,0,0c0,0,0,0,0,0c0,0,0,0,0,0
		c0,0,0,0,0,0c0,0,0,0,0,0c0,0,0,0,0,0c0,0,0,0,0,0c0,0,0,0,0-0.1c0.1-0.1,0.1-0.1,0.2-0.2c0,0,0,0,0,0c0,0,0,0,0,0c0,0,0,0,0,0
		c0,0,0,0,0,0c0.1-0.1,0-0.2,0-0.2c0-1.2,0-2.3,0-3.5c0-0.1,0-0.2,0-0.3c0.4,0,0.7,0,1.1,0c0,0.9,0,1.7,0,2.6c0,0.1,0,0.1,0,0.2
		c0.1,0,0.1-0.1,0.2-0.1c0.4-0.4,0.7-0.7,1.1-1.1c0.1,0,0.1-0.1,0.1-0.2c0-0.4,0-0.8,0-1.3c0-0.1,0-0.1,0-0.2c0.2-0.1,0.4,0,0.6,0
		c0.2,0,0.5-0.1,0.6,0c0.1,0.1,0,0.4,0,0.6c0,0.2,0,0.3,0,0.5c0,0.1,0,0.1,0.1,0.2c0,0-0.1,0,0,0c0.3,0,0.6,0,0.9,0
		c0.1,0,0.2,0,0.2,0.2c0,0.3,0,0.7,0,1c-0.1,0-0.2,0-0.3,0c0.1-0.1,0.2,0,0.3-0.1c-0.5,0-0.9,0-1.4,0c-0.1,0-0.1,0-0.1,0.1
		c-0.4,0.4-0.9,0.8-1.3,1.3c0,0.1,0.1,0.1,0.2,0.1c0.8,0,1.6,0,2.4,0c0.2,0,0.2,0,0.2,0.2c0,0.2,0,0.4,0,0.7c0,0.2,0,0.3-0.3,0.3
		c-1.2,0-2.4,0-3.6,0c-0.1,0-0.2-0.1-0.2,0.1c-0.4,0.4-0.8,0.8-1.2,1.2c0.1,0,0.2,0,0.2,0c1.6,0,3.3,0,4.9,0c0.1,0,0.1,0,0.2,0
		c0,0.3,0,0.6,0,0.9c0,0.2-0.1,0.2-0.3,0.2c-2,0-4.1,0-6.1,0c-0.1,0-0.2,0-0.2,0c0,0,0,0,0,0c0,0,0,0,0,0c0,0,0,0,0,0
		c-0.1,0-0.1,0-0.1,0.1c0,0,0,0,0,0c0,0,0,0,0,0c0,0,0,0,0,0c-0.1,0-0.1,0-0.1,0.1c0,0,0,0,0,0c0,0,0,0,0,0c0,0,0,0,0,0
		c-0.1,0-0.1,0-0.1,0.1c0,0,0,0,0,0c0,0,0,0,0,0c0,0,0,0,0,0c0,0,0,0,0,0c0,0,0,0,0,0c0,0,0,0,0,0c0,0,0,0,0,0c-0.1,0-0.1,0-0.1,0.1
		c0,0,0,0,0,0c0,0,0,0,0,0c0,0,0,0,0,0c0,0,0,0,0,0c0,0,0,0,0,0c0,0,0,0,0,0c0,0,0,0,0,0c0,0,0,0,0,0c0,0,0,0,0,0c0,0,0,0,0,0
		c0,0,0,0,0,0c-0.1,0-0.1,0-0.1,0.1c0,0,0,0,0,0c0,0,0,0,0,0c0,0,0,0,0,0c-0.1,0-0.1,0-0.1,0.1c0,0,0,0,0,0c-0.1,0-0.1,0-0.1,0.1
		c0,0,0,0,0,0c0.1,0.1,0.2,0,0.2,0c2.4,0,4.9,0,7.3,0c0.1,0,0.1,0,0.2,0c0.1,0,0.1,0,0.1,0.1c0,0.2,0,0.5,0,0.7c0,0.3,0,0.3-0.3,0.3
		c-2.9,0-5.7,0-8.6,0c-0.1,0-0.2,0-0.3,0c0,0,0,0,0,0c0,0,0,0,0,0c0,0,0,0,0,0c0,0,0,0,0,0c0,0,0,0,0,0c0,0,0,0,0,0c0,0,0,0,0,0
		c0,0,0,0,0,0c0,0,0,0,0,0c0,0,0,0,0,0c0,0,0,0,0,0c0,0,0,0,0,0c0,0,0,0,0,0c0,0,0,0,0,0c0,0,0,0,0,0c0,0,0,0,0,0c0,0,0,0,0,0
		c0,0,0,0,0,0c0,0-0.1,0.1-0.1,0.1c0,0,0,0,0,0c0,0,0,0,0,0c0,0,0,0,0,0c0,0,0,0,0,0c0,0,0,0,0,0c0,0,0,0,0,0c0,0,0,0,0,0
		c0,0,0,0,0,0c0,0,0,0,0,0c0,0,0,0,0,0c0,0,0,0,0,0c-0.1,0.2-0.3,0.3-0.4,0.5c0.1,0.1,0.2,0,0.3,0c3.2,0,6.5,0,9.7,0
		c0.1,0,0.1,0,0.2,0c0.1,0,0.2,0,0.2,0.2c0,0.3,0,0.7,0,1c-0.1,0-0.2,0-0.3,0c-3.7,0-7.4,0-11.1,0c-0.1,0-0.2,0-0.3,0.1
		c-0.4,0.4-0.7,0.7-1.1,1.1c0,0.1,0.2,0.1,0.2,0.1c1.8,0,3.6,0,5.5,0c2.7,0,5.4,0,8.1,0c0.2,0,0.2,0,0.2,0.2c0,0.6,0,1.2,0,1.9
		c0,0.3,0,0.3-0.3,0.3c-4.8,0-9.6,0-14.4,0c-0.1,0-0.2,0-0.3,0c0,0,0,0,0,0c-0.1,0.1,0,0.2,0,0.2c0,0.8,0,1.5,0,2.3
		c-0.8,0-1.5,0-2.3,0c-0.2,0-0.2-0.1-0.2-0.2c0-0.7,0-1.4,0-2.1c0-0.1,0-0.2,0-0.2c-0.1-0.1-0.1,0-0.2,0c-0.7,0-1.3,0-2,0
		c-0.2,0-0.2,0-0.2-0.2c0-0.7,0-1.3,0-2c0-0.2,0.1-0.2,0.2-0.2c0.4,0,0.7,0,1.1,0c0.4,0,0.7,0,1.1,0c0,0,0,0,0,0c-0.8,0-1.6,0-2.4,0
		c0.1-0.1,0.1,0,0.2,0c0.8,0,1.5,0,2.3,0c0.1-0.1,0-0.2,0-0.2c0-2.2,0-4.4,0-6.7c0-2.6,0-5.2,0-7.8c0-0.2,0-0.2,0.2-0.2
		c0.6,0,1.3,0,1.9,0c0.3,0,0.3,0,0.3,0.3c0,4.5,0,9,0,13.5c0,0.1,0,0.2,0,0.3c0.2-0.1,0.3-0.3,0.4-0.4c0.3-0.3,0.5-0.6,0.8-0.8
		c0.1,0,0.1-0.1,0.1-0.2c0-3.7,0-7.4,0-11.2c0-0.1,0-0.2,0-0.2c0.2-0.1,0.5,0,0.7,0c0.2,0,0.4-0.1,0.5,0c0.1,0.1,0,0.3,0,0.5
		c0,3.2,0,6.4,0,9.5c0,0.1,0,0.1,0,0.2c0.4-0.4,0.8-0.8,1.3-1.2c0.1-0.1,0.1-0.2,0.1-0.2c0-2.9,0-5.9,0-8.8c0.4,0,0.7,0,1.1,0
		c0.1,0,0.1,0,0.1,0.1C15.9,7.4,15.9,7.5,16,7.5c-0.1,2.5-0.1,4.9-0.1,7.3c0,0.1,0,0.1,0,0.2c0.1-0.1,0-0.2,0-0.3c0-2.3,0-4.7,0-7
		C16,7.7,15.9,7.6,16,7.5z"/>
	<path d="M11,23.5c0.1-0.1,0.2,0,0.3,0c4.8,0,9.6,0,14.4,0c0.3,0,0.3,0,0.3-0.3c0-0.6,0-1.2,0-1.9c0-0.2,0-0.2-0.2-0.2
		c-2.7,0-5.4,0-8.1,0c-1.8,0-3.6,0-5.5,0c-0.1,0-0.2,0.1-0.2-0.1c4,0,8,0,12.1,0c0.6,0,1.2,0,1.8,0C26,21,26,21,26,21.2
		c0,0.7,0,1.4,0,2.1c0,0.2,0,0.2-0.2,0.2c-4.9,0-9.7,0-14.6,0C11.1,23.5,11.1,23.5,11,23.5z"/>
	<path d="M11,20.1c-0.1-0.1,0-0.2,0-0.3c0-4.5,0-9,0-13.5c0-0.3,0-0.3-0.3-0.3c-0.6,0-1.3,0-1.9,0c-0.2,0-0.2,0-0.2,0.2
		c0,2.6,0,5.2,0,7.8c0,2.2,0,4.4,0,6.7c0,0.1,0,0.2,0,0.2c0-0.1,0-0.2,0-0.3c0-4.8,0-9.6,0-14.5C8.5,6,8.5,6,8.7,6
		c0.7,0,1.4,0,2.1,0C10.9,6,11,6,11,6.2C11,10.8,11,15.4,11,20.1z"/>
	<path d="M18.5,12.5c-0.1-0.1,0-0.2,0-0.2c0-1.6,0-3.2,0-4.8c0-0.3,0-0.3-0.3-0.3c-0.2,0-0.4,0-0.6,0c-0.2,0-0.3,0.1-0.3,0.3
		c0,1.8,0,3.6,0,5.3c0,0.3,0,0.6,0,0.8c0,0.1,0,0.2-0.1,0.2c0.1-0.1,0.1-0.2,0.1-0.3c0-2.1,0-4.1,0-6.2c0-0.2,0-0.2,0.2-0.2
		c0.3,0,0.6,0,0.9,0c0.1,0,0.2,0,0.2,0.2c0,0.4,0,0.8,0,1.2c0,1.2,0,2.4,0,3.6C18.5,12.3,18.5,12.4,18.5,12.5z"/>
	<path d="M15.6,17.2c0.1-0.1,0.2,0,0.3,0c2.9,0,5.7,0,8.6,0c0.3,0,0.3,0,0.3-0.3c0-0.2,0-0.5,0-0.7c0-0.1,0-0.2-0.1-0.1
		c-0.1,0-0.1,0-0.2,0c-2.4,0-4.9,0-7.3,0c-0.1,0-0.2,0-0.2,0c2.6,0,5.1,0,7.7,0c0.2,0,0.2,0,0.2,0.2c0,0.3,0,0.6,0,0.8
		c0,0.1,0,0.2-0.2,0.2c-0.9,0-1.8,0-2.7,0c-2,0-4,0-6.1,0C15.7,17.2,15.7,17.2,15.6,17.2z"/>
	<path d="M12.3,7.3c0.1,0.1,0,0.1,0,0.2c0,3.7,0,7.4,0,11.2c0,0.1,0,0.2-0.1,0.2c0-0.1,0-0.1,0-0.2c0-3.7,0-7.5,0-11.2
		C12.3,7.4,12.3,7.3,12.3,7.3z"/>
	<path d="M24.7,19.7c0-0.3,0-0.7,0-1c0-0.1,0-0.2-0.2-0.2c-0.1,0-0.1,0-0.2,0c-3.2,0-6.5,0-9.7,0c-0.1,0-0.2,0-0.3,0
		c0.2,0,0.3,0,0.5,0c3.2,0,6.4,0,9.5,0c0.3,0,0.3,0,0.3,0.3c0,0.3,0,0.5,0,0.8C24.7,19.6,24.8,19.7,24.7,19.7z"/>
	<path d="M14.8,7.3c0,2.9,0,5.9,0,8.8c0,0.1,0,0.2-0.1,0.2c0-2.2,0-4.4,0-6.6c0-0.7,0-1.5,0-2.2c0,0,0,0,0-0.1
		C14.8,7.4,14.7,7.3,14.8,7.3z"/>
	<path d="M20.6,12.3c0-0.1,0.1-0.1,0.2-0.1c1.2,0,2.4,0,3.6,0c0.2,0,0.3-0.1,0.3-0.3c0-0.2,0-0.4,0-0.7c0-0.2,0-0.2-0.2-0.2
		c-0.8,0-1.6,0-2.4,0c-0.1,0-0.2,0-0.2-0.1c0,0,0,0,0.1,0c0,0,0.1,0,0.1,0c0.9,0,1.7,0,2.6,0c0,0,0.1,0,0.1,0c0.1,0,0.1,0.1,0.1,0.1
		c0,0.4,0,0.7,0,1.1c0,0,0,0,0,0.1c-0.1,0-0.2,0-0.2,0c-1.2,0-2.4,0-3.6,0C20.8,12.2,20.7,12.2,20.6,12.3
		C20.6,12.2,20.6,12.2,20.6,12.3z"/>
	<path d="M16,7.5c-0.1,0.1,0,0.2,0,0.2c0,2.3,0,4.7,0,7c0,0.1,0,0.1,0,0.3c0-0.1,0-0.2,0-0.2C15.9,12.4,15.9,10,16,7.5
		c-0.1,0-0.1-0.1,0-0.2C16,7.4,16,7.5,16,7.5z"/>
	<path d="M18.1,14.7c0.1-0.1,0.2,0,0.2,0c2,0,4.1,0,6.1,0c0.2,0,0.3,0,0.3-0.2c0-0.3,0-0.6,0-0.9c0.1,0,0.1,0.1,0.1,0.2
		c0,0.3,0,0.6,0,0.9c0,0.1,0,0.2-0.2,0.2C22.4,14.7,20.3,14.7,18.1,14.7z"/>
	<path d="M6,21c0.8,0,1.6,0,2.4,0c0,0,0,0,0,0c-0.4,0-0.7,0-1.1,0c-0.4,0-0.7,0-1.1,0c-0.2,0-0.2,0-0.2,0.2c0,0.7,0,1.3,0,2
		c0,0.2,0,0.2,0.2,0.2c0.7,0,1.3,0,2,0c0.1,0,0.2,0,0.2,0c-0.8,0-1.6,0-2.3,0c-0.1,0-0.1,0-0.1-0.1C6,22.6,6,21.8,6,21z"/>
	<path d="M19.8,7.3c0,0.1,0,0.2,0,0.3c0,1.2,0,2.3,0,3.5c0,0.1,0,0.2,0,0.2c0-1.3,0-2.6,0-3.9C19.8,7.3,19.7,7.2,19.8,7.3z"/>
	<path d="M20.7,12.2c0.1,0,0.1,0,0.2,0c1.2,0,2.4,0,3.6,0c0.1,0,0.2,0,0.2,0c-0.1,0-0.1,0-0.2,0c-1.2,0-2.4,0-3.6,0
		C20.8,12.2,20.7,12.2,20.7,12.2z"/>
	<path d="M21,10c-0.1,0,0-0.1,0-0.2c0-0.9,0-1.7,0-2.6c0.1,0,0,0.1,0,0.1C21,8.3,21,9.1,21,10z"/>
	<path d="M23.1,9.7c0-0.1,0.1-0.1,0.1-0.1c0.4,0,0.9,0,1.4,0c-0.1,0.1-0.2,0-0.3,0.1C23.9,9.7,23.5,9.7,23.1,9.7z"/>
	<path d="M24.7,11c0,0-0.1,0-0.1,0c-0.9,0-1.7,0-2.6,0c0,0-0.1,0-0.1,0c0,0,0.1,0,0.1,0C22.9,11,23.8,11,24.7,11z"/>
	<path d="M10.9,26c0-0.8,0-1.5,0-2.3c0-0.1,0-0.2,0-0.2c0,0.8,0,1.5,0,2.3C11,25.9,11,25.9,10.9,26z"/>
	<path d="M24.7,9.7c0-0.3,0-0.7,0-1c0-0.1,0-0.2-0.2-0.2c-0.3,0-0.6,0-0.9,0c-0.1,0,0,0,0,0c0.4,0,0.7,0,1.1,0c0,0,0,0,0,0
		C24.8,8.9,24.7,9.3,24.7,9.7C24.7,9.7,24.7,9.7,24.7,9.7z"/>
	<path d="M22.3,7.3c0.1,0,0,0.1,0,0.2c0,0.4,0,0.8,0,1.3c0,0.1,0,0.1-0.1,0.2C22.2,8.3,22.3,7.8,22.3,7.3z"/>
	<path d="M17.8,15.1c0-0.1,0-0.1,0.1-0.1C17.9,15,17.8,15,17.8,15.1z"/>
	<path d="M17.1,15.7c0-0.1,0-0.1,0.1-0.1C17.2,15.6,17.2,15.7,17.1,15.7z"/>
	<path d="M17.7,15.2C17.7,15.1,17.7,15.1,17.7,15.2C17.7,15.1,17.7,15.2,17.7,15.2z"/>
	<path d="M16.1,15C16.1,15.1,16.1,15.1,16.1,15C16,15.1,16.1,15,16.1,15z"/>
	<path d="M17.9,14.9C17.9,14.8,18,14.8,17.9,14.9C18,14.8,18,14.9,17.9,14.9z"/>
	<path d="M17.4,15.4C17.4,15.3,17.5,15.3,17.4,15.4C17.5,15.3,17.5,15.4,17.4,15.4z"/>
	<path d="M16.7,14.4C16.7,14.5,16.6,14.5,16.7,14.4C16.6,14.5,16.6,14.5,16.7,14.4z"/>
	<path d="M16.9,14.2C16.9,14.3,16.8,14.3,16.9,14.2C16.8,14.3,16.8,14.3,16.9,14.2z"/>
	<path d="M17,15.8C17,15.8,17,15.8,17,15.8C17,15.8,17,15.8,17,15.8z"/>
	<path d="M16.9,16C16.9,15.9,16.9,15.9,16.9,16C16.9,15.9,16.9,15.9,16.9,16z"/>
	<path d="M19,12.1C19,12.2,18.9,12.2,19,12.1C18.9,12.2,18.9,12.2,19,12.1z"/>
	<path d="M16.2,14.9C16.2,14.9,16.2,14.9,16.2,14.9C16.2,14.9,16.2,14.9,16.2,14.9z"/>
	<path d="M16.3,14.8C16.3,14.8,16.3,14.9,16.3,14.8C16.2,14.8,16.3,14.8,16.3,14.8z"/>
	<path d="M14.8,7.5C14.8,7.5,14.8,7.5,14.8,7.5C14.7,7.5,14.7,7.5,14.8,7.5z"/>
	<path d="M24.7,8.5C24.7,8.5,24.7,8.5,24.7,8.5C24.7,8.5,24.7,8.5,24.7,8.5z"/>
	<path d="M14.8,18C14.8,18,14.8,18,14.8,18C14.8,18,14.8,18,14.8,18z"/>
	<path d="M17.6,15.2C17.6,15.2,17.6,15.2,17.6,15.2C17.6,15.2,17.6,15.2,17.6,15.2z"/>
	<path d="M17.6,15.3C17.6,15.3,17.6,15.2,17.6,15.3C17.6,15.2,17.6,15.3,17.6,15.3z"/>
	<path d="M14.9,18C14.9,18,14.9,18,14.9,18C14.9,18,14.9,18,14.9,18z"/>
	<path d="M17.5,15.3C17.5,15.3,17.6,15.3,17.5,15.3C17.6,15.3,17.5,15.3,17.5,15.3z"/>
	<path d="M14.9,17.9C14.9,17.9,14.9,17.9,14.9,17.9C14.9,17.9,14.9,17.9,14.9,17.9z"/>
	<path d="M17.4,15.4C17.4,15.4,17.4,15.4,17.4,15.4C17.4,15.4,17.4,15.4,17.4,15.4z"/>
	<path d="M17.4,15.5C17.4,15.5,17.4,15.4,17.4,15.5C17.4,15.4,17.4,15.5,17.4,15.5z"/>
	<path d="M17.3,15.5C17.3,15.5,17.4,15.5,17.3,15.5C17.4,15.5,17.3,15.5,17.3,15.5z"/>
	<path d="M14.9,17.9C15,17.9,15,17.9,14.9,17.9C15,17.9,15,17.9,14.9,17.9z"/>
	<path d="M17.3,15.6C17.3,15.5,17.3,15.5,17.3,15.6C17.3,15.5,17.3,15.5,17.3,15.6z"/>
	<path d="M17.2,15.6C17.3,15.6,17.3,15.6,17.2,15.6C17.3,15.6,17.3,15.6,17.2,15.6z"/>
	<path d="M15,17.9C15,17.8,15,17.8,15,17.9C15,17.8,15,17.8,15,17.9z"/>
	<path d="M15,17.8C15,17.8,15.1,17.8,15,17.8C15.1,17.8,15,17.8,15,17.8z"/>
	<path d="M17.1,15.8C17.1,15.7,17.1,15.7,17.1,15.8C17.1,15.7,17.1,15.7,17.1,15.8z"/>
	<path d="M15.1,17.7C15.2,17.7,15.2,17.7,15.1,17.7C15.2,17.7,15.2,17.7,15.1,17.7z"/>
	<path d="M19.7,11.3C19.7,11.4,19.7,11.4,19.7,11.3C19.7,11.4,19.7,11.4,19.7,11.3z"/>
	<path d="M15.6,17.3C15.6,17.3,15.6,17.3,15.6,17.3C15.6,17.3,15.6,17.3,15.6,17.3z"/>
	<path d="M15.5,17.3C15.5,17.3,15.5,17.3,15.5,17.3C15.5,17.3,15.5,17.3,15.5,17.3z"/>
	<path d="M15.5,17.4C15.5,17.4,15.5,17.3,15.5,17.4C15.5,17.3,15.5,17.4,15.5,17.4z"/>
	<path d="M15.4,17.4C15.4,17.4,15.4,17.4,15.4,17.4C15.4,17.4,15.4,17.4,15.4,17.4z"/>
	<path d="M15.3,17.5C15.4,17.5,15.4,17.5,15.3,17.5C15.4,17.5,15.4,17.5,15.3,17.5z"/>
	<path d="M15.3,17.5C15.3,17.5,15.3,17.5,15.3,17.5C15.3,17.5,15.3,17.5,15.3,17.5z"/>
	<path d="M15.3,17.6C15.3,17.6,15.3,17.5,15.3,17.6C15.3,17.5,15.3,17.6,15.3,17.6z"/>
	<path d="M15.2,17.6C15.2,17.6,15.3,17.6,15.2,17.6C15.3,17.6,15.2,17.6,15.2,17.6z"/>
	<path d="M18.6,12.5C18.6,12.5,18.6,12.5,18.6,12.5C18.6,12.5,18.6,12.5,18.6,12.5z"/>
	<path d="M18.7,12.4C18.7,12.4,18.6,12.5,18.7,12.4C18.6,12.5,18.7,12.4,18.7,12.4z"/>
	<path d="M18.8,12.3C18.7,12.4,18.7,12.4,18.8,12.3C18.7,12.4,18.7,12.4,18.8,12.3z"/>
	<path d="M18.8,12.3C18.8,12.3,18.8,12.3,18.8,12.3C18.8,12.3,18.8,12.3,18.8,12.3z"/>
	<path d="M18.8,12.3C18.8,12.3,18.8,12.3,18.8,12.3C18.8,12.3,18.8,12.3,18.8,12.3z"/>
	<path d="M19.5,11.6C19.5,11.6,19.5,11.6,19.5,11.6C19.5,11.6,19.5,11.6,19.5,11.6z"/>
	<path d="M18.9,12.2C18.9,12.2,18.9,12.2,18.9,12.2C18.9,12.2,18.9,12.2,18.9,12.2z"/>
	<path d="M19,12.1C19,12.1,19,12.1,19,12.1C19,12.1,19,12.1,19,12.1z"/>
	<path d="M19,12C19,12.1,19,12.1,19,12C19,12.1,19,12.1,19,12z"/>
	<path d="M19.1,12C19.1,12,19.1,12,19.1,12C19.1,12,19.1,12,19.1,12z"/>
	<path d="M19.2,11.9C19.2,11.9,19.1,12,19.2,11.9C19.1,12,19.2,11.9,19.2,11.9z"/>
	<path d="M19.2,11.9C19.2,11.9,19.2,11.9,19.2,11.9C19.2,11.9,19.2,11.9,19.2,11.9z"/>
	<path d="M19.3,11.8C19.2,11.9,19.2,11.9,19.3,11.8C19.2,11.9,19.2,11.9,19.3,11.8z"/>
	<path d="M19.3,11.8C19.3,11.8,19.3,11.8,19.3,11.8C19.3,11.8,19.3,11.8,19.3,11.8z"/>
	<path d="M19.4,11.7C19.4,11.7,19.3,11.8,19.4,11.7C19.3,11.8,19.4,11.7,19.4,11.7z"/>
	<path d="M19.4,11.7C19.4,11.7,19.4,11.7,19.4,11.7C19.4,11.7,19.4,11.7,19.4,11.7z"/>
	<path d="M19.5,11.6C19.4,11.7,19.4,11.7,19.5,11.6C19.4,11.7,19.4,11.7,19.5,11.6z"/>
	<path d="M17.7,15.1C17.7,15.1,17.8,15.1,17.7,15.1C17.8,15.1,17.7,15.1,17.7,15.1z"/>
	<path d="M16.2,14.9C16.2,14.9,16.1,15,16.2,14.9C16.1,15,16.2,14.9,16.2,14.9z"/>
	<path d="M17.9,14.9C17.9,14.9,17.9,14.9,17.9,14.9C17.9,14.9,17.9,14.9,17.9,14.9z"/>
	<path d="M18,14.8C18,14.8,18,14.8,18,14.8C18,14.8,18,14.8,18,14.8z"/>
	<path d="M16.4,14.7C16.4,14.7,16.3,14.8,16.4,14.7C16.3,14.8,16.4,14.7,16.4,14.7z"/>
	<path d="M16.4,14.7C16.4,14.7,16.4,14.7,16.4,14.7C16.4,14.7,16.4,14.7,16.4,14.7z"/>
	<path d="M16.5,14.6C16.5,14.6,16.5,14.6,16.5,14.6C16.5,14.6,16.5,14.6,16.5,14.6z"/>
	<path d="M16.6,14.5C16.6,14.5,16.6,14.6,16.6,14.5C16.6,14.6,16.6,14.5,16.6,14.5z"/>
	<path d="M16.7,14.4C16.7,14.4,16.7,14.4,16.7,14.4C16.7,14.4,16.7,14.4,16.7,14.4z"/>
	<path d="M16.7,14.4C16.7,14.4,16.7,14.4,16.7,14.4C16.7,14.4,16.7,14.4,16.7,14.4z"/>
	<path d="M16.9,14.2C16.9,14.2,16.9,14.2,16.9,14.2C16.9,14.2,16.9,14.2,16.9,14.2z"/>
	<path d="M17,14.1C16.9,14.2,16.9,14.2,17,14.1C16.9,14.2,16.9,14.2,17,14.1z"/>
	<path d="M17,14.1C17,14.1,17,14.1,17,14.1C17,14.1,17,14.1,17,14.1z"/>
	<path d="M17.1,14C17.1,14,17,14.1,17.1,14C17,14.1,17.1,14,17.1,14z"/>
	<path d="M17.1,14C17.1,14,17.1,14,17.1,14C17.1,14,17.1,14,17.1,14z"/>
	<path d="M17.2,13.9C17.2,13.9,17.2,13.9,17.2,13.9C17.2,13.9,17.2,13.9,17.2,13.9z"/>
	<path d="M19.7,11.4C19.7,11.4,19.7,11.4,19.7,11.4C19.7,11.4,19.7,11.4,19.7,11.4z"/>
</g>
</svg>
