<svg xmlns="http://www.w3.org/2000/svg" viewBox="0 0 32 32"><path d="M16 7.5V15c.1 0 .1 0 .1-.1 0 0 .1 0 .1-.1 0 0 .1 0 .1-.1.1 0 .1 0 .1-.1.1 0 .1 0 .1-.1.1 0 .1-.1.1-.2v-.8-5.3c0-.2.1-.3.3-.3h.6c.3 0 .3 0 .3.3v5h.1c.1 0 .1 0 .1-.1V13l.2-.2c.1-.1 0-.2 0-.2V9.1v-.3h1.1V11.6c.1 0 .1-.1.2-.1l1.1-1.1c.1 0 .1-.1.1-.2V8.9v-.2c.2-.1.4 0 .6 0 .2 0 .5-.1.6 0 .1.1 0 .4 0 .6v.5c0 .1 0 .1.1.2 0 0-.1 0 0 0h.9c.1 0 .2 0 .2.2v1h-.3c.1-.1.2 0 .3-.1h-1.4c-.1 0-.1 0-.1.1-.4.4-.9.8-1.3 1.3 0 .1.1.1.2.1h2.4c.2 0 .2 0 .2.2v.7c0 .2 0 .3-.3.3h-3.6c-.1 0-.2-.1-.2.1l-1.2 1.2H23.1v.9c0 .2-.1.2-.3.2h-6.3c-.1 0-.1 0-.1.1-.1 0-.1 0-.1.1-.1 0-.1 0-.1.1-.1 0-.1 0-.1.1-.1 0-.1 0-.1.1-.1 0-.1 0-.1.1-.1 0-.1 0-.1.1.1.1.2 0 .2 0h7.5c.1 0 .1 0 .1.1v.7c0 .3 0 .3-.3.3h-8.9l-.1.1c-.1.2-.3.3-.4.5.1.1.2 0 .3 0H24.1c.1 0 .2 0 .2.2v1H12.9c-.1 0-.2 0-.3.1L11.5 21c0 .1.2.1.2.1h13.6c.2 0 .2 0 .2.2v1.9c0 .3 0 .3-.3.3H10.5c-.1.1 0 .2 0 .2V26H8.2c-.2 0-.2-.1-.2-.2v-2.1-.2c-.1-.1-.1 0-.2 0h-2c-.2 0-.2 0-.2-.2v-2c0-.2.1-.2.2-.2H8 5.6c.1-.1.1 0 .2 0h2.3c.1-.1 0-.2 0-.2v-6.7-7.8c0-.2 0-.2.2-.2h1.9c.3 0 .3 0 .3.3v13.8c.2-.1.3-.3.4-.4.3-.3.5-.6.8-.8.1 0 .1-.1.1-.2V7.7v-.2c.2-.1.5 0 .7 0 .2 0 .4-.1.5 0 .1.1 0 .3 0 .5v9.7c.4-.4.8-.8 1.3-1.2.1-.1.1-.2.1-.2V7.5h1.1c.1 0 .1 0 .1.1.3-.2.3-.1.4-.1-.1 2.5-.1 4.9-.1 7.3v.2c.1-.1 0-.2 0-.3v-7c.1 0 0-.1.1-.2z"/><path d="M11 23.5c.1-.1.2 0 .3 0h14.4c.3 0 .3 0 .3-.3v-1.9c0-.2 0-.2-.2-.2H12.2c-.1 0-.2.1-.2-.1h13.9c.1 0 .1 0 .1.2v2.1c0 .2 0 .2-.2.2H11zM11 20.1c-.1-.1 0-.2 0-.3V6.3c0-.3 0-.3-.3-.3H8.8c-.2 0-.2 0-.2.2V6.1c-.1-.1-.1-.1.1-.1h2.1c.1 0 .2 0 .2.2v13.9zM18.5 12.5c-.1-.1 0-.2 0-.2V7.5c0-.3 0-.3-.3-.3h-.6c-.2 0-.3.1-.3.3v6.1c0 .1 0 .2-.1.2.1-.1.1-.2.1-.3V7.3c0-.2 0-.2.2-.2h.9c.1 0 .2 0 .2.2v4.8c-.1.2-.1.3-.1.4zM15.6 17.2c.1-.1.2 0 .3 0h8.6c.3 0 .3 0 .3-.3v-.7c0-.1 0-.2-.1-.1H17h7.7c.2 0 .2 0 .2.2v.8c0 .1 0 .2-.2.2h-8.8c-.2-.1-.2-.1-.3-.1zM12.3 7.3c.1.1 0 .1 0 .2v11.2c0 .1 0 .2-.1.2v-.2V7.5c.1-.1.1-.2.1-.2zM24.7 19.7v-1c0-.1 0-.2-.2-.2H14.3h10c.3 0 .3 0 .3.3v.8c.1 0 .2.1.1.1zM14.8 7.3v8.8c0 .1 0 .2-.1.2V9.7 7.5v-.1c.1 0 0-.1.1-.1zM20.6 12.3c0-.1.1-.1.2-.1h3.6c.2 0 .3-.1.3-.3v-.7c0-.2 0-.2-.2-.2h-2.4c-.1 0-.2 0-.2-.1H24.8c.1 0 .1.1.1.1V12.2H21.1c-.3 0-.4 0-.5.1 0-.1 0-.1 0 0zM16 7.5c-.1.1 0 .2 0 .2v7.1c-.1-2.4-.1-4.8 0-7.3-.1 0-.1-.1 0-.2v.2zM18.1 14.7c.1-.1.2 0 .2 0h6.1c.2 0 .3 0 .3-.2v-.9c.1 0 .1.1.1.2v.9c0 .1 0 .2-.2.2-2.2-.2-4.3-.2-6.5-.2zM6 21h2.4-2.2c-.2 0-.2 0-.2.2v2c0 .2 0 .2.2.2h2.2-2.3c-.1 0-.1 0-.1-.1V21zM19.8 7.3V7.4c0-.1-.1-.2 0-.1zM20.7 12.2h4-4zM21 10c-.1 0 0-.1 0-.2V7.2c.1 0 0 .1 0 .1V10zM23.1 9.7c0-.1.1-.1.1-.1h1.4c-.1.1-.2 0-.3.1h-1.2zM24.7 11H22h-.1H24.7zM10.9 26v-2.3-.2 2.3c.1.1.1.1 0 .2zM24.7 9.7v-1c0-.1 0-.2-.2-.2h-.9c-.1 0 0 0 0 0h1.1c.1.4 0 .8 0 1.2zM22.3 7.3c.1 0 0 .1 0 .2v1.3c0 .1 0 .1-.1.2 0-.7.1-1.2.1-1.7zM17.8 15.1c0-.1 0-.1.1-.1 0 0-.1 0-.1.1zM17.1 15.7c0-.1 0-.1.1-.1 0 0 0 .1-.1.1zM17.7 15.2c0-.1 0-.1 0 0 0-.1 0 0 0 0zM16.1 15c0 .1 0 .1 0 0-.1.1 0 0 0 0zM17.9 14.9c0-.1.1-.1 0 0 .1-.1.1 0 0 0zM17.4 15.4c0-.1.1-.1 0 0 .1-.1.1 0 0 0zM16.7 14.4c0 .1-.1.1 0 0-.1.1-.1.1 0 0zM16.9 14.2c0 .1-.1.1 0 0-.1.1-.1.1 0 0zM17 15.8zM16.9 16c0-.1 0-.1 0 0 0-.1 0-.1 0 0zM19 12.1c0 .1-.1.1 0 0-.1.1-.1.1 0 0zM16.2 14.9zM16.3 14.8s0 .1 0 0c-.1 0 0 0 0 0zM14.8 7.5c-.1 0-.1 0 0 0zM24.7 8.5zM14.8 18zM17.6 15.2zM17.6 15.3s0-.1 0 0c0-.1 0 0 0 0zM14.9 18zM17.5 15.3s.1 0 0 0c.1 0 0 0 0 0zM14.9 17.9zM17.4 15.4zM17.4 15.5s0-.1 0 0c0-.1 0 0 0 0zM17.3 15.5s.1 0 0 0c.1 0 0 0 0 0zM14.9 17.9c.1 0 .1 0 0 0 .1 0 .1 0 0 0zM17.3 15.6c0-.1 0-.1 0 0 0-.1 0-.1 0 0zM17.2 15.6c.1 0 .1 0 0 0 .1 0 .1 0 0 0zM15 17.9c0-.1 0-.1 0 0 0-.1 0-.1 0 0zM15 17.8s.1 0 0 0c.1 0 0 0 0 0zM17.1 15.8c0-.1 0-.1 0 0 0-.1 0-.1 0 0zM15.1 17.7c.1 0 .1 0 0 0 .1 0 .1 0 0 0zM19.7 11.3c0 .1 0 .1 0 0 0 .1 0 .1 0 0zM15.6 17.3zM15.5 17.3zM15.5 17.4s0-.1 0 0c0-.1 0 0 0 0zM15.4 17.4zM15.3 17.5c.1 0 .1 0 0 0 .1 0 .1 0 0 0zM15.3 17.5zM15.3 17.6s0-.1 0 0c0-.1 0 0 0 0zM15.2 17.6s.1 0 0 0c.1 0 0 0 0 0zM18.6 12.5zM18.7 12.4s-.1.1 0 0c-.1.1 0 0 0 0zM18.8 12.3c-.1.1-.1.1 0 0-.1.1-.1.1 0 0zM18.8 12.3zM18.8 12.3zM19.5 11.6zM18.9 12.2zM19 12.1zM19 12c0 .1 0 .1 0 0 0 .1 0 .1 0 0zM19.1 12zM19.2 11.9s-.1.1 0 0c-.1.1 0 0 0 0zM19.2 11.9zM19.3 11.8c-.1.1-.1.1 0 0-.1.1-.1.1 0 0zM19.3 11.8zM19.4 11.7s-.1.1 0 0c-.1.1 0 0 0 0zM19.4 11.7zM19.5 11.6c-.1.1-.1.1 0 0-.1.1-.1.1 0 0zM17.7 15.1s.1 0 0 0c.1 0 0 0 0 0zM16.2 14.9s-.1.1 0 0c-.1.1 0 0 0 0zM17.9 14.9zM18 14.8zM16.4 14.7s-.1.1 0 0c-.1.1 0 0 0 0zM16.4 14.7zM16.5 14.6zM16.6 14.5s0 .1 0 0c0 .1 0 0 0 0zM16.7 14.4zM16.7 14.4zM16.9 14.2zM17 14.1c-.1.1-.1.1 0 0-.1.1-.1.1 0 0zM17 14.1zM17.1 14s-.1.1 0 0c-.1.1 0 0 0 0zM17.1 14zM17.2 13.9zM19.7 11.4z"/></svg>