<?xml version="1.0" encoding="utf-8"?>
<!-- Generator: Adobe Illustrator 18.1.1, SVG Export Plug-In . SVG Version: 6.00 Build 0)  -->
<svg version="1.1" id="Layer_1" xmlns="http://www.w3.org/2000/svg" xmlns:xlink="http://www.w3.org/1999/xlink" x="0px" y="0px"
	 viewBox="0 0 32 32" enable-background="new 0 0 32 32" xml:space="preserve">
<g>
	<path d="M14.7,26C9.9,26,6,22.1,6,17.3c0-4.8,3.9-8.8,8.9-8.7c4.7,0.1,8.5,3.9,8.5,8.7C23.4,22.1,19.5,26,14.7,26z M18.3,11.1
		c-1.4,0-2.6,1.2-2.6,2.6c0,1.4,1.1,2.6,2.6,2.6c1.4,0,2.6-1.1,2.6-2.6C20.9,12.3,19.8,11.1,18.3,11.1z"/>
	<path d="M23.4,11.1c-1.4,0-2.6-1.1-2.5-2.6C20.9,7.1,22,6,23.5,6C24.9,6,26,7.2,26,8.6C26,10,24.8,11.1,23.4,11.1z"/>
</g>
</svg>
