<svg xmlns="http://www.w3.org/2000/svg" viewBox="0 0 502.5 502.5"><defs><style>.cls-1{fill:#fff;}</style></defs><g id="Layer_2" data-name="Layer 2"><g id="Layer_1-2" data-name="Layer 1"><path class="cls-1" d="M458.15,30A14.37,14.37,0,0,1,472.5,44.35v413.8a14.37,14.37,0,0,1-14.35,14.35H44.35A14.37,14.37,0,0,1,30,458.15V44.35A14.37,14.37,0,0,1,44.35,30h413.8m0-30H44.35A44.35,44.35,0,0,0,0,44.35v413.8A44.35,44.35,0,0,0,44.35,502.5h413.8a44.35,44.35,0,0,0,44.35-44.35V44.35A44.35,44.35,0,0,0,458.15,0Z"/><path class="cls-1" d="M377.88,110.31a14.36,14.36,0,0,1,14.35,14.34V378a14.37,14.37,0,0,1-14.35,14.35H124.58A14.36,14.36,0,0,1,110.23,378V124.65a14.35,14.35,0,0,1,14.35-14.34h253.3m0-30H124.58a44.34,44.34,0,0,0-44.35,44.34V378a44.35,44.35,0,0,0,44.35,44.35h253.3A44.35,44.35,0,0,0,422.23,378V124.65a44.35,44.35,0,0,0-44.35-44.34Z"/><path class="cls-1" d="M263.29,223.31H234.16a14.92,14.92,0,0,0-14.93,14.93v29.13a14.93,14.93,0,0,0,14.93,14.94h29.13a14.94,14.94,0,0,0,14.94-14.94V238.24a14.93,14.93,0,0,0-14.94-14.93Z"/><path class="cls-1" d="M350.29,223.31H321.16a14.92,14.92,0,0,0-14.93,14.93v29.13a14.93,14.93,0,0,0,14.93,14.94h29.13a14.94,14.94,0,0,0,14.94-14.94V238.24a14.93,14.93,0,0,0-14.94-14.93Z"/><path class="cls-1" d="M176.29,223.31H147.16a14.92,14.92,0,0,0-14.93,14.93v29.13a14.93,14.93,0,0,0,14.93,14.94h29.13a14.94,14.94,0,0,0,14.94-14.94V238.24a14.93,14.93,0,0,0-14.94-14.93Z"/><path class="cls-1" d="M264.29,136.31H235.16a14.92,14.92,0,0,0-14.93,14.93v29.13a14.93,14.93,0,0,0,14.93,14.94h29.13a14.94,14.94,0,0,0,14.94-14.94V151.24a14.93,14.93,0,0,0-14.94-14.93Z"/><path class="cls-1" d="M351.29,136.31H322.16a14.92,14.92,0,0,0-14.93,14.93v29.13a14.93,14.93,0,0,0,14.93,14.94h29.13a14.94,14.94,0,0,0,14.94-14.94V151.24a14.93,14.93,0,0,0-14.94-14.93Z"/><path class="cls-1" d="M177.29,136.31H148.16a14.92,14.92,0,0,0-14.93,14.93v29.13a14.93,14.93,0,0,0,14.93,14.94h29.13a14.94,14.94,0,0,0,14.94-14.94V151.24a14.93,14.93,0,0,0-14.94-14.93Z"/><path class="cls-1" d="M263.29,310.31H234.16a14.92,14.92,0,0,0-14.93,14.93v29.13a14.93,14.93,0,0,0,14.93,14.94h29.13a14.94,14.94,0,0,0,14.94-14.94V325.24a14.93,14.93,0,0,0-14.94-14.93Z"/><path class="cls-1" d="M350.29,310.31H321.16a14.92,14.92,0,0,0-14.93,14.93v29.13a14.93,14.93,0,0,0,14.93,14.94h29.13a14.94,14.94,0,0,0,14.94-14.94V325.24a14.93,14.93,0,0,0-14.94-14.93Z"/><path class="cls-1" d="M176.29,310.31H147.16a14.92,14.92,0,0,0-14.93,14.93v29.13a14.93,14.93,0,0,0,14.93,14.94h29.13a14.94,14.94,0,0,0,14.94-14.94V325.24a14.93,14.93,0,0,0-14.94-14.93Z"/></g></g></svg>