<svg xmlns="http://www.w3.org/2000/svg" viewBox="0 0 32 32" style="enable-background:new 0 0 32 32;" xml:space="preserve"><g><path d="M3.9,20.4H2.3v-9.8h2.6l3,6.1l3-6.1h2.6v9.8h-1.7v-7.6l-3.4,6.8H7.3l-3.4-6.8V20.4z"/><path d="M19.3,18.9c0.6,0,1.1-0.1,1.5-0.3c0.4-0.2,0.8-0.5,1.3-0.9l1.1,1.1c-1,1.1-2.3,1.7-3.8,1.7s-2.7-0.5-3.7-1.4 c-1-1-1.5-2.2-1.5-3.6c0-1.5,0.5-2.7,1.5-3.6c1-1,2.2-1.5,3.8-1.5c1.5,0,2.8,0.6,3.8,1.7l-1,1.1c-0.5-0.4-0.9-0.8-1.3-0.9 S20,12,19.5,12c-1,0-1.8,0.3-2.5,1s-1,1.5-1,2.4c0,1,0.3,1.8,1,2.5C17.6,18.6,18.4,18.9,19.3,18.9z"/><path d="M25.7,12.1v2.7H30v1.5h-4.3v4H24v-9.8h6.5l0,1.5H25.7z"/></g></svg>