<?xml version="1.0" encoding="utf-8"?>
<!-- Generator: Adobe Illustrator 21.0.0, SVG Export Plug-In . SVG Version: 6.00 Build 0)  -->
<svg version="1.1" id="Layer_1" xmlns="http://www.w3.org/2000/svg" xmlns:xlink="http://www.w3.org/1999/xlink" x="0px" y="0px"
	 viewBox="0 0 32 32" style="enable-background:new 0 0 32 32;" xml:space="preserve">
<style type="text/css">
	.st0{opacity:0.7;fill:#9B9B9B;enable-background:new    ;}
</style>
<g id="_1C_logo">
	<path d="M20.8,18L20.8,18z"/>
	<path d="M18.5,17.9L18.5,17.9c-1.4,0-2.5-1.1-2.5-2.5s1.1-2.5,2.5-2.5c1,0,1.9,0.6,2.3,1.5h2.1c-0.5-2-2.3-3.5-4.4-3.5
		c-2.5,0-4.5,2-4.5,4.5s2,4.5,4.5,4.5c0.9,0,5.6,0,6.4,0v-2L18.5,17.9L18.5,17.9z"/>
	<path d="M11,11h2v9h-2V11z"/>
	<path d="M9,12.5h2v2H9V12.5z"/>
	<path class="st0" d="M25.3,6H6.7c0,0-4.7,9.5-4.7,9.5c0,0,4.7,9.4,4.7,9.5h18.6c2.3,0,4.2-1.9,4.2-4.2V10.2C29.5,7.9,27.7,6,25.3,6
		z M27.4,20.8c0,1.2-0.9,2.1-2.1,2.1H8.3c0,0-4.2-6.8-4.2-7.2c0,0,4.2-7.6,4.2-7.6h17.1c1.2,0,2.1,0.9,2.1,2.1V20.8z"/>
</g>
</svg>
