<svg id="Layer_1" xmlns="http://www.w3.org/2000/svg" viewBox="0 0 32 32"><style>.st0{opacity:.7;fill:#9b9b9b;enable-background:new}</style><g id="_1C_logo"><path d="M20.8 18zm-2.3-.1c-1.4 0-2.5-1.1-2.5-2.5s1.1-2.5 2.5-2.5c1 0 1.9.6 2.3 1.5h2.1c-.5-2-2.3-3.5-4.4-3.5-2.5 0-4.5 2-4.5 4.5s2 4.5 4.5 4.5h6.4v-2h-6.4zM11 11h2v9h-2v-9zm-2 1.5h2v2H9v-2z"/><path class="st0" d="M25.3 6H6.7L2 15.5s4.7 9.4 4.7 9.5h18.6c2.3 0 4.2-1.9 4.2-4.2V10.2c0-2.3-1.8-4.2-4.2-4.2zm2.1 14.8c0 1.2-.9 2.1-2.1 2.1h-17s-4.2-6.8-4.2-7.2l4.2-7.6h17.1c1.2 0 2.1.9 2.1 2.1v10.6z"/></g></svg>