<?xml version="1.0" encoding="utf-8"?>
<!-- Generator: Adobe Illustrator 18.1.1, SVG Export Plug-In . SVG Version: 6.00 Build 0)  -->
<svg version="1.1" id="Layer_1" xmlns="http://www.w3.org/2000/svg" xmlns:xlink="http://www.w3.org/1999/xlink" x="0px" y="0px"
	 viewBox="0 0 32 32" enable-background="new 0 0 32 32" xml:space="preserve">
<path fill="#EF7623" d="M7.4,15.7c0-0.2,0-0.4-0.1-0.5c-0.2-0.2-0.6-0.2-0.7,0.1c-0.3,0.5,0,1,0.6,1.2c0.4,0.1,0.7,0.1,1-0.2
	c0.5-0.4,1-0.8,1.5-1.3c0.7-0.6,1.3-1.2,2.2-1.5c1.2-0.4,2.4-0.4,3.4,0.5c0.2,0.2,0.4,0.4,0.6,0.6c0.1,0.1,0.1,0.1,0.2,0.2
	c0.1-0.2,0.2-0.3,0.3-0.4c0.6-0.7,1.4-1.1,2.4-1.1c1.1,0,2.1,0.4,2.9,1.1c0.6,0.5,1.1,1,1.7,1.5c0.3,0.3,0.6,0.5,1,0.6
	c0.5,0.1,1-0.2,1.2-0.6c0.1-0.3,0-0.5-0.2-0.7C25.2,15,25,15,24.8,15.1c-0.2,0.1-0.3,0.3-0.2,0.5c0,0,0,0,0,0.1c0,0,0,0,0,0
	c-0.3-0.2-0.4-0.5-0.4-0.8c0-0.4,0.3-0.6,0.6-0.7c0.9-0.3,1.8,0.2,2,1.2c0.1,0.6,0.1,1.3-0.2,1.9c-0.3,0.7-0.9,1-1.6,1.2
	c-1.4,0.4-2.7,0.1-4-0.4c-0.9-0.4-1.8-0.8-2.7-1.2c-1.1-0.5-2.3-0.7-3.5-0.4c-0.7,0.2-1.5,0.5-2.2,0.8c-0.9,0.4-1.7,0.8-2.6,1.1
	c-1.1,0.4-2.2,0.5-3.3,0.1c-1.1-0.4-1.9-1.2-1.8-2.7c0.1-0.7,0.3-1.3,1-1.5c0.4-0.2,0.9-0.2,1.3,0C7.9,14.6,7.9,15.3,7.4,15.7
	L7.4,15.7z"/>
</svg>
