<?xml version="1.0" encoding="utf-8"?>
<!-- Generator: Adobe Illustrator 18.1.1, SVG Export Plug-In . SVG Version: 6.00 Build 0)  -->
<svg version="1.1" id="Layer_1" xmlns="http://www.w3.org/2000/svg" xmlns:xlink="http://www.w3.org/1999/xlink" x="0px" y="0px"
	 viewBox="0 0 32 32" enable-background="new 0 0 32 32" xml:space="preserve">
<g>
	<path d="M17.3,6c0,0.1,0.1,0.1,0.1,0.2c1.6,1.6,3.1,3.1,4.7,4.7c0.1,0.1,0.1,0.2,0.1,0.3c0,1,0,2,0,3c-0.4-0.2-0.8-0.3-1.3-0.5
		c0-0.5,0-1,0-1.5c-0.1,0-0.2,0-0.2,0c-1.2,0-2.3,0-3.5,0c-0.8,0-1.3-0.5-1.3-1.3c0-1.1,0-2.3,0-3.4c0-0.1,0-0.2,0-0.2
		c-2.5,0-5,0-7.5,0c0,5.8,0,11.6,0,17.5c0.1,0,0.1,0,0.2,0c1.6,0,3.3,0,4.9,0c0.1,0,0.2,0,0.3,0.1c0.3,0.3,0.7,0.7,1.1,1
		c0,0,0.1,0.1,0.1,0.1c-2.3,0-4.6,0-6.8,0c-0.9-0.2-1.1-0.8-1.1-1.5c0-2.9,0-5.8,0-8.7c0-2.8,0-5.6,0-8.5c0-0.6,0.3-1,0.8-1.2
		C8.1,6.1,8.2,6,8.3,6C11.3,6,14.3,6,17.3,6z M21,11c-1.3-1.3-2.5-2.5-3.7-3.7c0,0,0,0,0,0c0,1.2,0,2.5,0,3.7C18.5,11,19.7,11,21,11
		z"/>
	<path d="M18.7,26c-0.4-0.1-0.7-0.1-1.1-0.2c-2.2-0.6-3.8-2.6-4-4.8c-0.3-3,1.8-5.7,4.8-6.1c3.1-0.4,6.1,1.8,6.4,5
		c0,0.1,0,0.1,0,0.1c0,0.3,0,0.6,0,0.9c0,0,0,0.1,0,0.1c-0.2,2.2-1.8,4.2-4,4.8c-0.4,0.1-0.8,0.2-1.1,0.2C19.3,26,19,26,18.7,26z
		 M19.1,16c-2.4,0-4.4,2-4.4,4.4c0,2.4,2,4.4,4.4,4.3c2.4,0,4.4-2,4.4-4.4C23.5,17.9,21.5,16,19.1,16z"/>
	<path d="M19.8,19.8c0.4,0,0.8,0,1.2,0c0.4,0,0.7,0.3,0.7,0.6c0,0.4-0.3,0.6-0.7,0.6c-0.4,0-0.8,0-1.1,0c0,0,0,0-0.1,0
		c0,0.4,0,0.7,0,1.1c0,0.1,0,0.2,0,0.3c-0.1,0.3-0.4,0.5-0.7,0.5c-0.3,0-0.6-0.3-0.6-0.6c0-0.4,0-0.8,0-1.3c-0.2,0-0.3,0-0.5,0
		c-0.3,0-0.5,0-0.8,0c-0.3,0-0.6-0.3-0.6-0.6c0-0.3,0.3-0.6,0.6-0.6c0.4,0,0.8,0,1.3,0c0-0.4,0-0.8,0-1.3c0-0.3,0.3-0.6,0.6-0.6
		c0.3,0,0.6,0.3,0.6,0.6c0,0.2,0,0.3,0,0.5C19.8,19.2,19.8,19.4,19.8,19.8C19.8,19.7,19.8,19.7,19.8,19.8z"/>
</g>
</svg>
