<?xml version="1.0" encoding="UTF-8" standalone="no"?>
<svg width="32px" height="32px" viewBox="0 0 32 32" version="1.1" xmlns="http://www.w3.org/2000/svg" xmlns:xlink="http://www.w3.org/1999/xlink">
    <!-- Generator: Sketch 3.7 (28169) - http://www.bohemiancoding.com/sketch -->
        <path d="M5,17.5009766 L5,15.3916016 C5.42773651,15.3681639 5.74999892,15.3037115 5.96679688,15.1982422 C6.18359483,15.0927729 6.37109296,14.9155286 6.52929688,14.6665039 C6.68750079,14.4174792 6.79589814,14.1054706 6.85449219,13.7304688 C6.90136742,13.4492173 6.92480469,12.9599644 6.92480469,12.2626953 C6.92480469,11.1259709 6.97753854,10.3334983 7.08300781,9.88525391 C7.18847709,9.43700948 7.37890487,9.07666152 7.65429688,8.80419922 C7.92968888,8.53173692 8.33105205,8.31640704 8.85839844,8.15820312 C9.2158221,8.05273385 9.77831647,8 10.5458984,8 L11.0117188,8 L11.0117188,10.1005859 C10.3613249,10.1005859 9.94384858,10.1372067 9.75927734,10.2104492 C9.57470611,10.2836918 9.438477,10.3950188 9.35058594,10.5444336 C9.26269487,10.6938484 9.21875,10.9501935 9.21875,11.3134766 C9.21875,11.682619 9.19238308,12.3828073 9.13964844,13.4140625 C9.11035142,13.9941435 9.0341803,14.4643537 8.91113281,14.824707 C8.78808532,15.1850604 8.63134861,15.4824207 8.44091797,15.7167969 C8.25048733,15.951173 7.95898634,16.1943347 7.56640625,16.4462891 C7.9121111,16.6455088 8.19482312,16.8784166 8.41455078,17.1450195 C8.63427844,17.4116224 8.80273379,17.7353497 8.91992188,18.1162109 C9.03710996,18.4970722 9.11328107,19.0068327 9.1484375,19.6455078 C9.18945333,20.6181689 9.20996094,21.2392565 9.20996094,21.5087891 C9.20996094,21.8955097 9.25683547,22.1650383 9.35058594,22.3173828 C9.44433641,22.4697273 9.58642483,22.5854488 9.77685547,22.6645508 C9.96728611,22.7436527 10.3789031,22.7832031 11.0117188,22.7832031 L11.0117188,24.8925781 L10.5458984,24.8925781 C9.75487886,24.8925781 9.14843961,24.8295905 8.7265625,24.7036133 C8.30468539,24.5776361 7.94873192,24.3681655 7.65869141,24.0751953 C7.36865089,23.7822251 7.17382862,23.4204123 7.07421875,22.9897461 C6.97460888,22.5590799 6.92480469,21.880864 6.92480469,20.9550781 C6.92480469,19.8769477 6.87793016,19.1767594 6.78417969,18.8544922 C6.65527279,18.3857398 6.46045052,18.050294 6.19970703,17.8481445 C5.93896354,17.6459951 5.5390652,17.5302736 5,17.5009766 L5,17.5009766 Z M12.2597656,13.4013672 C12.2597656,12.2470645 12.5131811,11.3916043 13.0200195,10.8349609 C13.526858,10.2783175 14.2138629,10 15.0810547,10 C15.9775435,10 16.6791967,10.2768527 17.1860352,10.8305664 C17.6928736,11.3842801 17.9462891,12.2412051 17.9462891,13.4013672 C17.9462891,14.5556698 17.6928736,15.41113 17.1860352,15.9677734 C16.6791967,16.5244168 15.9921918,16.8027344 15.125,16.8027344 C14.2285111,16.8027344 13.526858,16.5258817 13.0200195,15.972168 C12.5131811,15.4184543 12.2597656,14.5615292 12.2597656,13.4013672 L12.2597656,13.4013672 Z M14.1845703,13.3837891 C14.1845703,14.2216839 14.281249,14.7841783 14.4746094,15.0712891 C14.6210945,15.2822276 14.8232409,15.3876953 15.0810547,15.3876953 C15.3447279,15.3876953 15.549804,15.2822276 15.6962891,15.0712891 C15.88379,14.7841783 15.9775391,14.2216839 15.9775391,13.3837891 C15.9775391,12.5458942 15.88379,11.9863295 15.6962891,11.7050781 C15.549804,11.4882802 15.3447279,11.3798828 15.0810547,11.3798828 C14.8232409,11.3798828 14.6210945,11.4853505 14.4746094,11.6962891 C14.281249,11.9833999 14.1845703,12.5458942 14.1845703,13.3837891 L14.1845703,13.3837891 Z M16.9619141,23.5966797 L15.1337891,23.5966797 L21.9980469,10 L23.7734375,10 L16.9619141,23.5966797 Z M20.9521484,20.2128906 C20.9521484,19.058588 21.2055639,18.2031278 21.7124023,17.6464844 C22.2192408,17.089841 22.912105,16.8115234 23.7910156,16.8115234 C24.6757857,16.8115234 25.3715795,17.089841 25.878418,17.6464844 C26.3852564,18.2031278 26.6386719,19.058588 26.6386719,20.2128906 C26.6386719,21.3730527 26.3852564,22.2314425 25.878418,22.7880859 C25.3715795,23.3447293 24.6845746,23.6230469 23.8173828,23.6230469 C22.920894,23.6230469 22.2192408,23.3447293 21.7124023,22.7880859 C21.2055639,22.2314425 20.9521484,21.3730527 20.9521484,20.2128906 L20.9521484,20.2128906 Z M22.8769531,20.2041016 C22.8769531,21.0419964 22.9736318,21.6015611 23.1669922,21.8828125 C23.3134773,22.0996105 23.5156237,22.2080078 23.7734375,22.2080078 C24.0371107,22.2080078 24.2392571,22.1025401 24.3798828,21.8916016 C24.5732432,21.6044908 24.6699219,21.0419964 24.6699219,20.2041016 C24.6699219,19.3662067 24.5761728,18.8037124 24.3886719,18.5166016 C24.2421868,18.305663 24.0371107,18.2001953 23.7734375,18.2001953 C23.5097643,18.2001953 23.3076179,18.305663 23.1669922,18.5166016 C22.9736318,18.8037124 22.8769531,19.3662067 22.8769531,20.2041016 L22.8769531,20.2041016 Z" id="nunjucks" fill="#8DC149"></path>
</svg>
