<svg xmlns="http://www.w3.org/2000/svg" viewBox="0 0 32 32" fill="none"><path d="M17.08 22h6.66c.213 0 .416-.075.6-.18s.374-.238.48-.42c.106-.182.18-.39.18-.6 0-.21-.074-.418-.18-.6l-4.5-7.74a1.094 1.094 0 00-.42-.42 1.45 1.45 0 00-.66-.18 1.22 1.22 0 00-.6.18 1.094 1.094 0 00-.42.42l-1.14 1.98-2.28-3.84c-.106-.182-.236-.375-.42-.48-.184-.105-.388-.12-.6-.12-.212 0-.416.015-.6.12a1.423 1.423 0 00-.48.48l-5.58 9.6c-.106.182-.12.39-.12.6 0 .21.014.418.12.6s.296.315.48.42c.184.105.387.18.6.18h4.2c1.664 0 2.875-.747 3.72-2.16l2.04-3.54 1.08-1.86 3.3 5.64h-4.38L17.08 22zm-4.74-1.92H9.4l4.38-7.56L16 16.3l-1.47 2.563c-.561.918-1.2 1.217-2.19 1.217z" fill="#00DC82"/></svg>