<?xml version="1.0" encoding="utf-8"?>
<!-- Generator: Adobe Illustrator 18.1.1, SVG Export Plug-In . SVG Version: 6.00 Build 0)  -->
<svg version="1.1" id="Layer_1" xmlns="http://www.w3.org/2000/svg" xmlns:xlink="http://www.w3.org/1999/xlink" x="0px" y="0px"
	 viewBox="0 0 32 32" enable-background="new 0 0 32 32" xml:space="preserve">
<g>
	<path d="M26,23.9c0-2.1,0-4.3,0-6.4c0,0,0,0,0-0.1c0-0.1,0-0.2,0-0.3c0-2.2,0-4.5,0-6.7c0-0.4,0-0.8-0.1-1.2
		c-0.1-0.6-0.5-1.1-1-1.5c-0.3-0.2-0.6-0.4-1-0.4c-0.1,0-0.1,0-0.1-0.1c-5.2,0-10.4,0-15.7,0C8.1,7.4,7.8,7.4,7.7,7.4
		C6.9,7.7,6.4,8.3,6.1,9.1C6,9.3,6,9.5,6,9.7c0,1.5,0,3.1,0,4.6c0,0.3,0,0.3,0.3,0.2c0.2-0.1,0.3-0.1,0.5-0.2
		c0.4-0.1,0.5-0.5,0.7-0.7c0.2-0.3,0.3-0.5,0.6-0.7c0.2-0.2,0.4-0.2,0.7,0C9,13,9.2,13.2,9.5,13.3c0.3,0.1,0.7,0.2,1,0.1
		c0.3,0,0.4-0.3,0.5-0.5c0.1-0.2,0.2-0.4,0.3-0.5c0.2-0.1,0.3-0.1,0.6-0.1c0.6,0.1,1,0.6,1.4,1.1c0.1,0.2,0.2,0.3,0.4,0.4
		c0.2,0.1,0.4,0.3,0.6,0.5c0.5,0.6,1.2,1,1.7,1.5c0.3,0.3,0.7,0.6,1.2,0.8c0.6,0.2,1.1,0.3,1.6-0.4c0.4-0.5,0.7-1.1,0.8-1.7
		c0.1-0.3,0.3-0.5,0.5-0.8c0,0,0.1,0,0.1,0c0.5-0.1,1,0,1.4,0.1c0.2,0,0.3,0,0.5,0.1c0.4,0.1,0.8,0.1,1.2,0.3c0.4,0.2,0.5,0.6,0.4,1
		c-0.1,0.4-0.2,0.2-0.4,0.2c-0.1,0-0.2,0-0.3,0c-0.4,0.1-0.8,0.3-1.2,0.5c-0.2,0.1-0.4,0.3-0.4,0.5c-0.1,0.4-0.3,0.7-0.6,0.9
		c-0.1,0.1-0.2,0.1-0.2,0.3c-0.2,0.1-0.2,0.3-0.4,0.4c-0.7,0.7-1.6,1-2.6,1.1c-0.5,0-1.1,0-1.6,0c-0.2,0-0.2,0.1-0.2,0.2
		c0.1,0.4,0,0.8,0.1,1.2c0.1,0.2,0.1,0.4,0.1,0.6c0,0.4,0.2,0.8,0.5,1.1c0.1,0.1,0.1,0.2,0.1,0.3c0,0.3,0,0.7,0.1,1
		c0.1,0.4,0.2,0.9,0.4,1.3c0.1,0.1,0.2,0.2,0.3,0.1c0.2-0.1,0.4-0.1,0.6-0.2c0.5-0.2,1.1-0.2,1.7-0.2c1.2,0,2.3-0.2,3.5,0.1
		c0.4,0.1,0.7,0.1,1.1,0.2c0.6,0.2,1.1,0.2,1.7,0.2c0.2,0,0.4-0.1,0.4-0.4C25.9,24.2,26,24.1,26,23.9z"/>
	<path d="M10.7,21.1c0,0,0.1-0.1,0.1-0.1c0.1-0.5,0.3-1,0.7-1.4c-0.1,0-0.1,0-0.1,0c-0.7,0-1.3-0.1-2-0.3c-0.5-0.1-1.1-0.3-1.5-0.7
		c-0.3-0.3-0.7-0.2-0.9,0.2c0,0.1-0.1,0.3-0.1,0.4c-0.2,0.4-0.4,0.7-0.7,1C6.1,20.4,6,20.6,6,20.9c0,0.6,0,1.3,0,1.9
		c0,0.2,0.1,0.3,0.3,0.3c0.5,0.1,0.9,0.3,1.3,0.4C8.2,23.7,8.8,24,9.4,24c0.4,0,0.4,0,0.5-0.4c0-0.1,0.1-0.1,0.1-0.2c0,0,0,0-0.1,0
		c0,0,0,0,0.1,0c0,0,0-0.1,0-0.1c0,0,0,0,0,0c0,0,0-0.1,0-0.1c0,0,0,0.1,0,0.1c0,0,0,0,0,0c0-0.1,0.1-0.1,0.1-0.2c0,0,0-0.1,0-0.1
		c0.1-0.2,0.1-0.4,0.1-0.5c0-0.2,0-0.4,0.1-0.5c0,0,0,0,0-0.1c0.2-0.1,0.3-0.4,0.4-0.6C10.7,21.2,10.7,21.2,10.7,21.1z"/>
	<path d="M15.7,23c-0.2-0.2-0.3-0.4-0.4-0.7c0-0.1,0-0.3-0.1-0.3c0-0.3-0.1-0.5-0.2-0.8c-0.2-0.7-0.6-1.3-1.2-1.8
		c-0.5-0.3-0.7-0.3-1.1,0.1c-0.1,0.1-0.1,0.2-0.2,0.3c-0.3,0.5-0.6,1-0.9,1.6c-0.1,0.2-0.2,0.3-0.2,0.6c-0.1,0.1-0.1,0.3-0.2,0.5
		c-0.3,0.3-0.5,0.8-0.7,1.2c0,0.1-0.1,0.1,0,0.2c0,0,0.1,0,0.2,0c0.4-0.1,0.8-0.2,1.2-0.4c0.6-0.3,1.3-0.3,1.9-0.1
		c0.6,0.2,1,0.5,1.5,0.9c0.3,0.2,0.6,0.3,0.9,0.4c0.1,0,0.1,0,0.2,0c0,0,0-0.1,0-0.1C16.1,24,16,23.5,15.7,23z"/>
</g>
</svg>
