<?xml version="1.0" encoding="utf-8"?>
<!-- Generator: Adobe Illustrator 18.1.1, SVG Export Plug-In . SVG Version: 6.00 Build 0)  -->
<svg version="1.1" id="Layer_1" xmlns="http://www.w3.org/2000/svg" xmlns:xlink="http://www.w3.org/1999/xlink" x="0px" y="0px"
	 viewBox="0 0 32 32" enable-background="new 0 0 32 32" xml:space="preserve">
<path d="M7,22.9c0.1-0.6,0.5-1,0.9-1.4C8.4,21,9,20.7,9.7,20.3c0.7-0.4,1.4-0.7,2.1-1c0.1,0,0.2-0.1,0.2-0.2
	c0.6-1.2,1.2-2.4,1.7-3.6c0.3-0.7,0.5-1.4,0.8-2.1c0,0,0-0.1,0-0.1c-0.3-0.7-0.6-1.5-0.7-2.3c-0.2-0.8-0.2-1.6-0.1-2.4
	c0.1-0.5,0.4-0.9,0.8-1.3c0.1-0.1,0.3-0.1,0.5-0.1c0.3,0,0.6,0,0.8,0c0.2,0,0.4,0.1,0.5,0.3c0.3,0.2,0.5,0.5,0.7,0.8
	c0.2,0.4,0.2,0.8,0.3,1.2c0,1.2-0.2,2.3-0.4,3.4c-0.1,0.4-0.2,0.7-0.3,1.1c0,0,0,0.1,0,0.1c0.6,1.1,1.4,2.1,2.2,3
	c0.1,0.1,0.1,0.1,0.3,0.1c1.1-0.2,2.2-0.2,3.2-0.2c0.6,0,1.3,0.1,1.9,0.4c0.3,0.2,0.6,0.4,0.8,0.7c0.1,0.2,0.2,0.4,0.2,0.6
	c0,0.2,0,0.5,0,0.7c0,0.2-0.1,0.4-0.3,0.5c-0.2,0.2-0.4,0.5-0.8,0.5c-0.2,0-0.5,0.1-0.7,0.1c-1.6,0.1-2.9-0.4-4.2-1.3
	c-0.2-0.2-0.5-0.4-0.7-0.6c-0.1,0-0.1-0.1-0.2-0.1c-0.6,0.1-1.2,0.2-1.8,0.4c-0.8,0.2-1.6,0.5-2.4,0.7c-0.1,0-0.1,0.1-0.2,0.1
	c-0.5,0.9-1.1,1.8-1.7,2.6c-0.5,0.6-1.1,1.2-1.7,1.7c-0.3,0.2-0.7,0.4-1.1,0.5c-0.1,0-0.1,0-0.2,0c-0.2,0-0.4,0-0.6,0
	c-0.2,0-0.3,0-0.5-0.1c-0.5-0.2-0.9-0.6-1-1.1C7,23.3,7,23.1,7,22.9z M15.8,15.9c-0.3,0.8-0.7,1.6-1,2.4c0.8-0.2,1.6-0.4,2.4-0.6
	C16.7,17.1,16.2,16.4,15.8,15.9z M20.1,18.5C20.1,18.5,20.1,18.5,20.1,18.5c0.6,0.4,1.3,0.7,2,0.9c0.3,0.1,0.5,0,0.7-0.1
	c0.2-0.1,0.3-0.4,0.1-0.5c0-0.1-0.1-0.1-0.2-0.1c-0.2-0.1-0.5-0.1-0.8-0.2C21.3,18.4,20.7,18.4,20.1,18.5z M10.7,21.3
	C10.7,21.3,10.6,21.3,10.7,21.3c-0.6,0.3-1.2,0.7-1.7,1.1c-0.3,0.2-0.5,0.5-0.7,0.8c0,0.1,0,0.2,0,0.2c0.1,0.1,0.1,0.1,0.2,0.1
	C8.8,23.3,9,23.1,9.2,23C9.8,22.5,10.2,21.9,10.7,21.3z M15,11.2C15,11.2,15,11.2,15,11.2C15.1,11.2,15.1,11.2,15,11.2
	c0.2-0.6,0.3-1.2,0.3-1.7c0-0.3,0-0.6-0.1-0.9c0-0.1-0.1-0.1-0.2-0.1c-0.1,0-0.1,0.1-0.2,0.1c-0.2,0.3-0.2,0.6-0.2,1
	c0,0.3,0,0.5,0.1,0.8C14.9,10.6,14.9,10.9,15,11.2z"/>
</svg>
