<?xml version="1.0" encoding="utf-8"?>
<!-- Generator: Adobe Illustrator 18.1.1, SVG Export Plug-In . SVG Version: 6.00 Build 0)  -->
<svg version="1.1" id="Layer_1" xmlns="http://www.w3.org/2000/svg" xmlns:xlink="http://www.w3.org/1999/xlink" x="0px" y="0px"
	 viewBox="0 0 32 32" enable-background="new 0 0 32 32" xml:space="preserve">
<path d="M13.4,26c-0.5,0-1,0-1.5,0c0.1-0.3,0.1-0.7,0.2-0.8c1-0.4,0.7-1.2,0.7-2c0-1.4,0-2.7,0-4.1c0-0.8,0-1.6,0-2.1
	c-1-0.2-2-0.1-2.7-0.5c-2.2-1.4-2.8-3.7-1.8-6.1c0.3-0.7,0.2-1.2-0.7-1.3C7.4,9.1,7.1,9,6.8,8.9c0-0.1,0-0.2,0-0.2
	c0.6-0.3,1.1-0.7,1.7-1c0.2-0.1,0.6,0,0.8-0.2c1.6-0.8,1.9-0.7,2.8,0.9c0.5,1,0.4,1.9-0.1,2.9c-0.3,0.5-0.7,1.2,0.1,1.5
	c2-2.8,3.7-5.7,7.2-6.8c0.2,0,0.5,0,0.7,0c0.5,0.7,1.2,1.2,1.6,2c1.1,1.8,1.9,3.7,3,5.4c0.8,1.2,0.7,3.6-0.3,4.4c0-1.1,0-2.3,0-3.5
	c-0.1,0-0.3,0-0.4,0c-0.9,1.3-0.4,2.8-0.4,4.3c0,2.5-0.1,5-0.1,7.4c-0.2,0-0.5,0-0.7,0c0-0.3-0.1-0.5,0-0.8c0.4-3.1,0-6.2-1.1-9.2
	c-0.9,0.8-1.3,1.8-1.4,3c-0.1,0.9-0.4,1.8-0.7,2.7c-0.3,0.8-1.1,1.5-0.1,2.3c0.1,0.1-0.1,0.6-0.1,1.1c-0.4-0.5-0.6-0.8-0.8-1
	c0,0.1,0,0.2,0,0.3c-0.7,0.2-1.5,0.3-2.2,0.5c0-0.1-0.1-0.3-0.1-0.4c0.2-0.1,0.4-0.2,0.6-0.4c1-0.6,1.1-1.2,0.3-1.9
	c-1.3-1-1.7-2.2-1.1-3.7c0.2-0.4,0.1-0.9,0.2-1.7c-0.7,0.4-1.3,0.6-1.4,0.9c-0.4,1.5-0.6,3.1-0.8,4.6C13.7,23.7,13.6,24.8,13.4,26z
	 M18,22.2c1.4-1.8,1.6-3.8,0.6-5.2c-0.6,1.2-1.2,2.4-1.8,3.7C17.2,21.2,17.6,21.7,18,22.2z"/>
</svg>
