<?xml version="1.0" encoding="utf-8"?>
<!-- Generator: Adobe Illustrator 18.1.1, SVG Export Plug-In . SVG Version: 6.00 Build 0)  -->
<svg version="1.1" id="Layer_1" xmlns="http://www.w3.org/2000/svg" xmlns:xlink="http://www.w3.org/1999/xlink" x="0px" y="0px"
	 viewBox="0 0 32 32" enable-background="new 0 0 32 32" xml:space="preserve">
<g>
	<path d="M25,7.4C25,7.3,25,7,25,7C19,7,13,7,7,7c0,6,0,12,0,18c0.2,0,0.3,0,0.4,0c5.7,0,11.4,0,17.1,0c0.4,0,0.5-0.1,0.5-0.5
		C25,18.8,25,13.1,25,7.4z M14.4,17.1c-0.8,0.2-1.4,0.2-2.4,0.3c0,1.2,0,2.4,0,3.6c-1,0-1.2,0-1.8,0c-0.1,0-0.2-0.3-0.2-0.5
		c0-2.2,0-4.4,0-6.6c0-0.9,0-1.9,0-2.9c0-0.1,1-0.2,1.5-0.2c0.9,0,1.8,0,2.6,0.1c1.7,0.2,2.6,1.3,2.7,2.8
		C16.9,15.4,16,16.7,14.4,17.1z M22.1,19.1c-0.1,0.9-0.6,1.5-1.4,1.8c-1.2,0.5-2.4,0.4-3.6-0.1c-0.1,0-0.2-0.2-0.2-0.3
		c0.1-0.4,0.2-0.8,0.3-1.1c0.7,0.1,1.4,0.3,2,0.4c0.4,0.1,0.8-0.1,0.9-0.6c0.1-0.4-0.1-0.7-0.6-1c-0.3-0.2-0.7-0.3-1-0.4
		c-1.1-0.5-1.6-1.2-1.5-2.3c0.1-0.9,0.8-1.6,1.9-1.9c0.9-0.2,1.8-0.1,2.6,0.2c0.1,0,0.3,0.3,0.2,0.4c-0.1,0.4-0.2,0.7-0.3,1.1
		c-0.5-0.1-1-0.2-1.4-0.3c-0.2,0-0.5,0-0.7,0.1c-0.5,0.2-0.6,0.8-0.2,1.1c0.2,0.2,0.4,0.2,0.7,0.4c0.3,0.2,0.7,0.3,1.1,0.5
		C21.7,17.4,22.1,18.1,22.1,19.1z"/>
	<path d="M13.9,12.5c-0.6-0.1-0.9-0.1-1.9-0.2c0,1.2,0,2.3,0,3.4c1,0.1,1.4,0.1,2.1-0.2c0.7-0.3,0.8-1,0.8-1.6
		C14.9,13.2,14.5,12.7,13.9,12.5z"/>
</g>
</svg>
