<svg width="32" height="32" viewBox="0 0 32 32" xmlns="http://www.w3.org/2000/svg"><title>platformio</title><g fill-rule="nonzero" fill="none"><path d="M18.395 11.767l.475-1.784c.488-.045.871-.47.871-.99 0-.548-.428-.993-.956-.993s-.956.445-.956.994a1 1 0 0 0 .464.85l-.467 1.752c-1.338-.354-2.467-.326-2.467-.326l-.209.097v13.56l.21.073c1.26 0 6.777-3.96 6.79-8.209 0-3.043-1.947-4.41-3.756-5.024zm-1.329 8.734c-1.076-1.786-.62-5.944 2.19-6.538.77-.129 1.714.398 1.992 1.567.702 2.48-3.428 5.953-4.182 4.971zm1.688-3.826c-.481 0-.871.405-.871.905 0 .499.39.905.87.905.481 0 .871-.406.871-.905 0-.5-.39-.906-.871-.906v.001zm.26.835a.223.223 0 0 1-.22-.229c0-.126.098-.228.22-.228.12 0 .22.102.22.228a.226.226 0 0 1-.22.229z" fill="#E57200"/><path d="M13.592 11.648l-.48-1.818a.994.994 0 0 0-.53-1.83.99.99 0 0 0-.986.993c0 .547.439.99.981.993l.482 1.823c-1.874.625-3.909 1.994-3.909 4.99.042 4.329 5.698 8.201 7 8.201V11.281s-1.172-.006-2.557.367zm.995 8.858c-.779.98-5.044-2.49-4.318-4.967.287-1.169 1.26-1.695 2.057-1.567 2.903.594 3.372 4.749 2.261 6.534zm-1.8-3.796c-.497 0-.9.405-.9.905 0 .499.403.903.9.903a.901.901 0 0 0 .899-.903c0-.5-.403-.905-.9-.905h.001zm-.269.835a.234.234 0 0 1-.162-.069.222.222 0 0 1-.065-.16.227.227 0 1 1 .39.16.234.234 0 0 1-.163.069z" fill="#FF7F00"/></g></svg>