<?xml version="1.0" encoding="UTF-8"?>
<svg width="17px" height="20px" viewBox="0 0 17 20" version="1.1" xmlns="http://www.w3.org/2000/svg" xmlns:xlink="http://www.w3.org/1999/xlink">
    <!-- Generator: Sketch 55.2 (78181) - https://sketchapp.com -->
    <title>platformio</title>
    <desc>Created with Sketch.</desc>
    <g id="Page-1" stroke="none" stroke-width="1" fill="none" fill-rule="evenodd">
        <g id="platformio" transform="translate(0.750000, 0.250000)" fill-rule="nonzero">
            <path d="M11.2493263,4.35452174 L11.7909053,2.33963043 C12.3450105,2.28865217 12.7795368,1.80854348 12.7795368,1.223 C12.7795368,0.603543478 12.2932211,0.101369565 11.6933263,0.101369565 C11.0933263,0.101369565 10.6070105,0.603543478 10.6070105,1.223 C10.6070105,1.63115217 10.8188,1.98723913 11.1343789,2.18354348 L10.6028,4.16126087 C9.08301053,3.76245652 7.80006316,3.7928913 7.80006316,3.7928913 L7.56237895,3.90256522 L7.56237895,19.2147391 L7.80006316,19.296587 C9.23311579,19.296587 15.5029053,14.8256087 15.5182737,10.0281087 C15.5182737,6.59071739 13.3053263,5.04713043 11.2493263,4.35452174 Z M9.74006316,14.2173478 C8.51722105,12.2002826 9.03416842,7.50528261 12.2288,6.83419565 C13.1046947,6.68930435 14.1771158,7.28354348 14.4931158,8.60365217 C15.2911158,11.4043043 10.5966947,15.3259348 9.74006316,14.2173478 Z M11.6576211,9.89647826 C11.1112,9.89647826 10.6682526,10.3538696 10.6682526,10.9181087 C10.6682526,11.4823478 11.1112,11.9397391 11.6576211,11.9397391 C12.2040421,11.9397391 12.6469895,11.4823478 12.6469895,10.9181087 C12.6469895,10.3538696 12.2040421,9.89647826 11.6576211,9.89647826 Z M11.9534105,10.839087 C11.8154105,10.839087 11.7035158,10.7235435 11.7035158,10.5810435 C11.7035158,10.4385435 11.8154105,10.323 11.9534105,10.323 C12.0914105,10.323 12.2033053,10.4385435 12.2033053,10.5810435 C12.2033053,10.7235435 12.0914105,10.839087 11.9534105,10.839087 Z" id="Shape" fill="#E57200"></path>
            <path d="M4.98644211,4.20745652 L4.45770526,2.153 C4.76023158,1.95386957 4.96149474,1.60517391 4.96149474,1.20723913 C4.96149474,0.587782609 4.47517895,0.0855 3.87517895,0.0855 C3.27528421,0.0855 2.78896842,0.587782609 2.78896842,1.20723913 C2.78896842,1.82484783 3.27233684,2.3256087 3.86970526,2.32865217 L4.39991579,4.38886957 C2.33581053,5.09647826 0.0962315789,6.64343478 0.0962315789,10.0281087 C0.142126316,14.9203913 6.36696842,19.2961522 7.80002105,19.2961522 L7.80002105,3.79256522 C7.80002105,3.79256522 6.51033684,3.78582609 4.98644211,4.20745652 Z M6.08065263,14.2173478 C5.22402105,15.3259348 0.5296,11.4043043 1.3276,8.60365217 C1.6436,7.28354348 2.71602105,6.68930435 3.59191579,6.83419565 C6.78654737,7.50528261 7.30349474,12.2002826 6.08065263,14.2173478 Z M4.09958947,9.92807609 C3.55316842,9.92807609 3.11022105,10.3854674 3.11022105,10.9497065 C3.11022105,11.5139457 3.55316842,11.971337 4.09958947,11.971337 C4.64601053,11.971337 5.08895789,11.5139457 5.08895789,10.9497065 C5.08895789,10.3854674 4.64601053,9.92807609 4.09958947,9.92807609 Z M3.8038,10.8706848 C3.6658,10.8706848 3.55390526,10.7551413 3.55390526,10.6126413 C3.55390526,10.4701413 3.6658,10.3545978 3.8038,10.3545978 C3.9418,10.3545978 4.05369474,10.4701413 4.05369474,10.6126413 C4.05369474,10.7551413 3.9418,10.8706848 3.8038,10.8706848 Z" id="Shape" fill="#FF7F00"></path>
        </g>
    </g>
</svg>