<svg width="32" height="32" xmlns="http://www.w3.org/2000/svg" xmlns:svg="http://www.w3.org/2000/svg" preserveAspectRatio="xMidYMid">
 <g>
  <title>Layer 1</title>
  <g stroke="null" id="svg_4">
   <g stroke="null" id="svg_1">
    <path stroke="null" d="m20.15461,10.31338l0.62542,-2.18332c0.63988,-0.05524 1.14168,-0.57548 1.14168,-1.20997c0,-0.67124 -0.5616,-1.21539 -1.25436,-1.21539c-0.69289,0 -1.25448,0.54415 -1.25448,1.21539c0,0.44227 0.24457,0.82812 0.60901,1.04084l-0.61387,2.14304c-1.75505,-0.43214 -3.23661,-0.39917 -3.23661,-0.39917l-0.27448,0.11884l0,16.59218l0.27448,0.08869c1.65489,0 8.89526,-4.84473 8.913,-10.04327c0,-3.72473 -2.55552,-5.39735 -4.92978,-6.14786l-0.00001,0zm-1.7429,10.68729c-1.41214,-2.18568 -0.81517,-7.27315 2.874,-8.00033c1.01148,-0.157 2.24992,0.48691 2.61483,1.91737c0.92153,3.03476 -4.49959,7.28422 -5.48883,6.08296zm2.2144,-4.68206c-0.631,0 -1.14252,0.49562 -1.14252,1.10703c0,0.61141 0.51152,1.10704 1.14252,1.10704c0.63101,0 1.14252,-0.49563 1.14252,-1.10704c0,-0.61141 -0.51151,-1.10703 -1.14252,-1.10703zm0.34158,1.02141c-0.15936,0 -0.28858,-0.1252 -0.28858,-0.27962c0,-0.15441 0.12922,-0.27961 0.28858,-0.27961c0.15936,0 0.28858,0.1252 0.28858,0.27961c0,0.15441 -0.12922,0.27962 -0.28858,0.27962z" fill="#D06E35" id="svg_2"/>
    <path stroke="null" d="m12.92223,10.15402l-0.61059,-2.2262c0.34936,-0.21578 0.58178,-0.59362 0.58178,-1.02482c0,-0.67124 -0.5616,-1.21551 -1.25448,-1.21551c-0.69276,0 -1.25436,0.54427 -1.25436,1.21551c0,0.66924 0.55819,1.21186 1.24804,1.21516l0.61229,2.23244c-2.38363,0.76676 -4.96991,2.44303 -4.96991,6.11064c0.053,5.30125 7.24146,10.04279 8.89634,10.04279l0,-16.79958c0,0 -1.48933,-0.0073 -3.24912,0.44957zm1.26359,10.84665c-0.98924,1.20126 -6.41036,-3.04819 -5.48883,-6.08296c0.36491,-1.43046 1.60335,-2.07438 2.61483,-1.91737c3.68917,0.72718 4.28614,5.81465 2.874,8.00033zm-2.28773,-4.64782c-0.63101,0 -1.14253,0.49563 -1.14253,1.10704c0,0.61141 0.51152,1.10703 1.14253,1.10703c0.631,0 1.14252,-0.49562 1.14252,-1.10703c0,-0.61141 -0.51152,-1.10704 -1.14252,-1.10704zm-0.34158,1.02141c-0.15936,0 -0.28858,-0.1252 -0.28858,-0.27961c0,-0.15441 0.12922,-0.27962 0.28858,-0.27962c0.15936,0 0.28858,0.1252 0.28858,0.27962c0,0.15441 -0.12922,0.27961 -0.28858,0.27961z" fill="#F17B36" id="svg_3"/>
   </g>
  </g>
 </g>
</svg>
