<svg  viewBox="0 0 32 32" fill="none" xmlns="http://www.w3.org/2000/svg"><path id="svg_1" fill="#00BFA5" d="m23.2081,22.2089l-9.76047,2.8124c-0.29815,0.086 -0.58397,-0.1653 -0.52126,-0.4583l3.48673,-16.26949c0.0653,-0.30423 0.4969,-0.35254 0.6331,-0.0708l6.456,13.35679c0.1218,0.252 -0.0171,0.549 -0.2942,0.6288l0.0001,0.0006zm1.6736,-0.6633l-7.4752,-15.46588l0,-0.00033c-0.1875,-0.38663 -0.5787,-0.64173 -1.0221,-0.66539c-0.4549,-0.02581 -0.8625,0.18794 -1.0924,0.55174l-8.1072,12.79346c-0.25115,0.3988 -0.24623,0.8904 0.01426,1.2843l3.96298,5.981c0.23621,0.357 0.64543,0.5636 1.07076,0.5636c0.12057,0 0.2418,-0.0165 0.36102,-0.0509l11.50388,-3.3147c0.3524,-0.1016 0.6405,-0.3444 0.7913,-0.6664c0.1503,-0.3221 0.1479,-0.6907 -0.0068,-1.0106l-0.0005,0.0001z" clip-rule="evenodd" fill-rule="evenodd"/></svg>