<svg xmlns="http://www.w3.org/2000/svg" viewBox="0 0 32 32"><path d="M22.2 20c0 .3-.1.6-.2.9-.4.9-1.3 1.6-2.6 1.4-.2-.1-.5-.1-.7-.2-.6-.2-1.1-.6-1.5-1.1-.2.6-.4 1.1-.8 1.6v.1c-.2.1-.4.2-.5.4h-.1c-1.1.7-2.4.4-3.2-.7 0-.1-.1-.1-.1-.2-.2-.4-.3-.7-.4-1.1-.1-.6-.1-1.1-.1-1.7 0-.3.1-.5.2-.8.1-.2.2-.4.2-.5 0 0 0-.1.1-.1.3-.7.7-1.3 1.2-1.8.1-.1.3-.2.3-.4.1 0 .1 0 .1-.1 0 0 .1 0 .1-.1.3-.3.7-.5 1.1-.5.3-.1.6-.1 1-.2s.8-.2 1.3-.1c.1 0 .3 0 .4.1h.1c.8.2 1.5.6 2.1 1.1.1.1.2.2.3.2 0 .1.1.1.1.1 0 .1.1.1.1.2.2.2.4.3.5.5.1.2.3.3.4.4.1.1.1.1.1.2.3.8.6 1.5.5 2.4zm-7.4-3.1c-.1.2-.1.3 0 .5.1.4.4.7.8.9.2.1.5.2.7.4.3.3.5.7.6 1.1.1.3.2.5.3.8v-.3c0-.3-.1-.6-.1-.9 0-.5 0-.9.4-1.3.3-.4.5-.8.5-1.4 0-.2 0-.3-.2-.4-.1-.2-.3-.3-.5-.4-.7-.1-1.3 0-1.9.4-.4.1-.5.3-.6.6zm-.2 5.6c.2 0 .3-.1.3-.2s-.1-.2-.2-.2c-.2 0-.3.1-.3.2 0 .2.1.2.2.2zm6-2.3c.2 0 .3-.1.3-.2s-.1-.2-.2-.2c-.2 0-.3.1-.3.2s.1.2.2.2zm-5.3.6c-.2 0-.3.1-.3.2s.1.2.2.2c.2 0 .3-.1.3-.2.1-.2 0-.2-.2-.2zm4.9.1c-.2 0-.4.1-.4.2s.1.2.2.2c.2 0 .3-.1.3-.2.1-.2 0-.2-.1-.2zm-6.6.8c.1 0 .3 0 .3-.2v-.2c-.1-.1-.2-.1-.4 0-.1 0-.2.1-.1.2 0 .2.1.2.2.2zm5.3-1.4c.2 0 .3-.1.3-.2s-.1-.2-.2-.1c-.1 0-.3 0-.3.2 0 .1.1.2.2.1zm-7.5-9.6c.2 0 .4-.2.6-.3.6-.2 1.2-.5 1.8-.8h.1c0 .1-.1.2 0 .2s.2 0 .3-.1c.3-.2.6-.4.8-.5.1 0 .2-.1.3-.1-.1.2-.2.3-.3.4.3-.1.6-.3.9-.4.2 0 .5-.1.9-.1-.1.1-.2.2-.4.3.6-.1 1.1 0 1.7 0 .2 0 .3 0 .5.1h.1c.5.7 1.2 1.2 1.8 1.8.3.2.6.4.8.7-.1 0-.2-.1-.3-.1-.6-.2-1.1-.3-1.8-.2-.5.1-1 .4-1.4.7-.5.4-.9.8-1.4 1.1-.5.3-1.1.5-1.8.4-.6-.1-1.1-.2-1.6-.4-.5-.1-1-.2-1.5-.1-.7.1-1.3.5-1.7 1.1-.1.1-.1.2-.2.2 0 0 0-.1.1-.1.5-1.1 1.1-2.2 1.3-3.3.1-.4.3-.4.4-.5zm2 1.7c1.3.7 3.3-.1 3.8-1.1-.5.4-1.1.7-1.8.9-.7.2-1.4.2-2 .2zm.6-.9c.8.4 1.9-.1 2.1-.6-.3.2-.6.4-1 .5-.4.1-.8.1-1.1.1z"/><path d="M11 11c-.3 1.4-1 2.7-1.6 4 0 .1 0 .1-.1.2v.1s0 .1-.1.1c-.2.3-.3.6-.4.9-.3.6-.7 1.2-1 1.8-.2.3-.4.7-.7 1-.3.4-.5.3-.7-.1-.3-.8-.4-1.7-.3-2.5 0-.6 0-1.3.1-1.9 0-.5 0-.9-.1-1.4-.1-.3 0-.5.2-.8.2-.4.4-.5.7-.7.8-.4 1.6-.6 2.4-.9.3-.1.7-.2 1-.4.6-.1.6 0 .6.6zm10.8 1.3c-.3-.3-.7-.6-1-.8-.8-.7-1.6-1.3-2.2-2.2h-.1c0-.1-.1-.2-.2-.4-.1-.3 0-.4.3-.4h.3c.8 0 1.6-.2 2.4-.2.5 0 1.1-.1 1.6 0 .6.1.8.3 1 .9.1.4.3.8.5 1.1.4.9.9 1.7 1.3 2.6.2.5.3 1.1.4 1.6 0 .4-.1.5-.5.4-.3-.1-.6-.3-.9-.5-.1 0-.1-.1-.2-.1v-.1c-.5-.4-1-.7-1.5-1.1h-.1c-.3-.2-.6-.5-.9-.6l-.2-.2c.1 0 0 0 0 0z"/><path d="M8.3 16.7c.3-.5.5-1 .8-1.5v.2c-.2.6-.2 1.2-.1 1.8.1.8.4 1.5 1.1 2 .4.3.8.5 1.3.4.2 0 .3-.1.5-.1-.1.6-.1 1.1.1 1.7.1.4.3.7.4 1.1-.3 0-.5-.2-.7-.3-1.7-1-2.7-2.5-3.1-4.4l-.3-.9zm13.9-4.2l1.2.9c0 .3.1.6.2.8.1.6.2 1.2.2 1.8-.1 1.4-.5 2.7-1.4 3.8 0 .1-.1.1-.1.1.1-.9-.2-1.6-.6-2.4 0-.1-.1-.1-.1-.2s.1-.1.2-.1c.4 0 .7-.2.9-.4.5-.6.7-1.4.6-2.2-.1-.8-.4-1.4-.9-2-.2 0-.3 0-.2-.1zm-3.5 9.6c.2.1.4.1.7.2-.3.8-.8 1.4-1.7 1.5-.7.1-1.4-.1-1.9-.7.1-.2.3-.3.5-.4.3.4.7.6 1.1.7h.4c.5-.2.9-.8.9-1.3zm.2-13.5c-.1.1-.1 0-.2 0-.2 0-.3.1-.3.4 0 .1.1.2.1.3-.2 0-.3 0-.5-.1.1-.2.2-.3.2-.5 0-.1.1-.1.2-.1.2 0 .4-.1.5 0zM11 10.9c0-.5 0-.6-.5-.5.1-.1.2-.1.3-.1.1 0 .2 0 .2.1.1.1.2.2.4.3-.1.1-.3.1-.4.2zm1.4 11.3s0 .1 0 0c0 .1 0 .1 0 0z"/><path d="M22.2 12.5c0 .1.1.2.1.2.5.6.8 1.3.9 2 .1.8-.1 1.5-.6 2.2-.2.3-.6.4-.9.4-.1 0-.1 0-.2.1l-.4-.4c-.1-.2-.3-.3-.5-.5 0 0-.1-.1-.1-.2s.1-.1.2-.1c.7-.3 1.3-1.1 1.2-1.9-.1-1.1-1-1.8-2-1.8-1.3 0-2.2 1.2-2 2.3-.1 0-.3 0-.4-.1-.4-.1-.9 0-1.3.1-.3.1-.6.1-1 .2s-.8.3-1.1.5l-.1.1c-.3-1.2-1.6-1.7-2.6-1.3-.9.3-1.4 1.1-1.3 2 .1.8.7 1.5 1.5 1.7.2.1.5 0 .7 0 0 .2-.1.4-.2.5-.1.3-.2.5-.2.8-.2 0-.3.1-.5.1-.5.1-.9-.1-1.3-.4-.6-.5-.9-1.2-1.1-2-.1-.6 0-1.2.2-1.8V15c.1-.2.2-.5.4-.7 0 0 .1 0 .1-.1v-.1c.1 0 .1-.1.2-.2.5-.5 1-.9 1.7-1.1.5-.1 1 0 1.5.1.5.2 1.1.3 1.6.4.6.1 1.2 0 1.8-.4.5-.3.9-.7 1.4-1.1.4-.3.8-.6 1.4-.7.6-.1 1.2 0 1.8.2.1 0 .2.1.3.1h.1c.1.6.4.8.7 1.1-.1 0-.1-.1 0 0-.1-.1 0 0 0 0z"/><path d="M14.8 16.9c0 .8.6 1.1 1.2 1.2.7.1 1.4-.4 1.6-1.1.1-.2 0-.5 0-.7.2.1.2.2.2.4.1.5-.1 1-.5 1.4-.3.4-.3.8-.3 1.3 0 .3.1.6.1.9 0 .1.1.2 0 .3-.1-.3-.2-.6-.3-.8-.2-.4-.3-.8-.6-1.1-.2-.2-.5-.2-.7-.4-.3-.2-.6-.5-.8-.9 0-.2 0-.4.1-.5zm-.2 5.6c-.1 0-.2 0-.2-.2 0-.1.2-.2.3-.2.1 0 .2 0 .2.2.1.1-.1.2-.3.2zm6-2.3c-.1 0-.2 0-.2-.2 0-.1.2-.2.3-.2.1 0 .2 0 .2.2.1.1-.1.2-.3.2zm-5.3.6c.1 0 .2 0 .2.2 0 .1-.2.2-.3.2-.1 0-.2 0-.2-.2 0-.1.2-.2.3-.2zm4.9.1c.1 0 .2 0 .2.2 0 .1-.2.2-.3.2-.1 0-.2-.1-.2-.2-.1-.1.1-.2.3-.2zm-6.6.8c-.1 0-.2 0-.2-.1s.1-.2.1-.2c.1-.1.2-.1.4 0 .1 0 .1.1 0 .2 0 .1-.2.1-.3.1zm5.3-1.4c-.1 0-.2 0-.2-.2s.2-.2.3-.2c.1 0 .2 0 .2.1.1.2-.1.3-.3.3zm-9.3-5.9c0 .1 0 .1 0 0-.1.1 0 .1 0 0zm0 0zm-.4.8c0 .1 0 .1 0 0-.1.1-.1 0 0 0zm12.1-3.4zm.8.6s0 .1 0 0zm-.7-.5s-.1 0 0 0c-.1 0 0 0 0 0zm2 1.5z"/></svg>