<?xml version="1.0" encoding="utf-8"?>
<!-- Generator: Adobe Illustrator 18.1.1, SVG Export Plug-In . SVG Version: 6.00 Build 0)  -->
<svg version="1.1" id="Layer_1" xmlns="http://www.w3.org/2000/svg" xmlns:xlink="http://www.w3.org/1999/xlink" x="0px" y="0px"
	 viewBox="0 0 32 32" enable-background="new 0 0 32 32" xml:space="preserve">
<g>
	<path d="M22.2,20c0,0.3-0.1,0.6-0.2,0.9c-0.4,0.9-1.3,1.6-2.6,1.4c-0.2-0.1-0.5-0.1-0.7-0.2c-0.6-0.2-1.1-0.6-1.5-1.1c0,0,0,0,0,0
		c-0.2,0.6-0.4,1.1-0.8,1.6c0,0,0,0.1,0,0.1c-0.2,0.1-0.4,0.2-0.5,0.4c0,0-0.1,0-0.1,0c-1.1,0.7-2.4,0.4-3.2-0.7
		c0-0.1-0.1-0.1-0.1-0.2c0,0,0,0,0,0c0,0,0,0,0,0c-0.2-0.4-0.3-0.7-0.4-1.1c-0.1-0.6-0.1-1.1-0.1-1.7c0-0.3,0.1-0.5,0.2-0.8
		c0.1-0.2,0.2-0.4,0.2-0.5c0,0,0-0.1,0.1-0.1c0.3-0.7,0.7-1.3,1.2-1.8c0.1-0.1,0.3-0.2,0.3-0.4c0.1,0,0.1,0,0.1-0.1
		c0,0,0.1,0,0.1-0.1c0.3-0.3,0.7-0.5,1.1-0.5c0.3-0.1,0.6-0.1,1-0.2c0.4-0.1,0.8-0.2,1.3-0.1c0.1,0,0.3,0,0.4,0.1c0,0,0.1,0,0.1,0
		c0.8,0.2,1.5,0.6,2.1,1.1c0.1,0.1,0.2,0.2,0.3,0.2c0,0.1,0.1,0.1,0.1,0.1c0,0.1,0.1,0.1,0.1,0.2c0.2,0.2,0.4,0.3,0.5,0.5
		c0.1,0.2,0.3,0.3,0.4,0.4c0.1,0.1,0.1,0.1,0.1,0.2C22,18.4,22.3,19.1,22.2,20z M14.8,16.9c-0.1,0.2-0.1,0.3,0,0.5
		c0.1,0.4,0.4,0.7,0.8,0.9c0.2,0.1,0.5,0.2,0.7,0.4c0.3,0.3,0.5,0.7,0.6,1.1c0.1,0.3,0.2,0.5,0.3,0.8c0-0.1,0-0.2,0-0.3
		c0-0.3-0.1-0.6-0.1-0.9c0-0.5,0-0.9,0.4-1.3c0.3-0.4,0.5-0.8,0.5-1.4c0-0.2,0-0.3-0.2-0.4c-0.1-0.2-0.3-0.3-0.5-0.4
		c-0.7-0.1-1.3,0-1.9,0.4C15,16.4,14.9,16.6,14.8,16.9z M14.6,22.5c0.2,0,0.3-0.1,0.3-0.2c0-0.1-0.1-0.2-0.2-0.2
		c-0.2,0-0.3,0.1-0.3,0.2C14.4,22.5,14.5,22.5,14.6,22.5z M20.6,20.2c0.2,0,0.3-0.1,0.3-0.2c0-0.1-0.1-0.2-0.2-0.2
		c-0.2,0-0.3,0.1-0.3,0.2C20.4,20.1,20.5,20.2,20.6,20.2z M15.3,20.8c-0.2,0-0.3,0.1-0.3,0.2c0,0.1,0.1,0.2,0.2,0.2
		c0.2,0,0.3-0.1,0.3-0.2C15.6,20.8,15.5,20.8,15.3,20.8z M20.2,20.9c-0.2,0-0.4,0.1-0.4,0.2c0,0.1,0.1,0.2,0.2,0.2
		c0.2,0,0.3-0.1,0.3-0.2C20.4,20.9,20.3,20.9,20.2,20.9z M13.6,21.7c0.1,0,0.3,0,0.3-0.2c0-0.1,0-0.1,0-0.2c-0.1-0.1-0.2-0.1-0.4,0
		c-0.1,0-0.2,0.1-0.1,0.2C13.4,21.7,13.5,21.7,13.6,21.7z M18.9,20.3c0.2,0,0.3-0.1,0.3-0.2c0-0.1-0.1-0.2-0.2-0.1
		c-0.1,0-0.3,0-0.3,0.2C18.7,20.3,18.8,20.4,18.9,20.3z"/>
	<path d="M11.4,10.7c0.2,0,0.4-0.2,0.6-0.3c0.6-0.2,1.2-0.5,1.8-0.8c0,0,0,0,0.1,0c0,0.1-0.1,0.2,0,0.2c0.1,0,0.2,0,0.3-0.1
		c0.3-0.2,0.6-0.4,0.8-0.5c0.1,0,0.2-0.1,0.3-0.1c-0.1,0.2-0.2,0.3-0.3,0.4c0,0,0,0,0,0c0.3-0.1,0.6-0.3,0.9-0.4
		C16.1,9.1,16.4,9,16.8,9c-0.1,0.1-0.2,0.2-0.4,0.3c0.6-0.1,1.1,0,1.7,0c0.2,0,0.3,0,0.5,0.1c0,0,0,0,0.1,0c0.5,0.7,1.2,1.2,1.8,1.8
		c0.3,0.2,0.6,0.4,0.8,0.7c-0.1,0-0.2-0.1-0.3-0.1c-0.6-0.2-1.1-0.3-1.8-0.2c-0.5,0.1-1,0.4-1.4,0.7c-0.5,0.4-0.9,0.8-1.4,1.1
		c-0.5,0.3-1.1,0.5-1.8,0.4c-0.6-0.1-1.1-0.2-1.6-0.4c-0.5-0.1-1-0.2-1.5-0.1c-0.7,0.1-1.3,0.5-1.7,1.1c-0.1,0.1-0.1,0.2-0.2,0.2
		c0,0,0-0.1,0.1-0.1c0.5-1.1,1.1-2.2,1.3-3.3C11.1,10.8,11.3,10.8,11.4,10.7z M13.4,12.4c1.3,0.7,3.3-0.1,3.8-1.1
		c-0.5,0.4-1.1,0.7-1.8,0.9C14.7,12.4,14,12.4,13.4,12.4z M14,11.5c0.8,0.4,1.9-0.1,2.1-0.6c-0.3,0.2-0.6,0.4-1,0.5
		C14.7,11.5,14.3,11.5,14,11.5z"/>
	<path d="M11,11c-0.3,1.4-1,2.7-1.6,4c0,0.1,0,0.1-0.1,0.2c0,0,0,0,0,0c0,0,0,0.1,0,0.1l0,0c0,0,0,0.1-0.1,0.1
		c-0.2,0.3-0.3,0.6-0.4,0.9c0,0,0,0,0,0l0,0c-0.3,0.6-0.7,1.2-1,1.8c-0.2,0.3-0.4,0.7-0.7,1c-0.3,0.4-0.5,0.3-0.7-0.1
		c-0.3-0.8-0.4-1.7-0.3-2.5c0-0.6,0-1.3,0.1-1.9c0-0.5,0-0.9-0.1-1.4c-0.1-0.3,0-0.5,0.2-0.8C6.5,12,6.7,11.9,7,11.7
		c0.8-0.4,1.6-0.6,2.4-0.9c0.3-0.1,0.7-0.2,1-0.4C11,10.3,11,10.4,11,11C11,11,11,11,11,11z"/>
	<path d="M21.8,12.3c-0.3-0.3-0.7-0.6-1-0.8c-0.8-0.7-1.6-1.3-2.2-2.2c0,0,0,0-0.1,0c0-0.1-0.1-0.2-0.2-0.4c-0.1-0.3,0-0.4,0.3-0.4
		c0.1,0,0.2,0,0.3,0c0.8,0,1.6-0.2,2.4-0.2c0.5,0,1.1-0.1,1.6,0c0.6,0.1,0.8,0.3,1,0.9c0.1,0.4,0.3,0.8,0.5,1.1
		c0.4,0.9,0.9,1.7,1.3,2.6c0.2,0.5,0.3,1.1,0.4,1.6c0,0.4-0.1,0.5-0.5,0.4c-0.3-0.1-0.6-0.3-0.9-0.5c-0.1,0-0.1-0.1-0.2-0.1
		c0,0,0,0,0,0c0,0,0,0,0-0.1c-0.5-0.4-1-0.7-1.5-1.1c0,0,0,0,0,0c0,0,0,0-0.1,0c-0.3-0.2-0.6-0.5-0.9-0.6
		C21.9,12.4,21.9,12.4,21.8,12.3L21.8,12.3C21.9,12.3,21.8,12.3,21.8,12.3L21.8,12.3z"/>
	<path d="M8.3,16.7c0.3-0.5,0.5-1,0.8-1.5c0,0.1,0,0.1,0,0.2C8.9,16,8.9,16.6,9,17.2c0.1,0.8,0.4,1.5,1.1,2c0.4,0.3,0.8,0.5,1.3,0.4
		c0.2,0,0.3-0.1,0.5-0.1c-0.1,0.6-0.1,1.1,0.1,1.7c0.1,0.4,0.3,0.7,0.4,1.1c-0.3,0-0.5-0.2-0.7-0.3c-1.7-1-2.7-2.5-3.1-4.4
		C8.5,17.3,8.4,17,8.3,16.7z"/>
	<path d="M22.2,12.5c0.4,0.3,0.8,0.6,1.2,0.9c0,0,0,0,0,0c0,0,0,0,0,0c0,0.3,0.1,0.6,0.2,0.8c0.1,0.6,0.2,1.2,0.2,1.8
		c-0.1,1.4-0.5,2.7-1.4,3.8c0,0.1-0.1,0.1-0.1,0.1c0.1-0.9-0.2-1.6-0.6-2.4c0-0.1-0.1-0.1-0.1-0.2c0-0.1,0.1-0.1,0.2-0.1
		c0.4,0,0.7-0.2,0.9-0.4c0.5-0.6,0.7-1.4,0.6-2.2c-0.1-0.8-0.4-1.4-0.9-2C22.2,12.6,22.1,12.6,22.2,12.5z"/>
	<path d="M18.7,22.1c0.2,0.1,0.4,0.1,0.7,0.2c-0.3,0.8-0.8,1.4-1.7,1.5c-0.7,0.1-1.4-0.1-1.9-0.7c0.1-0.2,0.3-0.3,0.5-0.4
		c0.3,0.4,0.7,0.6,1.1,0.7c0.1,0,0.2,0,0.4,0C18.3,23.2,18.7,22.6,18.7,22.1z"/>
	<path d="M18.9,8.6c-0.1,0.1-0.1,0-0.2,0c-0.2,0-0.3,0.1-0.3,0.4c0,0.1,0.1,0.2,0.1,0.3c-0.2,0-0.3,0-0.5-0.1
		c0.1-0.2,0.2-0.3,0.2-0.5c0-0.1,0.1-0.1,0.2-0.1C18.6,8.6,18.8,8.5,18.9,8.6z"/>
	<path d="M11,10.9C11,10.9,11,10.9,11,10.9c0-0.5,0-0.6-0.5-0.5c0.1-0.1,0.2-0.1,0.3-0.1c0.1,0,0.2,0,0.2,0.1
		c0.1,0.1,0.2,0.2,0.4,0.3C11.3,10.8,11.1,10.8,11,10.9z"/>
	<path d="M12.4,22.2C12.4,22.2,12.4,22.3,12.4,22.2C12.4,22.3,12.4,22.3,12.4,22.2z"/>
	<path d="M22.2,12.5c0,0.1,0.1,0.2,0.1,0.2c0.5,0.6,0.8,1.3,0.9,2c0.1,0.8-0.1,1.5-0.6,2.2c-0.2,0.3-0.6,0.4-0.9,0.4
		c-0.1,0-0.1,0-0.2,0.1c-0.1-0.1-0.3-0.3-0.4-0.4c-0.1-0.2-0.3-0.3-0.5-0.5c0,0-0.1-0.1-0.1-0.2c0-0.1,0.1-0.1,0.2-0.1
		c0.7-0.3,1.3-1.1,1.2-1.9c-0.1-1.1-1-1.8-2-1.8c-1.3,0-2.2,1.2-2,2.3c-0.1,0-0.3,0-0.4-0.1c-0.4-0.1-0.9,0-1.3,0.1
		c-0.3,0.1-0.6,0.1-1,0.2c-0.4,0.1-0.8,0.3-1.1,0.5c0,0-0.1,0.1-0.1,0.1c-0.3-1.2-1.6-1.7-2.6-1.3c-0.9,0.3-1.4,1.1-1.3,2
		c0.1,0.8,0.7,1.5,1.5,1.7c0.2,0.1,0.5,0,0.7,0c0,0.2-0.1,0.4-0.2,0.5c-0.1,0.3-0.2,0.5-0.2,0.8c-0.2,0-0.3,0.1-0.5,0.1
		c-0.5,0.1-0.9-0.1-1.3-0.4c-0.6-0.5-0.9-1.2-1.1-2c-0.1-0.6,0-1.2,0.2-1.8c0-0.1,0-0.1,0-0.2c0,0,0,0,0,0c0,0,0,0,0,0
		c0.1-0.2,0.2-0.5,0.4-0.7c0,0,0.1,0,0.1-0.1c0,0,0,0,0,0c0,0,0,0,0-0.1c0,0,0,0,0,0c0.1,0,0.1-0.1,0.2-0.2c0.5-0.5,1-0.9,1.7-1.1
		c0.5-0.1,1,0,1.5,0.1c0.5,0.2,1.1,0.3,1.6,0.4c0.6,0.1,1.2,0,1.8-0.4c0.5-0.3,0.9-0.7,1.4-1.1c0.4-0.3,0.8-0.6,1.4-0.7
		c0.6-0.1,1.2,0,1.8,0.2c0.1,0,0.2,0.1,0.3,0.1c0,0,0,0,0,0c0,0,0,0,0.1,0c0,0,0,0,0,0c0,0,0,0,0,0C21.6,12,21.9,12.2,22.2,12.5
		C22.1,12.5,22.1,12.4,22.2,12.5C22.1,12.4,22.2,12.5,22.2,12.5z"/>
	<path d="M14.8,16.9c0,0.8,0.6,1.1,1.2,1.2c0.7,0.1,1.4-0.4,1.6-1.1c0.1-0.2,0-0.5,0-0.7c0.2,0.1,0.2,0.2,0.2,0.4
		c0.1,0.5-0.1,1-0.5,1.4C17,18.5,17,18.9,17,19.4c0,0.3,0.1,0.6,0.1,0.9c0,0.1,0.1,0.2,0,0.3c-0.1-0.3-0.2-0.6-0.3-0.8
		c-0.2-0.4-0.3-0.8-0.6-1.1c-0.2-0.2-0.5-0.2-0.7-0.4c-0.3-0.2-0.6-0.5-0.8-0.9C14.7,17.2,14.7,17,14.8,16.9z"/>
	<path d="M14.6,22.5c-0.1,0-0.2,0-0.2-0.2c0-0.1,0.2-0.2,0.3-0.2c0.1,0,0.2,0,0.2,0.2C15,22.4,14.8,22.5,14.6,22.5z"/>
	<path d="M20.6,20.2c-0.1,0-0.2,0-0.2-0.2c0-0.1,0.2-0.2,0.3-0.2c0.1,0,0.2,0,0.2,0.2C21,20.1,20.8,20.2,20.6,20.2z"/>
	<path d="M15.3,20.8c0.1,0,0.2,0,0.2,0.2c0,0.1-0.2,0.2-0.3,0.2c-0.1,0-0.2,0-0.2-0.2C15,20.9,15.2,20.8,15.3,20.8z"/>
	<path d="M20.2,20.9c0.1,0,0.2,0,0.2,0.2c0,0.1-0.2,0.2-0.3,0.2c-0.1,0-0.2-0.1-0.2-0.2C19.8,21,20,20.9,20.2,20.9z"/>
	<path d="M13.6,21.7c-0.1,0-0.2,0-0.2-0.1c0-0.1,0.1-0.2,0.1-0.2c0.1-0.1,0.2-0.1,0.4,0c0.1,0,0.1,0.1,0,0.2
		C13.9,21.7,13.7,21.7,13.6,21.7z"/>
	<path d="M18.9,20.3c-0.1,0-0.2,0-0.2-0.2c0-0.2,0.2-0.2,0.3-0.2c0.1,0,0.2,0,0.2,0.1C19.3,20.2,19.1,20.3,18.9,20.3z"/>
	<path d="M9.6,14.4C9.6,14.5,9.6,14.5,9.6,14.4C9.5,14.5,9.6,14.5,9.6,14.4z"/>
	<path d="M9.6,14.4C9.6,14.4,9.6,14.4,9.6,14.4C9.6,14.4,9.6,14.4,9.6,14.4z"/>
	<path d="M9.2,15.2C9.2,15.3,9.2,15.3,9.2,15.2C9.1,15.3,9.1,15.2,9.2,15.2z"/>
	<path d="M21.3,11.8C21.3,11.8,21.3,11.8,21.3,11.8C21.3,11.8,21.3,11.8,21.3,11.8z"/>
	<path d="M22.1,12.4C22.1,12.4,22.1,12.5,22.1,12.4C22.1,12.4,22.1,12.4,22.1,12.4z"/>
	<path d="M21.4,11.9C21.4,11.9,21.3,11.9,21.4,11.9C21.3,11.9,21.4,11.9,21.4,11.9z"/>
	<path d="M23.4,13.4C23.4,13.4,23.4,13.4,23.4,13.4C23.4,13.4,23.4,13.4,23.4,13.4z"/>
</g>
</svg>
