<svg xmlns="http://www.w3.org/2000/svg" viewBox="0 0 32 32"><path d="M6 17.6c.1-.5.2-.9.3-1.4.7-2.4 2.4-4 4.6-5.2.7-.3 1.3-.6 2.1-.8l.1.1c-.6.8-.7 1.7-.7 2.7 0 .3-.1.4-.3.5-.6.2-1.1.5-1.7.8-2.7 1.5-3.8 5.3-2.2 8.3.3.6.7 1.2 1.2 1.7.2.2.2.3 0 .4-.5.5-.5.5-1 0-.9-.9-1.4-2-1.9-3.2-.2-.5-.2-1-.4-1.5-.1-.8-.1-1.6-.1-2.4zm20 1.7c-.2.1-.1.3-.2.5-1.3 3.8-5 6-8.6 5.7-2.3-.2-4.2-1.2-6-2.8 1.1.1 2-.3 2.8-.8.2-.1.3-.1.5 0 .7.6 1.5 1.1 2.4 1.3 2.4.7 4.5.2 6.3-1.5.9-.8 1.4-1.9 1.8-3 .1-.3.2-.4.5-.3.1.1.3.1.4.1.1.3.1.5.1.8zM15.9 6.5c.5.2 1.1.2 1.6.4 3.4 1.3 5.3 3.8 5.7 7.5.1 1.1 0 2.2-.2 3.3-.5-1-1.3-1.6-2.2-2-.2-.1-.2-.3-.1-.4.1-.9.1-1.8 0-2.7-.2-1.6-1.1-2.8-2.3-3.7-1.7-1.4-3.7-1.5-5.8-1-.2 0-.4.2-.4-.1 0-.3-.4-.6.1-.8.4-.2.9-.2 1.4-.4.6-.1 1.4-.1 2.2-.1z"/><path d="M12.7 19.5c0 1.1-.9 2-2 2s-2.1-.9-2.1-2 .9-2 2-2c1.2 0 2.1.9 2.1 2zm5.2-8.3c0 1.1-.9 2-2 2s-2.1-.9-2.1-2 .9-2 2-2 2 .9 2.1 2zm4.3 8.6c0 1.1-.9 2-2 2s-2-.9-2-2 .9-2 2-2c1.2 0 2.1.9 2 2zm-9.3-9.6c.1 0 .1 0 0 0 .1 0 .1.1 0 0 .1.1.1 0 0 0z"/></svg>