<?xml version="1.0" encoding="UTF-8" standalone="no"?>
<svg
   xmlns:dc="http://purl.org/dc/elements/1.1/"
   xmlns:cc="http://creativecommons.org/ns#"
   xmlns:rdf="http://www.w3.org/1999/02/22-rdf-syntax-ns#"
   xmlns:svg="http://www.w3.org/2000/svg"
   xmlns="http://www.w3.org/2000/svg"
   viewBox="0 0 32 32"
   version="1.1"
   id="svg3373"
   height="32"
   width="32">
  <defs
     id="defs3375" />
  <metadata
     id="metadata3378">
    <rdf:RDF>
      <cc:Work
         rdf:about="">
        <dc:format>image/svg+xml</dc:format>
        <dc:type
           rdf:resource="http://purl.org/dc/dcmitype/StillImage" />
        <dc:title></dc:title>
      </cc:Work>
    </rdf:RDF>
  </metadata>
  <g
     id="layer1">
    <path
       d="m 7.2385583,2.8650576 c 2.657143,-0.00125 5.3148577,-0.00115 7.9720007,-5.75e-4 0.0046,2.0297125 -0.0069,4.060575 0.0057,6.0902875 1.088001,1.0714249 2.15943,2.1599989 3.244001,3.2348489 l 0.03371,0.0155 c 2.019429,0.0062 4.039429,5.63e-4 6.059429,0.0025 0,2.657138 0,5.314275 -5.73e-4,7.971425 -2.004571,-5.75e-4 -4.009714,5.75e-4 -6.014285,-5.75e-4 -0.102862,-0.0075 -0.153715,0.103376 -0.223429,0.160576 -1.033713,1.030287 -2.060572,2.067999 -3.098858,3.093712 -0.01258,2.029137 -0.0017,4.059425 -0.0057,6.089137 -2.657143,5.75e-4 -5.3142857,0.0012 -7.9714287,0 -5.71e-4,-2.657137 -5.71e-4,-5.314275 0,-7.971425 2.032571,-0.0025 4.0657147,0.0025 6.0988577,-0.0025 1.082857,-1.089725 2.172,-2.173724 3.258285,-3.260575 5.71e-4,-1.395425 -5.71e-4,-2.790287 5.71e-4,-4.185712 -1.086856,-1.08915 -2.176571,-2.175438 -3.262856,-3.264575 -2.032,-0.0011 -4.0634287,5.75e-4 -6.0954287,-5.75e-4 0,-2.6571369 5.71e-4,-5.3137119 0,-7.9708494 z"
       id="path3394"
       style="fill:#242424" />
    <path
       d="m 9.9105593,5.5359076 c 0.8805707,0 1.7617127,0 2.6422857,0 0,0.880575 0,1.76115 0,2.6422875 -0.880573,5.75e-4 -1.761144,0 -2.6422857,0 0,-0.880575 0,-1.7611375 0,-2.6422875 z"
       id="path3396"
       style="fill:#fefefe" />
    <path
       d="m 9.9105593,24.22162 c 0.8805707,0 1.7617127,0 2.6428567,0 -0.0011,0.88115 5.71e-4,1.761725 -0.0011,2.642862 -0.880571,-5.75e-4 -1.761142,-5.75e-4 -2.6417127,-5.75e-4 0,-0.880562 0,-1.761712 0,-2.642287 z"
       id="path3398"
       style="fill:#fefefe" />
  </g>
</svg>
