<?xml version="1.0" encoding="utf-8"?>
<!-- Generator: Adobe Illustrator 18.1.1, SVG Export Plug-In . SVG Version: 6.00 Build 0)  -->
<svg version="1.1" id="Layer_1" xmlns="http://www.w3.org/2000/svg" xmlns:xlink="http://www.w3.org/1999/xlink" x="0px" y="0px"
	 viewBox="0 0 32 32" enable-background="new 0 0 32 32" xml:space="preserve">
<g>
	<path d="M6,17.6c0.1-0.5,0.2-0.9,0.3-1.4c0.7-2.4,2.4-4,4.6-5.2c0.7-0.3,1.3-0.6,2.1-0.8c0,0,0,0,0.1,0.1c-0.6,0.8-0.7,1.7-0.7,2.7
		c0,0.3-0.1,0.4-0.3,0.5c-0.6,0.2-1.1,0.5-1.7,0.8c-2.7,1.5-3.8,5.3-2.2,8.3c0.3,0.6,0.7,1.2,1.2,1.7c0.2,0.2,0.2,0.3,0,0.4
		c-0.5,0.5-0.5,0.5-1,0c-0.9-0.9-1.4-2-1.9-3.2c-0.2-0.5-0.2-1-0.4-1.5C6,19.2,6,18.4,6,17.6z"/>
	<path d="M26,19.3c-0.2,0.1-0.1,0.3-0.2,0.5c-1.3,3.8-5,6-8.6,5.7c-2.3-0.2-4.2-1.2-6-2.8c1.1,0.1,2-0.3,2.8-0.8
		c0.2-0.1,0.3-0.1,0.5,0c0.7,0.6,1.5,1.1,2.4,1.3c2.4,0.7,4.5,0.2,6.3-1.5c0.9-0.8,1.4-1.9,1.8-3c0.1-0.3,0.2-0.4,0.5-0.3
		c0.1,0.1,0.3,0.1,0.4,0.1C26,18.8,26,19,26,19.3z"/>
	<path d="M15.9,6.5c0.5,0.2,1.1,0.2,1.6,0.4c3.4,1.3,5.3,3.8,5.7,7.5c0.1,1.1,0,2.2-0.2,3.3c-0.5-1-1.3-1.6-2.2-2
		c-0.2-0.1-0.2-0.3-0.1-0.4c0.1-0.9,0.1-1.8,0-2.7c-0.2-1.6-1.1-2.8-2.3-3.7c-1.7-1.4-3.7-1.5-5.8-1c-0.2,0-0.4,0.2-0.4-0.1
		c0-0.3-0.4-0.6,0.1-0.8c0.4-0.2,0.9-0.2,1.4-0.4C14.3,6.5,15.1,6.5,15.9,6.5z"/>
	<path d="M12.7,19.5c0,1.1-0.9,2-2,2c-1.1,0-2.1-0.9-2.1-2c0-1.1,0.9-2,2-2C11.8,17.5,12.7,18.4,12.7,19.5z"/>
	<path d="M17.9,11.2c0,1.1-0.9,2-2,2c-1.1,0-2.1-0.9-2.1-2c0-1.1,0.9-2,2-2C16.9,9.2,17.8,10.1,17.9,11.2z"/>
	<path d="M22.2,19.8c0,1.1-0.9,2-2,2c-1.1,0-2-0.9-2-2c0-1.1,0.9-2,2-2C21.4,17.8,22.3,18.7,22.2,19.8z"/>
	<path d="M12.9,10.2C13,10.2,13,10.2,12.9,10.2C13,10.2,13,10.3,12.9,10.2C13,10.3,13,10.2,12.9,10.2z"/>
</g>
</svg>
