<svg viewBox="-16.5 -17.5 143 143" xmlns="http://www.w3.org/2000/svg" version="1.0"><defs><linearGradient id="a"><stop offset="0" stop-color="#ffe052"></stop><stop offset="1" stop-color="#ffc331"></stop></linearGradient><linearGradient id="b"><stop offset="0" stop-color="#387eb8"></stop><stop offset="1" stop-color="#366994"></stop></linearGradient></defs><g color="#000"><path style="marker:none" d="M54.813 0C26.78 0 28.53 12.156 28.53 12.156l.032 12.594h26.75v3.781H17.937S0 26.497 0 54.781c0 28.285 15.656 27.282 15.656 27.282H25V68.936s-.504-15.656 15.406-15.656h26.532s14.906.241 14.906-14.406V14.656S84.107 0 54.813 0zm-14.75 8.469a4.808 4.808 0 014.812 4.812 4.808 4.808 0 01-4.813 4.813 4.808 4.808 0 01-4.812-4.813 4.808 4.808 0 014.813-4.812z" fill="#519ABA" overflow="visible"></path><path d="M55.609 109.846c28.031 0 26.28-12.156 26.28-12.156l-.03-12.594h-26.75v-3.781h37.375s17.937 2.034 17.937-26.25-15.656-27.281-15.656-27.281H85.42v13.125s.504 15.656-15.406 15.656H43.484s-14.907-.241-14.907 14.406V95.19s-2.263 14.656 27.032 14.656zm14.75-8.469a4.808 4.808 0 01-4.813-4.812 4.808 4.808 0 014.813-4.813 4.808 4.808 0 014.812 4.813 4.808 4.808 0 01-4.812 4.812z" style="marker:none" fill="#CBCB41" overflow="visible"></path></g></svg>