<?xml version="1.0" encoding="utf-8"?>
<!-- Generator: Adobe Illustrator 18.1.1, SVG Export Plug-In . SVG Version: 6.00 Build 0)  -->
<svg version="1.1" id="Layer_1" xmlns="http://www.w3.org/2000/svg" xmlns:xlink="http://www.w3.org/1999/xlink" x="0px" y="0px"
	 viewBox="0 0 32 32" enable-background="new 0 0 32 32" xml:space="preserve">
<path fill="#356EA1" d="M15.6,15.5c-0.7,0-1.3,0-2,0c-1.4,0-2.3,0.9-2.3,2.3c0,0.6,0,1.2,0,1.8c0,0.2-0.1,0.3-0.3,0.3
	c-0.3,0-0.6,0-0.9,0c-0.9,0-1.6-0.4-2-1.2c-0.3-0.6-0.5-1.2-0.5-1.8c-0.1-1.1-0.1-2.2,0.3-3.3c0.3-0.9,0.9-1.6,1.9-1.8
	c0.1,0,0.2,0,0.4,0c1.8,0,3.6,0,5.4,0c0.1,0,0.3,0,0.3-0.1c0-0.2,0-0.3,0-0.5c0,0-0.2-0.1-0.3-0.1c-1.1,0-2.3,0-3.4,0
	c-0.3,0-0.4-0.1-0.4-0.4c0-0.4,0-0.9,0-1.3c0-0.7,0.3-1.2,0.9-1.4c0.5-0.2,1-0.4,1.5-0.5c1.2-0.2,2.4-0.2,3.6,0.1
	c0.5,0.1,1,0.3,1.4,0.6c0.4,0.4,0.7,0.8,0.6,1.4c0,1.2,0,2.4,0,3.6c0,1.4-0.8,2.2-2.2,2.2C16.9,15.5,16.2,15.5,15.6,15.5
	C15.6,15.5,15.6,15.5,15.6,15.5L15.6,15.5z M12.8,9.5c0,0.4,0.3,0.8,0.8,0.8c0.4,0,0.8-0.4,0.8-0.8s-0.4-0.7-0.8-0.8
	C13.1,8.7,12.8,9.1,12.8,9.5z M16.4,16.5c0.7,0,1.3,0,2,0c1.4,0,2.3-0.9,2.3-2.3c0-0.6,0-1.2,0-1.8c0-0.2,0.1-0.3,0.3-0.3
	c0.3,0,0.6,0,0.9,0c0.9,0,1.6,0.4,2,1.2c0.3,0.6,0.5,1.2,0.5,1.8c0.1,1.1,0.1,2.2-0.3,3.3c-0.3,0.9-0.9,1.6-1.9,1.8
	c-0.1,0-0.2,0-0.4,0c-1.8,0-3.6,0-5.4,0c-0.1,0-0.3,0-0.3,0.1c0,0.2,0,0.3,0,0.5c0,0,0.2,0.1,0.3,0.1c1.1,0,2.3,0,3.4,0
	c0.3,0,0.4,0.1,0.4,0.4c0,0.4,0,0.9,0,1.3c0,0.7-0.3,1.2-0.9,1.4c-0.5,0.2-1,0.4-1.5,0.5c-1.2,0.2-2.4,0.2-3.6-0.1
	c-0.5-0.1-1-0.3-1.4-0.6c-0.4-0.4-0.7-0.8-0.6-1.4c0-1.2,0-2.4,0-3.6c0-1.4,0.8-2.2,2.2-2.2C15.1,16.5,15.8,16.5,16.4,16.5
	C16.4,16.5,16.4,16.5,16.4,16.5L16.4,16.5z M19.2,22.5c0-0.4-0.3-0.8-0.8-0.8c-0.4,0-0.8,0.4-0.8,0.8s0.4,0.7,0.8,0.8
	C18.9,23.3,19.2,22.9,19.2,22.5z"/>
</svg>
