<svg viewBox="4.4 4.4 22.88 22.88" xmlns="http://www.w3.org/2000/svg" preserveAspectRatio="xMidYMid"><path fill="#6D8086" d="M16 21.087c-4.943 0-8.95-2.684-8.95-5.994S11.057 9.099 16 9.099s8.95 2.683 8.95 5.993-4.007 5.994-8.95 5.994zm1.37-9.645c-3.757 0-6.803 1.835-6.803 4.098s3.046 4.098 6.803 4.098 6.53-1.254 6.53-4.098-2.773-4.098-6.53-4.098z"></path><path fill="#519ABA" d="M20.68 18.382s.542.163.856.323c.109.055.298.166.434.3s.199.285.199.285l2.135 3.599-3.45.002-1.614-3.03s-.33-.568-.534-.732c-.17-.137-.242-.186-.4-.186h-.82V22.9l-3.053.001v-10.08h6.13s2.793.05 2.793 2.707-2.67 2.855-2.67 2.855zm-1.328-3.375l-1.848-.001-.001 1.714 1.849-.001s.856-.003.856-.872c0-.887-.856-.84-.856-.84z"></path></svg>