<?xml version="1.0" encoding="utf-8"?>
<!-- Generator: Adobe Illustrator 18.1.1, SVG Export Plug-In . SVG Version: 6.00 Build 0)  -->
<svg version="1.1" id="Layer_1" xmlns="http://www.w3.org/2000/svg" xmlns:xlink="http://www.w3.org/1999/xlink" x="0px" y="0px"
	 viewBox="0 0 32 32" enable-background="new 0 0 32 32" xml:space="preserve">
<path fill="#529BBA" d="M22,19.4c0.1,1.1,0.2,2.1,0.2,3.2c0,1.3-0.7,2.2-1.7,2.3c-0.5,0.1-1.1,0-1.6-0.2c-1-0.5-1.9-1.2-2.9-1.8
	c-0.5,0.4-1,0.8-1.6,1.2c-0.3,0.2-0.7,0.4-1,0.5c-1.8,0.8-3.3-0.1-3.4-2.1c0-1,0.1-2.1,0.2-3.2c-0.6-0.2-1.2-0.4-1.8-0.8
	c-0.6-0.3-1.1-0.7-1.6-1.2c-0.9-0.9-0.8-2,0.1-2.9c0.8-0.9,1.9-1.3,3-1.7c0.1,0,0.3-0.1,0.4-0.1c-0.1-0.7-0.2-1.5-0.3-2.2
	c0-0.6,0.1-1.3,0.2-1.9c0.3-1.1,1.3-1.6,2.5-1.3c1.2,0.3,2.1,1,2.9,1.7c0.2,0.1,0.3,0.3,0.4,0.4c0.8-0.6,1.6-1.2,2.5-1.7
	c0.6-0.4,1.3-0.6,2-0.4c1,0.2,1.6,1.1,1.7,2.4c0,0.5,0,1,0,1.6c0,0.5-0.2,1-0.3,1.6c0.6,0.2,1.1,0.4,1.7,0.7
	c0.8,0.4,1.6,0.8,2.1,1.6c0.5,0.7,0.5,1.5,0,2.2c-0.5,0.8-1.3,1.2-2.1,1.6C23,19,22.5,19.2,22,19.4z M16.2,19.3
	c0.3,0,0.8-0.1,1.2-0.1c0.3,0,0.5-0.1,0.7-0.4c0.5-0.8,1-1.6,1.4-2.5c0.1-0.2,0.1-0.5,0-0.6c-0.5-0.9-1-1.7-1.5-2.5
	c-0.1-0.2-0.3-0.3-0.5-0.3c-0.9,0-1.7,0-2.6-0.1c-0.5,0-0.9,0.2-1.2,0.7c-0.2,0.3-0.4,0.6-0.6,1c-1.1,2-1.1,1.2,0,3.2
	C14.3,19.6,13.7,19.2,16.2,19.3z M10.4,18.5c0.3-0.8,0.6-1.6,0.9-2.3c0-0.1,0-0.3,0-0.4c-0.3-0.8-0.6-1.5-0.9-2.3
	c-1,0.3-2,0.7-2.8,1.3c-0.9,0.7-0.9,1.6,0,2.3C8.4,17.9,9.4,18.2,10.4,18.5z M21.7,13.4c-0.4,0.9-0.7,1.7-1,2.5c0,0.1-0.1,0.2,0,0.2
	c0.3,0.8,0.6,1.6,1,2.6c0.9-0.5,1.9-0.9,2.7-1.4c1.1-0.7,1.1-1.7,0-2.4C23.6,14.2,22.6,13.9,21.7,13.4z M11,12.4
	c0.9-0.1,1.7-0.2,2.5-0.4c0.1,0,0.2-0.1,0.2-0.1c0.5-0.7,1-1.3,1.6-2c-0.8-0.7-1.6-1.4-2.6-1.8c-1.1-0.4-1.8,0-2,1.2
	C10.6,10.3,10.8,11.3,11,12.4z M21,12.4c0-0.1,0.1-0.3,0.1-0.4c0.2-1,0.4-2.1,0-3.1c-0.2-0.7-0.7-1-1.3-0.9
	c-1.3,0.2-2.2,1.1-3.1,1.9c0.5,0.7,1,1.3,1.5,1.9c0.1,0.1,0.2,0.2,0.3,0.3C19.3,12.2,20.1,12.3,21,12.4z M11,19.6
	c-0.2,1.1-0.5,2.1-0.2,3.2c0.2,1,0.9,1.4,1.9,1.1c1.1-0.3,1.9-1.1,2.7-1.8c-0.5-0.7-1-1.3-1.6-2c-0.1-0.1-0.2-0.2-0.3-0.2
	C12.7,19.9,11.9,19.8,11,19.6z M16.6,22.1c0.6,0.8,1.8,1.6,2.6,1.9c1,0.3,1.7,0,1.9-1.1c0.2-1.1,0-2.1-0.2-3.2
	c-0.9,0.1-1.8,0.1-2.6,0.4c-0.6,0.3-0.9,1-1.3,1.5C16.9,21.8,16.8,21.9,16.6,22.1z M17.2,11.9c-0.4-0.5-0.8-0.9-1.2-1.4
	c-0.4,0.5-0.7,0.9-1.2,1.4C15.7,11.9,16.3,11.9,17.2,11.9z M17.2,20.1c-0.8,0-1.5,0-2.3,0c0.4,0.5,0.8,0.9,1.2,1.4
	C16.4,21,16.8,20.6,17.2,20.1z M13.1,19.1c-0.4-0.7-0.8-1.3-1.2-2.1c-0.2,0.6-0.4,1.1-0.6,1.7C11.8,18.9,12.4,19,13.1,19.1z
	 M20.1,17c-0.4,0.7-0.8,1.4-1.2,2.1c0.7-0.1,1.2-0.2,1.8-0.3C20.6,18.2,20.4,17.7,20.1,17z M11.9,15c0.4-0.7,0.8-1.4,1.2-2.1
	c-0.7,0.1-1.2,0.2-1.8,0.3C11.5,13.9,11.6,14.4,11.9,15z M18.9,12.9c0.2,0.4,0.4,0.7,0.6,1c0.2,0.3,0.4,0.6,0.6,1
	c0.2-0.6,0.4-1.2,0.6-1.7C20.1,13.2,19.6,13.1,18.9,12.9z"/>
</svg>
