<?xml version="1.0" encoding="utf-8"?>
<!-- Generator: Adobe Illustrator 18.1.1, SVG Export Plug-In . SVG Version: 6.00 Build 0)  -->
<svg version="1.1" id="Layer_1" xmlns="http://www.w3.org/2000/svg" xmlns:xlink="http://www.w3.org/1999/xlink" x="0px" y="0px"
	 viewBox="0 0 32 32" enable-background="new 0 0 32 32" xml:space="preserve">
<path fill="#CD3F45" d="M17.8,7.5c1.4,0,2.7,0,4.1,0c0.1,0,0.2,0.1,0.3,0.1c1.2,0.3,2,1,2.2,2.2c0,0.2,0.1,0.4,0.1,0.6
	c0,0.3,0,0.5,0,0.8c0,0.2-0.1,0.4-0.1,0.6c-0.1,1.4-0.2,2.9-0.3,4.3c-0.2,2.4-0.4,4.7-0.5,7.1c0,0.4-0.1,0.5-0.5,0.5
	c-1.1,0.1-2.1,0.1-3.2,0.2c-2.2,0.1-4.4,0.3-6.6,0.4c-0.6,0-1.2,0.1-1.8,0.2c-0.3,0-0.7,0-1,0c-0.1,0-0.2-0.1-0.3-0.1
	c-1.2-0.2-2.1-0.9-2.4-2.1c-0.1-0.3-0.1-0.6-0.2-0.9c0-0.2,0-0.3,0-0.5c0-0.1,0.1-0.2,0.1-0.4c0-0.8,0.1-1.7,0.1-2.5
	c0-0.5,0-0.9,0.1-1.3c0.7-1.8,1.5-3.5,2.9-4.9c1.7-1.8,3.6-3.2,6-3.8C17.1,7.8,17.4,7.7,17.8,7.5z"/>
</svg>
