<svg xmlns="http://www.w3.org/2000/svg" viewBox="0 0 32 32"><defs><style>.a{fill:none;}</style></defs><title>rust</title><path d="M15.84,18.57c-5-.11-4.09-1.69-6.43-4v4.1a23.61,23.61,0,0,0,6.43.79,22.12,22.12,0,0,0,7.13-1V14.72C20.93,16.81,20.93,18.64,15.84,18.57Z"/><path d="M23,17.84a1.21,1.21,0,0,1-.1-.7c.07-.45.36-.72.65-.61a.45.45,0,0,1,.19.15h0A1.88,1.88,0,0,1,24,18.86a9.4,9.4,0,0,1-1.6,1.95C22.18,20.86,22.52,19.08,23,17.84Z"/><path d="M9.36,17.68A1,1,0,0,0,9.52,17a.73.73,0,0,0-.7-.79.63.63,0,0,0-.23.08h0a1.57,1.57,0,0,0-.48,2.12,12.77,12.77,0,0,0,1.7,2.41C10,20.93,9.79,19.05,9.36,17.68Z"/><path d="M19,15.16c0,.65-.39,1.18-.87,1.18s-.86-.53-.86-1.18.39-1.19.86-1.19S19,14.5,19,15.16Z"/><path class="a" d="M12.58,14c-1.54,1.63-1,3.95,1.07,4.17,2.41-.08,2-2.31,1.94-2.88a1.94,1.94,0,0,0-2.23-1.6A1.83,1.83,0,0,0,12.58,14Z"/><path class="a" d="M17.31,14.38a2.55,2.55,0,0,0,.06,3.09,2,2,0,0,0,2.7-.08,2.46,2.46,0,0,0,0-3A1.72,1.72,0,0,0,17.68,14,1.85,1.85,0,0,0,17.31,14.38Z"/><path d="M12,10.22l-1.5-.83a.45.45,0,0,0-.45,0,.45.45,0,0,0-.19.42l.16,1.69-.24.21L8.17,11.4a.38.38,0,0,0-.43.59l.61,1.47c-.07.12-.14.26-.22.38L6.55,14a.42.42,0,0,0-.29.7l1,1.18-.13.19L7,16.13l.81,1.28s8.24,3.8,15.89.06c.87-.16,1.07-1.49,1.07-1.49v-.07l1-1.25a.43.43,0,0,0,0-.44.44.44,0,0,0-.37-.26l-1.66-.16a1.92,1.92,0,0,0-.18-.31L24.22,12a.42.42,0,0,0,0-.44.47.47,0,0,0-.43-.15l-1.64.31-.23-.2L22,9.73a.43.43,0,0,0-.18-.41.45.45,0,0,0-.45,0l-1.5.81H20L19.64,10l-.36-1.65a.42.42,0,0,0-.73-.21L17.38,9.42h-.27l-.78-1.49a.46.46,0,0,0-.4-.24.42.42,0,0,0-.38.24l-.8,1.48h-.24l-1.16-1.2a.46.46,0,0,0-.42-.09.42.42,0,0,0-.3.34l-.37,1.66-.23.1m0,0,1.62,7.91c-2-.22-2.61-2.54-1.07-4.17a1.93,1.93,0,0,1,2.69.52,2,2,0,0,1,.31.77C15.68,15.82,16.06,18.05,13.65,18.13Zm6.42-.74a2,2,0,0,1-2.7.08,2.55,2.55,0,0,1-.06-3.09A1.71,1.71,0,0,1,19.7,14a1.85,1.85,0,0,1,.37.37A2.48,2.48,0,0,1,20.07,17.39Z"/><path d="M14.05,15.16c0,.67-.4,1.22-.89,1.22s-.89-.55-.89-1.22.4-1.23.89-1.23S14.05,14.48,14.05,15.16Z"/><path d="M7.93,18c.21-.24.71-.52.67-.88a1.09,1.09,0,0,0-1.17-1H7a2.1,2.1,0,0,0-1,2.81,1.18,1.18,0,0,0,.11.19c0,.09,2.23,2.95,2.86,3.16C9.38,22.43,8.59,19.85,7.93,18Z"/><path d="M24.21,17.89c-.25-.2-.88-.39-.89-.75a1.09,1.09,0,0,1,1-1.19h.31a2.08,2.08,0,0,1,1.47,2.53c0,.08-.05.16-.08.24S24.25,22,23.66,22.28C23.29,22.5,23.78,19.81,24.21,17.89Z"/><path d="M10.78,18s-.84,3,1.46,4.23l.8-.89a2.63,2.63,0,0,1-1.23-3.06Z"/><path d="M21.57,18.12s.6,3.15-1.81,4.18l-.71-.95a2.84,2.84,0,0,0,1.47-3Z"/><path d="M20.8,21.46a2.12,2.12,0,0,0-2.87-.89h0a2.24,2.24,0,0,0-1.52,2.27A18.38,18.38,0,0,0,19,22.65a8.79,8.79,0,0,1-1.25,1.53A2.51,2.51,0,0,0,19.36,24,2.12,2.12,0,0,0,20.8,21.46Z"/><path d="M13.47,22.65s1.08.14,2.56.18a2.28,2.28,0,0,0-1.7-2.26,2.19,2.19,0,0,0-2.87,1,2.19,2.19,0,0,0,1.63,2.59,2.81,2.81,0,0,0,1.6.06A7.36,7.36,0,0,1,13.47,22.65Z"/></svg>