<?xml version="1.0" encoding="utf-8"?>
<!-- Generator: Adobe Illustrator 18.1.1, SVG Export Plug-In . SVG Version: 6.00 Build 0)  -->
<svg version="1.1" id="Layer_1" xmlns="http://www.w3.org/2000/svg" xmlns:xlink="http://www.w3.org/1999/xlink" x="0px" y="0px"
	 viewBox="0 0 32 32" enable-background="new 0 0 32 32" xml:space="preserve">
<path d="M21.7,8.4c0,0.2,0,0.3,0,0.5c0,0,0,0.1,0,0.1c0,0,0.1,0.1,0.1,0.1c0,0,0.1,0,0.1,0c0.3-0.1,0.6-0.1,0.9-0.2
	C23,8.8,23.2,9,23.1,9.2c-0.1,0.3-0.1,0.6-0.2,0.9c0,0,0,0.1,0,0.1c0,0,0,0,0.1,0.1c0,0.1,0.1,0.1,0.2,0.1c0.3,0,0.6,0,0.9,0
	c0.2,0,0.3,0.1,0.3,0.3c0,0.1,0,0.1,0,0.2c-0.1,0.3-0.3,0.6-0.4,0.8c0,0,0,0,0,0.1c0,0,0.1,0.1,0.1,0.2c0,0,0,0,0.1,0
	c0.3,0.1,0.6,0.1,0.9,0.2c0.2,0,0.3,0.3,0.2,0.5c-0.2,0.3-0.4,0.5-0.5,0.7c0,0,0,0.1,0,0.1c0,0,0,0,0,0.1c0,0.1,0.1,0.1,0.2,0.2
	c0.3,0.1,0.5,0.2,0.8,0.3c0.2,0.1,0.3,0.3,0.1,0.5c-0.2,0.2-0.4,0.4-0.7,0.6c0,0,0,0,0,0.1c0,0.1,0,0.1,0,0.2c0,0,0.1,0.1,0.2,0.1
	c0.2,0.1,0.4,0.3,0.7,0.4c0.2,0.1,0.2,0.4,0,0.5c-0.3,0.2-0.5,0.3-0.8,0.5c0,0,0,0,0,0.1c0,0.2,0,0.2,0.1,0.3
	c0.2,0.2,0.4,0.4,0.6,0.5c0.2,0.2,0.1,0.4-0.1,0.5c-0.3,0.1-0.6,0.2-0.8,0.3c0,0-0.1,0-0.1,0.1c0,0,0,0,0,0c-0.1,0.1,0,0.2,0,0.3
	c0.2,0.2,0.3,0.4,0.5,0.7c0.1,0.1,0.1,0.3-0.1,0.4c-0.1,0-0.1,0-0.2,0.1c-0.3,0-0.5,0.1-0.8,0.1c0,0,0,0-0.1,0
	c0,0.1-0.1,0.1-0.1,0.2c0,0.1,0,0.1,0.1,0.2c0.1,0.2,0.2,0.5,0.3,0.7c0.1,0.1,0,0.3-0.1,0.4c-0.1,0-0.1,0-0.2,0c-0.3,0-0.6,0-0.9,0
	c0,0-0.1,0-0.1,0c-0.1,0.1-0.1,0.2-0.1,0.3c0.1,0.3,0.1,0.5,0.2,0.8c0.1,0.2-0.1,0.4-0.4,0.4c-0.3-0.1-0.6-0.1-0.9-0.2
	c0,0-0.1,0-0.1,0c0,0-0.1,0.1-0.1,0.1c0,0-0.1,0.1,0,0.1c0,0.3,0,0.6,0,0.9c0,0.2-0.1,0.3-0.3,0.3c-0.1,0-0.1,0-0.2,0
	c-0.3-0.1-0.5-0.2-0.8-0.4c0,0-0.1,0-0.1,0c0,0,0,0,0,0c-0.1,0-0.2,0.1-0.2,0.2c0,0.3-0.1,0.5-0.1,0.8c0,0.2-0.3,0.3-0.5,0.2
	c-0.2-0.2-0.5-0.4-0.7-0.5c0,0-0.1,0-0.1,0c0,0,0,0,0,0c-0.1,0-0.2,0.1-0.2,0.2c-0.1,0.3-0.2,0.5-0.3,0.8c-0.1,0.2-0.2,0.2-0.3,0.2
	c-0.1,0-0.1-0.1-0.1-0.1c-0.2-0.2-0.4-0.4-0.6-0.7c0,0,0,0-0.1,0c0,0,0,0-0.1,0c-0.1,0-0.2,0.1-0.2,0.2c-0.1,0.2-0.3,0.5-0.4,0.7
	c-0.1,0.2-0.4,0.2-0.5,0c-0.2-0.3-0.3-0.5-0.5-0.8c0,0,0,0-0.1,0c0,0-0.1,0-0.1,0c-0.1,0-0.1,0-0.2,0.1c-0.2,0.2-0.4,0.4-0.6,0.6
	c-0.1,0.1-0.2,0.1-0.4,0.1c-0.1,0-0.1-0.1-0.1-0.2c-0.1-0.3-0.2-0.6-0.3-0.9c0,0,0-0.1-0.1-0.1c0,0-0.1,0-0.1,0c-0.1,0-0.2,0-0.2,0
	c-0.2,0.2-0.4,0.3-0.7,0.5C12.3,25.3,12,25.2,12,25c-0.1-0.3-0.1-0.6-0.1-0.9c0,0,0-0.1-0.1-0.1c-0.1,0-0.1-0.1-0.2-0.1
	c-0.1,0-0.1,0-0.2,0.1c-0.2,0.1-0.5,0.2-0.7,0.3c-0.2,0.1-0.4,0-0.4-0.2c0,0,0-0.1,0-0.1c0-0.3,0-0.6,0-0.9c0,0,0-0.1,0-0.1
	c0,0-0.1-0.1-0.1-0.1c0,0-0.1,0-0.1,0c-0.3,0.1-0.6,0.1-0.9,0.2C9,23.2,8.8,23,8.9,22.8c0.1-0.3,0.1-0.6,0.2-0.9c0,0,0-0.1,0-0.1
	c0,0-0.1-0.1-0.1-0.1c0,0,0,0-0.1,0c-0.3,0-0.6,0-0.9,0c-0.2,0-0.3-0.1-0.3-0.3c0-0.1,0-0.1,0-0.2c0.1-0.3,0.3-0.6,0.4-0.8
	c0,0,0-0.1,0-0.1c0,0,0-0.1-0.1-0.1c0-0.1-0.1-0.1-0.1-0.1c-0.3,0-0.6-0.1-0.9-0.1c-0.2,0-0.3-0.3-0.2-0.5C7,19.3,7.2,19,7.3,18.8
	c0,0,0-0.1,0-0.1c0-0.1,0-0.1-0.1-0.2c0,0-0.1-0.1-0.2-0.1c-0.2-0.1-0.5-0.2-0.7-0.3c-0.2-0.1-0.3-0.3-0.1-0.5
	C6.5,17.5,6.7,17.2,7,17c0,0,0,0,0-0.1c0,0,0,0,0-0.1c0-0.1,0-0.2-0.1-0.2c-0.2-0.1-0.5-0.3-0.7-0.4c-0.2-0.1-0.2-0.4,0-0.5
	c0.3-0.2,0.5-0.3,0.8-0.5c0,0,0,0,0-0.1c0,0,0-0.1,0-0.1C7,15,7,15,6.9,14.9c-0.2-0.2-0.4-0.4-0.6-0.6c-0.1-0.1-0.1-0.3,0-0.4
	c0,0,0.1,0,0.1-0.1c0.3-0.1,0.6-0.2,0.9-0.3c0,0,0,0,0,0c0,0,0,0,0-0.1c0.1-0.1,0-0.2,0-0.3c-0.2-0.2-0.3-0.4-0.5-0.6
	C6.7,12.3,6.8,12,7,12c0.3-0.1,0.6-0.1,0.9-0.2c0,0,0,0,0.1,0c0-0.1,0.1-0.1,0.1-0.2c0-0.1,0-0.1-0.1-0.2c-0.1-0.2-0.2-0.5-0.3-0.7
	c-0.1-0.2,0-0.4,0.2-0.4c0,0,0.1,0,0.1,0c0.3,0,0.6,0,0.9,0c0,0,0.1,0,0.1,0c0,0,0-0.1,0.1-0.1c0,0,0-0.1,0-0.1
	C9,9.8,8.9,9.5,8.9,9.2C8.8,9,9,8.8,9.2,8.9C9.5,8.9,9.8,9,10.1,9.1c0,0,0.1,0,0.1,0c0,0,0.1-0.1,0.1-0.1c0,0,0.1-0.1,0-0.1
	c0-0.3,0-0.6,0-0.9c0-0.2,0.1-0.3,0.3-0.3c0.1,0,0.1,0,0.2,0c0.3,0.1,0.6,0.3,0.8,0.4c0,0,0.1,0,0.1,0c0,0,0.1,0,0.1-0.1
	c0.1,0,0.1-0.1,0.1-0.1c0-0.3,0.1-0.6,0.1-0.9c0-0.2,0.3-0.3,0.5-0.2C12.7,7,13,7.2,13.2,7.3c0,0,0.1,0,0.1,0c0.1,0,0.1,0,0.2-0.1
	c0,0,0-0.1,0.1-0.2c0.1-0.2,0.2-0.5,0.3-0.7c0.1-0.2,0.2-0.2,0.4-0.2c0,0,0.1,0.1,0.1,0.1C14.5,6.5,14.8,6.7,15,7c0,0,0,0,0.1,0
	c0,0,0,0,0,0c0.1,0,0.2-0.1,0.2-0.1c0.1-0.2,0.3-0.5,0.4-0.7C15.9,6,16.1,6,16.2,6.1c0,0,0.1,0.1,0.1,0.1c0.2,0.3,0.3,0.5,0.5,0.8
	c0,0,0,0,0.1,0c0.1,0,0.1,0,0.2,0c0.1,0,0.1-0.1,0.1-0.1c0.2-0.2,0.4-0.4,0.5-0.6c0.1-0.1,0.3-0.1,0.4,0c0,0,0,0.1,0,0.1
	c0.1,0.3,0.2,0.6,0.3,0.8c0,0,0,0,0.1,0.1c0,0,0.1,0,0.1,0c0,0,0.1,0,0.1,0C19,7.2,19.3,7,19.5,6.8C19.7,6.7,20,6.8,20,7
	c0,0.3,0.1,0.6,0.1,0.9c0,0,0,0.1,0.1,0.1c0,0,0,0,0.1,0c0.1,0.1,0.2,0.1,0.2,0c0.2-0.1,0.5-0.2,0.8-0.3c0.2-0.1,0.4,0,0.4,0.3
	C21.7,8.1,21.7,8.3,21.7,8.4C21.7,8.4,21.7,8.4,21.7,8.4z M10.6,11.1C10.6,11.1,10.6,11.1,10.6,11.1c2.6,0,5.1,0,7.6,0
	c0.3,0,0.6,0,0.9,0.1c0.6,0.2,1.1,0.5,1.4,0.9c0.3,0.3,0.5,0.7,0.5,1.2c0,0.4-0.1,0.8-0.3,1.2c-0.2,0.3-0.5,0.6-0.8,0.8
	c-0.1,0.1-0.2,0.2-0.3,0.2c0.1,0.1,0.2,0.1,0.3,0.2c0.2,0.2,0.5,0.4,0.6,0.7c0.2,0.3,0.3,0.7,0.3,1c0,0.1,0.1,0.2,0.2,0.3
	c0.2,0.2,0.5,0.2,0.8,0.2c0.2,0,0.4-0.1,0.5-0.2c0.2-0.2,0.2-0.4,0.3-0.6c0-0.2,0-0.3,0-0.5c0-0.1,0-0.1,0.1-0.1c0.2,0,0.4,0,0.6,0
	c0,0,0,0,0.1,0c0,0,0,0,0,0c0,0,0-0.1,0-0.1c0-0.4,0-0.7,0-1.1c0,0,0-0.1,0-0.1c-0.3-0.1-0.6-0.3-0.9-0.4c-0.1-0.1-0.3-0.1-0.4-0.2
	c-0.3-0.1-0.4-0.4-0.3-0.8c0.2-0.5,0.4-1,0.7-1.5c0,0,0-0.1,0-0.1c-0.4-0.6-0.8-1.2-1.4-1.7c-1-0.9-2.2-1.5-3.6-1.8c0,0,0,0-0.1,0
	c-0.3,0.3-0.6,0.6-1,0.9c-0.2,0.2-0.6,0.2-0.8,0c-0.3-0.3-0.6-0.6-0.9-0.9c0,0,0,0-0.1,0c-0.4,0.1-0.7,0.2-1,0.3
	c-1.1,0.4-2,1-2.8,1.8C10.7,10.9,10.6,11,10.6,11.1z M21.9,20.3c-0.1,0-0.1,0-0.1,0c-1,0-1.9,0-2.9,0c-0.2,0-0.3,0-0.4-0.1
	c-0.4-0.2-0.6-0.6-0.7-1c-0.1-0.4-0.2-0.7-0.2-1.1c0-0.2-0.1-0.4-0.2-0.6c-0.2-0.5-0.6-0.8-1.1-0.8c-0.6,0-1.2,0-1.8,0c0,0,0,0,0,0
	c0,0.4,0,0.9,0,1.3c0,0,0,0,0.1,0c0.6,0,1.1,0,1.7,0c0.1,0,0.1,0,0.1,0.1c0,0.7,0,1.3,0,2c0,0.1,0,0.1-0.1,0.1c-2,0-3.9,0-5.9,0
	c0,0,0,0-0.1,0c0,0,0,0,0,0c0.2,0.3,0.4,0.5,0.6,0.7c0,0,0,0,0.1,0c0.4-0.1,0.8-0.2,1.2-0.2c0.3-0.1,0.6,0.1,0.7,0.4
	c0.1,0.4,0.2,0.9,0.3,1.3c0,0,0,0,0,0.1c0.8,0.3,1.6,0.6,2.4,0.6c0.7,0.1,1.4,0,2.1-0.1c0.5-0.1,1-0.3,1.5-0.5c0,0,0,0,0-0.1
	c0.1-0.4,0.2-0.9,0.3-1.3c0.1-0.3,0.3-0.5,0.7-0.4c0.4,0.1,0.8,0.2,1.2,0.3c0,0,0,0,0.1,0C21.5,20.8,21.7,20.5,21.9,20.3z M10,13.3
	C10,13.3,10,13.3,10,13.3c0.1,0.2,0.2,0.4,0.3,0.6c0,0.1,0.1,0.2,0,0.3c0,0.2-0.2,0.3-0.3,0.4c-0.4,0.2-0.8,0.4-1.2,0.5
	c0,0-0.1,0-0.1,0.1c0,0.2,0,0.4,0,0.5c0,0.7,0.1,1.4,0.3,2.2c0,0,0,0.1,0.1,0.1c0.7,0,1.3,0,2,0c0,0,0,0,0.1,0c0-1.6,0-3.1,0-4.7
	C10.7,13.3,10.4,13.3,10,13.3z M14.3,14.7C14.4,14.7,14.4,14.7,14.3,14.7c0.8,0,1.6,0,2.3,0c0.2,0,0.4,0,0.6-0.1
	c0.1-0.1,0.2-0.1,0.3-0.3c0.1-0.2,0.1-0.5-0.1-0.7c-0.2-0.2-0.5-0.3-0.7-0.3c-0.8,0-1.6,0-2.4,0c0,0,0,0-0.1,0
	C14.3,13.8,14.3,14.2,14.3,14.7z M8.3,13.7c0,0.3,0.3,0.6,0.6,0.6c0.3,0,0.6-0.3,0.6-0.6c0-0.3-0.3-0.6-0.6-0.6
	C8.6,13.1,8.3,13.4,8.3,13.7z M21,22.1c0-0.3-0.3-0.6-0.6-0.6c-0.3,0-0.6,0.3-0.6,0.6c0,0.3,0.3,0.6,0.6,0.6
	C20.7,22.7,21,22.5,21,22.1z M11.6,21.5c-0.3,0-0.6,0.3-0.6,0.6c0,0.3,0.3,0.6,0.6,0.6c0.3,0,0.6-0.3,0.6-0.6
	C12.2,21.8,11.9,21.5,11.6,21.5z M16.6,8.4c0-0.3-0.2-0.6-0.6-0.6c-0.3,0-0.6,0.2-0.6,0.6c0,0.3,0.2,0.6,0.6,0.6
	C16.3,9,16.5,8.7,16.6,8.4z M23.1,14.4c0.3,0,0.6-0.3,0.6-0.6c0-0.3-0.3-0.6-0.6-0.6c-0.3,0-0.6,0.3-0.6,0.6
	C22.5,14.1,22.7,14.4,23.1,14.4z"/>
</svg>
