<?xml version="1.0" encoding="utf-8"?>
<!-- Generator: Adobe Illustrator 18.1.1, SVG Export Plug-In . SVG Version: 6.00 Build 0)  -->
<svg version="1.1" id="Layer_1" xmlns="http://www.w3.org/2000/svg" xmlns:xlink="http://www.w3.org/1999/xlink" x="0px" y="0px"
	 viewBox="0 0 32 32" enable-background="new 0 0 32 32" xml:space="preserve">
<path fill="#CF6499" d="M18,17.3c-1.1,0.7-2.4,1.5-3.5,2.2c0.4,0.9,0.4,1.8,0.1,2.7c-0.5,1.6-1.7,2.5-3.2,2.7
	c-0.4,0.1-0.8,0-1.1-0.1c-0.4-0.1-0.6-0.4-0.7-0.7c-0.4-0.9-0.3-1.7,0.3-2.4c0.4-0.4,0.8-0.9,1.3-1.2c0.5-0.4,1.2-0.7,1.8-1.1
	c0.1-0.1,0.2-0.1,0.4-0.2c-0.3-0.2-0.4-0.4-0.6-0.4c-0.8-0.5-1.6-1.1-2.3-1.8c-0.4-0.4-0.8-0.8-1.1-1.3C8.5,15,8.4,14,8.9,13.1
	c0.4-1,1.1-1.8,1.8-2.5c1.6-1.4,3.4-2.4,5.4-3.1c1.4-0.5,2.8-0.7,4.2-0.5c0.4,0.2,1,0.3,1.4,0.5c1.5,0.6,2.1,1.8,1.6,3.4
	c-0.4,1.3-1.2,2.4-2.4,3.1c-1.6,1-3.2,1.4-5.1,1.1c-0.6-0.1-1.1-0.4-1.6-0.9c-0.1-0.2-0.2-0.4-0.3-0.5c0,0,0-0.1,0.1-0.2
	c0,0,0.1,0,0.2,0.1c0.8,0.8,1.7,0.9,2.6,0.7c1.7-0.3,3.2-0.9,4.3-2.2c0.4-0.5,0.8-1.1,1-1.8c0.2-0.8-0.2-1.4-0.9-1.8
	c-0.8-0.4-1.6-0.4-2.4-0.3c-2,0.3-3.8,1.1-5.4,2.1c-0.9,0.5-1.7,1.1-2.3,1.9c-0.3,0.4-0.5,0.8-0.7,1.2c-0.3,0.8-0.2,1.6,0.4,2.2
	c0.4,0.4,0.8,0.8,1.2,1.1c0.6,0.5,1.3,1.1,1.9,1.6c0.1,0,0.2,0.1,0.3,0c0.3-0.2,0.5-0.3,0.8-0.4c0.9-0.5,1.8-0.9,2.8-1.1
	C17.8,17.2,17.9,17.2,18,17.3C18,17.2,18,17.2,18,17.3L18,17.3z M13.7,19.8c-0.9,0.5-1.6,1-2.3,1.7c-0.4,0.4-0.6,0.8-0.7,1.3
	c-0.1,0.6,0.3,0.9,0.9,0.8c0.8-0.2,1.4-0.7,1.8-1.3C13.9,21.5,13.9,20.8,13.7,19.8L13.7,19.8z"/>
</svg>
