<?xml version="1.0" encoding="utf-8"?>
<!-- Generator: Adobe Illustrator 18.1.1, SVG Export Plug-In . SVG Version: 6.00 Build 0)  -->
<svg version="1.1" id="Layer_1" xmlns="http://www.w3.org/2000/svg" xmlns:xlink="http://www.w3.org/1999/xlink" x="0px" y="0px"
	 viewBox="0 0 32 32" enable-background="new 0 0 32 32" xml:space="preserve">
<path d="M26,17c0,0.5-0.1,0.9-0.2,1.4c-3.1,0-6.2,0-9.3,0c-1.3,0-2.6,0-3.9,0c-0.9,0-1.3,0.5-1.3,1.3c0,0.7,0.5,1.1,1.4,1.1
	c4.1,0,8.1,0,12.2,0c-1.6,3-4.2,4.8-7.6,5.2C12,26.6,7.1,23,6.2,17.9c-1-5.3,2.3-10.3,7.4-11.6c4.2-1.1,8.8,0.8,11,4.5
	c-0.2,0.1-0.5,0.1-0.8,0.1c-2.2,0-4.4,0-6.5,0c-0.7,0-1.2,0.5-1.2,1.2c0,0.7,0.4,1.1,1.1,1.1c2.8,0,5.6,0,8.4,0
	c0.2,0.5,0.3,1,0.3,1.5c-3.6,0-7.3,0-10.9,0c-0.9,0-1.4,0.4-1.4,1.2c0,0.7,0.5,1.1,1.4,1.1c3.4,0,6.7,0,10.1,0
	C25.4,16.9,25.7,16.9,26,17z"/>
</svg>
