<?xml version="1.0" encoding="utf-8"?>
<!-- Generator: Adobe Illustrator 18.1.1, SVG Export Plug-In . SVG Version: 6.00 Build 0)  -->
<svg version="1.1" id="Layer_1" xmlns="http://www.w3.org/2000/svg" xmlns:xlink="http://www.w3.org/1999/xlink" x="0px" y="0px"
	 viewBox="0 0 32 32" enable-background="new 0 0 32 32" xml:space="preserve">
<g>
	<path d="M21.6,7c0,1.4,0,2.8,0,4.2c-0.1,0.1-0.1,0.2-0.2,0.2c-0.3,0.3-0.7,0.5-1.1,0.6c-0.9,0.3-1.9,0.5-2.8,0.7
		c-1.6,0.3-3.1,0.5-4.7,0.7c-0.8,0.1-1.6,0.2-2.4,0.4c0-1.4,0-2.8,0-4.2c0.1-0.1,0.2-0.1,0.4-0.1C12,9.3,13.3,9.1,14.6,9
		c1.9-0.3,3.8-0.5,5.6-1.1C20.7,7.7,21.3,7.5,21.6,7z"/>
	<path d="M21.6,12.6c0,1.4,0,2.8,0,4.2c-0.1,0.1-0.1,0.1-0.2,0.2c-0.5,0.4-1.1,0.6-1.6,0.8c-0.8,0.2-1.6,0.4-2.4,0.5
		c-1,0.2-1.9,0.3-2.9,0.5c-1.4,0.2-2.7,0.3-4.1,0.6c0-1.4,0-2.8,0-4.2c0.1-0.1,0.2-0.1,0.3-0.1c1.7-0.2,3.4-0.5,5.1-0.7
		c1.4-0.2,2.9-0.5,4.3-0.9C20.7,13.3,21.2,13.1,21.6,12.6z"/>
	<path d="M10.5,25c0,0-0.1,0-0.1,0c0-1.4,0-2.8,0-4.2c0.1-0.1,0.2-0.1,0.3-0.1c1.2-0.2,2.3-0.3,3.5-0.5c2-0.3,3.9-0.5,5.8-1.1
		c0.6-0.2,1.2-0.4,1.6-0.9c0,1.4,0,2.8,0,4.2c-0.1,0.2-0.3,0.3-0.5,0.5c-0.6,0.3-1.2,0.5-1.9,0.7c-1.2,0.3-2.5,0.5-3.7,0.7
		c-1.3,0.2-2.6,0.4-3.9,0.5C11.2,24.8,10.9,24.9,10.5,25z"/>
</g>
</svg>
