<?xml version="1.0" encoding="UTF-8"?>
<svg xmlns="http://www.w3.org/2000/svg" xmlns:xlink="http://www.w3.org/1999/xlink" width="32pt" height="32pt" viewBox="0 0 32 32" version="1.1">
<g id="surface1">
<path style=" stroke:none;fill-rule:nonzero;fill:rgb(91.372549%,54.509804%,4.705882%);fill-opacity:1;" d="M 13.691406 11.058594 L 12.210938 13.734375 L 24.785156 13.734375 L 23.191406 11.058594 Z M 13.691406 11.058594 "/>
<path style=" stroke:none;fill-rule:nonzero;fill:rgb(100%,66.27451%,6.27451%);fill-opacity:1;" d="M 18.378906 19.285156 L 19.863281 16.613281 L 7.289062 16.613281 L 8.882812 19.285156 Z M 18.378906 19.285156 "/>
<path style=" stroke:none;fill-rule:nonzero;fill:rgb(91.372549%,54.509804%,4.705882%);fill-opacity:1;" d="M 8.632812 8.652344 L 11.917969 8.652344 L 8.960938 14.054688 L 13.4375 21.605469 L 10.195312 21.65625 L 5.828125 14.324219 C 5.730469 14.15625 5.726562 13.953125 5.820312 13.78125 Z M 8.632812 8.652344 "/>
<path style=" stroke:none;fill-rule:nonzero;fill:rgb(100%,66.27451%,6.27451%);fill-opacity:1;" d="M 23.332031 21.675781 L 20.050781 21.675781 L 23.003906 16.273438 L 18.527344 8.722656 L 21.769531 8.671875 L 26.136719 16.003906 C 26.234375 16.171875 26.238281 16.375 26.144531 16.546875 Z M 23.332031 21.675781 "/>
</g>
</svg>
