<?xml version="1.0" encoding="utf-8"?>
<!-- Generator: Adobe Illustrator 18.1.1, SVG Export Plug-In . SVG Version: 6.00 Build 0)  -->
<svg version="1.1" id="Layer_1" xmlns="http://www.w3.org/2000/svg" xmlns:xlink="http://www.w3.org/1999/xlink" x="0px" y="0px"
	 viewBox="0 0 32 32" enable-background="new 0 0 32 32" xml:space="preserve">
<path d="M6,14.6c0-0.2,0-0.4,0-0.6c0-0.1,0-0.1,0-0.2c0-0.5,0.1-1.1,0.3-1.6c0.9-3.4,4-5.9,7.5-6.1c0,0,0.1,0,0.1,0
	c0.2,0,0.4,0,0.6,0c0,0,0,0,0.1,0c0.1,0,0.2,0,0.2,0c0.5,0,1.1,0.1,1.6,0.3c3.3,0.9,5.8,3.8,6,7.4c0,0.6,0,1.3-0.1,1.9
	c-0.2,1-0.5,1.9-1,2.8c0,0,0,0.1-0.1,0.1c0,0,0.1,0,0.1,0.1c1.5,1.5,3.1,3.1,4.6,4.6c0.1,0.1,0.1,0.1,0.2,0.2c0,0.1,0,0.2,0,0.3
	c0,0.1-0.1,0.2-0.1,0.3c-0.1,0.2-0.2,0.4-0.4,0.6c-0.3,0.3-0.5,0.5-0.8,0.8c-0.3,0.2-0.5,0.4-0.9,0.5c0,0,0,0,0,0
	c-0.1,0-0.2,0-0.2,0c-0.1,0-0.2-0.1-0.3-0.2c-1.5-1.5-3-3-4.5-4.5c0,0-0.1-0.1-0.1-0.1c0,0,0,0-0.1,0c-1.5,1-3.2,1.4-5,1.3
	c-0.5,0-1-0.1-1.4-0.2c-2.3-0.6-4.3-2.2-5.3-4.3c-0.5-1-0.8-2-0.8-3.1C6,14.7,6,14.7,6,14.6z M8.7,14.3c0,3,2.4,5.5,5.5,5.5
	c3,0,5.5-2.4,5.5-5.5c0-3-2.4-5.5-5.5-5.5C11.2,8.8,8.7,11.2,8.7,14.3z"/>
</svg>
