<svg xmlns="http://www.w3.org/2000/svg" width="256" height="256" viewBox="0 0 67.733 67.733"><path d="M8.467 8.467c0 46.735 25.4 50.8 25.4 50.8s25.4-3.584 25.4-50.8c-7.911 7.91-17.156 8.244-25.4 0-7.874 7.874-17.56 7.84-25.4 0zm25.324 8.466c1.482 0 2.963.175 4.445.525 1.482.335 2.949.838 4.402 1.509v6.297c-1.367-.977-2.755-1.72-4.165-2.23-1.41-.51-2.805-.766-4.186-.766-1.539 0-2.718.314-3.538.94-.82.627-1.23 1.524-1.23 2.69 0 .903.295 1.654.885 2.251.604.583 1.855 1.232 3.754 1.946l2.74 1.05c2.59.962 4.495 2.237 5.718 3.826 1.223 1.589 1.834 3.592 1.834 6.012 0 3.294-.964 5.758-2.891 7.39-1.913 1.618-4.812 2.427-8.696 2.427-1.597 0-3.2-.197-4.811-.59a20.924 20.924 0 01-4.639-1.705v-6.67c1.697 1.225 3.337 2.136 4.92 2.734 1.596.597 3.17.896 4.724.896 1.568 0 2.784-.357 3.647-1.07.863-.73 1.295-1.743 1.295-3.04 0-.976-.288-1.83-.863-2.558-.576-.743-1.41-1.326-2.503-1.75l-3.129-1.202c-3.208-1.239-5.38-2.536-6.516-3.891-1.136-1.37-1.705-3.207-1.705-5.51 0-2.959.935-5.284 2.805-6.974 1.87-1.691 4.438-2.537 7.703-2.537z" stroke="#000" stroke-width="0"/></svg>