<?xml version="1.0" encoding="utf-8"?>
<!-- Generator: Adobe Illustrator 18.1.1, SVG Export Plug-In . SVG Version: 6.00 Build 0)  -->
<svg version="1.1" id="Layer_1" xmlns="http://www.w3.org/2000/svg" xmlns:xlink="http://www.w3.org/1999/xlink" x="0px" y="0px"
	 viewBox="0 0 32 32" enable-background="new 0 0 32 32" xml:space="preserve">
<g>
	<g>
		<path d="M11.7,8.2c-1.1,0-2,0.8-2.1,1.9h0v0.2v1.6v0.2h0c0.1,1.1,1,1.9,2.1,1.9s2-0.8,2.1-1.9h0v-0.2v-1.6v-0.2h0
			C13.7,9,12.8,8.2,11.7,8.2z"/>
		<path d="M7,10.8v0.6c0,0.4,0.3,0.7,0.7,0.7H9v-2H7.7C7.3,10.1,7,10.4,7,10.8z"/>
		<path d="M24.3,10.1h-9.8v2h9.8c0.4,0,0.7-0.3,0.7-0.7v-0.6C25,10.4,24.7,10.1,24.3,10.1z"/>
	</g>
	<g>
		<path d="M20.3,14.1c-1.1,0-2,0.8-2.1,1.9h0v0.2v1.6V18h0c0.1,1.1,1,1.9,2.1,1.9s2-0.8,2.1-1.9h0v-0.2v-1.6V16h0
			C22.3,14.9,21.4,14.1,20.3,14.1z"/>
		<path d="M7,16.7v0.6C7,17.7,7.3,18,7.7,18h9.8v-2H7.7C7.3,16,7,16.3,7,16.7z"/>
		<path d="M24.3,16H23v2h1.3c0.4,0,0.7-0.3,0.7-0.7v-0.6C25,16.3,24.7,16,24.3,16z"/>
	</g>
	<g>
		<path d="M15,20c-1.1,0-2,0.8-2.1,1.9h0v0.2v1.6v0.2h0c0.1,1.1,1,1.9,2.1,1.9s2-0.8,2.1-1.9h0v-0.2v-1.6v-0.2h0
			C17,20.8,16.1,20,15,20z"/>
		<path d="M24.3,21.9h-6.6v2h6.6c0.4,0,0.7-0.3,0.7-0.7v-0.6C25,22.2,24.7,21.9,24.3,21.9z"/>
		<path d="M7,22.6v0.6c0,0.4,0.3,0.7,0.7,0.7h4.6v-2H7.7C7.3,21.9,7,22.2,7,22.6z"/>
	</g>
</g>
</svg>
