<svg version="1.1" viewBox="0 0 32 32" xmlns="http://www.w3.org/2000/svg"><path d="m14.42 9.31c-.26.1-.67.3-.91.44c-.14.08-.26.17-.38.26c-.22.17-.54.49-.71.71c-.08.1-.15.2-.22.3c-.15.23-.36.64-.43.91c-.04.14-.07.29-.09.44c-.04.28-.04.74-.01 1.01c.02.22.06.43.12.64c.07.27.26.69.41.92c.07.1.14.2.22.3c.17.22.51.52.74.68c.15.11.31.23.48.34c.23.16.63.36.89.47c.25.11.51.23.78.34c.26.1.69.23.94.35c.03.01.05.02.08.04c.67.2 1.16.58 1.46 1.11c.06.11.2.42.2.7c0 .12.07.48-.05.72c-.57 1.16-1.27 1.14-2.35 1.1c-.97-.22-1.35-.8-1.64-1.68c-.01-.04-.02-.08-.02-.12c-.05-.28-.27-.51-.55-.51h-1.61c-.28 0-.5.23-.49.51c.02.33.07.65.14.94c.06.27.23.7.36.95c.1.18.21.35.33.51c.18.22.54.49.76.65c.14.1.29.2.45.29c.24.14.66.31.92.41c.08.03.16.05.24.07c.27.06.5.28.5.56v.81c0 .28.22.51.5.51h1.11c.28 0 .5-.23.5-.51v-.81c0-.28.22-.54.49-.61c.13-.03.24-.07.35-.11c.26-.1.67-.28.91-.43c.55-.34.93-.77 1.29-1.27c.16-.23.39-.62.46-.89c.05-.17.08-.35.1-.54c.03-.28.03-.74 0-1.02c-.02-.19-.05-.37-.1-.54c-.07-.27-.27-.69-.42-.92c-.38-.6-.92-1.02-1.46-1.4c-.23-.16-.62-.39-.87-.51c-.61-.28-1.18-.46-1.8-.71c-.26-.1-.68-.26-.89-.44c-.16-.13-.45-.4-.6-.64c-.04-.07-.17-.34-.17-.62c0-.06-.02-.35.03-.62c.02-.12.15-.42.31-.65c.03-.04.21-.27.47-.34c.1-.03.4-.11.68-.12c.17-.01.54-.03.82.03c.12.02.42.16.64.33c.1.08.34.31.46.56c.07.16.19.52.2.8v.01c.02.28.23.51.51.51h1.61c.28 0 .51-.23.48-.51c-.02-.25-.06-.5-.12-.74c-.07-.27-.24-.7-.35-.95c-.07-.15-.14-.29-.23-.43c-.14-.24-.41-.61-.62-.8c-.11-.1-.22-.19-.34-.28c-.23-.16-.63-.37-.87-.51c-.09-.05-.18-.09-.28-.13c-.26-.1-.49-.36-.49-.64v-1.02c0-.28-.22-.51-.5-.51h-1.11c-.28 0-.5.23-.5.51v1.12c0 .28-.2.44-.45.56c-.1.05-.21.08-.31.11z" fill="#9bba4c"/></svg>
