<?xml version="1.0" encoding="utf-8"?>
<!-- Generator: Adobe Illustrator 18.1.1, SVG Export Plug-In . SVG Version: 6.00 Build 0)  -->
<svg version="1.1" id="Layer_1" xmlns="http://www.w3.org/2000/svg" xmlns:xlink="http://www.w3.org/1999/xlink" x="0px" y="0px"
	 viewBox="0 0 32 32" enable-background="new 0 0 32 32" xml:space="preserve">
<g>
	<path d="M7,22.4c0-4.2,0-8.6,0-12.8c0-0.1,0.1-0.1,0.1-0.2c0.2-0.7,0.6-1.4,1.3-1.8C8.8,7.4,9.2,7.2,9.6,7c4.2,0,8.6,0,12.8,0
		c0.1,0,0.1,0.1,0.2,0.1c0.9,0.3,1.6,0.9,2.1,1.7c0.1,0.3,0.2,0.5,0.4,0.7c0,4.2,0,8.6,0,12.8c0,0.1-0.1,0.1-0.1,0.2
		c-0.2,0.7-0.6,1.3-1.3,1.8c-0.4,0.3-0.8,0.5-1.3,0.6c-4.2,0-8.6,0-12.8,0c-0.1,0-0.1-0.1-0.2-0.1c-0.9-0.3-1.6-0.9-2.1-1.7
		C7.2,23,7.1,22.7,7,22.4z M9.8,11.9c0.9,1.1,1.7,2.2,2.6,3.2c0.1,0.1,0.3,0.2,0.4,0.2c2.2,0,4.2,0,6.4,0c0.1,0,0.3-0.1,0.4-0.1
		c0.9-1.1,1.7-2.2,2.6-3.2C19.2,8.4,13.1,8.1,9.8,11.9z"/>
	<path d="M18.3,10.4c-0.4,1.3-0.6,2.8-1,4.1c-0.6,0-1.3,0-1.9,0C16.5,13.1,17.4,11.7,18.3,10.4C18.3,10.4,18.3,10.4,18.3,10.4z"/>
</g>
</svg>
