<?xml version="1.0" encoding="utf-8"?>
<!-- Generator: Adobe Illustrator 18.1.1, SVG Export Plug-In . SVG Version: 6.00 Build 0)  -->
<svg version="1.1" id="Layer_1" xmlns="http://www.w3.org/2000/svg" xmlns:xlink="http://www.w3.org/1999/xlink" x="0px" y="0px"
	 viewBox="0 0 32 32" enable-background="new 0 0 32 32" xml:space="preserve">
<g>
	<path d="M16,19.7c-0.7,0-1.4,0-2.1,0c-0.7,0-0.8,0-0.9-0.7c-0.3-1.5-0.8-2.9-1.5-4.2c-0.4-0.7-0.7-1.4-1-2.2
		c-0.4-1.1-0.5-2.2-0.3-3.4c0.2-1.6,1.2-2.8,2.6-3.4c2.2-1,4.5-1,6.7,0.1c2,0.9,2.9,3,2.5,5.3c-0.2,1.5-0.8,2.7-1.5,4
		c-0.6,1.2-1.1,2.4-1.3,3.7c-0.2,0.9-0.2,0.9-1.1,0.9C17.3,19.7,16.6,19.7,16,19.7z"/>
	<path d="M15.9,27c-0.8,0-1.6,0-2.4,0c-0.4,0-0.6-0.1-0.6-0.6c0-1.3-0.2-1.2,1.2-1.2c1.4,0,2.8,0,4.3,0c0.5,0,0.6,0.2,0.6,0.6
		c0,1.1,0,1.1-1.1,1.1C17.3,27,16.6,27,15.9,27z"/>
	<path d="M16,23.4c-0.8,0-1.7,0-2.5,0c-0.4,0-0.5-0.1-0.5-0.5c0-1.3-0.1-1.2,1.1-1.2c1.4,0,2.9,0,4.3,0c0.4,0,0.6,0.2,0.6,0.6
		c0,1.2,0.1,1.1-1.1,1.1C17.3,23.4,16.6,23.4,16,23.4C16,23.4,16,23.4,16,23.4z"/>
</g>
</svg>
