<svg xmlns="http://www.w3.org/2000/svg" width="32" height="32" viewBox="0 0 32 32"><path d="m 14.481906,9.3075953 h 2.39873 v 1.4609487 h -2.39873 z m 5.26591,3.1573797 c 0,0 -2.533973,-1.571735 -2.533973,-1.571735 -0.09311,-0.09612 -0.04607,-1.7594113 -0.04607,-1.7594113 0,0 2.533485,-1.4265499 2.533485,-1.4265499 0,0 0.04655,4.7576962 0.04655,4.7576962 z m -8.151933,-0.04806 c 0,0 2.55013,-1.571734 2.55013,-1.571734 0.0937,-0.09612 0.04636,-1.7594119 0.04636,-1.7594119 0,0 -2.549637,-1.4265498 -2.549637,-1.4265498 0,0 -0.04685,4.7576957 -0.04685,4.7576957 z m 3.392004,0.485382 c 0,-0.361095 0.285139,-0.653582 0.637163,-0.653582 0.352023,0 0.637163,0.292487 0.637163,0.653582 0,0.361095 -0.28514,0.653583 -0.637163,0.653583 -0.352024,0 -0.637163,-0.292488 -0.637163,-0.653583 z m 0,3.988775 c 0,-0.361095 0.285139,-0.653582 0.637163,-0.653582 0.352023,0 0.637163,0.292487 0.637163,0.653582 0,0.361096 -0.28514,0.653583 -0.637163,0.653583 -0.352024,0 -0.637163,-0.292487 -0.637163,-0.653583 z m 0,3.988776 c 0,-0.361096 0.285139,-0.653583 0.637163,-0.653583 0.352023,0 0.637163,0.292487 0.637163,0.653583 0,0.361095 -0.28514,0.653582 -0.637163,0.653582 -0.352024,0 -0.637163,-0.292487 -0.637163,-0.653582 z M 10.280379,11.479795 M 25.22559,9.7497241 c 0,0 -2.764162,-2.5470493 -2.764162,-2.5470493 0,0 -1.546056,0 -1.546056,0 0,0 -0.796454,2.8353942 -0.796454,2.8353942 0,0 -0.04685,3.027625 -0.04685,3.027625 0,0 -0.749603,-0.432518 -0.749603,-0.432518 0,0 -3.466915,13.119707 -3.466915,13.119707 0,0 8.854688,-12.975534 8.854688,-12.975534 0,0 -1.218105,-1.441726 -1.218105,-1.441726 0,0 1.733457,-1.5858989 1.733457,-1.5858989 z M 6.1107115,9.7016665 c 0,0 2.7641617,-2.5470492 2.7641617,-2.5470492 0,0 1.5460568,0 1.5460568,0 0,0 0.796453,2.8353944 0.796453,2.8353944 0,0 0.04685,3.0276243 0.04685,3.0276243 0,0 0.749603,-0.432517 0.749603,-0.432517 0,0 3.466915,13.119706 3.466915,13.119706 0,0 -8.8546873,-12.975534 -8.8546873,-12.975534 0,0 1.2181051,-1.441726 1.2181051,-1.441726 0,0 -1.7334573,-1.5858985 -1.7334573,-1.5858985 z m 5.7859995,3.0997105" /></svg>