<?xml version="1.0" encoding="utf-8"?>
<!-- Generator: Adobe Illustrator 18.1.1, SVG Export Plug-In . SVG Version: 6.00 Build 0)  -->
<svg version="1.1" id="Layer_1" xmlns="http://www.w3.org/2000/svg" xmlns:xlink="http://www.w3.org/1999/xlink" x="0px" y="0px"
	 viewBox="0 0 32 32" enable-background="new 0 0 32 32" xml:space="preserve">
<path d="M9.6,11c0-0.1-0.1-0.1-0.1-0.2c-0.2-0.3-0.5-0.6-0.7-0.9C8.4,9.5,8.1,9.2,7.9,8.8c0,0,0,0,0,0c0.3,0.3,0.7,0.6,1,0.8
	C9.1,9.7,9.2,9.9,9.4,10c0.4,0.3,0.7,0.6,1.1,0.9c0.4,0.4,0.9,0.7,1.3,1c0.5,0.4,1,0.8,1.5,1.1c0.8,0.6,1.6,1.1,2.4,1.7
	c0-0.1,0-0.1,0-0.1c-0.6-0.7-1.2-1.4-1.9-2.1c-0.4-0.5-0.8-1-1.2-1.4c-0.3-0.4-0.7-0.9-1-1.3c0-0.1-0.1-0.1-0.1-0.2
	c-0.3-0.4-0.6-0.8-0.9-1.2c-0.1-0.2-0.3-0.4-0.4-0.7c0,0,0,0,0,0c0.5,0.4,0.9,0.9,1.4,1.3c0.5,0.5,1.1,1,1.6,1.5
	c0.4,0.3,0.8,0.7,1.2,1c0.4,0.3,0.8,0.6,1.2,0.9c0.3,0.2,0.5,0.4,0.8,0.6c1.1,0.8,2.2,1.6,3.4,2.4c0.1,0.1,0.2,0.1,0.2-0.1
	c0.4-1,0.5-2,0.5-3.1c0-0.9-0.2-1.9-0.5-2.7C20,9.3,19.9,9,19.8,8.7c-0.2-0.4-0.4-0.9-0.7-1.3C19,7,18.7,6.6,18.4,6.3
	c0-0.1-0.1-0.1-0.1-0.2c0.4,0.2,0.7,0.4,1,0.6c1.5,1.1,2.7,2.4,3.7,3.9c0,0,0,0,0,0c0.3,0.6,0.7,1.3,0.9,1.9c0.4,1,0.7,2.1,0.7,3.2
	c0,0,0,0.1,0,0.1c0,0.4,0,0.9-0.1,1.3c-0.1,0.4-0.1,0.8-0.2,1.2c0,0.1,0,0.2,0.1,0.3c0.8,1,1.3,2.1,1.5,3.3c0.1,0.3,0.1,0.6,0.1,1
	c0,0.3,0,0.5-0.1,0.8c0,0.1,0,0.1-0.1,0.1c-0.1,0-0.1-0.1-0.1-0.1c-0.4-0.8-1-1.4-1.9-1.5c-0.8-0.2-1.5,0-2.2,0.3
	c-0.5,0.2-0.9,0.5-1.3,0.6c-1.4,0.6-2.9,0.8-4.4,0.6c-1-0.1-2-0.3-3-0.7c0,0,0,0-0.1,0c-0.6-0.3-1.2-0.5-1.8-0.8
	c-2-1.1-3.6-2.6-4.9-4.5c0,0-0.1-0.1-0.1-0.1c0.1,0,0.1,0,0.2,0.1c0.3,0.2,0.6,0.4,1,0.6c0.4,0.2,0.8,0.5,1.2,0.6
	c0.5,0.3,1.1,0.5,1.7,0.6c0.1,0.1,0.1,0,0.2,0.1c1,0.3,2.1,0.4,3.2,0.4c1.3-0.1,2.5-0.4,3.6-1c0.2-0.1,0.2-0.1,0-0.2
	c-0.7-0.5-1.3-1.1-2-1.7c-0.5-0.4-0.9-0.9-1.4-1.3c-0.4-0.3-0.7-0.7-1-1.1c-0.2-0.3-0.5-0.5-0.7-0.8c-0.4-0.4-0.8-0.9-1.2-1.3
	c-0.3-0.4-0.6-0.7-0.9-1.1C9.9,11.3,9.7,11.1,9.6,11z"/>
</svg>
