<?xml version="1.0" encoding="UTF-8" standalone="no"?>
<!-- Generator: Adobe Illustrator 19.2.1, SVG Export Plug-In . SVG Version: 6.00 Build 0)  -->

<svg
   xmlns:dc="http://purl.org/dc/elements/1.1/"
   xmlns:cc="http://creativecommons.org/ns#"
   xmlns:rdf="http://www.w3.org/1999/02/22-rdf-syntax-ns#"
   xmlns:svg="http://www.w3.org/2000/svg"
   xmlns="http://www.w3.org/2000/svg"
   xmlns:sodipodi="http://sodipodi.sourceforge.net/DTD/sodipodi-0.dtd"
   xmlns:inkscape="http://www.inkscape.org/namespaces/inkscape"
   version="1.1"
   id="Layer_1"
   x="0px"
   y="0px"
   viewBox="0 0 32 32"
   style="enable-background:new 0 0 32 32;"
   xml:space="preserve"
   inkscape:version="0.91 r13725"
   sodipodi:docname="tex.svg"><metadata
     id="metadata11"><rdf:RDF><cc:Work
         rdf:about=""><dc:format>image/svg+xml</dc:format><dc:type
           rdf:resource="http://purl.org/dc/dcmitype/StillImage" /><dc:title></dc:title></cc:Work></rdf:RDF></metadata><defs
     id="defs9" /><sodipodi:namedview
     pagecolor="#ffffff"
     bordercolor="#666666"
     borderopacity="1"
     objecttolerance="10"
     gridtolerance="10"
     guidetolerance="10"
     inkscape:pageopacity="0"
     inkscape:pageshadow="2"
     inkscape:window-width="1303"
     inkscape:window-height="746"
     id="namedview7"
     showgrid="false"
     inkscape:zoom="16.766602"
     inkscape:cx="15.455277"
     inkscape:cy="12.422063"
     inkscape:window-x="55"
     inkscape:window-y="-8"
     inkscape:window-maximized="1"
     inkscape:current-layer="Layer_1" /><style
     type="text/css"
     id="style3">
	.st0{stroke:#000000;stroke-miterlimit:10;}
</style><g
     id="g3353"
     transform="matrix(0.01850576,0,0,0.01850559,6.5146884,10.538814)"><path
       id="path3341"
       d="m 364.09,23.89 -349.27,0 -10.21,133.77 10.87,0 C 23.3,57.47 31.89,39.93 125.69,39.93 c 10.87,0 28.53,0 33.39,0 11.55,1.81 11.55,9.16 11.55,23.08 l 0,329.26 c 0,21.86 -1.83,28.53 -52.78,28.53 l -17.17,0 0,14.61 c 29.02,-0.56 59.26,-1.15 88.93,-1.15 29.58,0 59.91,0.59 88.91,1.15 l 0,-14.61 -16.88,0 c -50.19,0 -52,-6.67 -52,-28.53 l 0,-329.25 c 0,-13.36 0,-20.61 10.89,-23.08 l 33.19,0 c 92.55,0 101.61,17.44 109.42,117.73 l 10.89,0"
       inkscape:connector-curvature="0" /><path
       id="path3343"
       d="m 667.6,414.32 -10.87,0 c -13.26,89.69 -21.08,138.44 -127.47,138.44 l -83.95,0 c -24.16,0 -25.3,-3.05 -25.3,-23.86 l 0,-169.07 57.06,0 c 57.06,0 62.5,20.91 62.5,71.96 l 9.72,0 0,-157.35 -9.72,0 c 0,50.19 -5.45,70.71 -62.5,70.71 l -57.07,0 0,-149.9 c 0,-20.42 1.15,-23.47 25.3,-23.47 l 82.7,0 c 93.6,0 104.49,37.2 112.97,117.17 l 10.9,0 -14.51,-133.78 -306.26,0 0,16.61 c 42.84,0 49.7,0 49.7,27.19 l 0,326.42 c 0,27.19 -6.77,27.19 -49.7,27.19 l 0,14.61 314.76,0"
       inkscape:connector-curvature="0" /><path
       id="path3345"
       d="M 830.66,206.51 920.15,77.13 c 8.96,-12.7 27.19,-38.84 76.82,-39.5 l 0,-14.6 c -13.85,1.15 -36.83,1.15 -51.34,1.15 -19.93,0 -44.75,0 -59.82,-1.15 l 0,14.61 c 19.37,1.81 24.13,13.92 24.13,23.67 0,7.23 -2.96,12.11 -7.25,18.12 L 822.84,195.25 733.35,64.26 c -4.2,-6.59 -4.79,-8.5 -4.79,-10.31 0,-5.45 6.59,-15.75 26.62,-16.32 l 0,-14.6 c -19.37,1.15 -48.95,1.15 -68.88,1.15 -15.66,0 -45.89,0 -60.5,-1.15 l 0,14.61 c 33.22,0 44.09,1.25 57.45,20.03 L 799.93,229.04 694.71,382.75 C 668.75,420.34 629.45,421 617.89,421 l 0,14.61 c 13.82,-1.15 36.83,-1.15 51.34,-1.15 16.32,0 44.75,0 59.82,1.15 l 0,-14.61 c -18.71,-1.81 -24.13,-13.92 -24.13,-23.67 0,-7.82 2.96,-12.11 6.01,-16.41 l 96.75,-141.2 105.22,154.66 c 4.76,6.69 4.76,8.5 4.76,10.31 0,4.76 -5.42,15.17 -26.6,16.41 l 0,14.61 c 19.37,-1.15 48.95,-1.15 68.88,-1.15 15.66,0 45.89,0 60.57,1.15 l 0,-14.61 c -38.74,0 -44.84,-2.96 -56.86,-20.03"
       inkscape:connector-curvature="0" /></g></svg>