<?xml version="1.0" encoding="utf-8"?>
<!-- Generator: Adobe Illustrator 18.1.1, SVG Export Plug-In . SVG Version: 6.00 Build 0)  -->
<svg version="1.1" id="Layer_1" xmlns="http://www.w3.org/2000/svg" xmlns:xlink="http://www.w3.org/1999/xlink" x="0px" y="0px"
	 viewBox="0 0 32 32" enable-background="new 0 0 32 32" xml:space="preserve">
<g>
	<path d="M16,7c1.9,0,3.8,0,5.7,0c1.6,0,2.9,1.1,3.2,2.6C25,9.8,25,10.1,25,10.2c0,3.8,0,7.6,0,11.4c0,1.6-1.1,3-2.7,3.2
		c-0.2,0-0.4,0.1-0.6,0.1c-3.8,0-7.5,0-11.3,0c-2,0-3.4-1.4-3.4-3.3c0-3.8,0-7.6,0-11.3c0-1.7,1.1-3,2.7-3.3c0.2,0,0.4,0,0.7,0
		C12.3,7,14.1,7,16,7z M9.7,16c0,1.9,0,3.8,0,5.7c0,0.4,0.2,0.6,0.7,0.6c3.8,0,7.5,0,11.2,0c0.4,0,0.7-0.3,0.7-0.7
		c0-3.7,0-7.5,0-11.2c-0.1-0.5-0.3-0.7-0.8-0.7c-3.7,0-7.5,0-11.2,0c-0.5,0-0.7,0.2-0.7,0.7C9.7,12.2,9.7,14.1,9.7,16z"/>
	<path d="M12.1,14.7c0.2,0.1,0.3,0.1,0.5,0.2c0.7,0.3,1.4,0.7,2.1,1c0.2,0.1,0.2,0.1,0.3,0c1.5-1.1,2.9-2.2,4.4-3.2
		c0.2-0.2,0.4-0.2,0.5-0.3c0.3-0.1,0.5,0.2,0.5,0.5c-0.1,0.2-0.2,0.3-0.2,0.4c-0.7,0.9-1.3,1.8-2,2.8c-0.8,1.1-1.5,2.1-2.3,3.1
		c-0.5,0.8-1.3,0.7-1.8-0.1c-0.8-1.2-1.5-2.2-2.3-3.4c-0.1-0.1-0.2-0.2-0.2-0.3C11.5,15,11.7,14.7,12.1,14.7z"/>
</g>
</svg>
