<svg height="32" viewBox="0 0 32 32" width="32" xmlns="http://www.w3.org/2000/svg"><path d="m2 0h28c1.1045695 0 2 .8954305 2 2v28c0 1.1045695-.8954305 2-2 2h-28c-1.1045695 0-2-.8954305-2-2v-28c0-1.1045695.8954305-2 2-2zm16 16.751046v-2.751046h-11v2.751046h3.927193v12.248954h3.1263158v-12.248954zm1.0609756 12.3858387c.5284579.2877065 1.1534517.5034832 1.875.6473365.7215483.1438532 1.4820421.2157788 2.2815041.2157788.7791367 0 1.5193054-.0791181 2.2205284-.2373567s1.3160543-.4189687 1.8445122-.7821983c.528458-.3632295.9468142-.8379381 1.2550813-1.4241402.3082672-.5862021.4623984-1.3108521.4623984-2.1739717 0-.6257617-.088075-1.1741941-.2642276-1.6453135-.1761527-.4711195-.4302152-.8900859-.7621952-1.2569117-.3319799-.3668259-.7300112-.6958853-1.1941057-.9871881-.4640944-.2913029-.9874632-.5664182-1.5701219-.8253541-.4268314-.1870092-.8096189-.3686212-1.148374-.5448415-.3387551-.1762202-.6266926-.3560341-.8638211-.5394471-.2371286-.1834129-.4200536-.3776119-.5487805-.5826028s-.1930894-.4369508-.1930894-.6958867c0-.2373579.0575875-.4513364.1727642-.641942s.2777767-.3542362.4878049-.4908968c.2100281-.1366607.4674781-.2427508.7723577-.3182738s.6436296-.1132839 1.0162601-.1132839c.2710041 0 .5572479.0215777.8587399.0647336.301492.043156.6046733.1096872.9095528.1995955.3048796.0899083.6012859.203191.8892277.3398516s.5538605.2948968.7977642.4747134v-3.2258934c-.4945824-.2013946-1.0348887-.3506401-1.620935-.4477411-.5860463-.0971009-1.258465-.1456507-2.0172764-.1456507-.7723616 0-1.5040616.0881088-2.1951219.2643291-.6910604.1762202-1.2991167.4513355-1.824187.825354-.5250704.3740185-.9400392.8505253-1.2449187 1.4295347-.3048796.5790094-.4573171 1.2712929-.4573171 2.0768712 0 1.0285509.2794688 1.9060427.8384146 2.6325017.5589459.726459 1.4075147 1.3414225 2.5457317 1.844909.4471567.1942019.8638192.3848046 1.25.5718139.3861808.1870092.7198496.3812082 1.0010163.5826028s.503048.4207675.6656504.6581254.2439024.5070787.2439024.8091706c0 .2229726-.0508125.4297586-.152439.6203641-.1016265.1906056-.2557578.3560344-.4623984.4962913-.2066406.140257-.4640906.2499434-.7723577.3290627s-.6690358.1186784-1.082317.1186784c-.7046106 0-1.4024356-.1312641-2.093496-.3937964-.6910603-.2625322-1.3312978-.6563246-1.9207317-1.181389z" fill="#529bba" fill-rule="evenodd"/></svg>
