<?xml version="1.0" encoding="UTF-8"?>
<svg width="18px" height="18px" viewBox="0 0 18 18" version="1.1" xmlns="http://www.w3.org/2000/svg" xmlns:xlink="http://www.w3.org/1999/xlink">
    <!-- Generator: Sketch 55.2 (78181) - https://sketchapp.com -->
    <title>tsconfig</title>
    <desc>Created with Sketch.</desc>
    <g id="Page-1" stroke="none" stroke-width="1" fill="none" fill-rule="evenodd">
        <g id="tsconfig" fill="#529BBA">
            <path d="M1.125,0 L16.875,0 C17.4963203,0 18,0.503679656 18,1.125 L18,16.875 C18,17.4963203 17.4963203,18 16.875,18 L1.125,18 C0.503679656,18 0,17.4963203 0,16.875 L0,1.125 C0,0.503679656 0.503679656,0 1.125,0 Z M10.125,9.4224375 L10.125,7.875 L3.9375,7.875 L3.9375,9.4224375 L6.1464375,9.4224375 L6.1464375,16.3125 L7.905375,16.3125 L7.905375,9.4224375 L10.125,9.4224375 Z M10.7218125,16.3895625 C11.0188125,16.5515625 11.370375,16.6725 11.7765,16.7535 C12.182625,16.8345 12.610125,16.875 13.0595625,16.875 C13.4983125,16.875 13.9145625,16.83 14.308875,16.7416875 C14.7031875,16.653375 15.049125,16.5054375 15.3466875,16.30125 C15.6443743,16.0964607 15.8868683,15.821312 16.052625,15.50025 C16.225875,15.170625 16.3125,14.763375 16.3125,14.277375 C16.3125,13.9258125 16.263,13.617 16.164,13.3520625 C16.0674828,13.0912168 15.9219975,12.8512233 15.735375,12.645 C15.5379195,12.4298963 15.3117232,12.2430714 15.0631875,12.0898125 C14.7801612,11.9144282 14.4850449,11.7593511 14.1800625,11.62575 C13.9404375,11.5205625 13.7244375,11.417625 13.5343125,11.3191875 C13.3636566,11.2324948 13.2010203,11.1308471 13.0483125,11.0154375 C12.915,10.9125 12.8120625,10.803375 12.7395,10.6880625 C12.6669375,10.57275 12.6309375,10.44225 12.6309375,10.2965625 C12.6309375,10.1626875 12.6635625,10.0423125 12.72825,9.9354375 C12.7929375,9.8285625 12.884625,9.7363125 13.00275,9.65925 C13.120875,9.5821875 13.2654375,9.5225625 13.437,9.480375 C13.6085625,9.4381875 13.79925,9.41625 14.0085,9.41625 C14.3452915,9.41927705 14.6800154,9.46925844 15.003,9.56475 C15.175125,9.615375 15.341625,9.6795 15.503625,9.756 C15.665625,9.8325 15.81525,9.9219375 15.9525,10.0231875 L15.9525,8.2085625 C15.658849,8.0911312 15.3530233,8.00679802 15.0406875,7.957125 C14.6653527,7.89902962 14.2859138,7.87156403 13.906125,7.875 C13.4713125,7.875 13.0595625,7.9245 12.670875,8.0235 C12.28275,8.1230625 11.9401875,8.27775 11.644875,8.488125 C11.3509344,8.69690042 11.1108866,8.97261794 10.9445625,9.2925 C10.773,9.617625 10.6875,10.006875 10.6875,10.46025 C10.6875,11.0390625 10.845,11.532375 11.158875,11.9413125 C11.473875,12.3496875 11.950875,12.695625 12.591,12.9785625 C12.8424375,13.08825 13.077,13.195125 13.294125,13.3003125 C13.51125,13.4055 13.699125,13.5151875 13.8571875,13.62825 C14.01525,13.7413125 14.140125,13.8645 14.2318125,13.998375 C14.3235,14.13225 14.3690625,14.2835625 14.3690625,14.454 C14.371461,14.7093475 14.24028,14.947393 14.023125,15.08175 C13.9066875,15.1605 13.762125,15.222375 13.588875,15.2668125 C13.415625,15.31125 13.212,15.33375 12.9796875,15.33375 C12.5769999,15.3324839 12.1779598,15.257366 11.802375,15.112125 C11.4044057,14.9587542 11.0381028,14.7333664 10.7218125,14.44725 L10.7218125,16.3895625 Z" id="Shape"></path>
        </g>
    </g>
</svg>