<svg height="32" viewBox="0 0 32 32" width="32" xmlns="http://www.w3.org/2000/svg"><path d="M2 0h28a2 2 0 0 1 2 2v28a2 2 0 0 1-2 2H2a2 2 0 0 1-2-2V2a2 2 0 0 1 2-2zm16 16.751V14H7v2.751h3.927V29h3.127V16.751zm1.061 12.386c.528.288 1.153.503 1.875.647.722.144 1.482.216 2.281.216.78 0 1.52-.08 2.221-.237s1.316-.42 1.845-.783a3.9 3.9 0 0 0 1.255-1.424c.308-.586.462-1.31.462-2.174 0-.625-.088-1.174-.264-1.645a3.88 3.88 0 0 0-.762-1.257 5.642 5.642 0 0 0-1.195-.987 12.511 12.511 0 0 0-1.57-.825c-.426-.187-.81-.37-1.148-.545a5.759 5.759 0 0 1-.864-.54c-.237-.183-.42-.377-.549-.582s-.193-.437-.193-.696c0-.238.058-.452.173-.642s.278-.354.488-.491c.21-.137.467-.243.772-.318s.644-.114 1.016-.114a6.44 6.44 0 0 1 1.768.264c.306.09.602.204.89.34s.554.295.798.475v-3.226a7.566 7.566 0 0 0-1.621-.447A12.45 12.45 0 0 0 24.722 14c-.773 0-1.505.088-2.196.264-.69.177-1.299.452-1.824.826a4.04 4.04 0 0 0-1.245 1.43c-.305.578-.457 1.27-.457 2.076 0 1.029.28 1.906.838 2.633.56.726 1.408 1.341 2.546 1.844.447.195.864.385 1.25.572.386.187.72.382 1.001.583s.503.42.666.658.244.507.244.81a1.298 1.298 0 0 1-.615 1.116c-.207.14-.464.25-.772.329s-.67.119-1.083.119a5.854 5.854 0 0 1-2.093-.394 6.172 6.172 0 0 1-1.921-1.182z" fill="#529bba" fill-rule="evenodd"/></svg>