<svg xmlns="http://www.w3.org/2000/svg" width="32" height="32" fill="none"><path fill="#529BBA" d="M9.3 11.9H5.9v10.2H3.4V11.9H0v-1.8h9.2v1.8h.1zM17 19c0-.5-.2-.8-.5-1.1-.3-.3-.9-.5-1.7-.8-1.4-.4-2.5-.9-3.3-1.5-.7-.6-1.1-1.3-1.1-2.3 0-1 .4-1.8 1.3-2.4.8-.6 1.9-.9 3.2-.9 1.3 0 2.4.4 3.2 1.1.8.7 1.2 1.6 1.2 2.6H17c0-.6-.2-1-.6-1.4-.4-.3-.9-.5-1.6-.5-.6 0-1.1.1-1.5.4-.4.3-.5.7-.5 1.1 0 .4.2.7.6 1 .4.3 1 .5 2 .8 1.3.4 2.3.9 3 1.5.7.6 1 1.4 1 2.4s-.4 1.9-1.2 2.4c-.8.6-1.9.9-3.2.9-1.3 0-2.5-.3-3.4-1-.9-.7-1.5-1.6-1.4-2.9h2.4c0 .7.2 1.2.7 1.6.4.3 1.1.5 1.8.5s1.2-.1 1.5-.4c.2-.3.4-.7.4-1.1zm3 3h3.049l2.451-4.182L27.951 22H31l-3.49-6.046L31 10h-3.155L25.5 14.062 23.155 10H20l3.49 5.954L20 22z"/></svg>