<svg xmlns="http://www.w3.org/2000/svg" width="256" height="256" viewBox="0 0 67.733 67.733"><path d="m 33.8665,8.466625 c -14.027964,0 -25.399875,11.37191 -25.399875,25.39987 0,14.02797 11.371911,25.39988 25.399875,25.39988 14.027965,0 25.399875,-11.37191 25.399875,-25.39988 0,-14.02796 -11.37191,-25.39987 -25.399875,-25.39987 z m 0,4.23331 c 11.68997,0 21.166563,9.4766 21.166563,21.16656 -0.0071,4.8108 -1.652733,9.47568 -4.665844,13.22601 -1.3484,-6.00956 -5.811385,-10.62889 -11.447821,-12.40539 a 10.583264,10.583264 0 0 1 -0.252181,0.1447 10.583264,10.583264 0 0 1 -0.965828,0.43201 10.583264,10.583264 0 0 1 -1.004068,0.33383 10.583264,10.583264 0 0 1 -1.031973,0.23151 10.583264,10.583264 0 0 1 -1.05006,0.12764 10.583264,10.583264 0 0 1 -0.748788,0.0264 10.583264,10.583264 0 0 1 -1.056778,-0.0527 10.583264,10.583264 0 0 1 -1.045927,-0.15813 10.583264,10.583264 0 0 1 -1.024737,-0.262 10.583264,10.583264 0 0 1 -0.993733,-0.36276 10.583264,10.583264 0 0 1 -0.948775,-0.45786 c -5.635212,1.77979 -10.095803,6.4021 -11.440589,12.41314 -3.011801,-3.75441 -4.654092,-8.42318 -4.656024,-13.23634 10e-7,-11.68996 9.476593,-21.16656 21.166563,-21.16656 z m 0,4.23332 c -4.675987,0 -8.466625,3.79063 -8.466625,8.46662 0,4.67599 3.790638,8.46662 8.466625,8.46662 4.675987,0 8.466625,-3.79063 8.466625,-8.46662 0,-4.67599 -3.790638,-8.46662 -8.466625,-8.46662 z" stroke="#000" stroke-width="0"/></svg>
