<?xml version="1.0" encoding="utf-8"?>
<!-- Generator: Adobe Illustrator 18.1.1, SVG Export Plug-In . SVG Version: 6.00 Build 0)  -->
<svg version="1.1" id="Layer_1" xmlns="http://www.w3.org/2000/svg" xmlns:xlink="http://www.w3.org/1999/xlink" x="0px" y="0px"
	 viewBox="0 0 32 32" enable-background="new 0 0 32 32" xml:space="preserve">
<g>
	<path d="M17.2,12.8c0.9,0,1.7,0.1,2.5,0.3c0.2,0.1,0.3,0.1,0.5,0.2c1.2,0.6,1.3,1.7,0.9,2.6c-0.2,0.6-0.7,1-1.1,1.4
		c-0.8,0.7-1.7,1.2-2.6,1.8c-0.7,0.5-1.5,0.9-2.1,1.5c-0.2,0.2-0.3,0.4-0.5,0.6c-0.2,0.3-0.2,0.7-0.1,1c0.3,0.6,0.9,1.1,1.6,1.3
		c0.8,0.2,1.4-0.3,1.5-1.1c0-0.1,0-0.3,0-0.4c0-0.3,0.1-0.5,0.3-0.7c0.3-0.2,0.7-0.4,1.1-0.5c0.5-0.1,1.1-0.2,1.6-0.1
		c0.1,0,0.2,0,0.3,0.1c0.5,0.2,0.6,0.5,0.5,1c-0.3,1.2-0.9,2.1-1.8,2.9c-0.8,0.7-1.7,1.1-2.7,1.2c-0.8,0.1-1.6,0-2.4-0.3
		c-2.6-1-4.4-2.9-5.3-5.6c-0.6-2,0-3.8,1.6-5.1c1.1-1,2.5-1.5,3.9-1.8c0.4-0.1,0.8-0.2,1.2-0.2C16.6,12.8,17,12.8,17.2,12.8z"/>
	<path d="M18.5,9.9c0.1-1.4,0.7-2.7,2.1-3.5C21.4,6,22.2,5.9,23,6.1c0.9,0.2,1.2,0.7,1.1,1.6c-0.1,0.6-0.4,1.1-0.7,1.5
		c-0.6,0.8-1.2,1.6-2.1,2.1c-0.4,0.3-0.8,0.5-1.3,0.6c-0.6,0.1-1.1-0.1-1.3-0.7C18.6,10.9,18.5,10.5,18.5,9.9z"/>
	<path d="M17.1,8.2c0,0.9-0.2,1.7-0.7,2.4c-0.1,0.2-0.2,0.3-0.4,0.4c-0.3,0.3-0.7,0.3-1,0c-0.3-0.3-0.4-0.6-0.5-0.9
		c-0.2-0.7-0.3-1.4-0.1-2.2c0.2-0.7,0.7-1.1,1.5-1.1c0.5,0,0.9,0.2,1,0.6C17,7.5,17,7.6,17,7.7C17,7.9,17,8,17.1,8.2z"/>
	<path d="M13,10.3c0,0.5,0,1-0.3,1.4c-0.2,0.5-0.6,0.6-1.1,0.2c-0.6-0.5-0.9-1.1-1-1.8c0-0.2,0-0.5,0-0.7c0.1-0.6,0.6-1.1,1.2-1.1
		c0.3,0,0.6,0.1,0.8,0.4C12.9,9.1,13,9.5,13,10C13,10.1,13,10.2,13,10.3z"/>
	<path d="M10.2,13.2c0,0.2-0.1,0.5-0.2,0.7c-0.1,0.3-0.3,0.4-0.6,0.3c-0.1,0-0.1,0-0.2-0.1c-0.8-0.3-1.4-1.4-1.4-2.2
		c0-0.5,0.4-0.9,0.8-1.1c0.3-0.1,0.6,0,0.9,0.3c0.4,0.4,0.5,1,0.6,1.5C10.2,12.9,10.2,13,10.2,13.2C10.2,13.2,10.2,13.2,10.2,13.2z"
		/>
</g>
</svg>
