<?xml version="1.0" encoding="utf-8"?>
<!-- Generator: Adobe Illustrator 18.1.1, SVG Export Plug-In . SVG Version: 6.00 Build 0)  -->
<svg version="1.1" id="Layer_1" xmlns="http://www.w3.org/2000/svg" xmlns:xlink="http://www.w3.org/1999/xlink" x="0px" y="0px"
	 viewBox="0 0 32 32" enable-background="new 0 0 32 32" xml:space="preserve">
<path d="M16,25c-4.9,0-9.1-4.1-9-9.2C7.1,11,11,7,16.1,7c4.9,0,9,4.1,8.9,9.2C24.9,21,20.9,25,16,25z M12.8,10.4c0,0,0,0.1,0,0.1
	c0,2.8,0,5.5,0,8.3c0,0.9,0,1.7,0,2.6c0,0,0,0.1,0,0.1c0,0,0.1,0,0.1,0c0,0,0,0,0,0c2.7-1.8,5.4-3.6,8.1-5.4c0.1-0.1,0.1-0.1,0-0.1
	c-2.7-1.8-5.4-3.6-8.2-5.4C12.9,10.5,12.9,10.4,12.8,10.4z"/>
</svg>
