<?xml version="1.0" encoding="utf-8"?>
<!-- Generator: Adobe Illustrator 18.1.1, SVG Export Plug-In . SVG Version: 6.00 Build 0)  -->
<svg version="1.1" id="Layer_1" xmlns="http://www.w3.org/2000/svg" xmlns:xlink="http://www.w3.org/1999/xlink" x="0px" y="0px"
	 viewBox="0 0 32 32" enable-background="new 0 0 32 32" xml:space="preserve">
<path fill="#EF7623" d="M9.7,9.6c7.2-0.1,12.9,6.2,12.7,12.7c-0.9,0-1.7,0-2.6,0c-0.1-2.8-1-5.1-2.9-7.1s-4.4-2.9-7.1-2.9
	C9.7,11.4,9.7,10.5,9.7,9.6z M18.3,22.4c-0.9,0-1.8,0-2.6,0c-0.1-0.5-0.2-1.1-0.3-1.6c-0.8-2.4-2.3-3.8-4.8-4.3
	c-0.2-0.1-0.4-0.1-0.7-0.1c-0.2,0-0.2-0.1-0.2-0.2c0-0.8,0-1.6,0-2.5c2.1,0,3.9,0.7,5.5,2C17.2,17.5,18.2,19.7,18.3,22.4z
	 M13.2,20.6c0,1-0.8,1.8-1.8,1.8c-1,0-1.7-0.8-1.8-1.8c0-1,0.8-1.8,1.8-1.8S13.2,19.6,13.2,20.6L13.2,20.6z"/>
</svg>
