<svg width="63.999" height="66.819" xmlns="http://www.w3.org/2000/svg"><g stroke-width=".1"><path d="M49 29.254a2.758 2.758 0 11-5.517 0 2.758 2.758 0 115.516 0" fill="#4597d9"/><path d="M41.558 17.277L37.539 15l-8.093 16.4L20.812 15l-4.07 2.277 10.261 19.278c-.074.183-.309.688-.705 1.524-.4.796-.814 1.593-1.25 2.39-.762 1.376-1.536 2.495-2.333 3.365-.797.906-1.611 1.628-2.447 2.173a10.77 10.77 0 01-2.603 1.25 22.98 22.98 0 01-2.665.705l1.85 3.857c.58-.074 1.354-.257 2.334-.544 1.014-.253 2.116-.744 3.313-1.467 1.193-.723 2.408-1.755 3.636-3.096 1.27-1.34 2.446-3.113 3.53-5.32l11.895-24.115" fill="#fff"/></g></svg>